<svg xmlns="http://www.w3.org/2000/svg" xmlns:xlink="http://www.w3.org/1999/xlink" width="200" zoomAndPan="magnify" viewBox="0 0 150 56.249996" height="75" preserveAspectRatio="xMidYMid meet" version="1.0"><defs><g/><clipPath id="d0c7fabf06"><path d="M 4.714844 6.449219 L 143.828125 6.449219 L 143.828125 48.644531 L 4.714844 48.644531 Z M 4.714844 6.449219 " clip-rule="nonzero"/></clipPath><clipPath id="c5d51d01bb"><path d="M 8.867188 6.449219 L 139.613281 6.449219 C 140.714844 6.449219 141.769531 6.886719 142.550781 7.667969 C 143.328125 8.445312 143.765625 9.503906 143.765625 10.601562 L 143.765625 44.492188 C 143.765625 45.59375 143.328125 46.652344 142.550781 47.429688 C 141.769531 48.207031 140.714844 48.644531 139.613281 48.644531 L 8.867188 48.644531 C 7.765625 48.644531 6.710938 48.207031 5.933594 47.429688 C 5.152344 46.652344 4.714844 45.59375 4.714844 44.492188 L 4.714844 10.601562 C 4.714844 9.503906 5.152344 8.445312 5.933594 7.667969 C 6.710938 6.886719 7.765625 6.449219 8.867188 6.449219 Z M 8.867188 6.449219 " clip-rule="nonzero"/></clipPath></defs><g clip-path="url(#d0c7fabf06)"><g clip-path="url(#c5d51d01bb)"><path fill="#ffffff" d="M 4.714844 6.449219 L 143.828125 6.449219 L 143.828125 48.644531 L 4.714844 48.644531 Z M 4.714844 6.449219 " fill-opacity="1" fill-rule="nonzero"/></g></g><g fill="#303030" fill-opacity="1"><g transform="translate(11.227239, 28.950317)"><g><path d="M 8.703125 -15.34375 L 8.703125 -12.734375 L 4.09375 -12.734375 L 4.09375 -9.359375 L 8.421875 -9.359375 L 8.421875 -6.75 L 4.09375 -6.75 L 4.09375 0 L 1.09375 0 L 1.09375 -15.34375 Z M 8.703125 -15.34375 "/></g></g></g><g fill="#303030" fill-opacity="1"><g transform="translate(20.642871, 28.950317)"><g><path d="M 7.65625 -9.984375 L 10.453125 -9.984375 L 10.453125 0 L 7.65625 0 L 7.65625 -0.921875 L 7.609375 -0.921875 C 7.304688 -0.523438 6.90625 -0.21875 6.40625 0 C 5.914062 0.21875 5.414062 0.328125 4.90625 0.328125 C 3.582031 0.328125 2.484375 -0.1875 1.609375 -1.21875 C 0.742188 -2.257812 0.3125 -3.535156 0.3125 -5.046875 C 0.3125 -5.984375 0.5 -6.847656 0.875 -7.640625 C 1.25 -8.441406 1.785156 -9.085938 2.484375 -9.578125 C 3.191406 -10.066406 3.984375 -10.3125 4.859375 -10.3125 C 5.378906 -10.3125 5.882812 -10.203125 6.375 -9.984375 C 6.875 -9.765625 7.300781 -9.453125 7.65625 -9.046875 Z M 5.53125 -7.796875 C 4.894531 -7.796875 4.34375 -7.519531 3.875 -6.96875 C 3.414062 -6.414062 3.1875 -5.757812 3.1875 -5 C 3.1875 -4.238281 3.414062 -3.582031 3.875 -3.03125 C 4.34375 -2.476562 4.898438 -2.203125 5.546875 -2.203125 C 6.210938 -2.203125 6.773438 -2.472656 7.234375 -3.015625 C 7.703125 -3.566406 7.9375 -4.226562 7.9375 -5 C 7.9375 -5.78125 7.703125 -6.441406 7.234375 -6.984375 C 6.765625 -7.523438 6.195312 -7.796875 5.53125 -7.796875 Z M 5.53125 -7.796875 "/></g></g></g><g fill="#303030" fill-opacity="1"><g transform="translate(32.132788, 28.950317)"><g><path d="M 0.890625 -14.171875 C 0.890625 -14.617188 1.050781 -15.015625 1.375 -15.359375 C 1.707031 -15.703125 2.109375 -15.875 2.578125 -15.875 C 3.054688 -15.875 3.457031 -15.703125 3.78125 -15.359375 C 4.101562 -15.015625 4.265625 -14.617188 4.265625 -14.171875 C 4.265625 -13.703125 4.101562 -13.300781 3.78125 -12.96875 C 3.457031 -12.644531 3.054688 -12.484375 2.578125 -12.484375 C 2.109375 -12.484375 1.707031 -12.644531 1.375 -12.96875 C 1.050781 -13.300781 0.890625 -13.703125 0.890625 -14.171875 Z M 4 -9.984375 L 4 0 L 1.15625 0 L 1.15625 -9.984375 Z M 4 -9.984375 "/></g></g></g><g fill="#303030" fill-opacity="1"><g transform="translate(37.277831, 28.950317)"><g><path d="M 9.78125 -9.984375 L 4.71875 -2.40625 L 9.453125 -2.40625 L 9.453125 0 L -0.015625 0 L 5.09375 -7.59375 L 0.765625 -7.59375 L 0.765625 -9.984375 Z M 9.78125 -9.984375 "/></g></g></g><g fill="#303030" fill-opacity="1"><g transform="translate(47.059511, 28.950317)"><g><path d="M 7.65625 -9.984375 L 10.453125 -9.984375 L 10.453125 0 L 7.65625 0 L 7.65625 -0.921875 L 7.609375 -0.921875 C 7.304688 -0.523438 6.90625 -0.21875 6.40625 0 C 5.914062 0.21875 5.414062 0.328125 4.90625 0.328125 C 3.582031 0.328125 2.484375 -0.1875 1.609375 -1.21875 C 0.742188 -2.257812 0.3125 -3.535156 0.3125 -5.046875 C 0.3125 -5.984375 0.5 -6.847656 0.875 -7.640625 C 1.25 -8.441406 1.785156 -9.085938 2.484375 -9.578125 C 3.191406 -10.066406 3.984375 -10.3125 4.859375 -10.3125 C 5.378906 -10.3125 5.882812 -10.203125 6.375 -9.984375 C 6.875 -9.765625 7.300781 -9.453125 7.65625 -9.046875 Z M 5.53125 -7.796875 C 4.894531 -7.796875 4.34375 -7.519531 3.875 -6.96875 C 3.414062 -6.414062 3.1875 -5.757812 3.1875 -5 C 3.1875 -4.238281 3.414062 -3.582031 3.875 -3.03125 C 4.34375 -2.476562 4.898438 -2.203125 5.546875 -2.203125 C 6.210938 -2.203125 6.773438 -2.472656 7.234375 -3.015625 C 7.703125 -3.566406 7.9375 -4.226562 7.9375 -5 C 7.9375 -5.78125 7.703125 -6.441406 7.234375 -6.984375 C 6.765625 -7.523438 6.195312 -7.796875 5.53125 -7.796875 Z M 5.53125 -7.796875 "/></g></g></g><g fill="#303030" fill-opacity="1"><g transform="translate(58.549427, 28.950317)"><g><path d="M 9.96875 0 L 7.125 0 L 7.125 -5.78125 C 7.125 -6.507812 7.015625 -7.066406 6.796875 -7.453125 C 6.578125 -7.835938 6.171875 -8.03125 5.578125 -8.03125 C 5.035156 -8.03125 4.613281 -7.816406 4.3125 -7.390625 C 4.007812 -6.960938 3.859375 -6.222656 3.859375 -5.171875 L 3.859375 0 L 1.015625 0 L 1.015625 -9.984375 L 3.859375 -9.984375 L 3.859375 -9.078125 L 3.90625 -9.078125 C 4.207031 -9.523438 4.585938 -9.84375 5.046875 -10.03125 C 5.503906 -10.21875 5.992188 -10.3125 6.515625 -10.3125 C 7.660156 -10.3125 8.519531 -9.960938 9.09375 -9.265625 C 9.675781 -8.566406 9.96875 -7.539062 9.96875 -6.1875 Z M 9.96875 0 "/></g></g></g><g fill="#303030" fill-opacity="1"><g transform="translate(69.530944, 28.950317)"><g><path d="M 5.84375 -7.6875 L 5.84375 -5.34375 L 0.875 -5.34375 L 0.875 -7.6875 Z M 5.84375 -7.6875 "/></g></g></g><g fill="#303030" fill-opacity="1"><g transform="translate(76.241869, 28.950317)"><g><path d="M 3.3125 -4.53125 C 3.3125 -3.707031 3.488281 -3.050781 3.84375 -2.5625 C 4.195312 -2.082031 4.679688 -1.84375 5.296875 -1.84375 C 5.765625 -1.84375 6.148438 -1.972656 6.453125 -2.234375 C 6.765625 -2.492188 7.015625 -2.820312 7.203125 -3.21875 L 9.828125 -2.78125 C 9.472656 -1.769531 8.890625 -1 8.078125 -0.46875 C 7.273438 0.0625 6.347656 0.328125 5.296875 0.328125 C 3.816406 0.328125 2.613281 -0.148438 1.6875 -1.109375 C 0.769531 -2.078125 0.3125 -3.34375 0.3125 -4.90625 C 0.3125 -6.539062 0.742188 -7.847656 1.609375 -8.828125 C 2.472656 -9.816406 3.648438 -10.3125 5.140625 -10.3125 C 6.640625 -10.3125 7.804688 -9.828125 8.640625 -8.859375 C 9.472656 -7.898438 9.890625 -6.539062 9.890625 -4.78125 L 9.890625 -4.53125 Z M 7.203125 -6.3125 C 7.109375 -6.9375 6.882812 -7.425781 6.53125 -7.78125 C 6.175781 -8.144531 5.765625 -8.328125 5.296875 -8.328125 C 4.847656 -8.328125 4.445312 -8.160156 4.09375 -7.828125 C 3.738281 -7.503906 3.503906 -7 3.390625 -6.3125 Z M 7.203125 -6.3125 "/></g></g></g><g fill="#303030" fill-opacity="1"><g transform="translate(86.430273, 28.950317)"><g><path d="M 5.84375 -7.6875 L 5.84375 -5.34375 L 0.875 -5.34375 L 0.875 -7.6875 Z M 5.84375 -7.6875 "/></g></g></g><g fill="#303030" fill-opacity="1"><g transform="translate(93.141195, 28.950317)"><g><path d="M 5.234375 -15.34375 C 6.847656 -15.34375 8.09375 -14.941406 8.96875 -14.140625 C 9.84375 -13.347656 10.28125 -12.207031 10.28125 -10.71875 C 10.28125 -9.632812 9.984375 -8.6875 9.390625 -7.875 C 8.796875 -7.070312 8.046875 -6.601562 7.140625 -6.46875 L 11.46875 0 L 7.859375 0 L 4.125 -6.1875 L 4.09375 -6.1875 L 4.09375 0 L 1.09375 0 L 1.09375 -15.34375 Z M 4.09375 -8.28125 L 4.421875 -8.28125 C 5.441406 -8.28125 6.171875 -8.46875 6.609375 -8.84375 C 7.054688 -9.226562 7.28125 -9.828125 7.28125 -10.640625 C 7.28125 -11.441406 7.0625 -12.015625 6.625 -12.359375 C 6.195312 -12.710938 5.472656 -12.890625 4.453125 -12.890625 L 4.09375 -12.890625 Z M 4.09375 -8.28125 "/></g></g></g><g fill="#303030" fill-opacity="1"><g transform="translate(104.488763, 28.950317)"><g><path d="M 7.65625 -9.984375 L 10.453125 -9.984375 L 10.453125 0 L 7.65625 0 L 7.65625 -0.921875 L 7.609375 -0.921875 C 7.304688 -0.523438 6.90625 -0.21875 6.40625 0 C 5.914062 0.21875 5.414062 0.328125 4.90625 0.328125 C 3.582031 0.328125 2.484375 -0.1875 1.609375 -1.21875 C 0.742188 -2.257812 0.3125 -3.535156 0.3125 -5.046875 C 0.3125 -5.984375 0.5 -6.847656 0.875 -7.640625 C 1.25 -8.441406 1.785156 -9.085938 2.484375 -9.578125 C 3.191406 -10.066406 3.984375 -10.3125 4.859375 -10.3125 C 5.378906 -10.3125 5.882812 -10.203125 6.375 -9.984375 C 6.875 -9.765625 7.300781 -9.453125 7.65625 -9.046875 Z M 5.53125 -7.796875 C 4.894531 -7.796875 4.34375 -7.519531 3.875 -6.96875 C 3.414062 -6.414062 3.1875 -5.757812 3.1875 -5 C 3.1875 -4.238281 3.414062 -3.582031 3.875 -3.03125 C 4.34375 -2.476562 4.898438 -2.203125 5.546875 -2.203125 C 6.210938 -2.203125 6.773438 -2.472656 7.234375 -3.015625 C 7.703125 -3.566406 7.9375 -4.226562 7.9375 -5 C 7.9375 -5.78125 7.703125 -6.441406 7.234375 -6.984375 C 6.765625 -7.523438 6.195312 -7.796875 5.53125 -7.796875 Z M 5.53125 -7.796875 "/></g></g></g><g fill="#303030" fill-opacity="1"><g transform="translate(115.978675, 28.950317)"><g><path d="M 9.78125 -9.984375 L 4.71875 -2.40625 L 9.453125 -2.40625 L 9.453125 0 L -0.015625 0 L 5.09375 -7.59375 L 0.765625 -7.59375 L 0.765625 -9.984375 Z M 9.78125 -9.984375 "/></g></g></g><g fill="#303030" fill-opacity="1"><g transform="translate(125.760354, 28.950317)"><g><path d="M 7.65625 -9.984375 L 10.453125 -9.984375 L 10.453125 0 L 7.65625 0 L 7.65625 -0.921875 L 7.609375 -0.921875 C 7.304688 -0.523438 6.90625 -0.21875 6.40625 0 C 5.914062 0.21875 5.414062 0.328125 4.90625 0.328125 C 3.582031 0.328125 2.484375 -0.1875 1.609375 -1.21875 C 0.742188 -2.257812 0.3125 -3.535156 0.3125 -5.046875 C 0.3125 -5.984375 0.5 -6.847656 0.875 -7.640625 C 1.25 -8.441406 1.785156 -9.085938 2.484375 -9.578125 C 3.191406 -10.066406 3.984375 -10.3125 4.859375 -10.3125 C 5.378906 -10.3125 5.882812 -10.203125 6.375 -9.984375 C 6.875 -9.765625 7.300781 -9.453125 7.65625 -9.046875 Z M 5.53125 -7.796875 C 4.894531 -7.796875 4.34375 -7.519531 3.875 -6.96875 C 3.414062 -6.414062 3.1875 -5.757812 3.1875 -5 C 3.1875 -4.238281 3.414062 -3.582031 3.875 -3.03125 C 4.34375 -2.476562 4.898438 -2.203125 5.546875 -2.203125 C 6.210938 -2.203125 6.773438 -2.472656 7.234375 -3.015625 C 7.703125 -3.566406 7.9375 -4.226562 7.9375 -5 C 7.9375 -5.78125 7.703125 -6.441406 7.234375 -6.984375 C 6.765625 -7.523438 6.195312 -7.796875 5.53125 -7.796875 Z M 5.53125 -7.796875 "/></g></g></g><g fill="#c34d8f" fill-opacity="1"><g transform="translate(21.099388, 42.313975)"><g><path d="M 1.328125 -6.125 L 1.328125 0 L 0.5625 0 L 0.5625 -6.125 Z M 1.328125 -6.125 "/></g></g></g><g fill="#c34d8f" fill-opacity="1"><g transform="translate(23.494709, 42.313975)"><g><path d="M 3.75 -2.3125 L 3.75 0 L 3.015625 0 L 3.015625 -2.21875 C 3.015625 -2.59375 2.953125 -2.859375 2.828125 -3.015625 C 2.710938 -3.179688 2.492188 -3.265625 2.171875 -3.265625 C 1.847656 -3.265625 1.609375 -3.160156 1.453125 -2.953125 C 1.304688 -2.753906 1.234375 -2.394531 1.234375 -1.875 L 1.234375 0 L 0.5 0 L 0.5 -3.796875 L 1.234375 -3.796875 L 1.234375 -3.296875 L 1.25 -3.296875 C 1.375 -3.492188 1.535156 -3.644531 1.734375 -3.75 C 1.941406 -3.863281 2.160156 -3.921875 2.390625 -3.921875 C 2.859375 -3.921875 3.203125 -3.785156 3.421875 -3.515625 C 3.640625 -3.242188 3.75 -2.84375 3.75 -2.3125 Z M 3.75 -2.3125 "/></g></g></g><g fill="#c34d8f" fill-opacity="1"><g transform="translate(28.252597, 42.313975)"><g><path d="M 2.625 -3.25 L 2.03125 -2.9375 C 1.988281 -3.03125 1.925781 -3.109375 1.84375 -3.171875 C 1.757812 -3.234375 1.660156 -3.265625 1.546875 -3.265625 C 1.441406 -3.265625 1.347656 -3.226562 1.265625 -3.15625 C 1.179688 -3.082031 1.140625 -2.992188 1.140625 -2.890625 C 1.140625 -2.773438 1.191406 -2.671875 1.296875 -2.578125 C 1.410156 -2.492188 1.582031 -2.40625 1.8125 -2.3125 L 2.03125 -2.203125 C 2.332031 -2.078125 2.550781 -1.929688 2.6875 -1.765625 C 2.832031 -1.597656 2.90625 -1.382812 2.90625 -1.125 C 2.90625 -0.769531 2.773438 -0.472656 2.515625 -0.234375 C 2.265625 0.00390625 1.957031 0.125 1.59375 0.125 C 1.300781 0.125 1.035156 0.046875 0.796875 -0.109375 C 0.554688 -0.265625 0.382812 -0.46875 0.28125 -0.71875 L 0.90625 -1 C 0.988281 -0.863281 1.082031 -0.75 1.1875 -0.65625 C 1.289062 -0.5625 1.425781 -0.515625 1.59375 -0.515625 C 1.757812 -0.515625 1.894531 -0.5625 2 -0.65625 C 2.113281 -0.757812 2.171875 -0.894531 2.171875 -1.0625 C 2.171875 -1.164062 2.140625 -1.25 2.078125 -1.3125 C 2.023438 -1.375 1.914062 -1.453125 1.75 -1.546875 L 1.1875 -1.859375 C 0.945312 -1.984375 0.765625 -2.113281 0.640625 -2.25 C 0.523438 -2.394531 0.46875 -2.582031 0.46875 -2.8125 C 0.46875 -3.113281 0.578125 -3.375 0.796875 -3.59375 C 1.015625 -3.8125 1.273438 -3.921875 1.578125 -3.921875 C 1.816406 -3.921875 2.023438 -3.859375 2.203125 -3.734375 C 2.378906 -3.617188 2.519531 -3.457031 2.625 -3.25 Z M 2.625 -3.25 "/></g></g></g><g fill="#c34d8f" fill-opacity="1"><g transform="translate(31.881973, 42.313975)"><g><path d="M 1.34375 -5.25 L 1.34375 -3.796875 L 2.0625 -3.796875 L 2.0625 -3.125 L 1.34375 -3.125 L 1.34375 0 L 0.609375 0 L 0.609375 -3.125 L 0.21875 -3.125 L 0.21875 -3.796875 L 0.609375 -3.796875 L 0.609375 -5.25 Z M 1.34375 -5.25 "/></g></g></g><g fill="#c34d8f" fill-opacity="1"><g transform="translate(34.342243, 42.313975)"><g><path d="M 1.53125 -5.546875 C 1.53125 -5.398438 1.484375 -5.28125 1.390625 -5.1875 C 1.296875 -5.09375 1.175781 -5.046875 1.03125 -5.046875 C 0.894531 -5.046875 0.773438 -5.09375 0.671875 -5.1875 C 0.578125 -5.28125 0.53125 -5.398438 0.53125 -5.546875 C 0.53125 -5.679688 0.578125 -5.796875 0.671875 -5.890625 C 0.773438 -5.992188 0.894531 -6.046875 1.03125 -6.046875 C 1.175781 -6.046875 1.296875 -5.992188 1.390625 -5.890625 C 1.484375 -5.796875 1.53125 -5.679688 1.53125 -5.546875 Z M 1.390625 -3.796875 L 1.390625 0 L 0.671875 0 L 0.671875 -3.796875 Z M 1.390625 -3.796875 "/></g></g></g><g fill="#c34d8f" fill-opacity="1"><g transform="translate(36.916174, 42.313975)"><g><path d="M 1.34375 -5.25 L 1.34375 -3.796875 L 2.0625 -3.796875 L 2.0625 -3.125 L 1.34375 -3.125 L 1.34375 0 L 0.609375 0 L 0.609375 -3.125 L 0.21875 -3.125 L 0.21875 -3.796875 L 0.609375 -3.796875 L 0.609375 -5.25 Z M 1.34375 -5.25 "/></g></g></g><g fill="#c34d8f" fill-opacity="1"><g transform="translate(39.376444, 42.313975)"><g><path d="M 1.203125 -3.796875 L 1.203125 -1.671875 C 1.203125 -1.273438 1.273438 -0.988281 1.421875 -0.8125 C 1.578125 -0.632812 1.796875 -0.546875 2.078125 -0.546875 C 2.398438 -0.546875 2.625 -0.644531 2.75 -0.84375 C 2.882812 -1.039062 2.953125 -1.316406 2.953125 -1.671875 L 2.953125 -3.796875 L 3.6875 -3.796875 L 3.6875 -1.578125 C 3.6875 -1.035156 3.546875 -0.613281 3.265625 -0.3125 C 2.992188 -0.0195312 2.597656 0.125 2.078125 0.125 C 1.546875 0.125 1.144531 -0.0234375 0.875 -0.328125 C 0.601562 -0.640625 0.46875 -1.0625 0.46875 -1.59375 L 0.46875 -3.796875 Z M 1.203125 -3.796875 "/></g></g></g><g fill="#c34d8f" fill-opacity="1"><g transform="translate(44.045027, 42.313975)"><g><path d="M 1.34375 -5.25 L 1.34375 -3.796875 L 2.0625 -3.796875 L 2.0625 -3.125 L 1.34375 -3.125 L 1.34375 0 L 0.609375 0 L 0.609375 -3.125 L 0.21875 -3.125 L 0.21875 -3.796875 L 0.609375 -3.796875 L 0.609375 -5.25 Z M 1.34375 -5.25 "/></g></g></g><g fill="#c34d8f" fill-opacity="1"><g transform="translate(46.505296, 42.313975)"><g><path d="M 3.84375 -1.84375 L 3.84375 -1.78125 L 0.9375 -1.78125 C 0.945312 -1.414062 1.0625 -1.113281 1.28125 -0.875 C 1.5 -0.632812 1.769531 -0.515625 2.09375 -0.515625 C 2.375 -0.515625 2.597656 -0.582031 2.765625 -0.71875 C 2.929688 -0.851562 3.082031 -1.035156 3.21875 -1.265625 L 3.84375 -0.90625 C 3.664062 -0.582031 3.421875 -0.328125 3.109375 -0.140625 C 2.796875 0.0351562 2.453125 0.125 2.078125 0.125 C 1.535156 0.125 1.085938 -0.0546875 0.734375 -0.421875 C 0.390625 -0.785156 0.21875 -1.269531 0.21875 -1.875 C 0.21875 -2.488281 0.378906 -2.984375 0.703125 -3.359375 C 1.035156 -3.734375 1.488281 -3.921875 2.0625 -3.921875 C 2.613281 -3.921875 3.046875 -3.738281 3.359375 -3.375 C 3.679688 -3.007812 3.84375 -2.5 3.84375 -1.84375 Z M 3.109375 -2.328125 C 3.066406 -2.617188 2.953125 -2.847656 2.765625 -3.015625 C 2.585938 -3.191406 2.351562 -3.28125 2.0625 -3.28125 C 1.78125 -3.28125 1.539062 -3.1875 1.34375 -3 C 1.144531 -2.820312 1.023438 -2.597656 0.984375 -2.328125 Z M 3.109375 -2.328125 "/></g></g></g><g fill="#c34d8f" fill-opacity="1"><g transform="translate(50.97903, 42.313975)"><g/></g></g><g fill="#c34d8f" fill-opacity="1"><g transform="translate(53.83712, 42.313975)"><g><path d="M 2.390625 -7.046875 L 2.390625 -6.3125 L 2.140625 -6.421875 C 2.054688 -6.453125 1.976562 -6.46875 1.90625 -6.46875 C 1.726562 -6.46875 1.59375 -6.390625 1.5 -6.234375 C 1.414062 -6.085938 1.375 -5.84375 1.375 -5.5 L 1.375 -3.796875 L 2.390625 -3.796875 L 2.390625 -3.125 L 1.375 -3.125 L 1.375 0 L 0.65625 0 L 0.65625 -3.125 L 0.3125 -3.125 L 0.3125 -3.796875 L 0.65625 -3.796875 L 0.65625 -5.6875 C 0.65625 -6.144531 0.753906 -6.503906 0.953125 -6.765625 C 1.148438 -7.023438 1.457031 -7.15625 1.875 -7.15625 C 2.050781 -7.15625 2.222656 -7.117188 2.390625 -7.046875 Z M 2.390625 -7.046875 "/></g></g></g><g fill="#c34d8f" fill-opacity="1"><g transform="translate(56.581547, 42.313975)"><g><path d="M 2.1875 0.125 C 1.820312 0.125 1.484375 0.0390625 1.171875 -0.125 C 0.867188 -0.300781 0.625 -0.546875 0.4375 -0.859375 C 0.25 -1.171875 0.15625 -1.515625 0.15625 -1.890625 C 0.15625 -2.265625 0.242188 -2.601562 0.421875 -2.90625 C 0.597656 -3.207031 0.84375 -3.453125 1.15625 -3.640625 C 1.46875 -3.828125 1.8125 -3.921875 2.1875 -3.921875 C 2.570312 -3.921875 2.921875 -3.820312 3.234375 -3.625 C 3.554688 -3.4375 3.800781 -3.191406 3.96875 -2.890625 C 4.132812 -2.585938 4.21875 -2.253906 4.21875 -1.890625 C 4.21875 -1.535156 4.132812 -1.203125 3.96875 -0.890625 C 3.8125 -0.585938 3.570312 -0.34375 3.25 -0.15625 C 2.9375 0.03125 2.582031 0.125 2.1875 0.125 Z M 3.5 -1.890625 C 3.5 -2.265625 3.367188 -2.578125 3.109375 -2.828125 C 2.847656 -3.085938 2.539062 -3.21875 2.1875 -3.21875 C 1.851562 -3.21875 1.550781 -3.085938 1.28125 -2.828125 C 1.019531 -2.578125 0.890625 -2.265625 0.890625 -1.890625 C 0.890625 -1.535156 1.019531 -1.222656 1.28125 -0.953125 C 1.539062 -0.691406 1.84375 -0.5625 2.1875 -0.5625 C 2.550781 -0.5625 2.859375 -0.691406 3.109375 -0.953125 C 3.367188 -1.222656 3.5 -1.535156 3.5 -1.890625 Z M 3.5 -1.890625 "/></g></g></g><g fill="#c34d8f" fill-opacity="1"><g transform="translate(61.477458, 42.313975)"><g><path d="M 2.953125 -3.734375 L 2.609375 -3.0625 C 2.546875 -3.125 2.472656 -3.164062 2.390625 -3.1875 C 2.316406 -3.207031 2.242188 -3.21875 2.171875 -3.21875 C 1.867188 -3.21875 1.644531 -3.109375 1.5 -2.890625 C 1.351562 -2.671875 1.28125 -2.34375 1.28125 -1.90625 L 1.28125 0 L 0.546875 0 L 0.546875 -3.796875 L 1.28125 -3.796875 L 1.28125 -3.1875 L 1.3125 -3.1875 C 1.40625 -3.414062 1.539062 -3.59375 1.71875 -3.71875 C 1.894531 -3.851562 2.101562 -3.921875 2.34375 -3.921875 C 2.445312 -3.921875 2.550781 -3.898438 2.65625 -3.859375 C 2.757812 -3.828125 2.859375 -3.785156 2.953125 -3.734375 Z M 2.953125 -3.734375 "/></g></g></g><g fill="#c34d8f" fill-opacity="1"><g transform="translate(64.838913, 42.313975)"><g/></g></g><g fill="#c34d8f" fill-opacity="1"><g transform="translate(67.697001, 42.313975)"><g><path d="M 1.265625 -7.046875 L 1.265625 0 L 0.53125 0 L 0.53125 -7.046875 Z M 1.265625 -7.046875 "/></g></g></g><g fill="#c34d8f" fill-opacity="1"><g transform="translate(70.011128, 42.313975)"><g><path d="M 3.84375 -1.84375 L 3.84375 -1.78125 L 0.9375 -1.78125 C 0.945312 -1.414062 1.0625 -1.113281 1.28125 -0.875 C 1.5 -0.632812 1.769531 -0.515625 2.09375 -0.515625 C 2.375 -0.515625 2.597656 -0.582031 2.765625 -0.71875 C 2.929688 -0.851562 3.082031 -1.035156 3.21875 -1.265625 L 3.84375 -0.90625 C 3.664062 -0.582031 3.421875 -0.328125 3.109375 -0.140625 C 2.796875 0.0351562 2.453125 0.125 2.078125 0.125 C 1.535156 0.125 1.085938 -0.0546875 0.734375 -0.421875 C 0.390625 -0.785156 0.21875 -1.269531 0.21875 -1.875 C 0.21875 -2.488281 0.378906 -2.984375 0.703125 -3.359375 C 1.035156 -3.734375 1.488281 -3.921875 2.0625 -3.921875 C 2.613281 -3.921875 3.046875 -3.738281 3.359375 -3.375 C 3.679688 -3.007812 3.84375 -2.5 3.84375 -1.84375 Z M 3.109375 -2.328125 C 3.066406 -2.617188 2.953125 -2.847656 2.765625 -3.015625 C 2.585938 -3.191406 2.351562 -3.28125 2.0625 -3.28125 C 1.78125 -3.28125 1.539062 -3.1875 1.34375 -3 C 1.144531 -2.820312 1.023438 -2.597656 0.984375 -2.328125 Z M 3.109375 -2.328125 "/></g></g></g><g fill="#c34d8f" fill-opacity="1"><g transform="translate(74.48486, 42.313975)"><g><path d="M 3.328125 -3.171875 L 3.34375 -3.171875 L 3.34375 -3.796875 L 4.078125 -3.796875 L 4.078125 0 L 3.34375 0 L 3.34375 -0.59375 L 3.328125 -0.59375 C 3.179688 -0.375 3 -0.195312 2.78125 -0.0625 C 2.5625 0.0625 2.3125 0.125 2.03125 0.125 C 1.488281 0.125 1.050781 -0.0664062 0.71875 -0.453125 C 0.382812 -0.847656 0.21875 -1.335938 0.21875 -1.921875 C 0.21875 -2.296875 0.296875 -2.632812 0.453125 -2.9375 C 0.617188 -3.25 0.835938 -3.488281 1.109375 -3.65625 C 1.378906 -3.832031 1.675781 -3.921875 2 -3.921875 C 2.28125 -3.921875 2.53125 -3.851562 2.75 -3.71875 C 2.976562 -3.582031 3.171875 -3.398438 3.328125 -3.171875 Z M 3.375 -1.90625 C 3.375 -2.3125 3.257812 -2.640625 3.03125 -2.890625 C 2.800781 -3.140625 2.503906 -3.265625 2.140625 -3.265625 C 1.796875 -3.265625 1.507812 -3.128906 1.28125 -2.859375 C 1.050781 -2.597656 0.9375 -2.28125 0.9375 -1.90625 C 0.9375 -1.507812 1.050781 -1.175781 1.28125 -0.90625 C 1.507812 -0.644531 1.796875 -0.515625 2.140625 -0.515625 C 2.515625 -0.515625 2.8125 -0.644531 3.03125 -0.90625 C 3.257812 -1.164062 3.375 -1.5 3.375 -1.90625 Z M 3.375 -1.90625 "/></g></g></g><g fill="#c34d8f" fill-opacity="1"><g transform="translate(79.510668, 42.313975)"><g><path d="M 2.953125 -3.734375 L 2.609375 -3.0625 C 2.546875 -3.125 2.472656 -3.164062 2.390625 -3.1875 C 2.316406 -3.207031 2.242188 -3.21875 2.171875 -3.21875 C 1.867188 -3.21875 1.644531 -3.109375 1.5 -2.890625 C 1.351562 -2.671875 1.28125 -2.34375 1.28125 -1.90625 L 1.28125 0 L 0.546875 0 L 0.546875 -3.796875 L 1.28125 -3.796875 L 1.28125 -3.1875 L 1.3125 -3.1875 C 1.40625 -3.414062 1.539062 -3.59375 1.71875 -3.71875 C 1.894531 -3.851562 2.101562 -3.921875 2.34375 -3.921875 C 2.445312 -3.921875 2.550781 -3.898438 2.65625 -3.859375 C 2.757812 -3.828125 2.859375 -3.785156 2.953125 -3.734375 Z M 2.953125 -3.734375 "/></g></g></g><g fill="#c34d8f" fill-opacity="1"><g transform="translate(82.872124, 42.313975)"><g><path d="M 3.75 -2.3125 L 3.75 0 L 3.015625 0 L 3.015625 -2.21875 C 3.015625 -2.59375 2.953125 -2.859375 2.828125 -3.015625 C 2.710938 -3.179688 2.492188 -3.265625 2.171875 -3.265625 C 1.847656 -3.265625 1.609375 -3.160156 1.453125 -2.953125 C 1.304688 -2.753906 1.234375 -2.394531 1.234375 -1.875 L 1.234375 0 L 0.5 0 L 0.5 -3.796875 L 1.234375 -3.796875 L 1.234375 -3.296875 L 1.25 -3.296875 C 1.375 -3.492188 1.535156 -3.644531 1.734375 -3.75 C 1.941406 -3.863281 2.160156 -3.921875 2.390625 -3.921875 C 2.859375 -3.921875 3.203125 -3.785156 3.421875 -3.515625 C 3.640625 -3.242188 3.75 -2.84375 3.75 -2.3125 Z M 3.75 -2.3125 "/></g></g></g><g fill="#c34d8f" fill-opacity="1"><g transform="translate(87.630014, 42.313975)"><g><path d="M 1.53125 -5.546875 C 1.53125 -5.398438 1.484375 -5.28125 1.390625 -5.1875 C 1.296875 -5.09375 1.175781 -5.046875 1.03125 -5.046875 C 0.894531 -5.046875 0.773438 -5.09375 0.671875 -5.1875 C 0.578125 -5.28125 0.53125 -5.398438 0.53125 -5.546875 C 0.53125 -5.679688 0.578125 -5.796875 0.671875 -5.890625 C 0.773438 -5.992188 0.894531 -6.046875 1.03125 -6.046875 C 1.175781 -6.046875 1.296875 -5.992188 1.390625 -5.890625 C 1.484375 -5.796875 1.53125 -5.679688 1.53125 -5.546875 Z M 1.390625 -3.796875 L 1.390625 0 L 0.671875 0 L 0.671875 -3.796875 Z M 1.390625 -3.796875 "/></g></g></g><g fill="#c34d8f" fill-opacity="1"><g transform="translate(90.203943, 42.313975)"><g><path d="M 3.75 -2.3125 L 3.75 0 L 3.015625 0 L 3.015625 -2.21875 C 3.015625 -2.59375 2.953125 -2.859375 2.828125 -3.015625 C 2.710938 -3.179688 2.492188 -3.265625 2.171875 -3.265625 C 1.847656 -3.265625 1.609375 -3.160156 1.453125 -2.953125 C 1.304688 -2.753906 1.234375 -2.394531 1.234375 -1.875 L 1.234375 0 L 0.5 0 L 0.5 -3.796875 L 1.234375 -3.796875 L 1.234375 -3.296875 L 1.25 -3.296875 C 1.375 -3.492188 1.535156 -3.644531 1.734375 -3.75 C 1.941406 -3.863281 2.160156 -3.921875 2.390625 -3.921875 C 2.859375 -3.921875 3.203125 -3.785156 3.421875 -3.515625 C 3.640625 -3.242188 3.75 -2.84375 3.75 -2.3125 Z M 3.75 -2.3125 "/></g></g></g><g fill="#c34d8f" fill-opacity="1"><g transform="translate(94.961833, 42.313975)"><g><path d="M 3.3125 -3.15625 L 3.328125 -3.15625 L 3.328125 -3.796875 L 4.0625 -3.796875 L 4.0625 -0.03125 C 4.0625 0.71875 3.910156 1.269531 3.609375 1.625 C 3.316406 1.988281 2.847656 2.171875 2.203125 2.171875 C 1.660156 2.171875 1.222656 2.015625 0.890625 1.703125 C 0.554688 1.390625 0.382812 0.972656 0.375 0.453125 L 1.109375 0.453125 C 1.109375 0.785156 1.210938 1.046875 1.421875 1.234375 C 1.628906 1.429688 1.90625 1.53125 2.25 1.53125 C 2.632812 1.53125 2.910156 1.414062 3.078125 1.1875 C 3.242188 0.96875 3.328125 0.628906 3.328125 0.171875 L 3.328125 -0.59375 L 3.3125 -0.59375 C 3.164062 -0.375 2.984375 -0.195312 2.765625 -0.0625 C 2.546875 0.0625 2.296875 0.125 2.015625 0.125 C 1.492188 0.125 1.0625 -0.0625 0.71875 -0.4375 C 0.375 -0.820312 0.203125 -1.316406 0.203125 -1.921875 C 0.203125 -2.484375 0.375 -2.957031 0.71875 -3.34375 C 1.0625 -3.726562 1.484375 -3.921875 1.984375 -3.921875 C 2.273438 -3.921875 2.535156 -3.847656 2.765625 -3.703125 C 2.992188 -3.566406 3.175781 -3.382812 3.3125 -3.15625 Z M 3.375 -1.90625 C 3.375 -2.3125 3.253906 -2.640625 3.015625 -2.890625 C 2.785156 -3.140625 2.488281 -3.265625 2.125 -3.265625 C 1.78125 -3.265625 1.492188 -3.128906 1.265625 -2.859375 C 1.046875 -2.597656 0.9375 -2.28125 0.9375 -1.90625 C 0.9375 -1.507812 1.046875 -1.175781 1.265625 -0.90625 C 1.492188 -0.644531 1.785156 -0.515625 2.140625 -0.515625 C 2.503906 -0.515625 2.800781 -0.644531 3.03125 -0.90625 C 3.257812 -1.164062 3.375 -1.5 3.375 -1.90625 Z M 3.375 -1.90625 "/></g></g></g><g fill="#c34d8f" fill-opacity="1"><g transform="translate(99.979524, 42.313975)"><g/></g></g><g fill="#c34d8f" fill-opacity="1"><g transform="translate(102.837612, 42.313975)"><g><path d="M 5.609375 -0.796875 L 6.5625 0.125 L 5.640625 0.125 L 5.109375 -0.421875 C 4.859375 -0.242188 4.582031 -0.109375 4.28125 -0.015625 C 3.976562 0.078125 3.671875 0.125 3.359375 0.125 C 2.773438 0.125 2.234375 -0.015625 1.734375 -0.296875 C 1.242188 -0.578125 0.859375 -0.960938 0.578125 -1.453125 C 0.296875 -1.941406 0.15625 -2.476562 0.15625 -3.0625 C 0.15625 -3.632812 0.300781 -4.164062 0.59375 -4.65625 C 0.882812 -5.144531 1.273438 -5.53125 1.765625 -5.8125 C 2.265625 -6.101562 2.796875 -6.25 3.359375 -6.25 C 3.921875 -6.25 4.453125 -6.101562 4.953125 -5.8125 C 5.460938 -5.53125 5.859375 -5.144531 6.140625 -4.65625 C 6.429688 -4.164062 6.578125 -3.632812 6.578125 -3.0625 C 6.578125 -2.632812 6.492188 -2.222656 6.328125 -1.828125 C 6.160156 -1.441406 5.921875 -1.097656 5.609375 -0.796875 Z M 4.578125 -0.9375 L 3.171875 -2.3125 L 4.125 -2.3125 L 5.09375 -1.34375 C 5.320312 -1.550781 5.5 -1.8125 5.625 -2.125 C 5.75 -2.4375 5.8125 -2.75 5.8125 -3.0625 C 5.8125 -3.519531 5.703125 -3.9375 5.484375 -4.3125 C 5.265625 -4.695312 4.96875 -5 4.59375 -5.21875 C 4.21875 -5.4375 3.804688 -5.546875 3.359375 -5.546875 C 2.910156 -5.546875 2.5 -5.4375 2.125 -5.21875 C 1.75 -5.007812 1.453125 -4.710938 1.234375 -4.328125 C 1.023438 -3.941406 0.921875 -3.519531 0.921875 -3.0625 C 0.921875 -2.613281 1.03125 -2.203125 1.25 -1.828125 C 1.46875 -1.453125 1.765625 -1.148438 2.140625 -0.921875 C 2.515625 -0.691406 2.921875 -0.578125 3.359375 -0.578125 C 3.578125 -0.578125 3.789062 -0.609375 4 -0.671875 C 4.207031 -0.734375 4.398438 -0.820312 4.578125 -0.9375 Z M 4.578125 -0.9375 "/></g></g></g><g fill="#c34d8f" fill-opacity="1"><g transform="translate(110.071734, 42.313975)"><g><path d="M 1.203125 -3.796875 L 1.203125 -1.671875 C 1.203125 -1.273438 1.273438 -0.988281 1.421875 -0.8125 C 1.578125 -0.632812 1.796875 -0.546875 2.078125 -0.546875 C 2.398438 -0.546875 2.625 -0.644531 2.75 -0.84375 C 2.882812 -1.039062 2.953125 -1.316406 2.953125 -1.671875 L 2.953125 -3.796875 L 3.6875 -3.796875 L 3.6875 -1.578125 C 3.6875 -1.035156 3.546875 -0.613281 3.265625 -0.3125 C 2.992188 -0.0195312 2.597656 0.125 2.078125 0.125 C 1.546875 0.125 1.144531 -0.0234375 0.875 -0.328125 C 0.601562 -0.640625 0.46875 -1.0625 0.46875 -1.59375 L 0.46875 -3.796875 Z M 1.203125 -3.796875 "/></g></g></g><g fill="#c34d8f" fill-opacity="1"><g transform="translate(114.740319, 42.313975)"><g><path d="M 2.953125 -3.734375 L 2.609375 -3.0625 C 2.546875 -3.125 2.472656 -3.164062 2.390625 -3.1875 C 2.316406 -3.207031 2.242188 -3.21875 2.171875 -3.21875 C 1.867188 -3.21875 1.644531 -3.109375 1.5 -2.890625 C 1.351562 -2.671875 1.28125 -2.34375 1.28125 -1.90625 L 1.28125 0 L 0.546875 0 L 0.546875 -3.796875 L 1.28125 -3.796875 L 1.28125 -3.1875 L 1.3125 -3.1875 C 1.40625 -3.414062 1.539062 -3.59375 1.71875 -3.71875 C 1.894531 -3.851562 2.101562 -3.921875 2.34375 -3.921875 C 2.445312 -3.921875 2.550781 -3.898438 2.65625 -3.859375 C 2.757812 -3.828125 2.859375 -3.785156 2.953125 -3.734375 Z M 2.953125 -3.734375 "/></g></g></g><g fill="#c34d8f" fill-opacity="1"><g transform="translate(118.101775, 42.313975)"><g><path d="M 3.328125 -3.171875 L 3.34375 -3.171875 L 3.34375 -3.796875 L 4.078125 -3.796875 L 4.078125 0 L 3.34375 0 L 3.34375 -0.59375 L 3.328125 -0.59375 C 3.179688 -0.375 3 -0.195312 2.78125 -0.0625 C 2.5625 0.0625 2.3125 0.125 2.03125 0.125 C 1.488281 0.125 1.050781 -0.0664062 0.71875 -0.453125 C 0.382812 -0.847656 0.21875 -1.335938 0.21875 -1.921875 C 0.21875 -2.296875 0.296875 -2.632812 0.453125 -2.9375 C 0.617188 -3.25 0.835938 -3.488281 1.109375 -3.65625 C 1.378906 -3.832031 1.675781 -3.921875 2 -3.921875 C 2.28125 -3.921875 2.53125 -3.851562 2.75 -3.71875 C 2.976562 -3.582031 3.171875 -3.398438 3.328125 -3.171875 Z M 3.375 -1.90625 C 3.375 -2.3125 3.257812 -2.640625 3.03125 -2.890625 C 2.800781 -3.140625 2.503906 -3.265625 2.140625 -3.265625 C 1.796875 -3.265625 1.507812 -3.128906 1.28125 -2.859375 C 1.050781 -2.597656 0.9375 -2.28125 0.9375 -1.90625 C 0.9375 -1.507812 1.050781 -1.175781 1.28125 -0.90625 C 1.507812 -0.644531 1.796875 -0.515625 2.140625 -0.515625 C 2.515625 -0.515625 2.8125 -0.644531 3.03125 -0.90625 C 3.257812 -1.164062 3.375 -1.5 3.375 -1.90625 Z M 3.375 -1.90625 "/></g></g></g><g fill="#c34d8f" fill-opacity="1"><g transform="translate(123.127588, 42.313975)"><g><path d="M 3.75 -2.3125 L 3.75 0 L 3.015625 0 L 3.015625 -2.21875 C 3.015625 -2.59375 2.953125 -2.859375 2.828125 -3.015625 C 2.710938 -3.179688 2.492188 -3.265625 2.171875 -3.265625 C 1.847656 -3.265625 1.609375 -3.160156 1.453125 -2.953125 C 1.304688 -2.753906 1.234375 -2.394531 1.234375 -1.875 L 1.234375 0 L 0.5 0 L 0.5 -3.796875 L 1.234375 -3.796875 L 1.234375 -3.296875 L 1.25 -3.296875 C 1.375 -3.492188 1.535156 -3.644531 1.734375 -3.75 C 1.941406 -3.863281 2.160156 -3.921875 2.390625 -3.921875 C 2.859375 -3.921875 3.203125 -3.785156 3.421875 -3.515625 C 3.640625 -3.242188 3.75 -2.84375 3.75 -2.3125 Z M 3.75 -2.3125 "/></g></g></g></svg>