<svg xmlns="http://www.w3.org/2000/svg" xmlns:xlink="http://www.w3.org/1999/xlink" width="200" zoomAndPan="magnify" viewBox="0 0 150 56.249996" height="75" preserveAspectRatio="xMidYMid meet" version="1.0"><defs><g/><clipPath id="25039e3801"><path d="M 4.714844 6.449219 L 143.828125 6.449219 L 143.828125 48.644531 L 4.714844 48.644531 Z M 4.714844 6.449219 " clip-rule="nonzero"/></clipPath><clipPath id="2129b2c213"><path d="M 8.867188 6.449219 L 139.613281 6.449219 C 140.714844 6.449219 141.769531 6.886719 142.550781 7.667969 C 143.328125 8.445312 143.765625 9.503906 143.765625 10.601562 L 143.765625 44.492188 C 143.765625 45.59375 143.328125 46.652344 142.550781 47.429688 C 141.769531 48.207031 140.714844 48.644531 139.613281 48.644531 L 8.867188 48.644531 C 7.765625 48.644531 6.710938 48.207031 5.933594 47.429688 C 5.152344 46.652344 4.714844 45.59375 4.714844 44.492188 L 4.714844 10.601562 C 4.714844 9.503906 5.152344 8.445312 5.933594 7.667969 C 6.710938 6.886719 7.765625 6.449219 8.867188 6.449219 Z M 8.867188 6.449219 " clip-rule="nonzero"/></clipPath></defs><g clip-path="url(#25039e3801)"><g clip-path="url(#2129b2c213)"><path fill="#ffffff" d="M 4.714844 6.449219 L 143.828125 6.449219 L 143.828125 48.644531 L 4.714844 48.644531 Z M 4.714844 6.449219 " fill-opacity="1" fill-rule="nonzero"/></g></g><g fill="#303030" fill-opacity="1"><g transform="translate(27.211552, 28.950313)"><g><path d="M 4.09375 -15.34375 L 4.09375 0 L 1.09375 0 L 1.09375 -15.34375 Z M 4.09375 -15.34375 "/></g></g></g><g fill="#303030" fill-opacity="1"><g transform="translate(32.376931, 28.950313)"><g><path d="M 3.859375 -17.25 L 3.859375 0 L 1.015625 0 L 1.015625 -17.25 Z M 3.859375 -17.25 "/></g></g></g><g fill="#303030" fill-opacity="1"><g transform="translate(37.237266, 28.950313)"><g><path d="M 9.21875 -8.75 C 9.53125 -9.238281 9.945312 -9.617188 10.46875 -9.890625 C 10.988281 -10.171875 11.539062 -10.3125 12.125 -10.3125 C 13.195312 -10.3125 13.992188 -9.972656 14.515625 -9.296875 C 15.035156 -8.617188 15.296875 -7.628906 15.296875 -6.328125 L 15.296875 0 L 12.453125 0 L 12.453125 -5.59375 C 12.453125 -6.382812 12.351562 -6.988281 12.15625 -7.40625 C 11.957031 -7.820312 11.609375 -8.03125 11.109375 -8.03125 C 10.585938 -8.03125 10.203125 -7.796875 9.953125 -7.328125 C 9.703125 -6.859375 9.578125 -6.101562 9.578125 -5.0625 L 9.578125 0 L 6.734375 0 L 6.734375 -5.796875 C 6.734375 -6.546875 6.617188 -7.101562 6.390625 -7.46875 C 6.160156 -7.84375 5.820312 -8.03125 5.375 -8.03125 C 4.925781 -8.03125 4.5625 -7.832031 4.28125 -7.4375 C 4 -7.050781 3.859375 -6.40625 3.859375 -5.5 L 3.859375 0 L 1.015625 0 L 1.015625 -9.984375 L 3.859375 -9.984375 L 3.859375 -9.09375 L 3.90625 -9.09375 C 4.1875 -9.488281 4.546875 -9.789062 4.984375 -10 C 5.429688 -10.207031 5.882812 -10.3125 6.34375 -10.3125 C 7.625 -10.3125 8.582031 -9.789062 9.21875 -8.75 Z M 9.21875 -8.75 "/></g></g></g><g fill="#303030" fill-opacity="1"><g transform="translate(53.546846, 28.950313)"><g><path d="M 5.84375 -7.6875 L 5.84375 -5.34375 L 0.875 -5.34375 L 0.875 -7.6875 Z M 5.84375 -7.6875 "/></g></g></g><g fill="#303030" fill-opacity="1"><g transform="translate(60.257772, 28.950313)"><g><path d="M 3.3125 -4.53125 C 3.3125 -3.707031 3.488281 -3.050781 3.84375 -2.5625 C 4.195312 -2.082031 4.679688 -1.84375 5.296875 -1.84375 C 5.765625 -1.84375 6.148438 -1.972656 6.453125 -2.234375 C 6.765625 -2.492188 7.015625 -2.820312 7.203125 -3.21875 L 9.828125 -2.78125 C 9.472656 -1.769531 8.890625 -1 8.078125 -0.46875 C 7.273438 0.0625 6.347656 0.328125 5.296875 0.328125 C 3.816406 0.328125 2.613281 -0.148438 1.6875 -1.109375 C 0.769531 -2.078125 0.3125 -3.34375 0.3125 -4.90625 C 0.3125 -6.539062 0.742188 -7.847656 1.609375 -8.828125 C 2.472656 -9.816406 3.648438 -10.3125 5.140625 -10.3125 C 6.640625 -10.3125 7.804688 -9.828125 8.640625 -8.859375 C 9.472656 -7.898438 9.890625 -6.539062 9.890625 -4.78125 L 9.890625 -4.53125 Z M 7.203125 -6.3125 C 7.109375 -6.9375 6.882812 -7.425781 6.53125 -7.78125 C 6.175781 -8.144531 5.765625 -8.328125 5.296875 -8.328125 C 4.847656 -8.328125 4.445312 -8.160156 4.09375 -7.828125 C 3.738281 -7.503906 3.503906 -7 3.390625 -6.3125 Z M 7.203125 -6.3125 "/></g></g></g><g fill="#303030" fill-opacity="1"><g transform="translate(70.446176, 28.950313)"><g><path d="M 5.84375 -7.6875 L 5.84375 -5.34375 L 0.875 -5.34375 L 0.875 -7.6875 Z M 5.84375 -7.6875 "/></g></g></g><g fill="#303030" fill-opacity="1"><g transform="translate(77.157102, 28.950313)"><g><path d="M 5.234375 -15.34375 C 6.847656 -15.34375 8.09375 -14.941406 8.96875 -14.140625 C 9.84375 -13.347656 10.28125 -12.207031 10.28125 -10.71875 C 10.28125 -9.632812 9.984375 -8.6875 9.390625 -7.875 C 8.796875 -7.070312 8.046875 -6.601562 7.140625 -6.46875 L 11.46875 0 L 7.859375 0 L 4.125 -6.1875 L 4.09375 -6.1875 L 4.09375 0 L 1.09375 0 L 1.09375 -15.34375 Z M 4.09375 -8.28125 L 4.421875 -8.28125 C 5.441406 -8.28125 6.171875 -8.46875 6.609375 -8.84375 C 7.054688 -9.226562 7.28125 -9.828125 7.28125 -10.640625 C 7.28125 -11.441406 7.0625 -12.015625 6.625 -12.359375 C 6.195312 -12.710938 5.472656 -12.890625 4.453125 -12.890625 L 4.09375 -12.890625 Z M 4.09375 -8.28125 "/></g></g></g><g fill="#303030" fill-opacity="1"><g transform="translate(88.504665, 28.950313)"><g><path d="M 7.65625 -9.984375 L 10.453125 -9.984375 L 10.453125 0 L 7.65625 0 L 7.65625 -0.921875 L 7.609375 -0.921875 C 7.304688 -0.523438 6.90625 -0.21875 6.40625 0 C 5.914062 0.21875 5.414062 0.328125 4.90625 0.328125 C 3.582031 0.328125 2.484375 -0.1875 1.609375 -1.21875 C 0.742188 -2.257812 0.3125 -3.535156 0.3125 -5.046875 C 0.3125 -5.984375 0.5 -6.847656 0.875 -7.640625 C 1.25 -8.441406 1.785156 -9.085938 2.484375 -9.578125 C 3.191406 -10.066406 3.984375 -10.3125 4.859375 -10.3125 C 5.378906 -10.3125 5.882812 -10.203125 6.375 -9.984375 C 6.875 -9.765625 7.300781 -9.453125 7.65625 -9.046875 Z M 5.53125 -7.796875 C 4.894531 -7.796875 4.34375 -7.519531 3.875 -6.96875 C 3.414062 -6.414062 3.1875 -5.757812 3.1875 -5 C 3.1875 -4.238281 3.414062 -3.582031 3.875 -3.03125 C 4.34375 -2.476562 4.898438 -2.203125 5.546875 -2.203125 C 6.210938 -2.203125 6.773438 -2.472656 7.234375 -3.015625 C 7.703125 -3.566406 7.9375 -4.226562 7.9375 -5 C 7.9375 -5.78125 7.703125 -6.441406 7.234375 -6.984375 C 6.765625 -7.523438 6.195312 -7.796875 5.53125 -7.796875 Z M 5.53125 -7.796875 "/></g></g></g><g fill="#303030" fill-opacity="1"><g transform="translate(99.994582, 28.950313)"><g><path d="M 9.78125 -9.984375 L 4.71875 -2.40625 L 9.453125 -2.40625 L 9.453125 0 L -0.015625 0 L 5.09375 -7.59375 L 0.765625 -7.59375 L 0.765625 -9.984375 Z M 9.78125 -9.984375 "/></g></g></g><g fill="#303030" fill-opacity="1"><g transform="translate(109.776266, 28.950313)"><g><path d="M 7.65625 -9.984375 L 10.453125 -9.984375 L 10.453125 0 L 7.65625 0 L 7.65625 -0.921875 L 7.609375 -0.921875 C 7.304688 -0.523438 6.90625 -0.21875 6.40625 0 C 5.914062 0.21875 5.414062 0.328125 4.90625 0.328125 C 3.582031 0.328125 2.484375 -0.1875 1.609375 -1.21875 C 0.742188 -2.257812 0.3125 -3.535156 0.3125 -5.046875 C 0.3125 -5.984375 0.5 -6.847656 0.875 -7.640625 C 1.25 -8.441406 1.785156 -9.085938 2.484375 -9.578125 C 3.191406 -10.066406 3.984375 -10.3125 4.859375 -10.3125 C 5.378906 -10.3125 5.882812 -10.203125 6.375 -9.984375 C 6.875 -9.765625 7.300781 -9.453125 7.65625 -9.046875 Z M 5.53125 -7.796875 C 4.894531 -7.796875 4.34375 -7.519531 3.875 -6.96875 C 3.414062 -6.414062 3.1875 -5.757812 3.1875 -5 C 3.1875 -4.238281 3.414062 -3.582031 3.875 -3.03125 C 4.34375 -2.476562 4.898438 -2.203125 5.546875 -2.203125 C 6.210938 -2.203125 6.773438 -2.472656 7.234375 -3.015625 C 7.703125 -3.566406 7.9375 -4.226562 7.9375 -5 C 7.9375 -5.78125 7.703125 -6.441406 7.234375 -6.984375 C 6.765625 -7.523438 6.195312 -7.796875 5.53125 -7.796875 Z M 5.53125 -7.796875 "/></g></g></g><g fill="#c34d8f" fill-opacity="1"><g transform="translate(27.599767, 42.104394)"><g><path d="M 4.34375 -6.875 L 4.34375 -6.078125 L 1.515625 -6.078125 L 1.515625 -4.15625 L 4.265625 -4.15625 L 4.265625 -3.375 L 1.515625 -3.375 L 1.515625 -0.78125 L 4.34375 -0.78125 L 4.34375 0 L 0.65625 0 L 0.65625 -6.875 Z M 4.34375 -6.875 "/></g></g></g><g fill="#c34d8f" fill-opacity="1"><g transform="translate(32.915491, 42.104394)"><g><path d="M 4.5625 -7.90625 L 4.5625 0 L 3.75 0 L 3.75 -0.671875 L 3.71875 -0.671875 C 3.5625 -0.421875 3.359375 -0.222656 3.109375 -0.078125 C 2.859375 0.0664062 2.582031 0.140625 2.28125 0.140625 C 1.6875 0.140625 1.195312 -0.0703125 0.8125 -0.5 C 0.425781 -0.9375 0.234375 -1.488281 0.234375 -2.15625 C 0.234375 -2.769531 0.421875 -3.296875 0.796875 -3.734375 C 1.179688 -4.171875 1.660156 -4.390625 2.234375 -4.390625 C 2.554688 -4.390625 2.84375 -4.3125 3.09375 -4.15625 C 3.34375 -4.007812 3.550781 -3.804688 3.71875 -3.546875 L 3.75 -3.546875 L 3.75 -7.90625 Z M 3.796875 -2.125 C 3.796875 -2.59375 3.660156 -2.960938 3.390625 -3.234375 C 3.128906 -3.515625 2.796875 -3.65625 2.390625 -3.65625 C 2.015625 -3.65625 1.695312 -3.503906 1.4375 -3.203125 C 1.1875 -2.910156 1.0625 -2.550781 1.0625 -2.125 C 1.0625 -1.675781 1.1875 -1.304688 1.4375 -1.015625 C 1.6875 -0.722656 2.007812 -0.578125 2.40625 -0.578125 C 2.820312 -0.578125 3.15625 -0.722656 3.40625 -1.015625 C 3.664062 -1.304688 3.796875 -1.675781 3.796875 -2.125 Z M 3.796875 -2.125 "/></g></g></g><g fill="#c34d8f" fill-opacity="1"><g transform="translate(38.549759, 42.104394)"><g><path d="M 1.34375 -4.265625 L 1.34375 -1.875 C 1.34375 -1.4375 1.425781 -1.117188 1.59375 -0.921875 C 1.757812 -0.722656 2.003906 -0.625 2.328125 -0.625 C 2.691406 -0.625 2.945312 -0.734375 3.09375 -0.953125 C 3.238281 -1.171875 3.3125 -1.476562 3.3125 -1.875 L 3.3125 -4.265625 L 4.140625 -4.265625 L 4.140625 -1.78125 C 4.140625 -1.164062 3.984375 -0.691406 3.671875 -0.359375 C 3.359375 -0.0234375 2.910156 0.140625 2.328125 0.140625 C 1.734375 0.140625 1.285156 -0.03125 0.984375 -0.375 C 0.679688 -0.71875 0.53125 -1.1875 0.53125 -1.78125 L 0.53125 -4.265625 Z M 1.34375 -4.265625 "/></g></g></g><g fill="#c34d8f" fill-opacity="1"><g transform="translate(43.78357, 42.104394)"><g><path d="M 3.703125 -4.109375 L 3.703125 -3.046875 C 3.367188 -3.429688 2.960938 -3.625 2.484375 -3.625 C 2.085938 -3.625 1.75 -3.472656 1.46875 -3.171875 C 1.195312 -2.867188 1.0625 -2.519531 1.0625 -2.125 C 1.0625 -1.675781 1.195312 -1.3125 1.46875 -1.03125 C 1.75 -0.757812 2.101562 -0.625 2.53125 -0.625 C 2.769531 -0.625 2.984375 -0.671875 3.171875 -0.765625 C 3.359375 -0.859375 3.535156 -1 3.703125 -1.1875 L 3.703125 -0.140625 C 3.503906 -0.0351562 3.3125 0.0351562 3.125 0.078125 C 2.9375 0.117188 2.734375 0.140625 2.515625 0.140625 C 1.890625 0.140625 1.351562 -0.0703125 0.90625 -0.5 C 0.457031 -0.9375 0.234375 -1.46875 0.234375 -2.09375 C 0.234375 -2.519531 0.335938 -2.910156 0.546875 -3.265625 C 0.753906 -3.617188 1.035156 -3.894531 1.390625 -4.09375 C 1.753906 -4.289062 2.144531 -4.390625 2.5625 -4.390625 C 2.757812 -4.390625 2.957031 -4.363281 3.15625 -4.3125 C 3.351562 -4.269531 3.535156 -4.203125 3.703125 -4.109375 Z M 3.703125 -4.109375 "/></g></g></g><g fill="#c34d8f" fill-opacity="1"><g transform="translate(48.37119, 42.104394)"><g><path d="M 3.71875 -3.546875 L 3.75 -3.546875 L 3.75 -4.265625 L 4.5625 -4.265625 L 4.5625 0 L 3.75 0 L 3.75 -0.671875 L 3.71875 -0.671875 C 3.5625 -0.421875 3.359375 -0.222656 3.109375 -0.078125 C 2.859375 0.0664062 2.582031 0.140625 2.28125 0.140625 C 1.664062 0.140625 1.171875 -0.078125 0.796875 -0.515625 C 0.421875 -0.953125 0.234375 -1.5 0.234375 -2.15625 C 0.234375 -2.570312 0.320312 -2.953125 0.5 -3.296875 C 0.6875 -3.648438 0.929688 -3.921875 1.234375 -4.109375 C 1.535156 -4.296875 1.875 -4.390625 2.25 -4.390625 C 2.5625 -4.390625 2.84375 -4.3125 3.09375 -4.15625 C 3.34375 -4.007812 3.550781 -3.804688 3.71875 -3.546875 Z M 3.796875 -2.125 C 3.796875 -2.59375 3.660156 -2.960938 3.390625 -3.234375 C 3.128906 -3.515625 2.796875 -3.65625 2.390625 -3.65625 C 2.015625 -3.65625 1.695312 -3.503906 1.4375 -3.203125 C 1.1875 -2.910156 1.0625 -2.550781 1.0625 -2.125 C 1.0625 -1.6875 1.1875 -1.316406 1.4375 -1.015625 C 1.695312 -0.722656 2.019531 -0.578125 2.40625 -0.578125 C 2.820312 -0.578125 3.15625 -0.722656 3.40625 -1.015625 C 3.664062 -1.304688 3.796875 -1.675781 3.796875 -2.125 Z M 3.796875 -2.125 "/></g></g></g><g fill="#c34d8f" fill-opacity="1"><g transform="translate(54.005458, 42.104394)"><g><path d="M 1.5 -5.890625 L 1.5 -4.265625 L 2.296875 -4.265625 L 2.296875 -3.5 L 1.5 -3.5 L 1.5 0 L 0.6875 0 L 0.6875 -3.5 L 0.234375 -3.5 L 0.234375 -4.265625 L 0.6875 -4.265625 L 0.6875 -5.890625 Z M 1.5 -5.890625 "/></g></g></g><g fill="#c34d8f" fill-opacity="1"><g transform="translate(56.763709, 42.104394)"><g><path d="M 1.71875 -6.21875 C 1.71875 -6.050781 1.660156 -5.914062 1.546875 -5.8125 C 1.441406 -5.707031 1.3125 -5.65625 1.15625 -5.65625 C 1 -5.65625 0.863281 -5.707031 0.75 -5.8125 C 0.644531 -5.914062 0.59375 -6.050781 0.59375 -6.21875 C 0.59375 -6.375 0.644531 -6.503906 0.75 -6.609375 C 0.863281 -6.722656 1 -6.78125 1.15625 -6.78125 C 1.3125 -6.78125 1.441406 -6.722656 1.546875 -6.609375 C 1.660156 -6.503906 1.71875 -6.375 1.71875 -6.21875 Z M 1.5625 -4.265625 L 1.5625 0 L 0.75 0 L 0.75 -4.265625 Z M 1.5625 -4.265625 "/></g></g></g><g fill="#c34d8f" fill-opacity="1"><g transform="translate(59.649373, 42.104394)"><g><path d="M 2.453125 0.140625 C 2.046875 0.140625 1.664062 0.046875 1.3125 -0.140625 C 0.96875 -0.335938 0.691406 -0.613281 0.484375 -0.96875 C 0.285156 -1.320312 0.1875 -1.707031 0.1875 -2.125 C 0.1875 -2.539062 0.285156 -2.914062 0.484375 -3.25 C 0.679688 -3.59375 0.953125 -3.867188 1.296875 -4.078125 C 1.648438 -4.285156 2.035156 -4.390625 2.453125 -4.390625 C 2.890625 -4.390625 3.285156 -4.28125 3.640625 -4.0625 C 3.992188 -3.851562 4.265625 -3.578125 4.453125 -3.234375 C 4.640625 -2.898438 4.734375 -2.53125 4.734375 -2.125 C 4.734375 -1.726562 4.640625 -1.351562 4.453125 -1 C 4.273438 -0.65625 4.003906 -0.378906 3.640625 -0.171875 C 3.285156 0.0351562 2.890625 0.140625 2.453125 0.140625 Z M 3.921875 -2.125 C 3.921875 -2.53125 3.773438 -2.878906 3.484375 -3.171875 C 3.191406 -3.460938 2.847656 -3.609375 2.453125 -3.609375 C 2.078125 -3.609375 1.738281 -3.460938 1.4375 -3.171875 C 1.144531 -2.878906 1 -2.53125 1 -2.125 C 1 -1.726562 1.144531 -1.378906 1.4375 -1.078125 C 1.726562 -0.785156 2.066406 -0.640625 2.453125 -0.640625 C 2.859375 -0.640625 3.203125 -0.785156 3.484375 -1.078125 C 3.773438 -1.367188 3.921875 -1.71875 3.921875 -2.125 Z M 3.921875 -2.125 "/></g></g></g><g fill="#c34d8f" fill-opacity="1"><g transform="translate(65.138021, 42.104394)"><g><path d="M 4.203125 -2.59375 L 4.203125 0 L 3.375 0 L 3.375 -2.484375 C 3.375 -2.910156 3.304688 -3.210938 3.171875 -3.390625 C 3.046875 -3.566406 2.800781 -3.65625 2.4375 -3.65625 C 2.070312 -3.65625 1.804688 -3.539062 1.640625 -3.3125 C 1.472656 -3.082031 1.390625 -2.675781 1.390625 -2.09375 L 1.390625 0 L 0.5625 0 L 0.5625 -4.265625 L 1.390625 -4.265625 L 1.390625 -3.6875 L 1.40625 -3.6875 C 1.539062 -3.914062 1.722656 -4.085938 1.953125 -4.203125 C 2.179688 -4.328125 2.425781 -4.390625 2.6875 -4.390625 C 3.207031 -4.390625 3.585938 -4.238281 3.828125 -3.9375 C 4.078125 -3.632812 4.203125 -3.1875 4.203125 -2.59375 Z M 4.203125 -2.59375 "/></g></g></g><g fill="#c34d8f" fill-opacity="1"><g transform="translate(70.471949, 42.104394)"><g/></g></g><g fill="#c34d8f" fill-opacity="1"><g transform="translate(73.676157, 42.104394)"><g><path d="M 3.28125 -3.875 L 4.703125 -2.140625 L 5.515625 -3.0625 L 6.0625 -2.5 L 5.21875 -1.515625 L 6.453125 0 L 5.390625 0 L 4.640625 -0.921875 C 4.378906 -0.617188 4.070312 -0.363281 3.71875 -0.15625 C 3.375 0.0390625 3 0.140625 2.59375 0.140625 C 2 0.140625 1.5 -0.0507812 1.09375 -0.4375 C 0.6875 -0.820312 0.484375 -1.300781 0.484375 -1.875 C 0.484375 -2.1875 0.5625 -2.476562 0.71875 -2.75 C 0.882812 -3.03125 1.097656 -3.269531 1.359375 -3.46875 C 1.628906 -3.664062 1.878906 -3.847656 2.109375 -4.015625 C 1.921875 -4.210938 1.75 -4.4375 1.59375 -4.6875 C 1.4375 -4.945312 1.359375 -5.222656 1.359375 -5.515625 C 1.359375 -5.960938 1.503906 -6.320312 1.796875 -6.59375 C 2.085938 -6.875 2.46875 -7.015625 2.9375 -7.015625 C 3.382812 -7.015625 3.757812 -6.882812 4.0625 -6.625 C 4.375 -6.363281 4.53125 -6.015625 4.53125 -5.578125 C 4.53125 -5.285156 4.429688 -5.003906 4.234375 -4.734375 C 4.035156 -4.472656 3.71875 -4.1875 3.28125 -3.875 Z M 2.5625 -4.75 L 2.796875 -4.46875 L 2.90625 -4.53125 C 3.207031 -4.75 3.414062 -4.929688 3.53125 -5.078125 C 3.65625 -5.222656 3.71875 -5.394531 3.71875 -5.59375 C 3.71875 -5.832031 3.640625 -6.015625 3.484375 -6.140625 C 3.335938 -6.273438 3.148438 -6.34375 2.921875 -6.34375 C 2.710938 -6.34375 2.53125 -6.273438 2.375 -6.140625 C 2.226562 -6.003906 2.15625 -5.828125 2.15625 -5.609375 C 2.15625 -5.484375 2.179688 -5.359375 2.234375 -5.234375 C 2.296875 -5.117188 2.40625 -4.957031 2.5625 -4.75 Z M 4.140625 -1.53125 L 2.609375 -3.390625 L 2.109375 -3.046875 C 1.878906 -2.890625 1.679688 -2.710938 1.515625 -2.515625 C 1.359375 -2.316406 1.28125 -2.109375 1.28125 -1.890625 C 1.28125 -1.554688 1.410156 -1.257812 1.671875 -1 C 1.929688 -0.75 2.226562 -0.625 2.5625 -0.625 C 2.800781 -0.625 3.039062 -0.691406 3.28125 -0.828125 C 3.519531 -0.960938 3.804688 -1.195312 4.140625 -1.53125 Z M 4.140625 -1.53125 "/></g></g></g><g fill="#c34d8f" fill-opacity="1"><g transform="translate(80.548207, 42.104394)"><g/></g></g><g fill="#c34d8f" fill-opacity="1"><g transform="translate(83.752419, 42.104394)"><g><path d="M 1.515625 -6.875 L 1.515625 -0.78125 L 3.59375 -0.78125 L 3.59375 0 L 0.65625 0 L 0.65625 -6.875 Z M 1.515625 -6.875 "/></g></g></g><g fill="#c34d8f" fill-opacity="1"><g transform="translate(87.830364, 42.104394)"><g><path d="M 4.3125 -2.0625 L 4.3125 -2 L 1.0625 -2 C 1.070312 -1.582031 1.195312 -1.238281 1.4375 -0.96875 C 1.6875 -0.707031 1.988281 -0.578125 2.34375 -0.578125 C 2.65625 -0.578125 2.90625 -0.648438 3.09375 -0.796875 C 3.28125 -0.953125 3.453125 -1.15625 3.609375 -1.40625 L 4.3125 -1.015625 C 4.113281 -0.648438 3.835938 -0.363281 3.484375 -0.15625 C 3.128906 0.0390625 2.742188 0.140625 2.328125 0.140625 C 1.710938 0.140625 1.207031 -0.0625 0.8125 -0.46875 C 0.425781 -0.882812 0.234375 -1.425781 0.234375 -2.09375 C 0.234375 -2.789062 0.414062 -3.347656 0.78125 -3.765625 C 1.15625 -4.179688 1.664062 -4.390625 2.3125 -4.390625 C 2.9375 -4.390625 3.425781 -4.1875 3.78125 -3.78125 C 4.132812 -3.375 4.3125 -2.800781 4.3125 -2.0625 Z M 3.484375 -2.609375 C 3.441406 -2.941406 3.316406 -3.203125 3.109375 -3.390625 C 2.910156 -3.585938 2.640625 -3.6875 2.296875 -3.6875 C 1.992188 -3.6875 1.726562 -3.582031 1.5 -3.375 C 1.28125 -3.164062 1.148438 -2.910156 1.109375 -2.609375 Z M 3.484375 -2.609375 "/></g></g></g><g fill="#c34d8f" fill-opacity="1"><g transform="translate(92.84575, 42.104394)"><g><path d="M 3.71875 -3.546875 L 3.75 -3.546875 L 3.75 -4.265625 L 4.5625 -4.265625 L 4.5625 0 L 3.75 0 L 3.75 -0.671875 L 3.71875 -0.671875 C 3.5625 -0.421875 3.359375 -0.222656 3.109375 -0.078125 C 2.859375 0.0664062 2.582031 0.140625 2.28125 0.140625 C 1.664062 0.140625 1.171875 -0.078125 0.796875 -0.515625 C 0.421875 -0.953125 0.234375 -1.5 0.234375 -2.15625 C 0.234375 -2.570312 0.320312 -2.953125 0.5 -3.296875 C 0.6875 -3.648438 0.929688 -3.921875 1.234375 -4.109375 C 1.535156 -4.296875 1.875 -4.390625 2.25 -4.390625 C 2.5625 -4.390625 2.84375 -4.3125 3.09375 -4.15625 C 3.34375 -4.007812 3.550781 -3.804688 3.71875 -3.546875 Z M 3.796875 -2.125 C 3.796875 -2.59375 3.660156 -2.960938 3.390625 -3.234375 C 3.128906 -3.515625 2.796875 -3.65625 2.390625 -3.65625 C 2.015625 -3.65625 1.695312 -3.503906 1.4375 -3.203125 C 1.1875 -2.910156 1.0625 -2.550781 1.0625 -2.125 C 1.0625 -1.6875 1.1875 -1.316406 1.4375 -1.015625 C 1.695312 -0.722656 2.019531 -0.578125 2.40625 -0.578125 C 2.820312 -0.578125 3.15625 -0.722656 3.40625 -1.015625 C 3.664062 -1.304688 3.796875 -1.675781 3.796875 -2.125 Z M 3.796875 -2.125 "/></g></g></g><g fill="#c34d8f" fill-opacity="1"><g transform="translate(98.480019, 42.104394)"><g><path d="M 3.3125 -4.1875 L 2.9375 -3.4375 C 2.863281 -3.5 2.78125 -3.539062 2.6875 -3.5625 C 2.601562 -3.59375 2.519531 -3.609375 2.4375 -3.609375 C 2.09375 -3.609375 1.835938 -3.484375 1.671875 -3.234375 C 1.515625 -2.992188 1.4375 -2.628906 1.4375 -2.140625 L 1.4375 0 L 0.625 0 L 0.625 -4.265625 L 1.4375 -4.265625 L 1.4375 -3.578125 L 1.46875 -3.578125 C 1.570312 -3.828125 1.722656 -4.023438 1.921875 -4.171875 C 2.128906 -4.316406 2.363281 -4.390625 2.625 -4.390625 C 2.738281 -4.390625 2.851562 -4.367188 2.96875 -4.328125 C 3.09375 -4.296875 3.207031 -4.25 3.3125 -4.1875 Z M 3.3125 -4.1875 "/></g></g></g><g fill="#c34d8f" fill-opacity="1"><g transform="translate(102.248522, 42.104394)"><g><path d="M 4.203125 -2.59375 L 4.203125 0 L 3.375 0 L 3.375 -2.484375 C 3.375 -2.910156 3.304688 -3.210938 3.171875 -3.390625 C 3.046875 -3.566406 2.800781 -3.65625 2.4375 -3.65625 C 2.070312 -3.65625 1.804688 -3.539062 1.640625 -3.3125 C 1.472656 -3.082031 1.390625 -2.675781 1.390625 -2.09375 L 1.390625 0 L 0.5625 0 L 0.5625 -4.265625 L 1.390625 -4.265625 L 1.390625 -3.6875 L 1.40625 -3.6875 C 1.539062 -3.914062 1.722656 -4.085938 1.953125 -4.203125 C 2.179688 -4.328125 2.425781 -4.390625 2.6875 -4.390625 C 3.207031 -4.390625 3.585938 -4.238281 3.828125 -3.9375 C 4.078125 -3.632812 4.203125 -3.1875 4.203125 -2.59375 Z M 4.203125 -2.59375 "/></g></g></g><g fill="#c34d8f" fill-opacity="1"><g transform="translate(107.582453, 42.104394)"><g><path d="M 1.71875 -6.21875 C 1.71875 -6.050781 1.660156 -5.914062 1.546875 -5.8125 C 1.441406 -5.707031 1.3125 -5.65625 1.15625 -5.65625 C 1 -5.65625 0.863281 -5.707031 0.75 -5.8125 C 0.644531 -5.914062 0.59375 -6.050781 0.59375 -6.21875 C 0.59375 -6.375 0.644531 -6.503906 0.75 -6.609375 C 0.863281 -6.722656 1 -6.78125 1.15625 -6.78125 C 1.3125 -6.78125 1.441406 -6.722656 1.546875 -6.609375 C 1.660156 -6.503906 1.71875 -6.375 1.71875 -6.21875 Z M 1.5625 -4.265625 L 1.5625 0 L 0.75 0 L 0.75 -4.265625 Z M 1.5625 -4.265625 "/></g></g></g><g fill="#c34d8f" fill-opacity="1"><g transform="translate(110.468119, 42.104394)"><g><path d="M 4.203125 -2.59375 L 4.203125 0 L 3.375 0 L 3.375 -2.484375 C 3.375 -2.910156 3.304688 -3.210938 3.171875 -3.390625 C 3.046875 -3.566406 2.800781 -3.65625 2.4375 -3.65625 C 2.070312 -3.65625 1.804688 -3.539062 1.640625 -3.3125 C 1.472656 -3.082031 1.390625 -2.675781 1.390625 -2.09375 L 1.390625 0 L 0.5625 0 L 0.5625 -4.265625 L 1.390625 -4.265625 L 1.390625 -3.6875 L 1.40625 -3.6875 C 1.539062 -3.914062 1.722656 -4.085938 1.953125 -4.203125 C 2.179688 -4.328125 2.425781 -4.390625 2.6875 -4.390625 C 3.207031 -4.390625 3.585938 -4.238281 3.828125 -3.9375 C 4.078125 -3.632812 4.203125 -3.1875 4.203125 -2.59375 Z M 4.203125 -2.59375 "/></g></g></g><g fill="#c34d8f" fill-opacity="1"><g transform="translate(115.80205, 42.104394)"><g><path d="M 3.71875 -3.53125 L 3.734375 -3.53125 L 3.734375 -4.265625 L 4.546875 -4.265625 L 4.546875 -0.03125 C 4.546875 0.800781 4.378906 1.421875 4.046875 1.828125 C 3.722656 2.234375 3.203125 2.4375 2.484375 2.4375 C 1.867188 2.4375 1.375 2.257812 1 1.90625 C 0.625 1.5625 0.429688 1.097656 0.421875 0.515625 L 1.234375 0.515625 C 1.234375 0.878906 1.347656 1.171875 1.578125 1.390625 C 1.816406 1.609375 2.128906 1.71875 2.515625 1.71875 C 2.953125 1.71875 3.265625 1.59375 3.453125 1.34375 C 3.640625 1.09375 3.734375 0.707031 3.734375 0.1875 L 3.734375 -0.671875 L 3.71875 -0.671875 C 3.550781 -0.421875 3.34375 -0.222656 3.09375 -0.078125 C 2.851562 0.0664062 2.578125 0.140625 2.265625 0.140625 C 1.671875 0.140625 1.179688 -0.0703125 0.796875 -0.5 C 0.421875 -0.925781 0.234375 -1.476562 0.234375 -2.15625 C 0.234375 -2.78125 0.425781 -3.304688 0.8125 -3.734375 C 1.195312 -4.171875 1.671875 -4.390625 2.234375 -4.390625 C 2.554688 -4.390625 2.84375 -4.3125 3.09375 -4.15625 C 3.351562 -4 3.5625 -3.789062 3.71875 -3.53125 Z M 3.78125 -2.125 C 3.78125 -2.59375 3.644531 -2.960938 3.375 -3.234375 C 3.113281 -3.515625 2.785156 -3.65625 2.390625 -3.65625 C 2.003906 -3.65625 1.679688 -3.503906 1.421875 -3.203125 C 1.171875 -2.910156 1.046875 -2.550781 1.046875 -2.125 C 1.046875 -1.6875 1.171875 -1.316406 1.421875 -1.015625 C 1.679688 -0.722656 2.003906 -0.578125 2.390625 -0.578125 C 2.804688 -0.578125 3.140625 -0.722656 3.390625 -1.015625 C 3.648438 -1.304688 3.78125 -1.675781 3.78125 -2.125 Z M 3.78125 -2.125 "/></g></g></g></svg>