<svg xmlns="http://www.w3.org/2000/svg" xmlns:xlink="http://www.w3.org/1999/xlink" width="200" zoomAndPan="magnify" viewBox="0 0 150 56.249996" height="75" preserveAspectRatio="xMidYMid meet" version="1.0"><defs><g/><clipPath id="7a04f06abd"><path d="M 6.378906 5.550781 L 143.679688 5.550781 L 143.679688 47.195312 L 6.378906 47.195312 Z M 6.378906 5.550781 " clip-rule="nonzero"/></clipPath><clipPath id="b01384b102"><path d="M 8.933594 5.550781 L 141.066406 5.550781 C 142.476562 5.550781 143.621094 6.695312 143.621094 8.105469 L 143.621094 44.644531 C 143.621094 46.054688 142.476562 47.195312 141.066406 47.195312 L 8.933594 47.195312 C 7.523438 47.195312 6.378906 46.054688 6.378906 44.644531 L 6.378906 8.105469 C 6.378906 6.695312 7.523438 5.550781 8.933594 5.550781 Z M 8.933594 5.550781 " clip-rule="nonzero"/></clipPath></defs><g clip-path="url(#7a04f06abd)"><g clip-path="url(#b01384b102)"><path fill="#ffffff" d="M 6.378906 5.550781 L 143.679688 5.550781 L 143.679688 47.195312 L 6.378906 47.195312 Z M 6.378906 5.550781 " fill-opacity="1" fill-rule="nonzero"/></g></g><g fill="#d4af37" fill-opacity="1"><g transform="translate(13.546345, 29.149831)"><g><path d="M 5.140625 -14.4375 C 5.804688 -14.4375 6.3125 -14.359375 6.65625 -14.203125 C 7.007812 -14.046875 7.320312 -13.875 7.59375 -13.6875 C 7.75 -13.59375 7.875 -13.519531 7.96875 -13.46875 C 8.070312 -13.425781 8.171875 -13.40625 8.265625 -13.40625 C 8.398438 -13.40625 8.5 -13.476562 8.5625 -13.625 C 8.625 -13.78125 8.675781 -14.003906 8.71875 -14.296875 L 9.171875 -14.296875 C 9.160156 -14.066406 9.144531 -13.796875 9.125 -13.484375 C 9.101562 -13.171875 9.085938 -12.753906 9.078125 -12.234375 C 9.078125 -11.722656 9.078125 -11.046875 9.078125 -10.203125 L 8.609375 -10.203125 C 8.566406 -10.835938 8.425781 -11.453125 8.1875 -12.046875 C 7.945312 -12.640625 7.59375 -13.125 7.125 -13.5 C 6.664062 -13.875 6.066406 -14.0625 5.328125 -14.0625 C 4.609375 -14.0625 4.019531 -13.84375 3.5625 -13.40625 C 3.101562 -12.976562 2.875 -12.414062 2.875 -11.71875 C 2.875 -11.125 3.023438 -10.617188 3.328125 -10.203125 C 3.640625 -9.796875 4.050781 -9.425781 4.5625 -9.09375 C 5.082031 -8.769531 5.644531 -8.421875 6.25 -8.046875 C 6.9375 -7.617188 7.550781 -7.191406 8.09375 -6.765625 C 8.644531 -6.347656 9.078125 -5.882812 9.390625 -5.375 C 9.703125 -4.875 9.859375 -4.257812 9.859375 -3.53125 C 9.859375 -2.675781 9.660156 -1.96875 9.265625 -1.40625 C 8.878906 -0.84375 8.363281 -0.421875 7.71875 -0.140625 C 7.082031 0.140625 6.378906 0.28125 5.609375 0.28125 C 4.890625 0.28125 4.320312 0.195312 3.90625 0.03125 C 3.5 -0.125 3.144531 -0.289062 2.84375 -0.46875 C 2.550781 -0.65625 2.328125 -0.75 2.171875 -0.75 C 2.035156 -0.75 1.9375 -0.671875 1.875 -0.515625 C 1.8125 -0.367188 1.765625 -0.148438 1.734375 0.140625 L 1.265625 0.140625 C 1.296875 -0.140625 1.3125 -0.46875 1.3125 -0.84375 C 1.320312 -1.226562 1.328125 -1.726562 1.328125 -2.34375 C 1.335938 -2.957031 1.34375 -3.734375 1.34375 -4.671875 L 1.8125 -4.671875 C 1.863281 -3.867188 2.007812 -3.117188 2.25 -2.421875 C 2.5 -1.734375 2.878906 -1.175781 3.390625 -0.75 C 3.910156 -0.332031 4.601562 -0.125 5.46875 -0.125 C 5.90625 -0.125 6.320312 -0.210938 6.71875 -0.390625 C 7.113281 -0.566406 7.4375 -0.851562 7.6875 -1.25 C 7.945312 -1.644531 8.078125 -2.160156 8.078125 -2.796875 C 8.078125 -3.335938 7.941406 -3.8125 7.671875 -4.21875 C 7.410156 -4.632812 7.046875 -5.019531 6.578125 -5.375 C 6.117188 -5.726562 5.570312 -6.09375 4.9375 -6.46875 C 4.3125 -6.851562 3.722656 -7.242188 3.171875 -7.640625 C 2.617188 -8.046875 2.175781 -8.515625 1.84375 -9.046875 C 1.519531 -9.578125 1.359375 -10.21875 1.359375 -10.96875 C 1.359375 -11.75 1.535156 -12.394531 1.890625 -12.90625 C 2.242188 -13.425781 2.707031 -13.8125 3.28125 -14.0625 C 3.863281 -14.3125 4.484375 -14.4375 5.140625 -14.4375 Z M 5.140625 -14.4375 "/></g></g></g><g fill="#d4af37" fill-opacity="1"><g transform="translate(24.381181, 29.149831)"><g><path d="M 3.734375 -15.71875 L 3.734375 -8.21875 C 4.078125 -9.125 4.5625 -9.75 5.1875 -10.09375 C 5.8125 -10.445312 6.460938 -10.625 7.140625 -10.625 C 7.648438 -10.625 8.078125 -10.554688 8.421875 -10.421875 C 8.765625 -10.285156 9.050781 -10.097656 9.28125 -9.859375 C 9.53125 -9.585938 9.707031 -9.25 9.8125 -8.84375 C 9.925781 -8.445312 9.984375 -7.910156 9.984375 -7.234375 L 9.984375 -1.875 C 9.984375 -1.3125 10.097656 -0.925781 10.328125 -0.71875 C 10.566406 -0.519531 10.957031 -0.421875 11.5 -0.421875 L 11.5 0 C 11.269531 -0.0078125 10.921875 -0.0234375 10.453125 -0.046875 C 9.992188 -0.0664062 9.539062 -0.078125 9.09375 -0.078125 C 8.65625 -0.078125 8.222656 -0.0664062 7.796875 -0.046875 C 7.378906 -0.0234375 7.0625 -0.0078125 6.84375 0 L 6.84375 -0.421875 C 7.320312 -0.421875 7.660156 -0.519531 7.859375 -0.71875 C 8.066406 -0.925781 8.171875 -1.3125 8.171875 -1.875 L 8.171875 -7.671875 C 8.171875 -8.085938 8.132812 -8.46875 8.0625 -8.8125 C 8 -9.164062 7.847656 -9.445312 7.609375 -9.65625 C 7.378906 -9.875 7.023438 -9.984375 6.546875 -9.984375 C 5.992188 -9.984375 5.503906 -9.828125 5.078125 -9.515625 C 4.660156 -9.210938 4.332031 -8.785156 4.09375 -8.234375 C 3.851562 -7.679688 3.734375 -7.050781 3.734375 -6.34375 L 3.734375 -1.875 C 3.734375 -1.3125 3.832031 -0.925781 4.03125 -0.71875 C 4.238281 -0.519531 4.582031 -0.421875 5.0625 -0.421875 L 5.0625 0 C 4.84375 -0.0078125 4.519531 -0.0234375 4.09375 -0.046875 C 3.675781 -0.0664062 3.25 -0.078125 2.8125 -0.078125 C 2.363281 -0.078125 1.90625 -0.0664062 1.4375 -0.046875 C 0.976562 -0.0234375 0.632812 -0.0078125 0.40625 0 L 0.40625 -0.421875 C 0.945312 -0.421875 1.332031 -0.519531 1.5625 -0.71875 C 1.800781 -0.925781 1.921875 -1.3125 1.921875 -1.875 L 1.921875 -13.3125 C 1.921875 -13.914062 1.8125 -14.359375 1.59375 -14.640625 C 1.382812 -14.929688 0.988281 -15.078125 0.40625 -15.078125 L 0.40625 -15.5 C 0.832031 -15.457031 1.242188 -15.4375 1.640625 -15.4375 C 2.035156 -15.4375 2.410156 -15.457031 2.765625 -15.5 C 3.117188 -15.550781 3.441406 -15.625 3.734375 -15.71875 Z M 3.734375 -15.71875 "/></g></g></g><g fill="#d4af37" fill-opacity="1"><g transform="translate(36.179116, 29.149831)"><g><path d="M 2.875 -15.359375 C 3.226562 -15.359375 3.53125 -15.226562 3.78125 -14.96875 C 4.03125 -14.71875 4.15625 -14.421875 4.15625 -14.078125 C 4.15625 -13.722656 4.03125 -13.421875 3.78125 -13.171875 C 3.53125 -12.921875 3.226562 -12.796875 2.875 -12.796875 C 2.53125 -12.796875 2.226562 -12.921875 1.96875 -13.171875 C 1.71875 -13.421875 1.59375 -13.722656 1.59375 -14.078125 C 1.59375 -14.421875 1.71875 -14.71875 1.96875 -14.96875 C 2.226562 -15.226562 2.53125 -15.359375 2.875 -15.359375 Z M 3.921875 -10.5625 L 3.921875 -1.875 C 3.921875 -1.3125 4.035156 -0.925781 4.265625 -0.71875 C 4.503906 -0.519531 4.894531 -0.421875 5.4375 -0.421875 L 5.4375 0 C 5.207031 -0.0078125 4.863281 -0.0234375 4.40625 -0.046875 C 3.945312 -0.0664062 3.484375 -0.078125 3.015625 -0.078125 C 2.554688 -0.078125 2.09375 -0.0664062 1.625 -0.046875 C 1.15625 -0.0234375 0.804688 -0.0078125 0.578125 0 L 0.578125 -0.421875 C 1.128906 -0.421875 1.519531 -0.519531 1.75 -0.71875 C 1.988281 -0.925781 2.109375 -1.3125 2.109375 -1.875 L 2.109375 -8.15625 C 2.109375 -8.757812 2 -9.203125 1.78125 -9.484375 C 1.570312 -9.773438 1.171875 -9.921875 0.578125 -9.921875 L 0.578125 -10.34375 C 1.003906 -10.300781 1.421875 -10.28125 1.828125 -10.28125 C 2.210938 -10.28125 2.582031 -10.300781 2.9375 -10.34375 C 3.289062 -10.394531 3.617188 -10.46875 3.921875 -10.5625 Z M 3.921875 -10.5625 "/></g></g></g><g fill="#d4af37" fill-opacity="1"><g transform="translate(42.058021, 29.149831)"><g><path d="M 5.546875 -15.703125 C 5.921875 -15.703125 6.25 -15.648438 6.53125 -15.546875 C 6.820312 -15.453125 7.070312 -15.320312 7.28125 -15.15625 C 7.488281 -15 7.644531 -14.8125 7.75 -14.59375 C 7.851562 -14.382812 7.90625 -14.160156 7.90625 -13.921875 C 7.90625 -13.609375 7.804688 -13.347656 7.609375 -13.140625 C 7.410156 -12.941406 7.15625 -12.84375 6.84375 -12.84375 C 6.550781 -12.84375 6.296875 -12.941406 6.078125 -13.140625 C 5.859375 -13.335938 5.75 -13.601562 5.75 -13.9375 C 5.75 -14.21875 5.820312 -14.441406 5.96875 -14.609375 C 6.125 -14.785156 6.328125 -14.898438 6.578125 -14.953125 C 6.546875 -15.078125 6.445312 -15.179688 6.28125 -15.265625 C 6.113281 -15.359375 5.890625 -15.40625 5.609375 -15.40625 C 5.296875 -15.40625 5.03125 -15.335938 4.8125 -15.203125 C 4.59375 -15.066406 4.421875 -14.882812 4.296875 -14.65625 C 4.140625 -14.375 4.039062 -13.953125 4 -13.390625 C 3.957031 -12.835938 3.9375 -11.988281 3.9375 -10.84375 L 3.9375 -10.3125 L 6.078125 -10.3125 L 6.078125 -9.921875 L 3.9375 -9.921875 L 3.9375 -2.0625 C 3.9375 -1.40625 4.125 -0.96875 4.5 -0.75 C 4.882812 -0.53125 5.40625 -0.421875 6.0625 -0.421875 L 6.0625 0 C 5.757812 -0.0078125 5.328125 -0.0234375 4.765625 -0.046875 C 4.203125 -0.0664062 3.601562 -0.078125 2.96875 -0.078125 C 2.507812 -0.078125 2.054688 -0.0664062 1.609375 -0.046875 C 1.160156 -0.0234375 0.828125 -0.0078125 0.609375 0 L 0.609375 -0.421875 C 1.148438 -0.421875 1.535156 -0.519531 1.765625 -0.71875 C 2.003906 -0.925781 2.125 -1.3125 2.125 -1.875 L 2.125 -9.921875 L 0.515625 -9.921875 L 0.515625 -10.3125 L 2.125 -10.3125 C 2.125 -11.101562 2.15625 -11.765625 2.21875 -12.296875 C 2.289062 -12.835938 2.398438 -13.296875 2.546875 -13.671875 C 2.691406 -14.054688 2.894531 -14.398438 3.15625 -14.703125 C 3.414062 -15.003906 3.753906 -15.242188 4.171875 -15.421875 C 4.585938 -15.609375 5.046875 -15.703125 5.546875 -15.703125 Z M 5.546875 -15.703125 "/></g></g></g><g fill="#d4af37" fill-opacity="1"><g transform="translate(48.719442, 29.149831)"><g><path d="M 3.4375 0.140625 C 2.882812 0.140625 2.40625 0.0351562 2 -0.171875 C 1.601562 -0.378906 1.300781 -0.671875 1.09375 -1.046875 C 0.882812 -1.421875 0.78125 -1.851562 0.78125 -2.34375 C 0.78125 -2.9375 0.914062 -3.421875 1.1875 -3.796875 C 1.46875 -4.171875 1.820312 -4.472656 2.25 -4.703125 C 2.675781 -4.929688 3.125 -5.117188 3.59375 -5.265625 C 4.070312 -5.421875 4.523438 -5.566406 4.953125 -5.703125 C 5.390625 -5.847656 5.742188 -6.015625 6.015625 -6.203125 C 6.285156 -6.390625 6.421875 -6.640625 6.421875 -6.953125 L 6.421875 -8.1875 C 6.421875 -8.75 6.335938 -9.175781 6.171875 -9.46875 C 6.003906 -9.769531 5.78125 -9.96875 5.5 -10.0625 C 5.21875 -10.164062 4.90625 -10.21875 4.5625 -10.21875 C 4.226562 -10.21875 3.867188 -10.171875 3.484375 -10.078125 C 3.097656 -9.984375 2.789062 -9.789062 2.5625 -9.5 C 2.820312 -9.445312 3.046875 -9.3125 3.234375 -9.09375 C 3.421875 -8.882812 3.515625 -8.609375 3.515625 -8.265625 C 3.515625 -7.929688 3.40625 -7.664062 3.1875 -7.46875 C 2.976562 -7.28125 2.707031 -7.1875 2.375 -7.1875 C 1.976562 -7.1875 1.691406 -7.3125 1.515625 -7.5625 C 1.335938 -7.8125 1.25 -8.085938 1.25 -8.390625 C 1.25 -8.742188 1.332031 -9.023438 1.5 -9.234375 C 1.675781 -9.453125 1.898438 -9.65625 2.171875 -9.84375 C 2.472656 -10.050781 2.867188 -10.234375 3.359375 -10.390625 C 3.847656 -10.546875 4.398438 -10.625 5.015625 -10.625 C 5.566406 -10.625 6.035156 -10.554688 6.421875 -10.421875 C 6.804688 -10.296875 7.128906 -10.113281 7.390625 -9.875 C 7.734375 -9.550781 7.957031 -9.160156 8.0625 -8.703125 C 8.175781 -8.242188 8.234375 -7.691406 8.234375 -7.046875 L 8.234375 -1.46875 C 8.234375 -1.132812 8.28125 -0.890625 8.375 -0.734375 C 8.476562 -0.585938 8.640625 -0.515625 8.859375 -0.515625 C 9.003906 -0.515625 9.144531 -0.546875 9.28125 -0.609375 C 9.414062 -0.679688 9.578125 -0.789062 9.765625 -0.9375 L 9.984375 -0.609375 C 9.703125 -0.390625 9.429688 -0.207031 9.171875 -0.0625 C 8.921875 0.0703125 8.582031 0.140625 8.15625 0.140625 C 7.757812 0.140625 7.4375 0.0703125 7.1875 -0.0625 C 6.9375 -0.195312 6.742188 -0.394531 6.609375 -0.65625 C 6.484375 -0.914062 6.421875 -1.242188 6.421875 -1.640625 C 6.066406 -1.046875 5.632812 -0.597656 5.125 -0.296875 C 4.625 -0.00390625 4.0625 0.140625 3.4375 0.140625 Z M 4.15625 -0.65625 C 4.59375 -0.65625 5.003906 -0.78125 5.390625 -1.03125 C 5.773438 -1.289062 6.117188 -1.675781 6.421875 -2.1875 L 6.421875 -6.125 C 6.265625 -5.894531 6.03125 -5.703125 5.71875 -5.546875 C 5.414062 -5.398438 5.082031 -5.25 4.71875 -5.09375 C 4.351562 -4.9375 4.003906 -4.753906 3.671875 -4.546875 C 3.347656 -4.335938 3.078125 -4.066406 2.859375 -3.734375 C 2.648438 -3.398438 2.546875 -2.960938 2.546875 -2.421875 C 2.546875 -1.890625 2.6875 -1.460938 2.96875 -1.140625 C 3.257812 -0.816406 3.65625 -0.65625 4.15625 -0.65625 Z M 4.15625 -0.65625 "/></g></g></g><g fill="#d4af37" fill-opacity="1"><g transform="translate(58.711567, 29.149831)"><g><path d="M 8.640625 -5.984375 L 8.640625 -4.8125 L 1.390625 -4.8125 L 1.390625 -5.984375 Z M 8.640625 -5.984375 "/></g></g></g><g fill="#d4af37" fill-opacity="1"><g transform="translate(68.723761, 29.149831)"><g><path d="M 5.46875 -10.625 C 6.644531 -10.625 7.5625 -10.265625 8.21875 -9.546875 C 8.882812 -8.828125 9.21875 -7.710938 9.21875 -6.203125 L 2.125 -6.203125 L 2.109375 -6.578125 L 7.28125 -6.578125 C 7.3125 -7.234375 7.257812 -7.835938 7.125 -8.390625 C 6.988281 -8.953125 6.773438 -9.398438 6.484375 -9.734375 C 6.203125 -10.066406 5.832031 -10.234375 5.375 -10.234375 C 4.757812 -10.234375 4.210938 -9.925781 3.734375 -9.3125 C 3.265625 -8.695312 2.984375 -7.722656 2.890625 -6.390625 L 2.953125 -6.296875 C 2.921875 -6.097656 2.898438 -5.878906 2.890625 -5.640625 C 2.878906 -5.398438 2.875 -5.160156 2.875 -4.921875 C 2.875 -4.003906 3.019531 -3.21875 3.3125 -2.5625 C 3.601562 -1.914062 3.988281 -1.421875 4.46875 -1.078125 C 4.945312 -0.734375 5.4375 -0.5625 5.9375 -0.5625 C 6.34375 -0.5625 6.722656 -0.625 7.078125 -0.75 C 7.441406 -0.875 7.773438 -1.082031 8.078125 -1.375 C 8.390625 -1.675781 8.660156 -2.070312 8.890625 -2.5625 L 9.296875 -2.40625 C 9.148438 -1.96875 8.910156 -1.539062 8.578125 -1.125 C 8.242188 -0.707031 7.820312 -0.367188 7.3125 -0.109375 C 6.800781 0.148438 6.210938 0.28125 5.546875 0.28125 C 4.578125 0.28125 3.75 0.0625 3.0625 -0.375 C 2.375 -0.820312 1.84375 -1.4375 1.46875 -2.21875 C 1.101562 -3 0.921875 -3.898438 0.921875 -4.921875 C 0.921875 -6.097656 1.109375 -7.109375 1.484375 -7.953125 C 1.859375 -8.804688 2.382812 -9.460938 3.0625 -9.921875 C 3.75 -10.390625 4.550781 -10.625 5.46875 -10.625 Z M 5.46875 -10.625 "/></g></g></g><g fill="#d4af37" fill-opacity="1"><g transform="translate(78.876401, 29.149831)"><g><path d="M 8.640625 -5.984375 L 8.640625 -4.8125 L 1.390625 -4.8125 L 1.390625 -5.984375 Z M 8.640625 -5.984375 "/></g></g></g><g fill="#d4af37" fill-opacity="1"><g transform="translate(88.888595, 29.149831)"><g><path d="M 0.84375 -14.21875 C 1.125 -14.195312 1.488281 -14.179688 1.9375 -14.171875 C 2.394531 -14.160156 2.847656 -14.15625 3.296875 -14.15625 C 3.921875 -14.15625 4.519531 -14.160156 5.09375 -14.171875 C 5.675781 -14.179688 6.085938 -14.1875 6.328125 -14.1875 C 7.410156 -14.1875 8.304688 -14.03125 9.015625 -13.71875 C 9.734375 -13.414062 10.269531 -13 10.625 -12.46875 C 10.976562 -11.945312 11.15625 -11.359375 11.15625 -10.703125 C 11.15625 -10.296875 11.078125 -9.863281 10.921875 -9.40625 C 10.765625 -8.957031 10.488281 -8.53125 10.09375 -8.125 C 9.695312 -7.726562 9.15625 -7.398438 8.46875 -7.140625 C 7.789062 -6.878906 6.929688 -6.75 5.890625 -6.75 L 3.953125 -6.75 L 3.953125 -7.140625 L 5.6875 -7.140625 C 6.632812 -7.140625 7.359375 -7.289062 7.859375 -7.59375 C 8.359375 -7.894531 8.695312 -8.296875 8.875 -8.796875 C 9.0625 -9.304688 9.15625 -9.867188 9.15625 -10.484375 C 9.15625 -11.535156 8.90625 -12.351562 8.40625 -12.9375 C 7.90625 -13.519531 7.046875 -13.8125 5.828125 -13.8125 C 5.210938 -13.8125 4.8125 -13.695312 4.625 -13.46875 C 4.4375 -13.238281 4.34375 -12.78125 4.34375 -12.09375 L 4.34375 -2.125 C 4.34375 -1.644531 4.378906 -1.285156 4.453125 -1.046875 C 4.535156 -0.804688 4.691406 -0.644531 4.921875 -0.5625 C 5.160156 -0.476562 5.507812 -0.425781 5.96875 -0.40625 L 5.96875 0 C 5.65625 -0.03125 5.265625 -0.046875 4.796875 -0.046875 C 4.335938 -0.0546875 3.875 -0.0625 3.40625 -0.0625 C 2.882812 -0.0625 2.394531 -0.0546875 1.9375 -0.046875 C 1.488281 -0.046875 1.125 -0.03125 0.84375 0 L 0.84375 -0.40625 C 1.300781 -0.425781 1.644531 -0.476562 1.875 -0.5625 C 2.113281 -0.644531 2.269531 -0.804688 2.34375 -1.046875 C 2.425781 -1.285156 2.46875 -1.644531 2.46875 -2.125 L 2.46875 -12.09375 C 2.46875 -12.582031 2.425781 -12.941406 2.34375 -13.171875 C 2.269531 -13.410156 2.113281 -13.570312 1.875 -13.65625 C 1.644531 -13.75 1.300781 -13.800781 0.84375 -13.8125 Z M 4.03125 -7.09375 C 4.757812 -7.0625 5.328125 -7.03125 5.734375 -7 C 6.148438 -6.96875 6.488281 -6.9375 6.75 -6.90625 C 7.007812 -6.875 7.265625 -6.84375 7.515625 -6.8125 C 8.410156 -6.65625 9.054688 -6.378906 9.453125 -5.984375 C 9.847656 -5.597656 10.132812 -4.988281 10.3125 -4.15625 L 10.828125 -2.109375 C 10.953125 -1.515625 11.082031 -1.085938 11.21875 -0.828125 C 11.363281 -0.566406 11.585938 -0.445312 11.890625 -0.46875 C 12.117188 -0.476562 12.304688 -0.550781 12.453125 -0.6875 C 12.609375 -0.820312 12.773438 -1 12.953125 -1.21875 L 13.25 -1 C 12.96875 -0.582031 12.675781 -0.265625 12.375 -0.046875 C 12.070312 0.171875 11.648438 0.28125 11.109375 0.28125 C 10.609375 0.28125 10.171875 0.132812 9.796875 -0.15625 C 9.421875 -0.457031 9.140625 -1.035156 8.953125 -1.890625 L 8.515625 -3.890625 C 8.390625 -4.472656 8.25 -4.972656 8.09375 -5.390625 C 7.945312 -5.816406 7.734375 -6.148438 7.453125 -6.390625 C 7.179688 -6.628906 6.78125 -6.75 6.25 -6.75 L 4.078125 -6.75 Z M 4.03125 -7.09375 "/></g></g></g><g fill="#d4af37" fill-opacity="1"><g transform="translate(101.890395, 29.149831)"><g><path d="M 3.4375 0.140625 C 2.882812 0.140625 2.40625 0.0351562 2 -0.171875 C 1.601562 -0.378906 1.300781 -0.671875 1.09375 -1.046875 C 0.882812 -1.421875 0.78125 -1.851562 0.78125 -2.34375 C 0.78125 -2.9375 0.914062 -3.421875 1.1875 -3.796875 C 1.46875 -4.171875 1.820312 -4.472656 2.25 -4.703125 C 2.675781 -4.929688 3.125 -5.117188 3.59375 -5.265625 C 4.070312 -5.421875 4.523438 -5.566406 4.953125 -5.703125 C 5.390625 -5.847656 5.742188 -6.015625 6.015625 -6.203125 C 6.285156 -6.390625 6.421875 -6.640625 6.421875 -6.953125 L 6.421875 -8.1875 C 6.421875 -8.75 6.335938 -9.175781 6.171875 -9.46875 C 6.003906 -9.769531 5.78125 -9.96875 5.5 -10.0625 C 5.21875 -10.164062 4.90625 -10.21875 4.5625 -10.21875 C 4.226562 -10.21875 3.867188 -10.171875 3.484375 -10.078125 C 3.097656 -9.984375 2.789062 -9.789062 2.5625 -9.5 C 2.820312 -9.445312 3.046875 -9.3125 3.234375 -9.09375 C 3.421875 -8.882812 3.515625 -8.609375 3.515625 -8.265625 C 3.515625 -7.929688 3.40625 -7.664062 3.1875 -7.46875 C 2.976562 -7.28125 2.707031 -7.1875 2.375 -7.1875 C 1.976562 -7.1875 1.691406 -7.3125 1.515625 -7.5625 C 1.335938 -7.8125 1.25 -8.085938 1.25 -8.390625 C 1.25 -8.742188 1.332031 -9.023438 1.5 -9.234375 C 1.675781 -9.453125 1.898438 -9.65625 2.171875 -9.84375 C 2.472656 -10.050781 2.867188 -10.234375 3.359375 -10.390625 C 3.847656 -10.546875 4.398438 -10.625 5.015625 -10.625 C 5.566406 -10.625 6.035156 -10.554688 6.421875 -10.421875 C 6.804688 -10.296875 7.128906 -10.113281 7.390625 -9.875 C 7.734375 -9.550781 7.957031 -9.160156 8.0625 -8.703125 C 8.175781 -8.242188 8.234375 -7.691406 8.234375 -7.046875 L 8.234375 -1.46875 C 8.234375 -1.132812 8.28125 -0.890625 8.375 -0.734375 C 8.476562 -0.585938 8.640625 -0.515625 8.859375 -0.515625 C 9.003906 -0.515625 9.144531 -0.546875 9.28125 -0.609375 C 9.414062 -0.679688 9.578125 -0.789062 9.765625 -0.9375 L 9.984375 -0.609375 C 9.703125 -0.390625 9.429688 -0.207031 9.171875 -0.0625 C 8.921875 0.0703125 8.582031 0.140625 8.15625 0.140625 C 7.757812 0.140625 7.4375 0.0703125 7.1875 -0.0625 C 6.9375 -0.195312 6.742188 -0.394531 6.609375 -0.65625 C 6.484375 -0.914062 6.421875 -1.242188 6.421875 -1.640625 C 6.066406 -1.046875 5.632812 -0.597656 5.125 -0.296875 C 4.625 -0.00390625 4.0625 0.140625 3.4375 0.140625 Z M 4.15625 -0.65625 C 4.59375 -0.65625 5.003906 -0.78125 5.390625 -1.03125 C 5.773438 -1.289062 6.117188 -1.675781 6.421875 -2.1875 L 6.421875 -6.125 C 6.265625 -5.894531 6.03125 -5.703125 5.71875 -5.546875 C 5.414062 -5.398438 5.082031 -5.25 4.71875 -5.09375 C 4.351562 -4.9375 4.003906 -4.753906 3.671875 -4.546875 C 3.347656 -4.335938 3.078125 -4.066406 2.859375 -3.734375 C 2.648438 -3.398438 2.546875 -2.960938 2.546875 -2.421875 C 2.546875 -1.890625 2.6875 -1.460938 2.96875 -1.140625 C 3.257812 -0.816406 3.65625 -0.65625 4.15625 -0.65625 Z M 4.15625 -0.65625 "/></g></g></g><g fill="#d4af37" fill-opacity="1"><g transform="translate(111.882521, 29.149831)"><g><path d="M 8.8125 -10.4375 L 3.015625 -0.296875 L 5.21875 -0.296875 C 5.757812 -0.296875 6.222656 -0.398438 6.609375 -0.609375 C 7.003906 -0.828125 7.320312 -1.175781 7.5625 -1.65625 C 7.8125 -2.132812 7.960938 -2.757812 8.015625 -3.53125 L 8.46875 -3.53125 C 8.46875 -2.675781 8.472656 -1.953125 8.484375 -1.359375 C 8.503906 -0.773438 8.523438 -0.296875 8.546875 0.078125 C 7.960938 0.0546875 7.351562 0.0351562 6.71875 0.015625 C 6.082031 0.00390625 5.445312 0 4.8125 0 C 4.144531 0 3.460938 0.0078125 2.765625 0.03125 C 2.078125 0.0507812 1.410156 0.0703125 0.765625 0.09375 L 6.5625 -10.046875 L 4.359375 -10.046875 C 3.765625 -10.046875 3.269531 -9.9375 2.875 -9.71875 C 2.476562 -9.5 2.175781 -9.148438 1.96875 -8.671875 C 1.769531 -8.203125 1.632812 -7.582031 1.5625 -6.8125 L 1.109375 -6.8125 C 1.109375 -7.675781 1.097656 -8.398438 1.078125 -8.984375 C 1.066406 -9.566406 1.050781 -10.046875 1.03125 -10.421875 C 1.613281 -10.390625 2.222656 -10.367188 2.859375 -10.359375 C 3.492188 -10.347656 4.128906 -10.34375 4.765625 -10.34375 C 5.429688 -10.34375 6.109375 -10.351562 6.796875 -10.375 C 7.492188 -10.394531 8.164062 -10.414062 8.8125 -10.4375 Z M 8.8125 -10.4375 "/></g></g></g><g fill="#d4af37" fill-opacity="1"><g transform="translate(121.433228, 29.149831)"><g><path d="M 3.4375 0.140625 C 2.882812 0.140625 2.40625 0.0351562 2 -0.171875 C 1.601562 -0.378906 1.300781 -0.671875 1.09375 -1.046875 C 0.882812 -1.421875 0.78125 -1.851562 0.78125 -2.34375 C 0.78125 -2.9375 0.914062 -3.421875 1.1875 -3.796875 C 1.46875 -4.171875 1.820312 -4.472656 2.25 -4.703125 C 2.675781 -4.929688 3.125 -5.117188 3.59375 -5.265625 C 4.070312 -5.421875 4.523438 -5.566406 4.953125 -5.703125 C 5.390625 -5.847656 5.742188 -6.015625 6.015625 -6.203125 C 6.285156 -6.390625 6.421875 -6.640625 6.421875 -6.953125 L 6.421875 -8.1875 C 6.421875 -8.75 6.335938 -9.175781 6.171875 -9.46875 C 6.003906 -9.769531 5.78125 -9.96875 5.5 -10.0625 C 5.21875 -10.164062 4.90625 -10.21875 4.5625 -10.21875 C 4.226562 -10.21875 3.867188 -10.171875 3.484375 -10.078125 C 3.097656 -9.984375 2.789062 -9.789062 2.5625 -9.5 C 2.820312 -9.445312 3.046875 -9.3125 3.234375 -9.09375 C 3.421875 -8.882812 3.515625 -8.609375 3.515625 -8.265625 C 3.515625 -7.929688 3.40625 -7.664062 3.1875 -7.46875 C 2.976562 -7.28125 2.707031 -7.1875 2.375 -7.1875 C 1.976562 -7.1875 1.691406 -7.3125 1.515625 -7.5625 C 1.335938 -7.8125 1.25 -8.085938 1.25 -8.390625 C 1.25 -8.742188 1.332031 -9.023438 1.5 -9.234375 C 1.675781 -9.453125 1.898438 -9.65625 2.171875 -9.84375 C 2.472656 -10.050781 2.867188 -10.234375 3.359375 -10.390625 C 3.847656 -10.546875 4.398438 -10.625 5.015625 -10.625 C 5.566406 -10.625 6.035156 -10.554688 6.421875 -10.421875 C 6.804688 -10.296875 7.128906 -10.113281 7.390625 -9.875 C 7.734375 -9.550781 7.957031 -9.160156 8.0625 -8.703125 C 8.175781 -8.242188 8.234375 -7.691406 8.234375 -7.046875 L 8.234375 -1.46875 C 8.234375 -1.132812 8.28125 -0.890625 8.375 -0.734375 C 8.476562 -0.585938 8.640625 -0.515625 8.859375 -0.515625 C 9.003906 -0.515625 9.144531 -0.546875 9.28125 -0.609375 C 9.414062 -0.679688 9.578125 -0.789062 9.765625 -0.9375 L 9.984375 -0.609375 C 9.703125 -0.390625 9.429688 -0.207031 9.171875 -0.0625 C 8.921875 0.0703125 8.582031 0.140625 8.15625 0.140625 C 7.757812 0.140625 7.4375 0.0703125 7.1875 -0.0625 C 6.9375 -0.195312 6.742188 -0.394531 6.609375 -0.65625 C 6.484375 -0.914062 6.421875 -1.242188 6.421875 -1.640625 C 6.066406 -1.046875 5.632812 -0.597656 5.125 -0.296875 C 4.625 -0.00390625 4.0625 0.140625 3.4375 0.140625 Z M 4.15625 -0.65625 C 4.59375 -0.65625 5.003906 -0.78125 5.390625 -1.03125 C 5.773438 -1.289062 6.117188 -1.675781 6.421875 -2.1875 L 6.421875 -6.125 C 6.265625 -5.894531 6.03125 -5.703125 5.71875 -5.546875 C 5.414062 -5.398438 5.082031 -5.25 4.71875 -5.09375 C 4.351562 -4.9375 4.003906 -4.753906 3.671875 -4.546875 C 3.347656 -4.335938 3.078125 -4.066406 2.859375 -3.734375 C 2.648438 -3.398438 2.546875 -2.960938 2.546875 -2.421875 C 2.546875 -1.890625 2.6875 -1.460938 2.96875 -1.140625 C 3.257812 -0.816406 3.65625 -0.65625 4.15625 -0.65625 Z M 4.15625 -0.65625 "/></g></g></g><g fill="#d4af37" fill-opacity="1"><g transform="translate(131.435416, 29.149831)"><g/></g></g><g fill="#000000" fill-opacity="1"><g transform="translate(23.713027, 39.584368)"><g><path d="M 3.53125 -2.65625 L 3.53125 -4.46875 L 4.046875 -4.46875 L 4.046875 0 L 3.53125 0 L 3.53125 -2.21875 L 1.203125 -2.21875 L 1.203125 0 L 0.671875 0 L 0.671875 -4.46875 L 1.203125 -4.46875 L 1.203125 -2.65625 Z M 3.53125 -2.65625 "/></g></g></g><g fill="#000000" fill-opacity="1"><g transform="translate(29.173124, 39.584368)"><g><path d="M 3.21875 -1.578125 L 0.890625 -1.578125 C 0.910156 -1.160156 1.007812 -0.851562 1.1875 -0.65625 C 1.375 -0.46875 1.625 -0.375 1.9375 -0.375 C 2.175781 -0.375 2.367188 -0.414062 2.515625 -0.5 C 2.671875 -0.59375 2.789062 -0.734375 2.875 -0.921875 L 2.9375 -0.921875 L 3.265625 -0.71875 C 3.160156 -0.476562 3 -0.285156 2.78125 -0.140625 C 2.570312 -0.00390625 2.289062 0.0625 1.9375 0.0625 C 1.613281 0.0625 1.332031 0 1.09375 -0.125 C 0.863281 -0.257812 0.6875 -0.457031 0.5625 -0.71875 C 0.4375 -0.976562 0.375 -1.300781 0.375 -1.6875 C 0.375 -2.070312 0.4375 -2.394531 0.5625 -2.65625 C 0.695312 -2.914062 0.878906 -3.109375 1.109375 -3.234375 C 1.347656 -3.367188 1.613281 -3.4375 1.90625 -3.4375 C 2.34375 -3.4375 2.679688 -3.3125 2.921875 -3.0625 C 3.160156 -2.820312 3.285156 -2.460938 3.296875 -1.984375 C 3.296875 -1.796875 3.289062 -1.671875 3.28125 -1.609375 Z M 2.796875 -1.984375 C 2.785156 -2.347656 2.703125 -2.609375 2.546875 -2.765625 C 2.398438 -2.929688 2.1875 -3.015625 1.90625 -3.015625 C 1.613281 -3.015625 1.382812 -2.929688 1.21875 -2.765625 C 1.050781 -2.609375 0.945312 -2.347656 0.90625 -1.984375 Z M 2.796875 -1.984375 "/></g></g></g><g fill="#000000" fill-opacity="1"><g transform="translate(33.500643, 39.584368)"><g><path d="M 1.390625 0.0625 C 1.054688 0.0625 0.796875 -0.0195312 0.609375 -0.1875 C 0.421875 -0.363281 0.328125 -0.613281 0.328125 -0.9375 C 0.328125 -1.132812 0.367188 -1.300781 0.453125 -1.4375 C 0.535156 -1.582031 0.660156 -1.695312 0.828125 -1.78125 C 1.003906 -1.863281 1.234375 -1.929688 1.515625 -1.984375 C 1.765625 -2.023438 1.953125 -2.070312 2.078125 -2.125 C 2.203125 -2.175781 2.285156 -2.234375 2.328125 -2.296875 C 2.378906 -2.359375 2.40625 -2.4375 2.40625 -2.53125 C 2.40625 -2.6875 2.351562 -2.800781 2.25 -2.875 C 2.144531 -2.957031 1.972656 -3 1.734375 -3 C 1.515625 -3 1.328125 -2.957031 1.171875 -2.875 C 1.015625 -2.789062 0.875 -2.664062 0.75 -2.5 L 0.6875 -2.5 L 0.4375 -2.84375 C 0.582031 -3.03125 0.765625 -3.175781 0.984375 -3.28125 C 1.203125 -3.382812 1.453125 -3.4375 1.734375 -3.4375 C 2.128906 -3.4375 2.421875 -3.347656 2.609375 -3.171875 C 2.804688 -3.003906 2.90625 -2.765625 2.90625 -2.453125 L 2.90625 -0.65625 C 2.90625 -0.46875 2.984375 -0.375 3.140625 -0.375 C 3.191406 -0.375 3.242188 -0.382812 3.296875 -0.40625 L 3.328125 -0.390625 L 3.390625 -0.046875 C 3.359375 -0.0234375 3.3125 -0.0078125 3.25 0 C 3.1875 0.0195312 3.125 0.03125 3.0625 0.03125 C 2.875 0.03125 2.734375 -0.0078125 2.640625 -0.09375 C 2.546875 -0.175781 2.484375 -0.296875 2.453125 -0.453125 L 2.390625 -0.46875 C 2.296875 -0.289062 2.164062 -0.15625 2 -0.0625 C 1.84375 0.0195312 1.640625 0.0625 1.390625 0.0625 Z M 1.5 -0.328125 C 1.6875 -0.328125 1.847656 -0.367188 1.984375 -0.453125 C 2.128906 -0.546875 2.238281 -0.671875 2.3125 -0.828125 C 2.382812 -0.984375 2.421875 -1.164062 2.421875 -1.375 L 2.421875 -1.796875 L 2.359375 -1.8125 C 2.285156 -1.757812 2.191406 -1.710938 2.078125 -1.671875 C 1.972656 -1.640625 1.820312 -1.609375 1.625 -1.578125 C 1.4375 -1.554688 1.28125 -1.515625 1.15625 -1.453125 C 1.039062 -1.398438 0.957031 -1.332031 0.90625 -1.25 C 0.863281 -1.164062 0.84375 -1.0625 0.84375 -0.9375 C 0.84375 -0.738281 0.898438 -0.585938 1.015625 -0.484375 C 1.128906 -0.378906 1.289062 -0.328125 1.5 -0.328125 Z M 1.5 -0.328125 "/></g></g></g><g fill="#000000" fill-opacity="1"><g transform="translate(37.721026, 39.584368)"><g><path d="M 1.34375 0.0625 C 1.101562 0.0625 0.914062 -0.00390625 0.78125 -0.140625 C 0.644531 -0.273438 0.578125 -0.476562 0.578125 -0.75 L 0.578125 -4.734375 L 1.078125 -4.734375 L 1.078125 -0.78125 C 1.078125 -0.632812 1.101562 -0.53125 1.15625 -0.46875 C 1.207031 -0.40625 1.289062 -0.375 1.40625 -0.375 C 1.476562 -0.375 1.550781 -0.390625 1.625 -0.421875 L 1.65625 -0.40625 L 1.71875 -0.015625 C 1.6875 0.015625 1.632812 0.0351562 1.5625 0.046875 C 1.488281 0.0546875 1.414062 0.0625 1.34375 0.0625 Z M 1.34375 0.0625 "/></g></g></g><g fill="#000000" fill-opacity="1"><g transform="translate(40.285398, 39.584368)"><g><path d="M 2.28125 -0.53125 L 2.4375 -0.171875 C 2.363281 -0.0976562 2.257812 -0.0390625 2.125 0 C 2 0.0390625 1.859375 0.0625 1.703125 0.0625 C 1.054688 0.0625 0.734375 -0.265625 0.734375 -0.921875 L 0.734375 -2.96875 L 0.15625 -2.96875 L 0.15625 -3.375 L 0.734375 -3.375 L 0.734375 -4.09375 L 1.234375 -4.171875 L 1.234375 -3.375 L 2.328125 -3.375 L 2.328125 -2.96875 L 1.234375 -2.96875 L 1.234375 -0.96875 C 1.234375 -0.570312 1.40625 -0.375 1.75 -0.375 C 1.925781 -0.375 2.082031 -0.425781 2.21875 -0.53125 Z M 2.28125 -0.53125 "/></g></g></g><g fill="#000000" fill-opacity="1"><g transform="translate(43.584415, 39.584368)"><g><path d="M 0.59375 0 L 0.59375 -4.734375 L 1.09375 -4.734375 L 1.09375 -2.890625 L 1.15625 -2.875 C 1.394531 -3.25 1.738281 -3.4375 2.1875 -3.4375 C 2.59375 -3.4375 2.882812 -3.332031 3.0625 -3.125 C 3.25 -2.914062 3.34375 -2.597656 3.34375 -2.171875 L 3.34375 0 L 2.84375 0 L 2.84375 -2.15625 C 2.84375 -2.363281 2.816406 -2.53125 2.765625 -2.65625 C 2.722656 -2.78125 2.644531 -2.867188 2.53125 -2.921875 C 2.425781 -2.972656 2.285156 -3 2.109375 -3 C 1.796875 -3 1.546875 -2.898438 1.359375 -2.703125 C 1.179688 -2.503906 1.09375 -2.179688 1.09375 -1.734375 L 1.09375 0 Z M 0.59375 0 "/></g></g></g><g fill="#000000" fill-opacity="1"><g transform="translate(48.199671, 39.584368)"><g><path d="M 1.9375 0.0625 C 1.632812 0.0625 1.363281 -0.00390625 1.125 -0.140625 C 0.894531 -0.273438 0.710938 -0.472656 0.578125 -0.734375 C 0.441406 -1.003906 0.375 -1.320312 0.375 -1.6875 C 0.375 -2.050781 0.441406 -2.363281 0.578125 -2.625 C 0.710938 -2.894531 0.894531 -3.097656 1.125 -3.234375 C 1.363281 -3.367188 1.632812 -3.4375 1.9375 -3.4375 C 2.289062 -3.4375 2.570312 -3.367188 2.78125 -3.234375 C 3 -3.097656 3.15625 -2.921875 3.25 -2.703125 L 2.90625 -2.453125 L 2.84375 -2.453125 C 2.75 -2.640625 2.628906 -2.773438 2.484375 -2.859375 C 2.347656 -2.941406 2.164062 -2.984375 1.9375 -2.984375 C 1.726562 -2.984375 1.546875 -2.9375 1.390625 -2.84375 C 1.234375 -2.75 1.109375 -2.601562 1.015625 -2.40625 C 0.929688 -2.207031 0.890625 -1.96875 0.890625 -1.6875 C 0.890625 -1.40625 0.929688 -1.164062 1.015625 -0.96875 C 1.109375 -0.769531 1.234375 -0.617188 1.390625 -0.515625 C 1.546875 -0.421875 1.726562 -0.375 1.9375 -0.375 C 2.164062 -0.375 2.359375 -0.425781 2.515625 -0.53125 C 2.671875 -0.644531 2.789062 -0.816406 2.875 -1.046875 L 2.953125 -1.046875 L 3.28125 -0.84375 C 3.1875 -0.5625 3.023438 -0.335938 2.796875 -0.171875 C 2.578125 -0.015625 2.289062 0.0625 1.9375 0.0625 Z M 1.9375 0.0625 "/></g></g></g><g fill="#000000" fill-opacity="1"><g transform="translate(52.407811, 39.584368)"><g><path d="M 1.390625 0.0625 C 1.054688 0.0625 0.796875 -0.0195312 0.609375 -0.1875 C 0.421875 -0.363281 0.328125 -0.613281 0.328125 -0.9375 C 0.328125 -1.132812 0.367188 -1.300781 0.453125 -1.4375 C 0.535156 -1.582031 0.660156 -1.695312 0.828125 -1.78125 C 1.003906 -1.863281 1.234375 -1.929688 1.515625 -1.984375 C 1.765625 -2.023438 1.953125 -2.070312 2.078125 -2.125 C 2.203125 -2.175781 2.285156 -2.234375 2.328125 -2.296875 C 2.378906 -2.359375 2.40625 -2.4375 2.40625 -2.53125 C 2.40625 -2.6875 2.351562 -2.800781 2.25 -2.875 C 2.144531 -2.957031 1.972656 -3 1.734375 -3 C 1.515625 -3 1.328125 -2.957031 1.171875 -2.875 C 1.015625 -2.789062 0.875 -2.664062 0.75 -2.5 L 0.6875 -2.5 L 0.4375 -2.84375 C 0.582031 -3.03125 0.765625 -3.175781 0.984375 -3.28125 C 1.203125 -3.382812 1.453125 -3.4375 1.734375 -3.4375 C 2.128906 -3.4375 2.421875 -3.347656 2.609375 -3.171875 C 2.804688 -3.003906 2.90625 -2.765625 2.90625 -2.453125 L 2.90625 -0.65625 C 2.90625 -0.46875 2.984375 -0.375 3.140625 -0.375 C 3.191406 -0.375 3.242188 -0.382812 3.296875 -0.40625 L 3.328125 -0.390625 L 3.390625 -0.046875 C 3.359375 -0.0234375 3.3125 -0.0078125 3.25 0 C 3.1875 0.0195312 3.125 0.03125 3.0625 0.03125 C 2.875 0.03125 2.734375 -0.0078125 2.640625 -0.09375 C 2.546875 -0.175781 2.484375 -0.296875 2.453125 -0.453125 L 2.390625 -0.46875 C 2.296875 -0.289062 2.164062 -0.15625 2 -0.0625 C 1.84375 0.0195312 1.640625 0.0625 1.390625 0.0625 Z M 1.5 -0.328125 C 1.6875 -0.328125 1.847656 -0.367188 1.984375 -0.453125 C 2.128906 -0.546875 2.238281 -0.671875 2.3125 -0.828125 C 2.382812 -0.984375 2.421875 -1.164062 2.421875 -1.375 L 2.421875 -1.796875 L 2.359375 -1.8125 C 2.285156 -1.757812 2.191406 -1.710938 2.078125 -1.671875 C 1.972656 -1.640625 1.820312 -1.609375 1.625 -1.578125 C 1.4375 -1.554688 1.28125 -1.515625 1.15625 -1.453125 C 1.039062 -1.398438 0.957031 -1.332031 0.90625 -1.25 C 0.863281 -1.164062 0.84375 -1.0625 0.84375 -0.9375 C 0.84375 -0.738281 0.898438 -0.585938 1.015625 -0.484375 C 1.128906 -0.378906 1.289062 -0.328125 1.5 -0.328125 Z M 1.5 -0.328125 "/></g></g></g><g fill="#000000" fill-opacity="1"><g transform="translate(56.628195, 39.584368)"><g><path d="M 0.59375 0 L 0.59375 -3.375 L 1.0625 -3.375 L 1.0625 -2.84375 L 1.125 -2.828125 C 1.28125 -3.210938 1.578125 -3.40625 2.015625 -3.40625 C 2.242188 -3.40625 2.414062 -3.363281 2.53125 -3.28125 L 2.40625 -2.859375 L 2.34375 -2.84375 C 2.21875 -2.90625 2.078125 -2.9375 1.921875 -2.9375 C 1.648438 -2.9375 1.441406 -2.832031 1.296875 -2.625 C 1.160156 -2.425781 1.09375 -2.101562 1.09375 -1.65625 L 1.09375 0 Z M 0.59375 0 "/></g></g></g><g fill="#000000" fill-opacity="1"><g transform="translate(59.963943, 39.584368)"><g><path d="M 3.21875 -1.578125 L 0.890625 -1.578125 C 0.910156 -1.160156 1.007812 -0.851562 1.1875 -0.65625 C 1.375 -0.46875 1.625 -0.375 1.9375 -0.375 C 2.175781 -0.375 2.367188 -0.414062 2.515625 -0.5 C 2.671875 -0.59375 2.789062 -0.734375 2.875 -0.921875 L 2.9375 -0.921875 L 3.265625 -0.71875 C 3.160156 -0.476562 3 -0.285156 2.78125 -0.140625 C 2.570312 -0.00390625 2.289062 0.0625 1.9375 0.0625 C 1.613281 0.0625 1.332031 0 1.09375 -0.125 C 0.863281 -0.257812 0.6875 -0.457031 0.5625 -0.71875 C 0.4375 -0.976562 0.375 -1.300781 0.375 -1.6875 C 0.375 -2.070312 0.4375 -2.394531 0.5625 -2.65625 C 0.695312 -2.914062 0.878906 -3.109375 1.109375 -3.234375 C 1.347656 -3.367188 1.613281 -3.4375 1.90625 -3.4375 C 2.34375 -3.4375 2.679688 -3.3125 2.921875 -3.0625 C 3.160156 -2.820312 3.285156 -2.460938 3.296875 -1.984375 C 3.296875 -1.796875 3.289062 -1.671875 3.28125 -1.609375 Z M 2.796875 -1.984375 C 2.785156 -2.347656 2.703125 -2.609375 2.546875 -2.765625 C 2.398438 -2.929688 2.1875 -3.015625 1.90625 -3.015625 C 1.613281 -3.015625 1.382812 -2.929688 1.21875 -2.765625 C 1.050781 -2.609375 0.945312 -2.347656 0.90625 -1.984375 Z M 2.796875 -1.984375 "/></g></g></g><g fill="#000000" fill-opacity="1"><g transform="translate(64.291462, 39.584368)"><g/></g></g><g fill="#000000" fill-opacity="1"><g transform="translate(66.555855, 39.584368)"><g><path d="M 1.875 0.0625 C 1.5625 0.0625 1.285156 0.0078125 1.046875 -0.09375 C 0.816406 -0.207031 0.640625 -0.363281 0.515625 -0.5625 C 0.390625 -0.769531 0.328125 -1.007812 0.328125 -1.28125 C 0.328125 -1.59375 0.40625 -1.847656 0.5625 -2.046875 C 0.726562 -2.242188 0.960938 -2.40625 1.265625 -2.53125 L 1.28125 -2.59375 C 1.125 -2.769531 1.015625 -2.929688 0.953125 -3.078125 C 0.898438 -3.222656 0.875 -3.382812 0.875 -3.5625 C 0.875 -3.75 0.914062 -3.914062 1 -4.0625 C 1.082031 -4.207031 1.207031 -4.320312 1.375 -4.40625 C 1.539062 -4.488281 1.738281 -4.53125 1.96875 -4.53125 C 2.175781 -4.53125 2.359375 -4.492188 2.515625 -4.421875 C 2.671875 -4.347656 2.789062 -4.242188 2.875 -4.109375 C 2.957031 -3.972656 3 -3.8125 3 -3.625 C 3 -3.351562 2.914062 -3.117188 2.75 -2.921875 C 2.582031 -2.722656 2.332031 -2.5625 2 -2.4375 L 1.984375 -2.375 L 3.046875 -0.984375 C 3.117188 -1.140625 3.171875 -1.316406 3.203125 -1.515625 C 3.242188 -1.710938 3.265625 -1.9375 3.265625 -2.1875 L 3.265625 -2.28125 L 3.703125 -2.28125 C 3.703125 -1.570312 3.578125 -1.023438 3.328125 -0.640625 C 3.421875 -0.535156 3.492188 -0.46875 3.546875 -0.4375 C 3.609375 -0.40625 3.671875 -0.390625 3.734375 -0.390625 C 3.796875 -0.390625 3.859375 -0.398438 3.921875 -0.421875 L 3.96875 -0.40625 L 4.03125 -0.046875 C 4 -0.015625 3.953125 0.00390625 3.890625 0.015625 C 3.828125 0.0351562 3.765625 0.046875 3.703125 0.046875 C 3.566406 0.046875 3.441406 0.015625 3.328125 -0.046875 C 3.222656 -0.109375 3.128906 -0.195312 3.046875 -0.3125 L 2.984375 -0.3125 C 2.734375 -0.0625 2.363281 0.0625 1.875 0.0625 Z M 1.71875 -2.71875 C 1.988281 -2.832031 2.1875 -2.957031 2.3125 -3.09375 C 2.445312 -3.226562 2.515625 -3.398438 2.515625 -3.609375 C 2.515625 -3.765625 2.460938 -3.890625 2.359375 -3.984375 C 2.265625 -4.078125 2.132812 -4.125 1.96875 -4.125 C 1.78125 -4.125 1.632812 -4.070312 1.53125 -3.96875 C 1.425781 -3.863281 1.375 -3.722656 1.375 -3.546875 C 1.375 -3.421875 1.394531 -3.300781 1.4375 -3.1875 C 1.488281 -3.070312 1.582031 -2.914062 1.71875 -2.71875 Z M 1.890625 -0.375 C 2.234375 -0.375 2.515625 -0.460938 2.734375 -0.640625 L 1.484375 -2.25 C 1.285156 -2.15625 1.132812 -2.03125 1.03125 -1.875 C 0.925781 -1.726562 0.875 -1.539062 0.875 -1.3125 C 0.875 -1.113281 0.914062 -0.941406 1 -0.796875 C 1.082031 -0.660156 1.195312 -0.554688 1.34375 -0.484375 C 1.5 -0.410156 1.679688 -0.375 1.890625 -0.375 Z M 1.890625 -0.375 "/></g></g></g><g fill="#000000" fill-opacity="1"><g transform="translate(71.44048, 39.584368)"><g/></g></g><g fill="#000000" fill-opacity="1"><g transform="translate(73.704873, 39.584368)"><g><path d="M 1.953125 0.0625 C 1.671875 0.0625 1.414062 0.0234375 1.1875 -0.046875 C 0.96875 -0.128906 0.785156 -0.226562 0.640625 -0.34375 C 0.492188 -0.46875 0.382812 -0.609375 0.3125 -0.765625 L 0.59375 -1.109375 L 0.671875 -1.109375 C 0.953125 -0.640625 1.378906 -0.40625 1.953125 -0.40625 C 2.285156 -0.40625 2.535156 -0.472656 2.703125 -0.609375 C 2.867188 -0.753906 2.953125 -0.953125 2.953125 -1.203125 C 2.953125 -1.347656 2.925781 -1.472656 2.875 -1.578125 C 2.820312 -1.679688 2.734375 -1.769531 2.609375 -1.84375 C 2.484375 -1.914062 2.3125 -1.976562 2.09375 -2.03125 L 1.578125 -2.15625 C 1.179688 -2.25 0.890625 -2.398438 0.703125 -2.609375 C 0.523438 -2.816406 0.4375 -3.078125 0.4375 -3.390625 C 0.4375 -3.609375 0.492188 -3.804688 0.609375 -3.984375 C 0.722656 -4.160156 0.890625 -4.296875 1.109375 -4.390625 C 1.328125 -4.484375 1.585938 -4.53125 1.890625 -4.53125 C 2.234375 -4.53125 2.519531 -4.484375 2.75 -4.390625 C 2.976562 -4.296875 3.160156 -4.15625 3.296875 -3.96875 L 3.046875 -3.625 L 2.96875 -3.625 C 2.84375 -3.78125 2.691406 -3.894531 2.515625 -3.96875 C 2.335938 -4.039062 2.128906 -4.078125 1.890625 -4.078125 C 1.585938 -4.078125 1.351562 -4.015625 1.1875 -3.890625 C 1.03125 -3.773438 0.953125 -3.613281 0.953125 -3.40625 C 0.953125 -3.195312 1.007812 -3.03125 1.125 -2.90625 C 1.25 -2.789062 1.445312 -2.703125 1.71875 -2.640625 L 2.25 -2.515625 C 2.6875 -2.410156 3 -2.25 3.1875 -2.03125 C 3.382812 -1.820312 3.484375 -1.554688 3.484375 -1.234375 C 3.484375 -0.984375 3.425781 -0.757812 3.3125 -0.5625 C 3.207031 -0.363281 3.035156 -0.207031 2.796875 -0.09375 C 2.566406 0.0078125 2.285156 0.0625 1.953125 0.0625 Z M 1.953125 0.0625 "/></g></g></g><g fill="#000000" fill-opacity="1"><g transform="translate(78.268091, 39.584368)"><g><path d="M 1.9375 0.0625 C 1.613281 0.0625 1.332031 -0.00390625 1.09375 -0.140625 C 0.863281 -0.273438 0.6875 -0.472656 0.5625 -0.734375 C 0.4375 -0.992188 0.375 -1.3125 0.375 -1.6875 C 0.375 -2.0625 0.4375 -2.378906 0.5625 -2.640625 C 0.6875 -2.898438 0.863281 -3.097656 1.09375 -3.234375 C 1.332031 -3.367188 1.613281 -3.4375 1.9375 -3.4375 C 2.25 -3.4375 2.523438 -3.367188 2.765625 -3.234375 C 3.003906 -3.097656 3.1875 -2.898438 3.3125 -2.640625 C 3.4375 -2.378906 3.5 -2.0625 3.5 -1.6875 C 3.5 -1.3125 3.4375 -0.992188 3.3125 -0.734375 C 3.1875 -0.472656 3.003906 -0.273438 2.765625 -0.140625 C 2.523438 -0.00390625 2.25 0.0625 1.9375 0.0625 Z M 1.9375 -0.375 C 2.269531 -0.375 2.523438 -0.476562 2.703125 -0.6875 C 2.890625 -0.90625 2.984375 -1.238281 2.984375 -1.6875 C 2.984375 -2.132812 2.890625 -2.460938 2.703125 -2.671875 C 2.523438 -2.878906 2.269531 -2.984375 1.9375 -2.984375 C 1.601562 -2.984375 1.34375 -2.878906 1.15625 -2.671875 C 0.976562 -2.460938 0.890625 -2.132812 0.890625 -1.6875 C 0.890625 -1.238281 0.976562 -0.90625 1.15625 -0.6875 C 1.34375 -0.476562 1.601562 -0.375 1.9375 -0.375 Z M 1.9375 -0.375 "/></g></g></g><g fill="#000000" fill-opacity="1"><g transform="translate(82.871103, 39.584368)"><g><path d="M 1.9375 0.0625 C 1.632812 0.0625 1.363281 -0.00390625 1.125 -0.140625 C 0.894531 -0.273438 0.710938 -0.472656 0.578125 -0.734375 C 0.441406 -1.003906 0.375 -1.320312 0.375 -1.6875 C 0.375 -2.050781 0.441406 -2.363281 0.578125 -2.625 C 0.710938 -2.894531 0.894531 -3.097656 1.125 -3.234375 C 1.363281 -3.367188 1.632812 -3.4375 1.9375 -3.4375 C 2.289062 -3.4375 2.570312 -3.367188 2.78125 -3.234375 C 3 -3.097656 3.15625 -2.921875 3.25 -2.703125 L 2.90625 -2.453125 L 2.84375 -2.453125 C 2.75 -2.640625 2.628906 -2.773438 2.484375 -2.859375 C 2.347656 -2.941406 2.164062 -2.984375 1.9375 -2.984375 C 1.726562 -2.984375 1.546875 -2.9375 1.390625 -2.84375 C 1.234375 -2.75 1.109375 -2.601562 1.015625 -2.40625 C 0.929688 -2.207031 0.890625 -1.96875 0.890625 -1.6875 C 0.890625 -1.40625 0.929688 -1.164062 1.015625 -0.96875 C 1.109375 -0.769531 1.234375 -0.617188 1.390625 -0.515625 C 1.546875 -0.421875 1.726562 -0.375 1.9375 -0.375 C 2.164062 -0.375 2.359375 -0.425781 2.515625 -0.53125 C 2.671875 -0.644531 2.789062 -0.816406 2.875 -1.046875 L 2.953125 -1.046875 L 3.28125 -0.84375 C 3.1875 -0.5625 3.023438 -0.335938 2.796875 -0.171875 C 2.578125 -0.015625 2.289062 0.0625 1.9375 0.0625 Z M 1.9375 0.0625 "/></g></g></g><g fill="#000000" fill-opacity="1"><g transform="translate(87.079243, 39.584368)"><g><path d="M 0.84375 -4.03125 C 0.726562 -4.03125 0.640625 -4.0625 0.578125 -4.125 C 0.515625 -4.1875 0.484375 -4.269531 0.484375 -4.375 C 0.484375 -4.476562 0.515625 -4.5625 0.578125 -4.625 C 0.640625 -4.695312 0.726562 -4.734375 0.84375 -4.734375 C 0.945312 -4.734375 1.03125 -4.695312 1.09375 -4.625 C 1.164062 -4.5625 1.203125 -4.476562 1.203125 -4.375 C 1.203125 -4.269531 1.164062 -4.1875 1.09375 -4.125 C 1.03125 -4.0625 0.945312 -4.03125 0.84375 -4.03125 Z M 0.59375 0 L 0.59375 -3.375 L 1.09375 -3.375 L 1.09375 0 Z M 0.59375 0 "/></g></g></g><g fill="#000000" fill-opacity="1"><g transform="translate(89.481381, 39.584368)"><g><path d="M 1.390625 0.0625 C 1.054688 0.0625 0.796875 -0.0195312 0.609375 -0.1875 C 0.421875 -0.363281 0.328125 -0.613281 0.328125 -0.9375 C 0.328125 -1.132812 0.367188 -1.300781 0.453125 -1.4375 C 0.535156 -1.582031 0.660156 -1.695312 0.828125 -1.78125 C 1.003906 -1.863281 1.234375 -1.929688 1.515625 -1.984375 C 1.765625 -2.023438 1.953125 -2.070312 2.078125 -2.125 C 2.203125 -2.175781 2.285156 -2.234375 2.328125 -2.296875 C 2.378906 -2.359375 2.40625 -2.4375 2.40625 -2.53125 C 2.40625 -2.6875 2.351562 -2.800781 2.25 -2.875 C 2.144531 -2.957031 1.972656 -3 1.734375 -3 C 1.515625 -3 1.328125 -2.957031 1.171875 -2.875 C 1.015625 -2.789062 0.875 -2.664062 0.75 -2.5 L 0.6875 -2.5 L 0.4375 -2.84375 C 0.582031 -3.03125 0.765625 -3.175781 0.984375 -3.28125 C 1.203125 -3.382812 1.453125 -3.4375 1.734375 -3.4375 C 2.128906 -3.4375 2.421875 -3.347656 2.609375 -3.171875 C 2.804688 -3.003906 2.90625 -2.765625 2.90625 -2.453125 L 2.90625 -0.65625 C 2.90625 -0.46875 2.984375 -0.375 3.140625 -0.375 C 3.191406 -0.375 3.242188 -0.382812 3.296875 -0.40625 L 3.328125 -0.390625 L 3.390625 -0.046875 C 3.359375 -0.0234375 3.3125 -0.0078125 3.25 0 C 3.1875 0.0195312 3.125 0.03125 3.0625 0.03125 C 2.875 0.03125 2.734375 -0.0078125 2.640625 -0.09375 C 2.546875 -0.175781 2.484375 -0.296875 2.453125 -0.453125 L 2.390625 -0.46875 C 2.296875 -0.289062 2.164062 -0.15625 2 -0.0625 C 1.84375 0.0195312 1.640625 0.0625 1.390625 0.0625 Z M 1.5 -0.328125 C 1.6875 -0.328125 1.847656 -0.367188 1.984375 -0.453125 C 2.128906 -0.546875 2.238281 -0.671875 2.3125 -0.828125 C 2.382812 -0.984375 2.421875 -1.164062 2.421875 -1.375 L 2.421875 -1.796875 L 2.359375 -1.8125 C 2.285156 -1.757812 2.191406 -1.710938 2.078125 -1.671875 C 1.972656 -1.640625 1.820312 -1.609375 1.625 -1.578125 C 1.4375 -1.554688 1.28125 -1.515625 1.15625 -1.453125 C 1.039062 -1.398438 0.957031 -1.332031 0.90625 -1.25 C 0.863281 -1.164062 0.84375 -1.0625 0.84375 -0.9375 C 0.84375 -0.738281 0.898438 -0.585938 1.015625 -0.484375 C 1.128906 -0.378906 1.289062 -0.328125 1.5 -0.328125 Z M 1.5 -0.328125 "/></g></g></g><g fill="#000000" fill-opacity="1"><g transform="translate(93.701765, 39.584368)"><g><path d="M 1.34375 0.0625 C 1.101562 0.0625 0.914062 -0.00390625 0.78125 -0.140625 C 0.644531 -0.273438 0.578125 -0.476562 0.578125 -0.75 L 0.578125 -4.734375 L 1.078125 -4.734375 L 1.078125 -0.78125 C 1.078125 -0.632812 1.101562 -0.53125 1.15625 -0.46875 C 1.207031 -0.40625 1.289062 -0.375 1.40625 -0.375 C 1.476562 -0.375 1.550781 -0.390625 1.625 -0.421875 L 1.65625 -0.40625 L 1.71875 -0.015625 C 1.6875 0.015625 1.632812 0.0351562 1.5625 0.046875 C 1.488281 0.0546875 1.414062 0.0625 1.34375 0.0625 Z M 1.34375 0.0625 "/></g></g></g><g fill="#000000" fill-opacity="1"><g transform="translate(96.266133, 39.584368)"><g/></g></g><g fill="#000000" fill-opacity="1"><g transform="translate(98.530522, 39.584368)"><g><path d="M 1.953125 0 L 1.265625 0 L 0.234375 -4.46875 L 0.765625 -4.46875 L 1.609375 -0.78125 L 1.671875 -0.78125 L 2.6875 -4.46875 L 3.171875 -4.46875 L 4.171875 -0.78125 L 4.25 -0.78125 L 5.09375 -4.46875 L 5.59375 -4.46875 L 4.578125 0 L 3.890625 0 L 2.953125 -3.390625 L 2.890625 -3.390625 Z M 1.953125 0 "/></g></g></g><g fill="#000000" fill-opacity="1"><g transform="translate(105.101769, 39.584368)"><g><path d="M 3.21875 -1.578125 L 0.890625 -1.578125 C 0.910156 -1.160156 1.007812 -0.851562 1.1875 -0.65625 C 1.375 -0.46875 1.625 -0.375 1.9375 -0.375 C 2.175781 -0.375 2.367188 -0.414062 2.515625 -0.5 C 2.671875 -0.59375 2.789062 -0.734375 2.875 -0.921875 L 2.9375 -0.921875 L 3.265625 -0.71875 C 3.160156 -0.476562 3 -0.285156 2.78125 -0.140625 C 2.570312 -0.00390625 2.289062 0.0625 1.9375 0.0625 C 1.613281 0.0625 1.332031 0 1.09375 -0.125 C 0.863281 -0.257812 0.6875 -0.457031 0.5625 -0.71875 C 0.4375 -0.976562 0.375 -1.300781 0.375 -1.6875 C 0.375 -2.070312 0.4375 -2.394531 0.5625 -2.65625 C 0.695312 -2.914062 0.878906 -3.109375 1.109375 -3.234375 C 1.347656 -3.367188 1.613281 -3.4375 1.90625 -3.4375 C 2.34375 -3.4375 2.679688 -3.3125 2.921875 -3.0625 C 3.160156 -2.820312 3.285156 -2.460938 3.296875 -1.984375 C 3.296875 -1.796875 3.289062 -1.671875 3.28125 -1.609375 Z M 2.796875 -1.984375 C 2.785156 -2.347656 2.703125 -2.609375 2.546875 -2.765625 C 2.398438 -2.929688 2.1875 -3.015625 1.90625 -3.015625 C 1.613281 -3.015625 1.382812 -2.929688 1.21875 -2.765625 C 1.050781 -2.609375 0.945312 -2.347656 0.90625 -1.984375 Z M 2.796875 -1.984375 "/></g></g></g><g fill="#000000" fill-opacity="1"><g transform="translate(109.429285, 39.584368)"><g><path d="M 1.34375 0.0625 C 1.101562 0.0625 0.914062 -0.00390625 0.78125 -0.140625 C 0.644531 -0.273438 0.578125 -0.476562 0.578125 -0.75 L 0.578125 -4.734375 L 1.078125 -4.734375 L 1.078125 -0.78125 C 1.078125 -0.632812 1.101562 -0.53125 1.15625 -0.46875 C 1.207031 -0.40625 1.289062 -0.375 1.40625 -0.375 C 1.476562 -0.375 1.550781 -0.390625 1.625 -0.421875 L 1.65625 -0.40625 L 1.71875 -0.015625 C 1.6875 0.015625 1.632812 0.0351562 1.5625 0.046875 C 1.488281 0.0546875 1.414062 0.0625 1.34375 0.0625 Z M 1.34375 0.0625 "/></g></g></g><g fill="#000000" fill-opacity="1"><g transform="translate(111.993653, 39.584368)"><g><path d="M 0.75 0 L 0.75 -2.96875 L 0.171875 -2.96875 L 0.171875 -3.375 L 0.75 -3.375 C 0.71875 -3.519531 0.703125 -3.660156 0.703125 -3.796875 C 0.703125 -4.015625 0.742188 -4.195312 0.828125 -4.34375 C 0.921875 -4.5 1.050781 -4.613281 1.21875 -4.6875 C 1.382812 -4.757812 1.578125 -4.796875 1.796875 -4.796875 C 2.128906 -4.796875 2.382812 -4.722656 2.5625 -4.578125 L 2.375 -4.21875 L 2.3125 -4.21875 C 2.175781 -4.320312 2.003906 -4.375 1.796875 -4.375 C 1.597656 -4.375 1.445312 -4.320312 1.34375 -4.21875 C 1.25 -4.113281 1.203125 -3.96875 1.203125 -3.78125 C 1.203125 -3.664062 1.21875 -3.53125 1.25 -3.375 L 2.328125 -3.375 L 2.328125 -2.96875 L 1.25 -2.96875 L 1.25 0 Z M 0.75 0 "/></g></g></g><g fill="#000000" fill-opacity="1"><g transform="translate(115.127371, 39.584368)"><g><path d="M 1.390625 0.0625 C 1.054688 0.0625 0.796875 -0.0195312 0.609375 -0.1875 C 0.421875 -0.363281 0.328125 -0.613281 0.328125 -0.9375 C 0.328125 -1.132812 0.367188 -1.300781 0.453125 -1.4375 C 0.535156 -1.582031 0.660156 -1.695312 0.828125 -1.78125 C 1.003906 -1.863281 1.234375 -1.929688 1.515625 -1.984375 C 1.765625 -2.023438 1.953125 -2.070312 2.078125 -2.125 C 2.203125 -2.175781 2.285156 -2.234375 2.328125 -2.296875 C 2.378906 -2.359375 2.40625 -2.4375 2.40625 -2.53125 C 2.40625 -2.6875 2.351562 -2.800781 2.25 -2.875 C 2.144531 -2.957031 1.972656 -3 1.734375 -3 C 1.515625 -3 1.328125 -2.957031 1.171875 -2.875 C 1.015625 -2.789062 0.875 -2.664062 0.75 -2.5 L 0.6875 -2.5 L 0.4375 -2.84375 C 0.582031 -3.03125 0.765625 -3.175781 0.984375 -3.28125 C 1.203125 -3.382812 1.453125 -3.4375 1.734375 -3.4375 C 2.128906 -3.4375 2.421875 -3.347656 2.609375 -3.171875 C 2.804688 -3.003906 2.90625 -2.765625 2.90625 -2.453125 L 2.90625 -0.65625 C 2.90625 -0.46875 2.984375 -0.375 3.140625 -0.375 C 3.191406 -0.375 3.242188 -0.382812 3.296875 -0.40625 L 3.328125 -0.390625 L 3.390625 -0.046875 C 3.359375 -0.0234375 3.3125 -0.0078125 3.25 0 C 3.1875 0.0195312 3.125 0.03125 3.0625 0.03125 C 2.875 0.03125 2.734375 -0.0078125 2.640625 -0.09375 C 2.546875 -0.175781 2.484375 -0.296875 2.453125 -0.453125 L 2.390625 -0.46875 C 2.296875 -0.289062 2.164062 -0.15625 2 -0.0625 C 1.84375 0.0195312 1.640625 0.0625 1.390625 0.0625 Z M 1.5 -0.328125 C 1.6875 -0.328125 1.847656 -0.367188 1.984375 -0.453125 C 2.128906 -0.546875 2.238281 -0.671875 2.3125 -0.828125 C 2.382812 -0.984375 2.421875 -1.164062 2.421875 -1.375 L 2.421875 -1.796875 L 2.359375 -1.8125 C 2.285156 -1.757812 2.191406 -1.710938 2.078125 -1.671875 C 1.972656 -1.640625 1.820312 -1.609375 1.625 -1.578125 C 1.4375 -1.554688 1.28125 -1.515625 1.15625 -1.453125 C 1.039062 -1.398438 0.957031 -1.332031 0.90625 -1.25 C 0.863281 -1.164062 0.84375 -1.0625 0.84375 -0.9375 C 0.84375 -0.738281 0.898438 -0.585938 1.015625 -0.484375 C 1.128906 -0.378906 1.289062 -0.328125 1.5 -0.328125 Z M 1.5 -0.328125 "/></g></g></g><g fill="#000000" fill-opacity="1"><g transform="translate(119.347755, 39.584368)"><g><path d="M 0.59375 0 L 0.59375 -3.375 L 1.0625 -3.375 L 1.0625 -2.84375 L 1.125 -2.828125 C 1.28125 -3.210938 1.578125 -3.40625 2.015625 -3.40625 C 2.242188 -3.40625 2.414062 -3.363281 2.53125 -3.28125 L 2.40625 -2.859375 L 2.34375 -2.84375 C 2.21875 -2.90625 2.078125 -2.9375 1.921875 -2.9375 C 1.648438 -2.9375 1.441406 -2.832031 1.296875 -2.625 C 1.160156 -2.425781 1.09375 -2.101562 1.09375 -1.65625 L 1.09375 0 Z M 0.59375 0 "/></g></g></g><g fill="#000000" fill-opacity="1"><g transform="translate(122.683501, 39.584368)"><g><path d="M 3.21875 -1.578125 L 0.890625 -1.578125 C 0.910156 -1.160156 1.007812 -0.851562 1.1875 -0.65625 C 1.375 -0.46875 1.625 -0.375 1.9375 -0.375 C 2.175781 -0.375 2.367188 -0.414062 2.515625 -0.5 C 2.671875 -0.59375 2.789062 -0.734375 2.875 -0.921875 L 2.9375 -0.921875 L 3.265625 -0.71875 C 3.160156 -0.476562 3 -0.285156 2.78125 -0.140625 C 2.570312 -0.00390625 2.289062 0.0625 1.9375 0.0625 C 1.613281 0.0625 1.332031 0 1.09375 -0.125 C 0.863281 -0.257812 0.6875 -0.457031 0.5625 -0.71875 C 0.4375 -0.976562 0.375 -1.300781 0.375 -1.6875 C 0.375 -2.070312 0.4375 -2.394531 0.5625 -2.65625 C 0.695312 -2.914062 0.878906 -3.109375 1.109375 -3.234375 C 1.347656 -3.367188 1.613281 -3.4375 1.90625 -3.4375 C 2.34375 -3.4375 2.679688 -3.3125 2.921875 -3.0625 C 3.160156 -2.820312 3.285156 -2.460938 3.296875 -1.984375 C 3.296875 -1.796875 3.289062 -1.671875 3.28125 -1.609375 Z M 2.796875 -1.984375 C 2.785156 -2.347656 2.703125 -2.609375 2.546875 -2.765625 C 2.398438 -2.929688 2.1875 -3.015625 1.90625 -3.015625 C 1.613281 -3.015625 1.382812 -2.929688 1.21875 -2.765625 C 1.050781 -2.609375 0.945312 -2.347656 0.90625 -1.984375 Z M 2.796875 -1.984375 "/></g></g></g></svg>