<svg xmlns="http://www.w3.org/2000/svg" xmlns:xlink="http://www.w3.org/1999/xlink" width="3000" zoomAndPan="magnify" viewBox="0 0 2250 599.999999" height="800" preserveAspectRatio="xMidYMid meet" version="1.0"><defs><g/><clipPath id="54924c8e34"><path d="M 416 268 L 500 268 L 500 523.5 L 416 523.5 Z M 416 268 " clip-rule="nonzero"/></clipPath></defs><path fill="#a6a6a6" d="M 525.609375 267.285156 C 497.847656 175.570312 400.777344 197.707031 400.777344 197.707031 L 433.652344 219.625 L 410.558594 251.132812 C 410.558594 251.132812 453.632812 216.058594 500.457031 285.046875 C 541.316406 345.246094 569.5625 356.621094 597.332031 368.09375 C 579.246094 358.414062 545.300781 332.320312 525.609375 267.285156 " fill-opacity="1" fill-rule="nonzero"/><path fill="#a6a6a6" d="M 526.589844 255.90625 C 529.179688 275.613281 547.253906 289.5 566.964844 286.914062 C 586.671875 284.328125 600.558594 266.253906 597.972656 246.542969 C 595.390625 226.832031 577.3125 212.949219 557.601562 215.53125 C 537.890625 218.117188 524.007812 236.195312 526.589844 255.90625 " fill-opacity="1" fill-rule="nonzero"/><g clip-path="url(#54924c8e34)"><path fill="#795484" d="M 470.894531 411.167969 C 536.4375 341.269531 468.730469 268.273438 468.730469 268.273438 L 466.1875 307.699219 L 427.359375 303.457031 C 427.359375 303.457031 479.269531 323.226562 442.9375 398.269531 C 411.230469 463.75 415.503906 493.898438 419.453125 523.6875 C 418.789062 503.1875 424.414062 460.742188 470.894531 411.167969 " fill-opacity="1" fill-rule="nonzero"/></g><path fill="#795484" d="M 481.242188 406.332031 C 465.464844 418.425781 462.476562 441.019531 474.570312 456.800781 C 486.667969 472.578125 509.261719 475.5625 525.042969 463.46875 C 540.816406 451.375 543.804688 428.777344 531.710938 413 C 519.617188 397.222656 497.019531 394.238281 481.242188 406.332031 " fill-opacity="1" fill-rule="nonzero"/><path fill="#a6a6a6" d="M 318.929688 435.730469 C 412.234375 457.542969 441.601562 362.40625 441.601562 362.40625 L 406.183594 379.917969 L 390.441406 344.167969 C 390.441406 344.167969 399.28125 399.007812 316.125 405.0625 C 243.558594 410.351562 219.585938 429.125 195.765625 447.433594 C 213.191406 436.617188 252.761719 420.261719 318.929688 435.730469 " fill-opacity="1" fill-rule="nonzero"/><path fill="#a6a6a6" d="M 328.292969 442.273438 C 309.929688 434.652344 288.871094 443.367188 281.253906 461.730469 C 273.636719 480.089844 282.347656 501.152344 300.710938 508.769531 C 319.074219 516.386719 340.132812 507.675781 347.75 489.3125 C 355.367188 470.949219 346.65625 449.886719 328.292969 442.273438 " fill-opacity="1" fill-rule="nonzero"/><path fill="#795484" d="M 221.679688 316.402344 C 249.441406 408.117188 346.515625 385.976562 346.515625 385.976562 L 313.640625 364.0625 L 336.730469 332.554688 C 336.730469 332.554688 293.65625 367.628906 246.832031 298.640625 C 205.972656 238.441406 177.726562 227.066406 149.957031 215.589844 C 168.042969 225.269531 201.992188 251.363281 221.679688 316.402344 " fill-opacity="1" fill-rule="nonzero"/><path fill="#795484" d="M 220.695312 327.78125 C 218.109375 308.074219 200.035156 294.1875 180.324219 296.773438 C 160.613281 299.359375 146.726562 317.433594 149.3125 337.144531 C 151.898438 356.855469 169.972656 370.742188 189.683594 368.15625 C 209.398438 365.570312 223.28125 347.496094 220.695312 327.78125 " fill-opacity="1" fill-rule="nonzero"/><path fill="#a6a6a6" d="M 276.390625 172.519531 C 210.847656 242.417969 278.558594 315.414062 278.558594 315.414062 L 281.101562 275.984375 L 319.929688 280.230469 C 319.929688 280.230469 268.019531 260.464844 304.351562 185.417969 C 336.054688 119.9375 331.785156 89.789062 327.835938 60 C 328.496094 80.5 322.875 122.949219 276.390625 172.519531 " fill-opacity="1" fill-rule="nonzero"/><path fill="#a6a6a6" d="M 266.042969 177.355469 C 281.824219 165.261719 284.808594 142.667969 272.714844 126.886719 C 260.621094 111.109375 238.027344 108.125 222.246094 120.21875 C 206.46875 132.3125 203.484375 154.90625 215.578125 170.6875 C 227.671875 186.464844 250.265625 189.449219 266.042969 177.355469 " fill-opacity="1" fill-rule="nonzero"/><path fill="#795484" d="M 428.355469 147.957031 C 335.050781 126.144531 305.6875 221.28125 305.6875 221.28125 L 341.105469 203.769531 L 356.84375 239.519531 C 356.84375 239.519531 348.007812 184.679688 431.164062 178.625 C 503.726562 173.335938 527.703125 154.5625 551.523438 136.253906 C 534.101562 147.070312 494.527344 163.425781 428.355469 147.957031 " fill-opacity="1" fill-rule="nonzero"/><path fill="#795484" d="M 418.996094 141.414062 C 437.359375 149.03125 458.421875 140.320312 466.035156 121.957031 C 473.65625 103.59375 464.941406 82.53125 446.578125 74.914062 C 428.214844 67.296875 407.15625 76.007812 399.539062 94.371094 C 391.917969 112.734375 400.628906 133.800781 418.996094 141.414062 " fill-opacity="1" fill-rule="nonzero"/><g fill="#795484" fill-opacity="1"><g transform="translate(756.095368, 318.49852)"><g><path d="M 97.640625 -172 L 97.640625 -142.8125 L 45.859375 -142.8125 L 45.859375 -104.9375 L 94.4375 -104.9375 L 94.4375 -75.734375 L 45.859375 -75.734375 L 45.859375 0 L 12.3125 0 L 12.3125 -172 Z M 97.640625 -172 "/></g></g></g><g fill="#795484" fill-opacity="1"><g transform="translate(876.547245, 318.49852)"><g><path d="M 58.625 -172 C 76.726562 -172 90.679688 -167.550781 100.484375 -158.65625 C 110.296875 -149.757812 115.203125 -136.945312 115.203125 -120.21875 C 115.203125 -108.050781 111.894531 -97.441406 105.28125 -88.390625 C 98.664062 -79.347656 90.265625 -74.066406 80.078125 -72.546875 L 128.65625 0 L 88.0625 0 L 46.3125 -69.34375 L 45.859375 -69.34375 L 45.859375 0 L 12.3125 0 L 12.3125 -172 Z M 45.859375 -92.84375 L 49.5 -92.84375 C 61.0625 -92.84375 69.3125 -94.972656 74.25 -99.234375 C 79.195312 -103.492188 81.671875 -110.1875 81.671875 -119.3125 C 81.671875 -128.28125 79.234375 -134.738281 74.359375 -138.6875 C 69.492188 -142.644531 61.359375 -144.625 49.953125 -144.625 L 45.859375 -144.625 Z M 45.859375 -92.84375 "/></g></g></g><g fill="#795484" fill-opacity="1"><g transform="translate(1018.670922, 318.49852)"><g/></g></g><g fill="#795484" fill-opacity="1"><g transform="translate(1099.429182, 318.49852)"><g><path d="M 93.296875 -134.140625 C 90.109375 -138.546875 86.421875 -142.003906 82.234375 -144.515625 C 78.054688 -147.023438 73.15625 -148.28125 67.53125 -148.28125 C 61.75 -148.28125 56.800781 -146.378906 52.6875 -142.578125 C 48.582031 -138.773438 46.53125 -134.210938 46.53125 -128.890625 C 46.53125 -124.023438 48.546875 -119.878906 52.578125 -116.453125 C 56.609375 -113.035156 62.578125 -109.804688 70.484375 -106.765625 C 84.171875 -101.140625 93.863281 -95.738281 99.5625 -90.5625 C 105.269531 -85.394531 109.226562 -79.84375 111.4375 -73.90625 C 113.644531 -67.976562 114.75 -61.441406 114.75 -54.296875 C 114.75 -36.804688 109.578125 -22.625 99.234375 -11.75 C 88.890625 -0.875 75.203125 4.5625 58.171875 4.5625 C 46.304688 4.5625 36 1.484375 27.25 -4.671875 C 18.507812 -10.835938 11.175781 -18.9375 5.25 -28.96875 L 26.921875 -50.1875 C 29.503906 -42.882812 33.6875 -36.875 39.46875 -32.15625 C 45.25 -27.445312 51.40625 -25.09375 57.9375 -25.09375 C 64.332031 -25.09375 69.617188 -27.410156 73.796875 -32.046875 C 77.984375 -36.691406 80.078125 -42.660156 80.078125 -49.953125 C 80.078125 -56.347656 78.097656 -61.445312 74.140625 -65.25 C 70.179688 -69.050781 64.328125 -72.472656 56.578125 -75.515625 C 39.390625 -82.046875 27.640625 -88.960938 21.328125 -96.265625 C 15.015625 -103.566406 11.859375 -113.148438 11.859375 -125.015625 C 11.859375 -134.140625 13.988281 -142.65625 18.25 -150.5625 C 22.507812 -158.46875 28.515625 -164.773438 36.265625 -169.484375 C 44.023438 -174.203125 52.617188 -176.5625 62.046875 -176.5625 C 70.410156 -176.5625 79.191406 -174.660156 88.390625 -170.859375 C 97.597656 -167.054688 104.484375 -162.570312 109.046875 -157.40625 Z M 93.296875 -134.140625 "/></g></g></g><g fill="#795484" fill-opacity="1"><g transform="translate(1234.252893, 318.49852)"><g><path d="M 4.109375 -86.234375 C 4.109375 -103.566406 7.71875 -119.078125 14.9375 -132.765625 C 22.164062 -146.453125 32.28125 -157.171875 45.28125 -164.921875 C 58.28125 -172.679688 72.921875 -176.5625 89.203125 -176.5625 C 105.773438 -176.5625 120.597656 -172.566406 133.671875 -164.578125 C 146.753906 -156.597656 156.789062 -145.726562 163.78125 -131.96875 C 170.78125 -118.207031 174.28125 -102.960938 174.28125 -86.234375 C 174.28125 -68.742188 170.664062 -53.078125 163.4375 -39.234375 C 156.21875 -25.398438 146.179688 -14.640625 133.328125 -6.953125 C 120.484375 0.722656 105.773438 4.5625 89.203125 4.5625 C 72.921875 4.5625 58.351562 0.800781 45.5 -6.71875 C 32.65625 -14.25 22.546875 -25.007812 15.171875 -39 C 7.796875 -53 4.109375 -68.742188 4.109375 -86.234375 Z M 88.96875 -143.484375 C 74.675781 -143.484375 62.738281 -138.007812 53.15625 -127.0625 C 43.570312 -116.113281 38.78125 -102.957031 38.78125 -87.59375 C 38.78125 -70.414062 43.300781 -56.273438 52.34375 -45.171875 C 61.394531 -34.066406 73.679688 -28.515625 89.203125 -28.515625 C 104.710938 -28.515625 116.988281 -34.066406 126.03125 -45.171875 C 135.082031 -56.273438 139.609375 -70.414062 139.609375 -87.59375 C 139.609375 -103.113281 134.816406 -116.304688 125.234375 -127.171875 C 115.660156 -138.046875 103.570312 -143.484375 88.96875 -143.484375 Z M 88.96875 -143.484375 "/></g></g></g><g fill="#795484" fill-opacity="1"><g transform="translate(1427.476376, 318.49852)"><g><path d="M 127.296875 -126.375 C 122.578125 -132.15625 116.832031 -136.640625 110.0625 -139.828125 C 103.300781 -143.023438 96.421875 -144.625 89.421875 -144.625 C 74.828125 -144.625 62.738281 -138.84375 53.15625 -127.28125 C 43.570312 -115.726562 38.78125 -101.738281 38.78125 -85.3125 C 38.78125 -69.195312 43.644531 -55.507812 53.375 -44.25 C 63.113281 -33 75.054688 -27.375 89.203125 -27.375 C 96.492188 -27.375 103.484375 -29.082031 110.171875 -32.5 C 116.867188 -35.925781 122.578125 -40.300781 127.296875 -45.625 L 127.296875 -5.703125 C 120.910156 -2.660156 114.5625 -0.191406 108.25 1.703125 C 101.9375 3.609375 95.28125 4.5625 88.28125 4.5625 C 73.070312 4.5625 59.117188 0.6875 46.421875 -7.0625 C 33.722656 -14.820312 23.492188 -25.695312 15.734375 -39.6875 C 7.984375 -53.6875 4.109375 -68.671875 4.109375 -84.640625 C 4.109375 -101.367188 7.832031 -116.84375 15.28125 -131.0625 C 22.738281 -145.28125 32.96875 -156.414062 45.96875 -164.46875 C 58.96875 -172.53125 73.300781 -176.5625 88.96875 -176.5625 C 95.8125 -176.5625 102.460938 -175.6875 108.921875 -173.9375 C 115.390625 -172.195312 121.515625 -169.726562 127.296875 -166.53125 Z M 127.296875 -126.375 "/></g></g></g><g fill="#795484" fill-opacity="1"><g transform="translate(1579.409338, 318.49852)"><g><path d="M 45.859375 -172 L 45.859375 0 L 12.3125 0 L 12.3125 -172 Z M 45.859375 -172 "/></g></g></g><g fill="#795484" fill-opacity="1"><g transform="translate(1652.183261, 318.49852)"><g><path d="M 101.28125 -172 L 101.28125 -142.8125 L 45.859375 -142.8125 L 45.859375 -104.9375 L 99.234375 -104.9375 L 99.234375 -75.734375 L 45.859375 -75.734375 L 45.859375 -29.203125 L 101.28125 -29.203125 L 101.28125 0 L 12.3125 0 L 12.3125 -172 Z M 101.28125 -172 "/></g></g></g><g fill="#795484" fill-opacity="1"><g transform="translate(1778.338203, 318.49852)"><g><path d="M 102.890625 -172 L 102.890625 -142.8125 L 68.203125 -142.8125 L 68.203125 0 L 34.671875 0 L 34.671875 -142.8125 L 0 -142.8125 L 0 -172 Z M 102.890625 -172 "/></g></g></g><g fill="#795484" fill-opacity="1"><g transform="translate(1896.052531, 318.49852)"><g><path d="M 35.359375 -172 L 65.46875 -112.234375 L 98.328125 -172 L 137.5625 -172 L 83.265625 -78.9375 L 83.265625 0 L 49.734375 0 L 49.734375 -78.9375 L -3.65625 -172 Z M 35.359375 -172 "/></g></g></g><g fill="#333333" fill-opacity="1"><g transform="translate(930.123867, 459.666796)"><g><path d="M 37.671875 -45.296875 C 38.878906 -45.296875 39.847656 -44.929688 40.578125 -44.203125 C 41.304688 -43.472656 41.671875 -42.523438 41.671875 -41.359375 L 41.671875 -3.953125 C 41.671875 -2.828125 41.28125 -1.882812 40.5 -1.125 C 39.726562 -0.375 38.738281 0 37.53125 0 C 36.457031 0 35.53125 -0.375 34.75 -1.125 C 33.976562 -1.882812 33.59375 -2.828125 33.59375 -3.953125 L 33.59375 -19.03125 L 12.9375 -19.03125 L 12.9375 -3.953125 C 12.9375 -2.828125 12.523438 -1.882812 11.703125 -1.125 C 10.890625 -0.375 9.941406 0 8.859375 0 C 7.703125 0 6.742188 -0.375 5.984375 -1.125 C 5.234375 -1.882812 4.859375 -2.828125 4.859375 -3.953125 L 4.859375 -41.359375 C 4.859375 -42.472656 5.242188 -43.40625 6.015625 -44.15625 C 6.796875 -44.914062 7.789062 -45.296875 9 -45.296875 C 10.070312 -45.296875 10.992188 -44.914062 11.765625 -44.15625 C 12.546875 -43.40625 12.9375 -42.472656 12.9375 -41.359375 L 12.9375 -26.46875 L 33.59375 -26.46875 L 33.59375 -41.359375 C 33.59375 -42.472656 34 -43.40625 34.8125 -44.15625 C 35.632812 -44.914062 36.585938 -45.296875 37.671875 -45.296875 Z M 37.671875 -45.296875 "/></g></g></g><g fill="#333333" fill-opacity="1"><g transform="translate(989.651839, 459.666796)"><g><path d="M 40.390625 -5.046875 C 40.597656 -4.484375 40.703125 -3.96875 40.703125 -3.5 C 40.703125 -2.375 40.332031 -1.453125 39.59375 -0.734375 C 38.863281 -0.0234375 38.023438 0.328125 37.078125 0.328125 C 36.304688 0.328125 35.609375 0.09375 34.984375 -0.375 C 34.359375 -0.851562 33.875 -1.503906 33.53125 -2.328125 L 30.15625 -10.15625 L 10.875 -10.15625 L 7.5 -2.265625 C 7.195312 -1.441406 6.734375 -0.800781 6.109375 -0.34375 C 5.484375 0.101562 4.804688 0.328125 4.078125 0.328125 C 2.953125 0.328125 2.097656 0.0234375 1.515625 -0.578125 C 0.929688 -1.179688 0.640625 -2.003906 0.640625 -3.046875 C 0.640625 -3.429688 0.707031 -3.835938 0.84375 -4.265625 L 16.953125 -42.96875 C 17.296875 -43.832031 17.8125 -44.5 18.5 -44.96875 C 19.195312 -45.445312 19.976562 -45.644531 20.84375 -45.5625 C 21.613281 -45.5625 22.332031 -45.332031 23 -44.875 C 23.675781 -44.425781 24.164062 -43.789062 24.46875 -42.96875 Z M 14.046875 -17.609375 L 26.984375 -17.609375 L 20.453125 -32.75 Z M 14.046875 -17.609375 "/></g></g></g><g fill="#333333" fill-opacity="1"><g transform="translate(1044.004812, 459.666796)"><g><path d="M 40.390625 -6.34375 C 40.941406 -6 41.378906 -5.546875 41.703125 -4.984375 C 42.035156 -4.421875 42.203125 -3.835938 42.203125 -3.234375 C 42.203125 -2.460938 41.941406 -1.75 41.421875 -1.09375 C 40.773438 -0.320312 39.78125 0.0625 38.4375 0.0625 C 37.40625 0.0625 36.457031 -0.171875 35.59375 -0.640625 C 32.488281 -2.410156 30.9375 -6.015625 30.9375 -11.453125 C 30.9375 -13.003906 30.425781 -14.234375 29.40625 -15.140625 C 28.394531 -16.046875 26.941406 -16.5 25.046875 -16.5 L 12.9375 -16.5 L 12.9375 -3.953125 C 12.9375 -2.785156 12.625 -1.832031 12 -1.09375 C 11.375 -0.363281 10.546875 0 9.515625 0 C 8.265625 0 7.175781 -0.375 6.25 -1.125 C 5.320312 -1.882812 4.859375 -2.828125 4.859375 -3.953125 L 4.859375 -41.359375 C 4.859375 -42.472656 5.234375 -43.40625 5.984375 -44.15625 C 6.742188 -44.914062 7.679688 -45.296875 8.796875 -45.296875 L 27.4375 -45.296875 C 29.6875 -45.296875 31.800781 -44.691406 33.78125 -43.484375 C 35.769531 -42.273438 37.351562 -40.613281 38.53125 -38.5 C 39.71875 -36.394531 40.3125 -34.023438 40.3125 -31.390625 C 40.3125 -29.234375 39.726562 -27.128906 38.5625 -25.078125 C 37.40625 -23.023438 35.898438 -21.394531 34.046875 -20.1875 C 36.765625 -18.289062 38.25 -15.75 38.5 -12.5625 C 38.632812 -11.863281 38.703125 -11.191406 38.703125 -10.546875 C 38.867188 -9.210938 39.039062 -8.253906 39.21875 -7.671875 C 39.394531 -7.085938 39.785156 -6.644531 40.390625 -6.34375 Z M 27.109375 -23.171875 C 27.890625 -23.171875 28.644531 -23.535156 29.375 -24.265625 C 30.113281 -25.003906 30.71875 -25.988281 31.1875 -27.21875 C 31.664062 -28.445312 31.90625 -29.769531 31.90625 -31.1875 C 31.90625 -32.394531 31.664062 -33.503906 31.1875 -34.515625 C 30.71875 -35.535156 30.113281 -36.347656 29.375 -36.953125 C 28.644531 -37.554688 27.890625 -37.859375 27.109375 -37.859375 L 12.9375 -37.859375 L 12.9375 -23.171875 Z M 27.109375 -23.171875 "/></g></g></g><g fill="#333333" fill-opacity="1"><g transform="translate(1101.462766, 459.666796)"><g/></g></g><g fill="#333333" fill-opacity="1"><g transform="translate(1132.592786, 459.666796)"><g><path d="M 23.5625 -45.296875 C 25.757812 -45.296875 27.847656 -44.640625 29.828125 -43.328125 C 31.816406 -42.015625 33.414062 -40.242188 34.625 -38.015625 C 35.832031 -35.796875 36.4375 -33.367188 36.4375 -30.734375 C 36.4375 -28.148438 35.832031 -25.734375 34.625 -23.484375 C 33.414062 -21.242188 31.816406 -19.460938 29.828125 -18.140625 C 27.847656 -16.828125 25.757812 -16.171875 23.5625 -16.171875 L 12.296875 -16.171875 L 12.296875 -3.953125 C 12.296875 -2.785156 11.945312 -1.832031 11.25 -1.09375 C 10.5625 -0.363281 9.660156 0 8.546875 0 C 7.460938 0 6.578125 -0.375 5.890625 -1.125 C 5.203125 -1.882812 4.859375 -2.828125 4.859375 -3.953125 L 4.859375 -41.359375 C 4.859375 -42.472656 5.234375 -43.40625 5.984375 -44.15625 C 6.742188 -44.914062 7.679688 -45.296875 8.796875 -45.296875 Z M 23.5625 -23.5625 C 24.375 -23.5625 25.179688 -23.90625 25.984375 -24.59375 C 26.785156 -25.28125 27.429688 -26.171875 27.921875 -27.265625 C 28.421875 -28.367188 28.671875 -29.523438 28.671875 -30.734375 C 28.671875 -31.941406 28.421875 -33.097656 27.921875 -34.203125 C 27.429688 -35.304688 26.785156 -36.191406 25.984375 -36.859375 C 25.179688 -37.523438 24.375 -37.859375 23.5625 -37.859375 L 12.296875 -37.859375 L 12.296875 -23.5625 Z M 23.5625 -23.5625 "/></g></g></g><g fill="#333333" fill-opacity="1"><g transform="translate(1184.616972, 459.666796)"><g><path d="M 40.390625 -5.046875 C 40.597656 -4.484375 40.703125 -3.96875 40.703125 -3.5 C 40.703125 -2.375 40.332031 -1.453125 39.59375 -0.734375 C 38.863281 -0.0234375 38.023438 0.328125 37.078125 0.328125 C 36.304688 0.328125 35.609375 0.09375 34.984375 -0.375 C 34.359375 -0.851562 33.875 -1.503906 33.53125 -2.328125 L 30.15625 -10.15625 L 10.875 -10.15625 L 7.5 -2.265625 C 7.195312 -1.441406 6.734375 -0.800781 6.109375 -0.34375 C 5.484375 0.101562 4.804688 0.328125 4.078125 0.328125 C 2.953125 0.328125 2.097656 0.0234375 1.515625 -0.578125 C 0.929688 -1.179688 0.640625 -2.003906 0.640625 -3.046875 C 0.640625 -3.429688 0.707031 -3.835938 0.84375 -4.265625 L 16.953125 -42.96875 C 17.296875 -43.832031 17.8125 -44.5 18.5 -44.96875 C 19.195312 -45.445312 19.976562 -45.644531 20.84375 -45.5625 C 21.613281 -45.5625 22.332031 -45.332031 23 -44.875 C 23.675781 -44.425781 24.164062 -43.789062 24.46875 -42.96875 Z M 14.046875 -17.609375 L 26.984375 -17.609375 L 20.453125 -32.75 Z M 14.046875 -17.609375 "/></g></g></g><g fill="#333333" fill-opacity="1"><g transform="translate(1238.969932, 459.666796)"><g><path d="M 29.828125 -7.578125 C 30.953125 -7.578125 31.890625 -7.21875 32.640625 -6.5 C 33.398438 -5.789062 33.78125 -4.875 33.78125 -3.75 C 33.78125 -2.675781 33.398438 -1.78125 32.640625 -1.0625 C 31.890625 -0.351562 30.953125 0 29.828125 0 L 8.796875 0 C 7.679688 0 6.742188 -0.375 5.984375 -1.125 C 5.234375 -1.882812 4.859375 -2.828125 4.859375 -3.953125 L 4.859375 -41.359375 C 4.859375 -42.472656 5.242188 -43.40625 6.015625 -44.15625 C 6.796875 -44.914062 7.789062 -45.296875 9 -45.296875 C 10.070312 -45.296875 10.992188 -44.914062 11.765625 -44.15625 C 12.546875 -43.40625 12.9375 -42.472656 12.9375 -41.359375 L 12.9375 -7.578125 Z M 29.828125 -7.578125 "/></g></g></g><g fill="#333333" fill-opacity="1"><g transform="translate(1288.341925, 459.666796)"><g/></g></g><g fill="#333333" fill-opacity="1"><g transform="translate(1319.471928, 459.666796)"><g><path d="M 40.390625 -5.046875 C 40.597656 -4.484375 40.703125 -3.96875 40.703125 -3.5 C 40.703125 -2.375 40.332031 -1.453125 39.59375 -0.734375 C 38.863281 -0.0234375 38.023438 0.328125 37.078125 0.328125 C 36.304688 0.328125 35.609375 0.09375 34.984375 -0.375 C 34.359375 -0.851562 33.875 -1.503906 33.53125 -2.328125 L 30.15625 -10.15625 L 10.875 -10.15625 L 7.5 -2.265625 C 7.195312 -1.441406 6.734375 -0.800781 6.109375 -0.34375 C 5.484375 0.101562 4.804688 0.328125 4.078125 0.328125 C 2.953125 0.328125 2.097656 0.0234375 1.515625 -0.578125 C 0.929688 -1.179688 0.640625 -2.003906 0.640625 -3.046875 C 0.640625 -3.429688 0.707031 -3.835938 0.84375 -4.265625 L 16.953125 -42.96875 C 17.296875 -43.832031 17.8125 -44.5 18.5 -44.96875 C 19.195312 -45.445312 19.976562 -45.644531 20.84375 -45.5625 C 21.613281 -45.5625 22.332031 -45.332031 23 -44.875 C 23.675781 -44.425781 24.164062 -43.789062 24.46875 -42.96875 Z M 14.046875 -17.609375 L 26.984375 -17.609375 L 20.453125 -32.75 Z M 14.046875 -17.609375 "/></g></g></g><g fill="#333333" fill-opacity="1"><g transform="translate(1373.824888, 459.666796)"><g><path d="M 23.5625 -45.296875 C 25.757812 -45.296875 27.847656 -44.640625 29.828125 -43.328125 C 31.816406 -42.015625 33.414062 -40.242188 34.625 -38.015625 C 35.832031 -35.796875 36.4375 -33.367188 36.4375 -30.734375 C 36.4375 -28.148438 35.832031 -25.734375 34.625 -23.484375 C 33.414062 -21.242188 31.816406 -19.460938 29.828125 -18.140625 C 27.847656 -16.828125 25.757812 -16.171875 23.5625 -16.171875 L 12.296875 -16.171875 L 12.296875 -3.953125 C 12.296875 -2.785156 11.945312 -1.832031 11.25 -1.09375 C 10.5625 -0.363281 9.660156 0 8.546875 0 C 7.460938 0 6.578125 -0.375 5.890625 -1.125 C 5.203125 -1.882812 4.859375 -2.828125 4.859375 -3.953125 L 4.859375 -41.359375 C 4.859375 -42.472656 5.234375 -43.40625 5.984375 -44.15625 C 6.742188 -44.914062 7.679688 -45.296875 8.796875 -45.296875 Z M 23.5625 -23.5625 C 24.375 -23.5625 25.179688 -23.90625 25.984375 -24.59375 C 26.785156 -25.28125 27.429688 -26.171875 27.921875 -27.265625 C 28.421875 -28.367188 28.671875 -29.523438 28.671875 -30.734375 C 28.671875 -31.941406 28.421875 -33.097656 27.921875 -34.203125 C 27.429688 -35.304688 26.785156 -36.191406 25.984375 -36.859375 C 25.179688 -37.523438 24.375 -37.859375 23.5625 -37.859375 L 12.296875 -37.859375 L 12.296875 -23.5625 Z M 23.5625 -23.5625 "/></g></g></g><g fill="#333333" fill-opacity="1"><g transform="translate(1425.849057, 459.666796)"><g><path d="M 39.546875 -6.734375 C 39.804688 -6.390625 40.019531 -5.96875 40.1875 -5.46875 C 40.363281 -4.96875 40.453125 -4.503906 40.453125 -4.078125 C 40.453125 -2.910156 40.007812 -1.9375 39.125 -1.15625 C 38.238281 -0.382812 37.210938 0 36.046875 0 C 35.484375 0 34.941406 -0.128906 34.421875 -0.390625 C 33.910156 -0.648438 33.484375 -1.015625 33.140625 -1.484375 L 19.09375 -20 L 12.9375 -14.109375 L 12.9375 -3.953125 C 12.9375 -2.785156 12.554688 -1.832031 11.796875 -1.09375 C 11.046875 -0.363281 10.066406 0 8.859375 0 C 7.703125 0 6.742188 -0.375 5.984375 -1.125 C 5.234375 -1.882812 4.859375 -2.828125 4.859375 -3.953125 L 4.859375 -41.359375 C 4.859375 -42.472656 5.242188 -43.40625 6.015625 -44.15625 C 6.796875 -44.914062 7.789062 -45.296875 9 -45.296875 C 10.164062 -45.296875 11.113281 -44.929688 11.84375 -44.203125 C 12.570312 -43.472656 12.9375 -42.523438 12.9375 -41.359375 L 12.9375 -23.75 L 33.65625 -44.140625 C 34.644531 -45.128906 35.703125 -45.625 36.828125 -45.625 C 37.816406 -45.625 38.65625 -45.210938 39.34375 -44.390625 C 40.039062 -43.578125 40.390625 -42.71875 40.390625 -41.8125 C 40.390625 -40.90625 40 -40.0625 39.21875 -39.28125 L 25.109375 -25.828125 Z M 39.546875 -6.734375 "/></g></g></g><g fill="#333333" fill-opacity="1"><g transform="translate(1481.23699, 459.666796)"><g><path d="M 30.484375 -7.4375 C 31.609375 -7.4375 32.546875 -7.054688 33.296875 -6.296875 C 34.054688 -5.546875 34.4375 -4.675781 34.4375 -3.6875 C 34.4375 -2.613281 34.054688 -1.726562 33.296875 -1.03125 C 32.546875 -0.34375 31.609375 0 30.484375 0 L 8.796875 0 C 7.679688 0 6.742188 -0.375 5.984375 -1.125 C 5.234375 -1.882812 4.859375 -2.828125 4.859375 -3.953125 L 4.859375 -41.359375 C 4.859375 -42.472656 5.234375 -43.40625 5.984375 -44.15625 C 6.742188 -44.914062 7.679688 -45.296875 8.796875 -45.296875 L 30.484375 -45.296875 C 31.609375 -45.296875 32.546875 -44.941406 33.296875 -44.234375 C 34.054688 -43.523438 34.4375 -42.609375 34.4375 -41.484375 C 34.4375 -40.398438 34.066406 -39.523438 33.328125 -38.859375 C 32.597656 -38.191406 31.648438 -37.859375 30.484375 -37.859375 L 12.9375 -37.859375 L 12.9375 -26.859375 L 27.5625 -26.859375 C 28.6875 -26.859375 29.625 -26.5 30.375 -25.78125 C 31.132812 -25.070312 31.515625 -24.160156 31.515625 -23.046875 C 31.515625 -21.960938 31.144531 -21.085938 30.40625 -20.421875 C 29.675781 -19.753906 28.726562 -19.421875 27.5625 -19.421875 L 12.9375 -19.421875 L 12.9375 -7.4375 Z M 30.484375 -7.4375 "/></g></g></g><g fill="#333333" fill-opacity="1"><g transform="translate(1531.255823, 459.666796)"><g/></g></g><g fill="#333333" fill-opacity="1"><g transform="translate(1562.385826, 459.666796)"><g><path d="M 19.421875 0.640625 C 16.304688 0.640625 13.539062 0.253906 11.125 -0.515625 C 8.707031 -1.296875 6.445312 -2.613281 4.34375 -4.46875 C 3.175781 -5.5 2.59375 -6.640625 2.59375 -7.890625 C 2.59375 -8.890625 2.957031 -9.765625 3.6875 -10.515625 C 4.425781 -11.273438 5.3125 -11.65625 6.34375 -11.65625 C 7.164062 -11.65625 7.898438 -11.394531 8.546875 -10.875 C 10.265625 -9.445312 11.941406 -8.410156 13.578125 -7.765625 C 15.222656 -7.117188 17.171875 -6.796875 19.421875 -6.796875 C 21.835938 -6.796875 23.914062 -7.332031 25.65625 -8.40625 C 27.40625 -9.488281 28.28125 -10.828125 28.28125 -12.421875 C 28.28125 -14.367188 27.414062 -15.890625 25.6875 -16.984375 C 23.96875 -18.085938 21.226562 -18.921875 17.46875 -19.484375 C 8.019531 -20.859375 3.296875 -25.257812 3.296875 -32.6875 C 3.296875 -35.40625 4.007812 -37.765625 5.4375 -39.765625 C 6.863281 -41.773438 8.804688 -43.304688 11.265625 -44.359375 C 13.722656 -45.421875 16.460938 -45.953125 19.484375 -45.953125 C 22.203125 -45.953125 24.753906 -45.539062 27.140625 -44.71875 C 29.535156 -43.894531 31.535156 -42.816406 33.140625 -41.484375 C 34.390625 -40.492188 35.015625 -39.347656 35.015625 -38.046875 C 35.015625 -37.054688 34.644531 -36.179688 33.90625 -35.421875 C 33.175781 -34.671875 32.316406 -34.296875 31.328125 -34.296875 C 30.679688 -34.296875 30.097656 -34.492188 29.578125 -34.890625 C 28.453125 -35.796875 26.882812 -36.625 24.875 -37.375 C 22.875 -38.125 21.078125 -38.5 19.484375 -38.5 C 16.765625 -38.5 14.660156 -37.992188 13.171875 -36.984375 C 11.679688 -35.972656 10.9375 -34.644531 10.9375 -33 C 10.9375 -31.144531 11.703125 -29.742188 13.234375 -28.796875 C 14.765625 -27.847656 17.171875 -27.070312 20.453125 -26.46875 C 24.160156 -25.820312 27.125 -24.988281 29.34375 -23.96875 C 31.570312 -22.957031 33.242188 -21.578125 34.359375 -19.828125 C 35.484375 -18.085938 36.046875 -15.769531 36.046875 -12.875 C 36.046875 -10.15625 35.28125 -7.769531 33.75 -5.71875 C 32.21875 -3.675781 30.175781 -2.101562 27.625 -1 C 25.082031 0.09375 22.347656 0.640625 19.421875 0.640625 Z M 19.421875 0.640625 "/></g></g></g><g fill="#333333" fill-opacity="1"><g transform="translate(1614.021864, 459.666796)"><g><path d="M 40.390625 -5.046875 C 40.597656 -4.484375 40.703125 -3.96875 40.703125 -3.5 C 40.703125 -2.375 40.332031 -1.453125 39.59375 -0.734375 C 38.863281 -0.0234375 38.023438 0.328125 37.078125 0.328125 C 36.304688 0.328125 35.609375 0.09375 34.984375 -0.375 C 34.359375 -0.851562 33.875 -1.503906 33.53125 -2.328125 L 30.15625 -10.15625 L 10.875 -10.15625 L 7.5 -2.265625 C 7.195312 -1.441406 6.734375 -0.800781 6.109375 -0.34375 C 5.484375 0.101562 4.804688 0.328125 4.078125 0.328125 C 2.953125 0.328125 2.097656 0.0234375 1.515625 -0.578125 C 0.929688 -1.179688 0.640625 -2.003906 0.640625 -3.046875 C 0.640625 -3.429688 0.707031 -3.835938 0.84375 -4.265625 L 16.953125 -42.96875 C 17.296875 -43.832031 17.8125 -44.5 18.5 -44.96875 C 19.195312 -45.445312 19.976562 -45.644531 20.84375 -45.5625 C 21.613281 -45.5625 22.332031 -45.332031 23 -44.875 C 23.675781 -44.425781 24.164062 -43.789062 24.46875 -42.96875 Z M 14.046875 -17.609375 L 26.984375 -17.609375 L 20.453125 -32.75 Z M 14.046875 -17.609375 "/></g></g></g><g fill="#333333" fill-opacity="1"><g transform="translate(1668.374823, 459.666796)"><g><path d="M 34.625 -45.296875 C 35.789062 -45.296875 36.738281 -44.953125 37.46875 -44.265625 C 38.207031 -43.578125 38.578125 -42.671875 38.578125 -41.546875 C 38.578125 -40.421875 38.207031 -39.523438 37.46875 -38.859375 C 36.738281 -38.191406 35.789062 -37.859375 34.625 -37.859375 L 24.46875 -37.859375 L 24.46875 -3.953125 C 24.46875 -2.828125 24.054688 -1.882812 23.234375 -1.125 C 22.410156 -0.375 21.394531 0 20.1875 0 C 18.976562 0 17.984375 -0.375 17.203125 -1.125 C 16.429688 -1.882812 16.046875 -2.828125 16.046875 -3.953125 L 16.046875 -37.859375 L 5.890625 -37.859375 C 4.722656 -37.859375 3.769531 -38.203125 3.03125 -38.890625 C 2.300781 -39.585938 1.9375 -40.492188 1.9375 -41.609375 C 1.9375 -42.691406 2.3125 -43.578125 3.0625 -44.265625 C 3.820312 -44.953125 4.765625 -45.296875 5.890625 -45.296875 Z M 34.625 -45.296875 "/></g></g></g><g fill="#333333" fill-opacity="1"><g transform="translate(1721.886842, 459.666796)"><g><path d="M 37.671875 -45.296875 C 38.878906 -45.296875 39.847656 -44.929688 40.578125 -44.203125 C 41.304688 -43.472656 41.671875 -42.523438 41.671875 -41.359375 L 41.671875 -3.953125 C 41.671875 -2.828125 41.28125 -1.882812 40.5 -1.125 C 39.726562 -0.375 38.738281 0 37.53125 0 C 36.457031 0 35.53125 -0.375 34.75 -1.125 C 33.976562 -1.882812 33.59375 -2.828125 33.59375 -3.953125 L 33.59375 -19.03125 L 12.9375 -19.03125 L 12.9375 -3.953125 C 12.9375 -2.828125 12.523438 -1.882812 11.703125 -1.125 C 10.890625 -0.375 9.941406 0 8.859375 0 C 7.703125 0 6.742188 -0.375 5.984375 -1.125 C 5.234375 -1.882812 4.859375 -2.828125 4.859375 -3.953125 L 4.859375 -41.359375 C 4.859375 -42.472656 5.242188 -43.40625 6.015625 -44.15625 C 6.796875 -44.914062 7.789062 -45.296875 9 -45.296875 C 10.070312 -45.296875 10.992188 -44.914062 11.765625 -44.15625 C 12.546875 -43.40625 12.9375 -42.472656 12.9375 -41.359375 L 12.9375 -26.46875 L 33.59375 -26.46875 L 33.59375 -41.359375 C 33.59375 -42.472656 34 -43.40625 34.8125 -44.15625 C 35.632812 -44.914062 36.585938 -45.296875 37.671875 -45.296875 Z M 37.671875 -45.296875 "/></g></g></g><g fill="#333333" fill-opacity="1"><g transform="translate(1781.414801, 459.666796)"><g><path d="M 7.640625 -0.0625 C 6.390625 -0.0625 5.425781 -0.394531 4.75 -1.0625 C 4.082031 -1.738281 3.75 -2.703125 3.75 -3.953125 L 3.75 -5.046875 C 3.75 -6.296875 4.082031 -7.253906 4.75 -7.921875 C 5.425781 -8.597656 6.390625 -8.9375 7.640625 -8.9375 L 8.484375 -8.9375 C 9.734375 -8.9375 10.691406 -8.597656 11.359375 -7.921875 C 12.023438 -7.253906 12.359375 -6.296875 12.359375 -5.046875 L 12.359375 -3.953125 C 12.359375 -2.703125 12.023438 -1.738281 11.359375 -1.0625 C 10.691406 -0.394531 9.734375 -0.0625 8.484375 -0.0625 Z M 7.640625 -0.0625 "/></g></g></g><g fill="#333333" fill-opacity="1"><g transform="translate(1810.539469, 459.666796)"><g><path d="M 7.640625 -0.0625 C 6.390625 -0.0625 5.425781 -0.394531 4.75 -1.0625 C 4.082031 -1.738281 3.75 -2.703125 3.75 -3.953125 L 3.75 -5.046875 C 3.75 -6.296875 4.082031 -7.253906 4.75 -7.921875 C 5.425781 -8.597656 6.390625 -8.9375 7.640625 -8.9375 L 8.484375 -8.9375 C 9.734375 -8.9375 10.691406 -8.597656 11.359375 -7.921875 C 12.023438 -7.253906 12.359375 -6.296875 12.359375 -5.046875 L 12.359375 -3.953125 C 12.359375 -2.703125 12.023438 -1.738281 11.359375 -1.0625 C 10.691406 -0.394531 9.734375 -0.0625 8.484375 -0.0625 Z M 7.640625 -0.0625 "/></g></g></g><g fill="#333333" fill-opacity="1"><g transform="translate(1839.664136, 459.666796)"><g><path d="M 7.640625 -0.0625 C 6.390625 -0.0625 5.425781 -0.394531 4.75 -1.0625 C 4.082031 -1.738281 3.75 -2.703125 3.75 -3.953125 L 3.75 -5.046875 C 3.75 -6.296875 4.082031 -7.253906 4.75 -7.921875 C 5.425781 -8.597656 6.390625 -8.9375 7.640625 -8.9375 L 8.484375 -8.9375 C 9.734375 -8.9375 10.691406 -8.597656 11.359375 -7.921875 C 12.023438 -7.253906 12.359375 -6.296875 12.359375 -5.046875 L 12.359375 -3.953125 C 12.359375 -2.703125 12.023438 -1.738281 11.359375 -1.0625 C 10.691406 -0.394531 9.734375 -0.0625 8.484375 -0.0625 Z M 7.640625 -0.0625 "/></g></g></g></svg>