<svg xmlns="http://www.w3.org/2000/svg" xmlns:xlink="http://www.w3.org/1999/xlink" width="133" zoomAndPan="magnify" viewBox="0 0 99.75 30.000001" height="40" preserveAspectRatio="xMidYMid meet" version="1.0"><defs><clipPath id="50375d4246"><path d="M 10.710938 2.84375 L 54.167969 2.84375 L 54.167969 27.363281 L 10.710938 27.363281 Z M 10.710938 2.84375 " clip-rule="nonzero"/></clipPath></defs><g clip-path="url(#50375d4246)"><path fill="#ffffff" d="M 15.949219 19.082031 C 15.96875 20.128906 15.847656 21.15625 15.582031 22.171875 C 15.355469 23 15.015625 23.777344 14.550781 24.507812 C 14.109375 25.175781 13.589844 25.78125 12.988281 26.320312 C 12.390625 26.847656 11.726562 27.367188 11.019531 27.886719 L 10.773438 27.550781 C 11.34375 27.042969 11.832031 26.464844 12.234375 25.816406 C 12.589844 25.203125 12.867188 24.558594 13.058594 23.878906 C 13.25 23.15625 13.375 22.417969 13.429688 21.671875 C 13.476562 20.878906 13.503906 20.011719 13.503906 19.082031 L 13.503906 8.019531 C 13.503906 7.273438 13.492188 6.621094 13.476562 6.054688 C 13.460938 5.492188 13.429688 5.003906 13.402344 4.59375 C 13.371094 4.179688 13.324219 3.847656 13.277344 3.574219 C 13.230469 3.296875 13.167969 3.066406 13.121094 2.886719 L 13.121094 2.84375 L 16.332031 2.84375 L 16.332031 2.886719 C 16.289062 3.070312 16.226562 3.300781 16.179688 3.574219 C 16.132812 3.847656 16.085938 4.183594 16.054688 4.59375 C 16.027344 5.003906 15.996094 5.492188 15.976562 6.058594 C 15.964844 6.621094 15.949219 7.277344 15.949219 8.023438 Z M 16.671875 15.011719 C 16.660156 14.640625 16.738281 14.289062 16.917969 13.964844 C 17.085938 13.660156 17.3125 13.410156 17.59375 13.199219 C 17.882812 12.984375 18.199219 12.808594 18.542969 12.679688 C 18.902344 12.550781 19.273438 12.445312 19.652344 12.375 C 20.027344 12.308594 20.40625 12.253906 20.785156 12.226562 C 21.152344 12.195312 21.507812 12.179688 21.8125 12.179688 L 21.8125 11.785156 C 21.820312 11.480469 21.777344 11.1875 21.675781 10.898438 C 21.59375 10.671875 21.472656 10.464844 21.304688 10.289062 C 21.144531 10.121094 20.953125 9.996094 20.726562 9.925781 C 20.484375 9.847656 20.238281 9.804688 19.984375 9.804688 C 19.800781 9.804688 19.617188 9.820312 19.433594 9.851562 C 19.242188 9.878906 19.050781 9.929688 18.863281 10.003906 C 18.652344 10.082031 18.449219 10.179688 18.253906 10.289062 C 18.007812 10.429688 17.777344 10.585938 17.5625 10.761719 L 17.484375 10.714844 L 18.003906 9.636719 C 18.167969 9.5625 18.339844 9.5 18.511719 9.449219 C 18.679688 9.40625 18.851562 9.359375 19.019531 9.328125 C 19.1875 9.296875 19.371094 9.285156 19.542969 9.269531 C 19.726562 9.253906 19.910156 9.253906 20.109375 9.253906 C 20.585938 9.242188 21.050781 9.308594 21.507812 9.449219 C 21.863281 9.566406 22.179688 9.742188 22.460938 9.984375 C 22.703125 10.210938 22.886719 10.480469 22.996094 10.792969 C 23.109375 11.113281 23.167969 11.445312 23.167969 11.785156 L 23.167969 14.296875 C 23.167969 14.738281 23.167969 15.117188 23.179688 15.441406 C 23.195312 15.757812 23.210938 16.050781 23.226562 16.292969 C 23.238281 16.492188 23.265625 16.691406 23.300781 16.886719 C 23.332031 17.039062 23.363281 17.175781 23.394531 17.285156 L 23.394531 17.3125 L 21.675781 17.3125 L 21.675781 17.285156 C 21.707031 17.195312 21.726562 17.101562 21.738281 17.007812 C 21.753906 16.886719 21.765625 16.761719 21.765625 16.640625 C 21.660156 16.734375 21.535156 16.824219 21.382812 16.933594 C 21.21875 17.03125 21.050781 17.117188 20.875 17.191406 C 20.667969 17.269531 20.460938 17.335938 20.246094 17.386719 C 20 17.441406 19.75 17.464844 19.496094 17.464844 C 18.722656 17.511719 18.023438 17.304688 17.40625 16.839844 C 16.882812 16.34375 16.636719 15.734375 16.671875 15.011719 Z M 21.832031 12.773438 C 21.375 12.773438 20.921875 12.800781 20.464844 12.851562 C 20.066406 12.890625 19.683594 12.992188 19.3125 13.15625 C 18.957031 13.308594 18.671875 13.546875 18.472656 13.875 C 18.265625 14.210938 18.179688 14.566406 18.207031 14.949219 C 18.167969 15.476562 18.320312 15.9375 18.667969 16.335938 C 19.019531 16.6875 19.445312 16.84375 19.941406 16.8125 C 20.175781 16.816406 20.398438 16.78125 20.617188 16.703125 C 20.808594 16.640625 20.984375 16.550781 21.15625 16.445312 C 21.300781 16.34375 21.433594 16.226562 21.554688 16.09375 C 21.65625 15.988281 21.742188 15.867188 21.800781 15.726562 C 21.8125 15.53125 21.8125 15.320312 21.8125 15.074219 L 21.8125 12.773438 Z M 28.09375 10.945312 L 27.988281 10.960938 C 27.949219 10.828125 27.894531 10.699219 27.820312 10.582031 C 27.738281 10.4375 27.636719 10.316406 27.511719 10.214844 C 27.378906 10.09375 27.222656 10.003906 27.050781 9.941406 C 26.851562 9.863281 26.648438 9.828125 26.4375 9.832031 C 26.28125 9.835938 26.125 9.859375 25.976562 9.910156 C 25.84375 9.957031 25.71875 10.023438 25.609375 10.105469 C 25.5 10.199219 25.417969 10.3125 25.359375 10.441406 C 25.296875 10.59375 25.265625 10.75 25.269531 10.914062 C 25.269531 11.175781 25.347656 11.417969 25.5 11.632812 C 25.675781 11.878906 25.871094 12.109375 26.097656 12.316406 C 26.34375 12.542969 26.589844 12.757812 26.867188 12.984375 C 27.140625 13.203125 27.394531 13.445312 27.636719 13.703125 C 27.867188 13.941406 28.066406 14.207031 28.234375 14.492188 C 28.390625 14.777344 28.46875 15.082031 28.464844 15.410156 C 28.464844 15.671875 28.417969 15.925781 28.324219 16.171875 C 28.230469 16.425781 28.089844 16.648438 27.898438 16.839844 C 27.675781 17.050781 27.425781 17.207031 27.144531 17.3125 C 26.789062 17.441406 26.429688 17.503906 26.054688 17.496094 C 25.820312 17.496094 25.589844 17.46875 25.359375 17.417969 C 25.160156 17.375 24.960938 17.316406 24.761719 17.253906 C 24.601562 17.1875 24.441406 17.109375 24.285156 17.023438 C 24.152344 16.949219 24.027344 16.855469 23.902344 16.78125 L 23.980469 15.316406 L 24.101562 15.316406 C 24.148438 15.550781 24.222656 15.777344 24.335938 15.988281 C 24.4375 16.179688 24.566406 16.351562 24.71875 16.503906 C 24.871094 16.648438 25.042969 16.761719 25.238281 16.839844 C 25.449219 16.917969 25.664062 16.960938 25.886719 16.960938 C 26.234375 16.980469 26.542969 16.871094 26.808594 16.640625 C 27.042969 16.421875 27.160156 16.144531 27.144531 15.820312 C 27.144531 15.546875 27.070312 15.296875 26.914062 15.074219 C 26.746094 14.832031 26.550781 14.613281 26.332031 14.417969 C 26.101562 14.207031 25.835938 13.992188 25.578125 13.78125 C 25.316406 13.566406 25.054688 13.335938 24.824219 13.105469 C 24.597656 12.871094 24.402344 12.605469 24.242188 12.316406 C 23.945312 11.722656 23.925781 11.128906 24.183594 10.519531 C 24.410156 9.996094 24.800781 9.644531 25.347656 9.46875 C 25.644531 9.367188 25.945312 9.316406 26.253906 9.316406 C 26.621094 9.304688 26.976562 9.351562 27.328125 9.449219 C 27.554688 9.519531 27.773438 9.605469 27.992188 9.710938 Z M 34.777344 12.089844 C 34.820312 11.539062 34.683594 11.042969 34.363281 10.59375 C 34.070312 10.257812 33.699219 10.101562 33.257812 10.125 C 33.0625 10.125 32.871094 10.15625 32.6875 10.230469 C 32.464844 10.308594 32.25 10.402344 32.042969 10.503906 C 31.816406 10.628906 31.59375 10.769531 31.382812 10.914062 C 31.164062 11.070312 30.960938 11.234375 30.769531 11.417969 L 30.769531 14.28125 C 30.769531 14.722656 30.769531 15.105469 30.785156 15.421875 C 30.796875 15.746094 30.816406 16.03125 30.828125 16.277344 C 30.84375 16.476562 30.867188 16.671875 30.90625 16.871094 C 30.9375 17.023438 30.96875 17.164062 31 17.265625 L 31 17.296875 L 29.199219 17.296875 L 29.199219 17.265625 C 29.230469 17.164062 29.261719 17.023438 29.292969 16.871094 C 29.324219 16.71875 29.339844 16.507812 29.371094 16.277344 C 29.386719 16.03125 29.398438 15.757812 29.417969 15.425781 C 29.429688 15.105469 29.429688 14.707031 29.429688 14.28125 L 29.429688 8.78125 C 29.429688 8.34375 29.429688 7.960938 29.417969 7.640625 C 29.402344 7.320312 29.386719 7.03125 29.371094 6.785156 C 29.355469 6.589844 29.332031 6.390625 29.292969 6.195312 C 29.261719 6.039062 29.230469 5.902344 29.199219 5.796875 L 29.199219 5.765625 L 31 5.765625 L 31 5.796875 C 30.96875 5.90625 30.9375 6.042969 30.90625 6.195312 C 30.878906 6.347656 30.859375 6.546875 30.828125 6.789062 C 30.816406 7.03125 30.796875 7.304688 30.785156 7.640625 C 30.769531 7.960938 30.769531 8.359375 30.769531 8.785156 L 30.769531 10.765625 C 30.980469 10.582031 31.195312 10.402344 31.457031 10.21875 C 31.707031 10.035156 31.96875 9.875 32.242188 9.726562 C 32.507812 9.589844 32.785156 9.472656 33.070312 9.378906 C 33.339844 9.289062 33.617188 9.242188 33.898438 9.242188 C 34.261719 9.234375 34.601562 9.304688 34.929688 9.453125 C 35.199219 9.585938 35.429688 9.769531 35.621094 10.003906 C 35.804688 10.234375 35.929688 10.496094 36.003906 10.78125 C 36.082031 11.070312 36.125 11.363281 36.125 11.664062 L 36.125 14.285156 C 36.125 14.726562 36.125 15.105469 36.140625 15.425781 C 36.15625 15.75 36.171875 16.035156 36.1875 16.277344 C 36.199219 16.480469 36.226562 16.675781 36.265625 16.875 C 36.296875 17.027344 36.328125 17.164062 36.355469 17.269531 L 36.355469 17.300781 L 34.558594 17.300781 L 34.558594 17.269531 C 34.589844 17.164062 34.621094 17.027344 34.652344 16.875 C 34.683594 16.722656 34.699219 16.507812 34.726562 16.277344 C 34.746094 16.035156 34.757812 15.761719 34.777344 15.425781 C 34.789062 15.105469 34.789062 14.710938 34.789062 14.285156 L 34.789062 12.089844 Z M 42.636719 12.089844 C 42.683594 11.539062 42.546875 11.042969 42.222656 10.59375 C 41.933594 10.257812 41.566406 10.101562 41.117188 10.125 C 40.925781 10.125 40.742188 10.15625 40.5625 10.230469 C 40.351562 10.308594 40.148438 10.398438 39.917969 10.503906 C 39.460938 10.753906 39.035156 11.054688 38.648438 11.402344 L 38.628906 12.40625 L 38.628906 14.28125 C 38.628906 14.722656 38.628906 15.105469 38.648438 15.421875 C 38.660156 15.746094 38.675781 16.03125 38.691406 16.277344 C 38.703125 16.476562 38.730469 16.671875 38.769531 16.871094 C 38.800781 17.023438 38.832031 17.164062 38.859375 17.265625 L 38.859375 17.296875 L 37.0625 17.296875 L 37.0625 17.265625 C 37.09375 17.164062 37.125 17.023438 37.15625 16.871094 C 37.1875 16.71875 37.203125 16.507812 37.230469 16.277344 C 37.25 16.03125 37.261719 15.757812 37.28125 15.421875 C 37.292969 15.105469 37.292969 14.707031 37.292969 14.28125 L 37.292969 12.40625 C 37.292969 11.96875 37.292969 11.585938 37.28125 11.265625 C 37.261719 10.945312 37.25 10.65625 37.230469 10.410156 C 37.21875 10.214844 37.191406 10.015625 37.15625 9.820312 C 37.125 9.664062 37.09375 9.53125 37.0625 9.421875 L 37.0625 9.390625 L 38.859375 9.390625 L 38.859375 9.421875 C 38.804688 9.578125 38.773438 9.742188 38.769531 9.910156 C 38.738281 10.109375 38.722656 10.367188 38.691406 10.6875 C 38.90625 10.519531 39.136719 10.339844 39.378906 10.167969 C 39.628906 10 39.882812 9.839844 40.148438 9.695312 C 40.414062 9.5625 40.683594 9.449219 40.960938 9.359375 C 41.226562 9.277344 41.5 9.234375 41.777344 9.238281 C 42.136719 9.234375 42.480469 9.300781 42.804688 9.453125 C 43.078125 9.585938 43.308594 9.765625 43.5 10.003906 C 43.683594 10.234375 43.808594 10.492188 43.878906 10.777344 C 43.960938 11.066406 44.003906 11.359375 44.003906 11.664062 L 44.003906 14.28125 C 44.003906 14.722656 44.003906 15.105469 44.019531 15.425781 C 44.035156 15.746094 44.050781 16.03125 44.066406 16.277344 C 44.074219 16.476562 44.101562 16.675781 44.140625 16.871094 C 44.171875 17.023438 44.203125 17.164062 44.234375 17.265625 L 44.234375 17.296875 L 42.4375 17.296875 L 42.4375 17.265625 C 42.46875 17.164062 42.5 17.023438 42.53125 16.871094 C 42.558594 16.71875 42.578125 16.507812 42.609375 16.277344 C 42.621094 16.03125 42.636719 15.757812 42.652344 15.425781 C 42.667969 15.105469 42.667969 14.707031 42.667969 14.28125 L 42.667969 12.089844 Z M 46.601562 12.027344 L 46.96875 12.394531 L 45.203125 14.144531 L 44.832031 13.78125 M 49.316406 15.089844 C 49.054688 15.089844 48.796875 15.046875 48.546875 14.96875 C 48.316406 14.882812 48.101562 14.753906 47.917969 14.585938 C 47.730469 14.417969 47.589844 14.214844 47.503906 13.976562 C 47.394531 13.710938 47.34375 13.429688 47.351562 13.136719 C 47.351562 12.871094 47.398438 12.613281 47.492188 12.363281 C 47.578125 12.132812 47.707031 11.933594 47.875 11.753906 C 48.042969 11.582031 48.238281 11.445312 48.457031 11.34375 C 48.6875 11.242188 48.925781 11.191406 49.179688 11.191406 C 49.679688 11.183594 50.101562 11.355469 50.453125 11.707031 C 50.621094 11.886719 50.75 12.089844 50.835938 12.316406 C 50.933594 12.585938 50.984375 12.867188 50.988281 13.15625 C 50.714844 13.15625 50.441406 13.136719 50.148438 13.136719 L 48.640625 13.136719 C 48.441406 13.136719 48.253906 13.136719 48.089844 13.15625 C 48.101562 13.386719 48.144531 13.617188 48.210938 13.839844 C 48.265625 14.035156 48.359375 14.214844 48.488281 14.371094 C 48.597656 14.519531 48.734375 14.632812 48.902344 14.707031 C 49.078125 14.789062 49.261719 14.828125 49.457031 14.828125 C 49.589844 14.828125 49.722656 14.816406 49.855469 14.785156 C 49.976562 14.753906 50.09375 14.707031 50.207031 14.644531 C 50.3125 14.59375 50.40625 14.519531 50.484375 14.433594 C 50.566406 14.355469 50.632812 14.269531 50.695312 14.175781 L 50.746094 14.191406 L 50.46875 14.847656 C 50.316406 14.921875 50.15625 14.980469 49.992188 15.011719 C 49.773438 15.074219 49.546875 15.097656 49.316406 15.089844 Z M 48.828125 12.851562 L 49.5625 12.851562 C 49.808594 12.851562 50.039062 12.851562 50.238281 12.832031 C 50.222656 12.636719 50.183594 12.441406 50.117188 12.253906 C 50.0625 12.097656 49.988281 11.957031 49.886719 11.828125 C 49.792969 11.710938 49.683594 11.621094 49.546875 11.554688 C 49.410156 11.492188 49.269531 11.464844 49.117188 11.464844 C 48.980469 11.464844 48.84375 11.492188 48.71875 11.554688 C 48.589844 11.617188 48.488281 11.710938 48.414062 11.828125 C 48.320312 11.960938 48.246094 12.101562 48.195312 12.253906 C 48.128906 12.441406 48.101562 12.636719 48.105469 12.832031 L 48.457031 12.832031 C 48.578125 12.835938 48.6875 12.851562 48.828125 12.851562 Z M 51.679688 14.144531 L 51.3125 13.78125 L 53.078125 12.027344 L 53.449219 12.394531 Z M 56.164062 13.398438 C 56.164062 13.964844 56.183594 14.449219 56.195312 14.875 C 56.214844 15.300781 56.226562 15.65625 56.257812 15.957031 C 56.273438 16.210938 56.304688 16.464844 56.347656 16.71875 C 56.375 16.894531 56.417969 17.070312 56.46875 17.238281 L 56.46875 17.285156 L 54.046875 17.285156 L 54.046875 17.238281 C 54.089844 17.101562 54.121094 16.933594 54.167969 16.71875 C 54.199219 16.519531 54.230469 16.261719 54.261719 15.957031 C 54.289062 15.652344 54.308594 15.289062 54.320312 14.875 C 54.339844 14.464844 54.351562 13.964844 54.351562 13.398438 L 54.351562 6.9375 C 54.351562 6.375 54.339844 5.886719 54.320312 5.460938 C 54.308594 5.035156 54.292969 4.6875 54.261719 4.378906 C 54.230469 4.074219 54.214844 3.816406 54.167969 3.605469 C 54.144531 3.429688 54.101562 3.253906 54.046875 3.085938 L 54.046875 3.039062 L 54.460938 3.085938 C 54.582031 3.097656 54.722656 3.097656 54.890625 3.117188 L 55.382812 3.117188 C 55.738281 3.109375 56.089844 3.078125 56.441406 3.023438 C 57.007812 2.957031 57.578125 2.925781 58.148438 2.933594 C 58.75 2.929688 59.347656 3.015625 59.925781 3.191406 C 60.449219 3.351562 60.921875 3.605469 61.339844 3.953125 C 61.742188 4.289062 62.054688 4.695312 62.273438 5.175781 C 62.511719 5.691406 62.625 6.234375 62.613281 6.804688 C 62.617188 7.253906 62.554688 7.699219 62.429688 8.128906 C 62.3125 8.527344 62.140625 8.898438 61.90625 9.238281 C 61.679688 9.574219 61.410156 9.871094 61.09375 10.125 C 60.777344 10.386719 60.429688 10.601562 60.050781 10.765625 L 63.566406 15.65625 C 63.734375 15.898438 63.902344 16.113281 64.058594 16.296875 C 64.1875 16.457031 64.332031 16.609375 64.488281 16.75 C 64.613281 16.867188 64.746094 16.976562 64.886719 17.070312 C 65.007812 17.148438 65.136719 17.214844 65.269531 17.269531 L 65.269531 17.316406 L 62.382812 17.316406 C 62.339844 17.136719 62.273438 16.972656 62.183594 16.8125 C 62.066406 16.597656 61.941406 16.390625 61.800781 16.1875 L 58.253906 11.234375 C 58.101562 11.253906 57.945312 11.265625 57.792969 11.265625 C 57.640625 11.28125 57.484375 11.28125 57.316406 11.28125 C 57.132812 11.28125 56.945312 11.28125 56.75 11.265625 C 56.558594 11.257812 56.367188 11.234375 56.183594 11.191406 L 56.183594 13.402344 Z M 56.164062 10.382812 C 56.347656 10.429688 56.53125 10.441406 56.71875 10.472656 C 56.902344 10.488281 57.085938 10.503906 57.257812 10.503906 C 57.726562 10.511719 58.179688 10.433594 58.625 10.277344 C 59.03125 10.128906 59.382812 9.902344 59.679688 9.589844 C 59.992188 9.261719 60.214844 8.878906 60.355469 8.449219 C 60.527344 7.929688 60.609375 7.394531 60.601562 6.847656 C 60.605469 6.390625 60.550781 5.9375 60.433594 5.492188 C 60.339844 5.117188 60.175781 4.773438 59.925781 4.472656 C 59.695312 4.191406 59.414062 3.972656 59.082031 3.816406 C 58.699219 3.652344 58.300781 3.578125 57.882812 3.585938 C 57.515625 3.582031 57.144531 3.609375 56.78125 3.664062 C 56.566406 3.691406 56.363281 3.742188 56.164062 3.816406 Z M 67.867188 17.4375 C 67.3125 17.441406 66.773438 17.347656 66.253906 17.164062 C 65.757812 16.984375 65.316406 16.722656 64.933594 16.367188 C 64.542969 16 64.246094 15.566406 64.042969 15.074219 C 63.820312 14.511719 63.710938 13.929688 63.722656 13.320312 C 63.710938 12.765625 63.808594 12.226562 64.015625 11.707031 C 64.203125 11.226562 64.472656 10.792969 64.824219 10.410156 C 65.171875 10.046875 65.574219 9.761719 66.039062 9.558594 C 66.519531 9.347656 67.019531 9.242188 67.542969 9.253906 C 68.058594 9.25 68.554688 9.339844 69.03125 9.527344 C 69.488281 9.703125 69.882812 9.96875 70.210938 10.320312 C 70.570312 10.699219 70.832031 11.132812 71.011719 11.617188 C 71.21875 12.183594 71.328125 12.765625 71.335938 13.367188 C 70.75 13.351562 70.167969 13.351562 69.566406 13.335938 C 68.984375 13.335938 68.371094 13.320312 67.742188 13.320312 C 67.296875 13.320312 66.851562 13.320312 66.421875 13.335938 C 65.988281 13.335938 65.605469 13.351562 65.269531 13.367188 C 65.296875 13.859375 65.378906 14.339844 65.515625 14.816406 C 65.632812 15.222656 65.824219 15.59375 66.082031 15.929688 C 66.320312 16.230469 66.609375 16.464844 66.960938 16.628906 C 67.328125 16.800781 67.71875 16.882812 68.125 16.871094 C 68.417969 16.878906 68.703125 16.839844 68.984375 16.765625 C 69.238281 16.699219 69.476562 16.601562 69.707031 16.476562 C 69.921875 16.355469 70.117188 16.207031 70.292969 16.035156 C 70.460938 15.871094 70.605469 15.6875 70.71875 15.484375 L 70.8125 15.535156 L 70.230469 16.902344 C 69.910156 17.0625 69.578125 17.183594 69.230469 17.269531 C 68.785156 17.398438 68.328125 17.453125 67.863281 17.4375 Z M 66.820312 12.730469 L 68.390625 12.730469 C 68.910156 12.730469 69.386719 12.710938 69.816406 12.699219 C 69.773438 12.285156 69.6875 11.886719 69.554688 11.496094 C 69.441406 11.167969 69.277344 10.867188 69.058594 10.59375 C 68.863281 10.351562 68.621094 10.15625 68.339844 10.015625 C 68.054688 9.878906 67.753906 9.816406 67.433594 9.820312 C 67.140625 9.8125 66.863281 9.878906 66.605469 10.015625 C 66.34375 10.15625 66.125 10.34375 65.945312 10.582031 C 65.738281 10.859375 65.59375 11.164062 65.5 11.496094 C 65.378906 11.894531 65.316406 12.300781 65.300781 12.714844 C 65.53125 12.730469 65.773438 12.730469 66.039062 12.730469 Z M 72.070312 8.769531 C 72.070312 8.324219 72.070312 7.945312 72.058594 7.625 C 72.042969 7.304688 72.027344 7.015625 72.011719 6.773438 C 72 6.570312 71.972656 6.375 71.9375 6.179688 C 71.90625 6.027344 71.875 5.886719 71.84375 5.78125 L 71.84375 5.753906 L 73.640625 5.753906 L 73.640625 5.78125 C 73.609375 5.886719 73.578125 6.027344 73.546875 6.179688 C 73.519531 6.328125 73.5 6.53125 73.46875 6.773438 C 73.457031 7.015625 73.4375 7.289062 73.425781 7.625 C 73.410156 7.945312 73.410156 8.34375 73.410156 8.769531 L 73.410156 12.609375 L 75.960938 10.335938 C 76.40625 9.957031 76.636719 9.636719 76.636719 9.375 L 78.445312 9.375 L 78.445312 9.40625 C 78.316406 9.449219 78.1875 9.5 78.0625 9.558594 C 77.933594 9.625 77.808594 9.699219 77.691406 9.789062 C 77.570312 9.878906 77.449219 9.972656 77.308594 10.09375 C 77.15625 10.210938 77.015625 10.339844 76.878906 10.472656 L 74.59375 12.53125 L 77.722656 16.203125 C 77.816406 16.308594 77.925781 16.429688 78.03125 16.550781 C 78.132812 16.667969 78.238281 16.773438 78.355469 16.871094 C 78.464844 16.964844 78.570312 17.054688 78.675781 17.132812 C 78.761719 17.199219 78.859375 17.246094 78.96875 17.269531 L 78.96875 17.296875 L 76.710938 17.296875 C 76.710938 17.152344 76.675781 17.015625 76.605469 16.886719 C 76.492188 16.695312 76.363281 16.511719 76.222656 16.339844 L 73.410156 13.035156 L 73.410156 14.28125 C 73.410156 14.726562 73.410156 15.105469 73.425781 15.425781 C 73.441406 15.746094 73.457031 16.035156 73.46875 16.277344 C 73.484375 16.480469 73.507812 16.675781 73.550781 16.871094 C 73.578125 17.023438 73.609375 17.164062 73.640625 17.269531 L 73.640625 17.296875 L 71.84375 17.296875 L 71.84375 17.269531 C 71.875 17.164062 71.90625 17.023438 71.9375 16.871094 C 71.96875 16.71875 71.980469 16.507812 72.011719 16.277344 C 72.027344 16.035156 72.042969 15.757812 72.058594 15.425781 C 72.074219 15.105469 72.074219 14.707031 72.074219 14.28125 L 72.074219 8.769531 Z M 84.773438 12.089844 C 84.816406 11.539062 84.679688 11.042969 84.359375 10.59375 C 84.066406 10.257812 83.699219 10.101562 83.253906 10.125 C 83.054688 10.125 82.867188 10.160156 82.683594 10.230469 C 82.464844 10.308594 82.25 10.402344 82.039062 10.503906 C 81.808594 10.628906 81.589844 10.769531 81.378906 10.917969 C 81.164062 11.070312 80.957031 11.238281 80.761719 11.417969 L 80.761719 14.28125 C 80.761719 14.722656 80.761719 15.105469 80.78125 15.425781 C 80.792969 15.746094 80.808594 16.03125 80.824219 16.277344 C 80.835938 16.476562 80.863281 16.675781 80.902344 16.871094 C 80.933594 17.023438 80.964844 17.164062 80.992188 17.269531 L 80.992188 17.296875 L 79.199219 17.296875 L 79.199219 17.269531 C 79.230469 17.164062 79.261719 17.023438 79.289062 16.871094 C 79.320312 16.71875 79.335938 16.507812 79.363281 16.277344 C 79.382812 16.035156 79.394531 15.757812 79.414062 15.425781 C 79.425781 15.105469 79.425781 14.707031 79.425781 14.28125 L 79.425781 8.78125 C 79.425781 8.34375 79.425781 7.960938 79.414062 7.640625 C 79.394531 7.320312 79.382812 7.03125 79.363281 6.785156 C 79.355469 6.589844 79.332031 6.390625 79.289062 6.195312 C 79.261719 6.039062 79.230469 5.902344 79.199219 5.796875 L 79.199219 5.765625 L 80.992188 5.765625 L 80.992188 5.796875 C 80.964844 5.90625 80.933594 6.042969 80.902344 6.195312 C 80.871094 6.347656 80.855469 6.546875 80.824219 6.789062 C 80.8125 7.03125 80.792969 7.304688 80.78125 7.640625 C 80.761719 7.960938 80.761719 8.359375 80.761719 8.785156 L 80.761719 10.765625 C 80.980469 10.582031 81.195312 10.402344 81.457031 10.21875 C 81.707031 10.035156 81.964844 9.875 82.238281 9.726562 C 82.503906 9.589844 82.78125 9.472656 83.066406 9.378906 C 83.335938 9.289062 83.613281 9.242188 83.898438 9.242188 C 84.253906 9.234375 84.597656 9.304688 84.925781 9.453125 C 85.195312 9.585938 85.425781 9.769531 85.613281 10.003906 C 85.800781 10.234375 85.925781 10.496094 86 10.78125 C 86.082031 11.070312 86.117188 11.363281 86.121094 11.664062 L 86.121094 14.285156 C 86.121094 14.726562 86.121094 15.105469 86.136719 15.425781 C 86.152344 15.75 86.167969 16.035156 86.183594 16.277344 C 86.195312 16.480469 86.21875 16.675781 86.261719 16.875 C 86.289062 17.027344 86.320312 17.164062 86.351562 17.269531 L 86.351562 17.300781 L 84.558594 17.300781 L 84.558594 17.269531 C 84.585938 17.164062 84.617188 17.027344 84.648438 16.875 C 84.679688 16.722656 84.691406 16.507812 84.722656 16.277344 C 84.738281 16.035156 84.753906 15.761719 84.769531 15.425781 C 84.785156 15.105469 84.785156 14.710938 84.785156 14.285156 L 84.785156 12.089844 Z M 90.34375 16.839844 C 90.503906 16.839844 90.65625 16.808594 90.808594 16.75 C 90.964844 16.6875 91.109375 16.609375 91.253906 16.519531 C 91.398438 16.421875 91.535156 16.304688 91.664062 16.183594 C 91.800781 16.066406 91.921875 15.933594 92.035156 15.789062 L 92.109375 15.835938 L 91.601562 17.085938 C 91.542969 17.113281 91.464844 17.144531 91.375 17.195312 C 91.269531 17.246094 91.164062 17.285156 91.050781 17.316406 C 90.90625 17.363281 90.757812 17.398438 90.605469 17.421875 C 90.402344 17.453125 90.199219 17.46875 89.992188 17.46875 C 89.371094 17.503906 88.828125 17.316406 88.367188 16.902344 C 87.921875 16.398438 87.726562 15.816406 87.78125 15.148438 L 87.78125 10.003906 L 86.472656 10.046875 L 86.472656 9.359375 C 86.628906 9.378906 86.828125 9.378906 87.058594 9.390625 L 87.796875 9.390625 C 87.796875 9.027344 87.78125 8.707031 87.765625 8.417969 C 87.75 8.140625 87.734375 7.898438 87.71875 7.683594 C 87.703125 7.472656 87.671875 7.304688 87.660156 7.152344 C 87.628906 7.015625 87.609375 6.894531 87.578125 6.785156 L 87.578125 6.753906 L 89.363281 6.753906 L 89.363281 6.785156 C 89.324219 6.90625 89.292969 7.027344 89.269531 7.152344 C 89.238281 7.324219 89.21875 7.496094 89.210938 7.667969 C 89.191406 7.882812 89.179688 8.113281 89.160156 8.402344 C 89.148438 8.675781 89.148438 9.011719 89.132812 9.378906 C 89.453125 9.378906 89.777344 9.359375 90.101562 9.359375 C 90.40625 9.347656 90.699219 9.347656 90.960938 9.332031 C 91.222656 9.316406 91.4375 9.300781 91.621094 9.285156 C 91.804688 9.269531 91.914062 9.257812 91.972656 9.257812 L 91.832031 10.046875 C 91.570312 10.046875 91.296875 10.035156 91.003906 10.015625 C 90.757812 10.003906 90.46875 10.003906 90.144531 9.988281 C 89.824219 9.988281 89.484375 9.972656 89.148438 9.972656 L 89.148438 15.289062 C 89.136719 15.554688 89.171875 15.8125 89.257812 16.066406 C 89.3125 16.242188 89.40625 16.398438 89.53125 16.539062 C 89.636719 16.648438 89.765625 16.726562 89.917969 16.765625 C 90.050781 16.824219 90.195312 16.851562 90.34375 16.839844 Z M 92.21875 15.011719 C 92.203125 14.640625 92.289062 14.289062 92.464844 13.964844 C 92.636719 13.660156 92.863281 13.40625 93.140625 13.199219 C 93.433594 12.984375 93.75 12.808594 94.09375 12.679688 C 94.453125 12.550781 94.820312 12.445312 95.195312 12.375 C 95.574219 12.304688 95.949219 12.253906 96.332031 12.222656 C 96.703125 12.195312 97.054688 12.179688 97.363281 12.179688 L 97.363281 11.785156 C 97.371094 11.480469 97.324219 11.1875 97.222656 10.898438 C 97.144531 10.671875 97.023438 10.464844 96.855469 10.289062 C 96.695312 10.117188 96.5 9.996094 96.269531 9.925781 C 96.035156 9.84375 95.789062 9.804688 95.535156 9.800781 C 95.347656 9.800781 95.164062 9.820312 94.980469 9.851562 C 94.785156 9.878906 94.597656 9.929688 94.414062 10 C 94.203125 10.082031 93.996094 10.179688 93.796875 10.289062 C 93.554688 10.429688 93.324219 10.585938 93.109375 10.761719 L 93.03125 10.714844 L 93.554688 9.636719 C 93.71875 9.558594 93.886719 9.5 94.0625 9.449219 C 94.230469 9.40625 94.398438 9.359375 94.566406 9.328125 C 94.738281 9.296875 94.921875 9.285156 95.089844 9.265625 C 95.257812 9.253906 95.460938 9.253906 95.660156 9.253906 C 96.136719 9.238281 96.601562 9.304688 97.054688 9.449219 C 97.410156 9.566406 97.726562 9.742188 98.007812 9.984375 C 98.253906 10.210938 98.433594 10.480469 98.546875 10.792969 C 98.65625 11.109375 98.714844 11.445312 98.714844 11.785156 L 98.714844 14.296875 C 98.714844 14.734375 98.714844 15.117188 98.730469 15.441406 C 98.742188 15.757812 98.761719 16.046875 98.773438 16.292969 C 98.789062 16.488281 98.8125 16.6875 98.851562 16.886719 C 98.882812 17.039062 98.914062 17.175781 98.945312 17.28125 L 98.945312 17.3125 L 97.222656 17.3125 L 97.222656 17.28125 C 97.253906 17.195312 97.277344 17.101562 97.285156 17.007812 C 97.304688 16.886719 97.3125 16.761719 97.3125 16.640625 C 97.207031 16.734375 97.085938 16.824219 96.929688 16.929688 C 96.769531 17.03125 96.601562 17.117188 96.421875 17.191406 C 96.21875 17.269531 96.011719 17.335938 95.792969 17.386719 C 95.546875 17.4375 95.296875 17.464844 95.042969 17.464844 C 94.265625 17.511719 93.570312 17.304688 92.957031 16.839844 C 92.425781 16.339844 92.183594 15.734375 92.21875 15.011719 Z M 97.375 12.773438 C 96.921875 12.773438 96.464844 12.800781 96.011719 12.851562 C 95.609375 12.890625 95.226562 12.988281 94.859375 13.15625 C 94.5 13.304688 94.21875 13.546875 94.015625 13.875 C 93.816406 14.210938 93.726562 14.566406 93.753906 14.949219 C 93.71875 15.476562 93.871094 15.9375 94.214844 16.335938 C 94.566406 16.683594 94.996094 16.84375 95.488281 16.808594 C 95.722656 16.816406 95.945312 16.78125 96.167969 16.703125 C 96.355469 16.640625 96.535156 16.550781 96.703125 16.445312 C 96.847656 16.34375 96.984375 16.226562 97.101562 16.09375 C 97.207031 15.988281 97.285156 15.867188 97.347656 15.726562 C 97.363281 15.53125 97.363281 15.320312 97.363281 15.074219 L 97.363281 12.769531 Z M 97.375 12.773438 " fill-opacity="1" fill-rule="nonzero"/></g><path fill="#ffffff" d="M 65.996094 14.039062 C 65.996094 13.640625 66.070312 13.300781 66.230469 13.011719 C 66.398438 12.726562 66.613281 12.484375 66.886719 12.289062 C 67.152344 12.089844 67.457031 11.925781 67.789062 11.804688 C 68.128906 11.675781 68.484375 11.578125 68.847656 11.5 C 69.214844 11.425781 69.578125 11.375 69.933594 11.347656 C 70.292969 11.320312 70.621094 11.304688 70.917969 11.304688 L 70.917969 10.917969 C 70.917969 10.597656 70.878906 10.320312 70.792969 10.085938 C 70.710938 9.847656 70.589844 9.648438 70.433594 9.492188 C 70.28125 9.335938 70.101562 9.21875 69.890625 9.144531 C 69.675781 9.070312 69.4375 9.03125 69.179688 9.03125 C 69.003906 9.03125 68.824219 9.046875 68.652344 9.074219 C 68.476562 9.101562 68.292969 9.152344 68.109375 9.226562 C 67.921875 9.292969 67.726562 9.386719 67.523438 9.503906 C 67.320312 9.625 67.097656 9.773438 66.859375 9.949219 L 66.789062 9.90625 L 67.289062 8.867188 C 67.457031 8.792969 67.617188 8.734375 67.777344 8.6875 C 67.933594 8.640625 68.089844 8.601562 68.25 8.574219 C 68.414062 8.539062 68.582031 8.515625 68.75 8.507812 C 68.921875 8.5 69.105469 8.492188 69.292969 8.492188 C 69.808594 8.492188 70.253906 8.558594 70.628906 8.6875 C 70.996094 8.808594 71.296875 8.976562 71.53125 9.199219 C 71.773438 9.421875 71.941406 9.679688 72.046875 9.976562 C 72.15625 10.261719 72.214844 10.570312 72.214844 10.90625 L 72.214844 13.316406 C 72.214844 13.742188 72.214844 14.113281 72.226562 14.425781 C 72.246094 14.730469 72.261719 15 72.28125 15.230469 C 72.300781 15.460938 72.316406 15.65625 72.339844 15.8125 C 72.367188 15.960938 72.398438 16.085938 72.4375 16.1875 L 72.4375 16.214844 L 70.792969 16.214844 L 70.792969 16.1875 C 70.8125 16.101562 70.824219 16.015625 70.835938 15.921875 C 70.851562 15.820312 70.867188 15.699219 70.878906 15.5625 C 70.773438 15.65625 70.65625 15.75 70.515625 15.839844 C 70.378906 15.933594 70.214844 16.015625 70.027344 16.089844 C 69.851562 16.164062 69.652344 16.21875 69.429688 16.269531 C 69.207031 16.324219 68.964844 16.351562 68.707031 16.351562 C 67.84375 16.351562 67.175781 16.15625 66.703125 15.757812 C 66.230469 15.351562 65.996094 14.777344 65.996094 14.039062 Z M 70.917969 11.875 C 70.472656 11.886719 70.042969 11.914062 69.625 11.957031 C 69.207031 12.007812 68.835938 12.101562 68.511719 12.25 C 68.195312 12.398438 67.941406 12.609375 67.746094 12.886719 C 67.558594 13.15625 67.46875 13.515625 67.46875 13.96875 C 67.46875 14.550781 67.613281 14.992188 67.902344 15.296875 C 68.195312 15.605469 68.601562 15.757812 69.125 15.757812 C 69.355469 15.757812 69.570312 15.726562 69.765625 15.660156 C 69.960938 15.597656 70.128906 15.511719 70.28125 15.410156 C 70.4375 15.308594 70.566406 15.199219 70.667969 15.078125 C 70.769531 14.960938 70.851562 14.839844 70.90625 14.730469 C 70.914062 14.535156 70.917969 14.328125 70.917969 14.105469 C 70.917969 13.878906 70.917969 13.613281 70.917969 13.316406 Z M 70.917969 11.875 " fill-opacity="1" fill-rule="nonzero"/><path fill="#ffffff" d="M 75.21875 15.632812 L 77.417969 15.632812 C 77.808594 15.632812 78.160156 15.613281 78.488281 15.574219 C 78.8125 15.53125 79.09375 15.480469 79.335938 15.421875 C 79.617188 15.367188 79.867188 15.296875 80.089844 15.214844 L 79.753906 16.269531 C 79.699219 16.269531 79.59375 16.261719 79.449219 16.253906 C 79.300781 16.246094 79.144531 16.234375 78.988281 16.226562 C 78.828125 16.226562 78.675781 16.21875 78.53125 16.214844 C 78.390625 16.214844 78.292969 16.214844 78.238281 16.214844 L 73.4375 16.214844 L 73.4375 16.035156 L 78.226562 9.214844 L 76.679688 9.214844 C 76.261719 9.214844 75.878906 9.238281 75.539062 9.28125 C 75.195312 9.332031 74.898438 9.378906 74.648438 9.433594 C 74.351562 9.492188 74.082031 9.558594 73.84375 9.644531 L 74.328125 8.574219 C 74.390625 8.585938 74.496094 8.597656 74.636719 8.601562 C 74.78125 8.601562 74.933594 8.609375 75.09375 8.617188 C 75.261719 8.628906 75.414062 8.628906 75.554688 8.628906 C 75.699219 8.628906 75.804688 8.628906 75.859375 8.628906 L 80.03125 8.628906 L 80.03125 8.769531 Z M 75.21875 15.632812 " fill-opacity="1" fill-rule="nonzero"/><path fill="#ffffff" d="M 80.9375 14.039062 C 80.9375 13.640625 81.015625 13.300781 81.175781 13.011719 C 81.339844 12.726562 81.558594 12.484375 81.828125 12.289062 C 82.097656 12.089844 82.398438 11.925781 82.734375 11.804688 C 83.074219 11.675781 83.429688 11.578125 83.789062 11.5 C 84.160156 11.425781 84.519531 11.375 84.875 11.347656 C 85.238281 11.320312 85.5625 11.304688 85.863281 11.304688 L 85.863281 10.917969 C 85.863281 10.597656 85.820312 10.320312 85.738281 10.085938 C 85.652344 9.847656 85.53125 9.648438 85.375 9.492188 C 85.226562 9.335938 85.046875 9.21875 84.832031 9.144531 C 84.617188 9.070312 84.382812 9.03125 84.125 9.03125 C 83.945312 9.03125 83.769531 9.046875 83.59375 9.074219 C 83.417969 9.101562 83.238281 9.152344 83.050781 9.226562 C 82.863281 9.292969 82.671875 9.386719 82.46875 9.503906 C 82.261719 9.625 82.039062 9.773438 81.800781 9.949219 L 81.730469 9.90625 L 82.230469 8.867188 C 82.398438 8.792969 82.558594 8.734375 82.71875 8.6875 C 82.875 8.640625 83.03125 8.601562 83.191406 8.574219 C 83.359375 8.539062 83.527344 8.515625 83.691406 8.507812 C 83.867188 8.5 84.046875 8.492188 84.234375 8.492188 C 84.753906 8.492188 85.199219 8.558594 85.570312 8.6875 C 85.9375 8.808594 86.242188 8.976562 86.476562 9.199219 C 86.714844 9.421875 86.886719 9.679688 86.988281 9.976562 C 87.101562 10.261719 87.15625 10.570312 87.15625 10.90625 L 87.15625 13.316406 C 87.15625 13.742188 87.160156 14.113281 87.171875 14.425781 C 87.1875 14.730469 87.207031 15 87.226562 15.230469 C 87.242188 15.460938 87.261719 15.65625 87.28125 15.8125 C 87.308594 15.960938 87.339844 16.085938 87.378906 16.1875 L 87.378906 16.214844 L 85.738281 16.214844 L 85.738281 16.1875 C 85.753906 16.101562 85.769531 16.015625 85.777344 15.921875 C 85.796875 15.820312 85.8125 15.699219 85.820312 15.5625 C 85.714844 15.65625 85.597656 15.75 85.460938 15.839844 C 85.320312 15.933594 85.15625 16.015625 84.972656 16.089844 C 84.796875 16.164062 84.597656 16.21875 84.375 16.269531 C 84.152344 16.324219 83.90625 16.351562 83.652344 16.351562 C 82.789062 16.351562 82.121094 16.15625 81.648438 15.757812 C 81.175781 15.351562 80.9375 14.777344 80.9375 14.039062 Z M 85.863281 11.875 C 85.417969 11.886719 84.984375 11.914062 84.570312 11.957031 C 84.152344 12.007812 83.78125 12.101562 83.457031 12.25 C 83.140625 12.398438 82.886719 12.609375 82.691406 12.886719 C 82.503906 13.15625 82.414062 13.515625 82.414062 13.96875 C 82.414062 14.550781 82.554688 14.992188 82.84375 15.296875 C 83.140625 15.605469 83.546875 15.757812 84.066406 15.757812 C 84.296875 15.757812 84.511719 15.726562 84.707031 15.660156 C 84.902344 15.597656 85.074219 15.511719 85.222656 15.410156 C 85.378906 15.308594 85.507812 15.199219 85.613281 15.078125 C 85.714844 14.960938 85.792969 14.839844 85.847656 14.730469 C 85.855469 14.535156 85.863281 14.328125 85.863281 14.105469 C 85.863281 13.878906 85.863281 13.613281 85.863281 13.316406 Z M 85.863281 11.875 " fill-opacity="1" fill-rule="nonzero"/><path fill="#ffffff" d="M 57.394531 13.371094 C 57.394531 13.953125 57.402344 14.464844 57.421875 14.910156 C 57.441406 15.347656 57.457031 15.722656 57.476562 16.03125 C 57.503906 16.347656 57.535156 16.613281 57.574219 16.824219 C 57.609375 17.039062 57.652344 17.21875 57.699219 17.363281 L 57.699219 17.40625 L 55.210938 17.40625 L 55.210938 17.363281 C 55.253906 17.21875 55.296875 17.039062 55.335938 16.824219 C 55.371094 16.613281 55.398438 16.347656 55.417969 16.03125 C 55.445312 15.722656 55.46875 15.347656 55.488281 14.910156 C 55.507812 14.476562 55.515625 13.964844 55.515625 13.371094 L 55.515625 6.660156 C 55.515625 6.078125 55.507812 5.574219 55.488281 5.136719 C 55.46875 4.691406 55.445312 4.316406 55.417969 4 C 55.398438 3.6875 55.371094 3.425781 55.335938 3.210938 C 55.296875 2.988281 55.253906 2.808594 55.210938 2.667969 L 55.210938 2.628906 L 55.65625 2.667969 C 55.785156 2.679688 55.925781 2.691406 56.085938 2.695312 C 56.253906 2.695312 56.421875 2.695312 56.585938 2.695312 C 56.855469 2.695312 57.21875 2.664062 57.671875 2.601562 C 58.136719 2.539062 58.722656 2.503906 59.4375 2.503906 C 60.097656 2.503906 60.707031 2.59375 61.261719 2.765625 C 61.824219 2.941406 62.320312 3.207031 62.738281 3.554688 C 63.152344 3.898438 63.472656 4.320312 63.695312 4.816406 C 63.925781 5.316406 64.042969 5.882812 64.042969 6.507812 C 64.042969 7.007812 63.976562 7.472656 63.847656 7.894531 C 63.726562 8.3125 63.550781 8.691406 63.320312 9.03125 C 63.085938 9.375 62.808594 9.679688 62.484375 9.945312 C 62.160156 10.21875 61.796875 10.4375 61.402344 10.613281 L 65.03125 15.699219 C 65.207031 15.949219 65.371094 16.167969 65.53125 16.351562 C 65.6875 16.539062 65.839844 16.699219 65.976562 16.835938 C 66.117188 16.96875 66.25 17.078125 66.382812 17.167969 C 66.519531 17.253906 66.652344 17.320312 66.785156 17.363281 L 66.785156 17.40625 L 63.808594 17.40625 C 63.78125 17.277344 63.710938 17.105469 63.597656 16.890625 C 63.488281 16.671875 63.351562 16.457031 63.195312 16.242188 L 59.535156 11.097656 C 59.375 11.109375 59.21875 11.121094 59.0625 11.140625 C 58.902344 11.148438 58.742188 11.152344 58.578125 11.152344 C 58.382812 11.152344 58.1875 11.148438 57.992188 11.140625 C 57.796875 11.121094 57.597656 11.09375 57.394531 11.054688 Z M 57.394531 10.253906 C 57.578125 10.289062 57.769531 10.316406 57.964844 10.335938 C 58.160156 10.355469 58.34375 10.363281 58.519531 10.363281 C 59.039062 10.363281 59.511719 10.289062 59.941406 10.140625 C 60.363281 9.984375 60.726562 9.75 61.023438 9.433594 C 61.332031 9.113281 61.566406 8.714844 61.734375 8.242188 C 61.902344 7.769531 61.984375 7.222656 61.984375 6.59375 C 61.984375 6.074219 61.921875 5.609375 61.804688 5.191406 C 61.683594 4.769531 61.503906 4.414062 61.277344 4.125 C 61.054688 3.832031 60.765625 3.605469 60.414062 3.445312 C 60.058594 3.277344 59.648438 3.195312 59.175781 3.195312 C 58.703125 3.195312 58.320312 3.222656 58.035156 3.277344 C 57.757812 3.328125 57.539062 3.375 57.394531 3.433594 Z M 57.394531 10.253906 " fill-opacity="1" fill-rule="nonzero"/></svg>