<svg xmlns="http://www.w3.org/2000/svg" xmlns:xlink="http://www.w3.org/1999/xlink" width="250" zoomAndPan="magnify" viewBox="0 0 187.5 56.249996" height="75" preserveAspectRatio="xMidYMid meet" version="1.0"><defs><g/><clipPath id="bafcaf8c41"><path d="M 17.78125 3.339844 L 165.777344 3.339844 L 165.777344 51.980469 L 17.78125 51.980469 Z M 17.78125 3.339844 " clip-rule="nonzero"/></clipPath><clipPath id="47cac0a163"><path d="M 34.992188 3.53125 L 148.582031 3.53125 C 153.097656 3.53125 157.425781 5.324219 160.617188 8.515625 C 163.8125 11.707031 165.605469 16.039062 165.605469 20.554688 L 165.605469 34.957031 C 165.605469 39.472656 163.8125 43.800781 160.617188 46.992188 C 157.425781 50.1875 153.097656 51.980469 148.582031 51.980469 L 34.992188 51.980469 C 30.480469 51.980469 26.148438 50.1875 22.957031 46.992188 C 19.765625 43.800781 17.96875 39.472656 17.96875 34.957031 L 17.96875 20.554688 C 17.96875 16.039062 19.765625 11.707031 22.957031 8.515625 C 26.148438 5.324219 30.480469 3.53125 34.992188 3.53125 Z M 34.992188 3.53125 " clip-rule="nonzero"/></clipPath><clipPath id="bd407b4537"><path d="M 24.925781 8.5 L 44.171875 8.5 L 44.171875 11 L 24.925781 11 Z M 24.925781 8.5 " clip-rule="nonzero"/></clipPath><clipPath id="67a1877987"><path d="M 24.925781 10 L 44.171875 10 L 44.171875 13 L 24.925781 13 Z M 24.925781 10 " clip-rule="nonzero"/></clipPath><clipPath id="5adf900c20"><path d="M 24.925781 12 L 44.171875 12 L 44.171875 15 L 24.925781 15 Z M 24.925781 12 " clip-rule="nonzero"/></clipPath><clipPath id="be37142fcd"><path d="M 24.925781 14 L 44.171875 14 L 44.171875 17 L 24.925781 17 Z M 24.925781 14 " clip-rule="nonzero"/></clipPath><clipPath id="c43f821b95"><path d="M 24.925781 16 L 44.171875 16 L 44.171875 18 L 24.925781 18 Z M 24.925781 16 " clip-rule="nonzero"/></clipPath><clipPath id="5ca5486e77"><path d="M 24.925781 17 L 44.171875 17 L 44.171875 20 L 24.925781 20 Z M 24.925781 17 " clip-rule="nonzero"/></clipPath><clipPath id="25ef1c0e9f"><path d="M 24.925781 19 L 44.171875 19 L 44.171875 22 L 24.925781 22 Z M 24.925781 19 " clip-rule="nonzero"/></clipPath><clipPath id="fb00be2393"><path d="M 24.925781 21 L 44.171875 21 L 44.171875 24 L 24.925781 24 Z M 24.925781 21 " clip-rule="nonzero"/></clipPath><clipPath id="f8a80cf5a4"><path d="M 45.742188 8.5 L 64.984375 8.5 L 64.984375 11 L 45.742188 11 Z M 45.742188 8.5 " clip-rule="nonzero"/></clipPath><clipPath id="6d0a85790a"><path d="M 45.742188 10 L 64.984375 10 L 64.984375 13 L 45.742188 13 Z M 45.742188 10 " clip-rule="nonzero"/></clipPath><clipPath id="b847bb0d45"><path d="M 45.742188 12 L 64.984375 12 L 64.984375 15 L 45.742188 15 Z M 45.742188 12 " clip-rule="nonzero"/></clipPath><clipPath id="ce3a9e2a2c"><path d="M 45.742188 14 L 64.984375 14 L 64.984375 17 L 45.742188 17 Z M 45.742188 14 " clip-rule="nonzero"/></clipPath><clipPath id="0eb231ebaa"><path d="M 45.742188 16 L 64.984375 16 L 64.984375 18 L 45.742188 18 Z M 45.742188 16 " clip-rule="nonzero"/></clipPath><clipPath id="caefc9f4a2"><path d="M 45.742188 17 L 64.984375 17 L 64.984375 20 L 45.742188 20 Z M 45.742188 17 " clip-rule="nonzero"/></clipPath><clipPath id="972ad4df51"><path d="M 45.742188 19 L 64.984375 19 L 64.984375 22 L 45.742188 22 Z M 45.742188 19 " clip-rule="nonzero"/></clipPath><clipPath id="3bc1dd1a0a"><path d="M 45.742188 21 L 64.984375 21 L 64.984375 24 L 45.742188 24 Z M 45.742188 21 " clip-rule="nonzero"/></clipPath><clipPath id="49b9acd786"><path d="M 107.34375 8.46875 L 116.832031 8.46875 L 116.832031 16.792969 L 107.34375 16.792969 Z M 107.34375 8.46875 " clip-rule="nonzero"/></clipPath><clipPath id="8ce7d13fd1"><path d="M 107.71875 9.824219 C 106.949219 11.089844 107.492188 12.324219 108.171875 12.976562 L 112.148438 16.792969 L 116.042969 12.992188 C 116.675781 12.285156 116.917969 11.539062 116.78125 10.710938 C 116.59375 9.5625 115.648438 8.667969 114.480469 8.542969 C 113.761719 8.464844 113.066406 8.667969 112.527344 9.117188 C 112.382812 9.238281 112.25 9.375 112.136719 9.519531 C 112.003906 9.351562 111.84375 9.199219 111.667969 9.0625 C 111.042969 8.589844 110.253906 8.402344 109.492188 8.550781 C 108.773438 8.6875 108.125 9.152344 107.71875 9.824219 Z M 107.71875 9.824219 " clip-rule="nonzero"/></clipPath></defs><g clip-path="url(#bafcaf8c41)"><g clip-path="url(#47cac0a163)"><path fill="#ffffff" d="M 17.96875 3.53125 L 165.589844 3.53125 L 165.589844 51.980469 L 17.96875 51.980469 Z M 17.96875 3.53125 " fill-opacity="1" fill-rule="nonzero"/></g></g><g fill="#000000" fill-opacity="1"><g transform="translate(32.597262, 32.142695)"><g><path d="M 11.609375 -20.46875 L 11.609375 -16.984375 L 5.453125 -16.984375 L 5.453125 -12.484375 L 11.234375 -12.484375 L 11.234375 -9.015625 L 5.453125 -9.015625 L 5.453125 0 L 1.46875 0 L 1.46875 -20.46875 Z M 11.609375 -20.46875 "/></g></g></g><g fill="#000000" fill-opacity="1"><g transform="translate(45.161303, 32.142695)"><g><path d="M 6.96875 -20.46875 C 9.125 -20.46875 10.785156 -19.9375 11.953125 -18.875 C 13.117188 -17.8125 13.703125 -16.285156 13.703125 -14.296875 C 13.703125 -12.847656 13.304688 -11.585938 12.515625 -10.515625 C 11.734375 -9.441406 10.738281 -8.8125 9.53125 -8.625 L 15.3125 0 L 10.46875 0 L 5.515625 -8.25 L 5.453125 -8.25 L 5.453125 0 L 1.46875 0 L 1.46875 -20.46875 Z M 5.453125 -11.046875 L 5.890625 -11.046875 C 7.265625 -11.046875 8.242188 -11.296875 8.828125 -11.796875 C 9.421875 -12.304688 9.71875 -13.101562 9.71875 -14.1875 C 9.71875 -15.257812 9.425781 -16.03125 8.84375 -16.5 C 8.269531 -16.96875 7.300781 -17.203125 5.9375 -17.203125 L 5.453125 -17.203125 Z M 5.453125 -11.046875 "/></g></g></g><g fill="#000000" fill-opacity="1"><g transform="translate(60.303277, 32.142695)"><g/></g></g><g fill="#000000" fill-opacity="1"><g transform="translate(68.145627, 32.142695)"><g><path d="M 11.09375 -15.953125 C 10.71875 -16.484375 10.28125 -16.894531 9.78125 -17.1875 C 9.28125 -17.488281 8.695312 -17.640625 8.03125 -17.640625 C 7.34375 -17.640625 6.753906 -17.410156 6.265625 -16.953125 C 5.773438 -16.503906 5.53125 -15.960938 5.53125 -15.328125 C 5.53125 -14.753906 5.769531 -14.265625 6.25 -13.859375 C 6.726562 -13.453125 7.441406 -13.066406 8.390625 -12.703125 C 10.015625 -12.035156 11.164062 -11.394531 11.84375 -10.78125 C 12.519531 -10.164062 12.988281 -9.503906 13.25 -8.796875 C 13.519531 -8.085938 13.65625 -7.304688 13.65625 -6.453125 C 13.65625 -4.378906 13.035156 -2.691406 11.796875 -1.390625 C 10.566406 -0.0976562 8.941406 0.546875 6.921875 0.546875 C 5.503906 0.546875 4.273438 0.179688 3.234375 -0.546875 C 2.203125 -1.285156 1.332031 -2.253906 0.625 -3.453125 L 3.203125 -5.96875 C 3.503906 -5.101562 4 -4.390625 4.6875 -3.828125 C 5.382812 -3.265625 6.117188 -2.984375 6.890625 -2.984375 C 7.648438 -2.984375 8.28125 -3.257812 8.78125 -3.8125 C 9.28125 -4.363281 9.53125 -5.070312 9.53125 -5.9375 C 9.53125 -6.695312 9.289062 -7.300781 8.8125 -7.75 C 8.34375 -8.207031 7.648438 -8.617188 6.734375 -8.984375 C 4.679688 -9.765625 3.28125 -10.585938 2.53125 -11.453125 C 1.78125 -12.316406 1.40625 -13.457031 1.40625 -14.875 C 1.40625 -15.957031 1.660156 -16.96875 2.171875 -17.90625 C 2.679688 -18.851562 3.394531 -19.601562 4.3125 -20.15625 C 5.238281 -20.71875 6.257812 -21 7.375 -21 C 8.375 -21 9.421875 -20.773438 10.515625 -20.328125 C 11.609375 -19.878906 12.425781 -19.347656 12.96875 -18.734375 Z M 11.09375 -15.953125 "/></g></g></g><g fill="#000000" fill-opacity="1"><g transform="translate(82.419241, 32.142695)"><g><path d="M 0.4375 -6.65625 C 0.4375 -8.75 1.09375 -10.457031 2.40625 -11.78125 C 3.726562 -13.101562 5.40625 -13.765625 7.4375 -13.765625 C 9.5 -13.765625 11.179688 -13.09375 12.484375 -11.75 C 13.785156 -10.414062 14.4375 -8.71875 14.4375 -6.65625 C 14.4375 -4.570312 13.78125 -2.867188 12.46875 -1.546875 C 11.15625 -0.222656 9.476562 0.4375 7.4375 0.4375 C 5.394531 0.4375 3.71875 -0.226562 2.40625 -1.5625 C 1.09375 -2.894531 0.4375 -4.59375 0.4375 -6.65625 Z M 7.40625 -10.390625 C 6.5625 -10.390625 5.828125 -10.023438 5.203125 -9.296875 C 4.585938 -8.566406 4.28125 -7.6875 4.28125 -6.65625 C 4.28125 -5.65625 4.585938 -4.785156 5.203125 -4.046875 C 5.828125 -3.304688 6.570312 -2.9375 7.4375 -2.9375 C 8.34375 -2.9375 9.09375 -3.304688 9.6875 -4.046875 C 10.28125 -4.785156 10.578125 -5.65625 10.578125 -6.65625 C 10.578125 -7.625 10.285156 -8.488281 9.703125 -9.25 C 9.117188 -10.007812 8.351562 -10.390625 7.40625 -10.390625 Z M 7.40625 -10.390625 "/></g></g></g><g fill="#000000" fill-opacity="1"><g transform="translate(97.289852, 32.142695)"><g><path d="M 10.421875 -9.25 C 10.023438 -9.664062 9.601562 -9.988281 9.15625 -10.21875 C 8.71875 -10.445312 8.207031 -10.5625 7.625 -10.5625 C 6.664062 -10.5625 5.863281 -10.175781 5.21875 -9.40625 C 4.582031 -8.632812 4.265625 -7.695312 4.265625 -6.59375 C 4.265625 -5.46875 4.59375 -4.546875 5.25 -3.828125 C 5.914062 -3.117188 6.753906 -2.765625 7.765625 -2.765625 C 8.285156 -2.765625 8.769531 -2.878906 9.21875 -3.109375 C 9.675781 -3.347656 10.078125 -3.660156 10.421875 -4.046875 L 10.421875 -0.375 C 9.878906 -0.0703125 9.335938 0.132812 8.796875 0.25 C 8.265625 0.375 7.710938 0.4375 7.140625 0.4375 C 5.234375 0.4375 3.632812 -0.242188 2.34375 -1.609375 C 1.050781 -2.972656 0.40625 -4.644531 0.40625 -6.625 C 0.40625 -7.90625 0.703125 -9.097656 1.296875 -10.203125 C 1.898438 -11.304688 2.734375 -12.175781 3.796875 -12.8125 C 4.867188 -13.445312 6.046875 -13.765625 7.328125 -13.765625 C 7.835938 -13.765625 8.359375 -13.695312 8.890625 -13.5625 C 9.421875 -13.425781 9.929688 -13.210938 10.421875 -12.921875 Z M 10.421875 -9.25 "/></g></g></g><g fill="#000000" fill-opacity="1"><g transform="translate(108.714171, 32.142695)"><g><path d="M 1.1875 -18.921875 C 1.1875 -19.515625 1.40625 -20.035156 1.84375 -20.484375 C 2.28125 -20.941406 2.816406 -21.171875 3.453125 -21.171875 C 4.078125 -21.171875 4.609375 -20.941406 5.046875 -20.484375 C 5.484375 -20.035156 5.703125 -19.515625 5.703125 -18.921875 C 5.703125 -18.285156 5.484375 -17.75 5.046875 -17.3125 C 4.609375 -16.882812 4.078125 -16.671875 3.453125 -16.671875 C 2.816406 -16.671875 2.28125 -16.882812 1.84375 -17.3125 C 1.40625 -17.75 1.1875 -18.285156 1.1875 -18.921875 Z M 5.34375 -13.328125 L 5.34375 0 L 1.546875 0 L 1.546875 -13.328125 Z M 5.34375 -13.328125 "/></g></g></g><g fill="#000000" fill-opacity="1"><g transform="translate(115.579615, 32.142695)"><g><path d="M 4.421875 -6.046875 C 4.421875 -4.941406 4.65625 -4.066406 5.125 -3.421875 C 5.59375 -2.785156 6.238281 -2.46875 7.0625 -2.46875 C 7.6875 -2.46875 8.203125 -2.640625 8.609375 -2.984375 C 9.023438 -3.328125 9.359375 -3.757812 9.609375 -4.28125 L 13.109375 -3.71875 C 12.640625 -2.363281 11.863281 -1.332031 10.78125 -0.625 C 9.707031 0.0820312 8.46875 0.4375 7.0625 0.4375 C 5.082031 0.4375 3.476562 -0.203125 2.25 -1.484375 C 1.019531 -2.773438 0.40625 -4.460938 0.40625 -6.546875 C 0.40625 -8.734375 0.984375 -10.484375 2.140625 -11.796875 C 3.296875 -13.109375 4.867188 -13.765625 6.859375 -13.765625 C 8.859375 -13.765625 10.410156 -13.117188 11.515625 -11.828125 C 12.628906 -10.546875 13.1875 -8.726562 13.1875 -6.375 L 13.1875 -6.046875 Z M 9.609375 -8.40625 C 9.484375 -9.238281 9.179688 -9.894531 8.703125 -10.375 C 8.234375 -10.851562 7.6875 -11.09375 7.0625 -11.09375 C 6.457031 -11.09375 5.921875 -10.875 5.453125 -10.4375 C 4.984375 -10.007812 4.675781 -9.332031 4.53125 -8.40625 Z M 9.609375 -8.40625 "/></g></g></g><g fill="#000000" fill-opacity="1"><g transform="translate(129.174827, 32.142695)"><g><path d="M 5.625 -17.828125 L 5.625 -13.328125 L 7.953125 -13.328125 L 7.953125 -10.125 L 5.625 -10.125 L 5.625 0 L 1.8125 0 L 1.8125 -10.125 L 0.515625 -10.125 L 0.515625 -13.328125 L 1.8125 -13.328125 L 1.8125 -17.828125 Z M 5.625 -17.828125 "/></g></g></g><g fill="#000000" fill-opacity="1"><g transform="translate(136.610127, 32.142695)"><g><path d="M 3.828125 -13.328125 L 7 -5.75 L 10.421875 -13.328125 L 14.65625 -13.328125 L 4.96875 7.109375 L 0.78125 7.109375 L 5.1875 -2.03125 L -0.484375 -13.328125 Z M 3.828125 -13.328125 "/></g></g></g><g clip-path="url(#bd407b4537)"><path fill="#ffffff" d="M 43.355469 9.640625 L 42.261719 8.503906 L 41.164062 9.640625 L 40.070312 8.503906 L 38.976562 9.640625 L 37.878906 8.503906 L 36.785156 9.640625 L 35.6875 8.503906 L 34.59375 9.640625 L 33.496094 8.503906 L 32.402344 9.640625 L 31.304688 8.503906 L 30.210938 9.640625 L 29.113281 8.503906 L 28.019531 9.640625 L 26.921875 8.503906 L 25.828125 9.640625 L 24.925781 8.707031 L 24.925781 9.464844 L 25.828125 10.402344 L 26.921875 9.265625 L 28.019531 10.402344 L 29.113281 9.265625 L 30.210938 10.402344 L 31.304688 9.265625 L 32.402344 10.402344 L 33.496094 9.265625 L 34.59375 10.402344 L 35.6875 9.265625 L 36.785156 10.402344 L 37.878906 9.265625 L 38.976562 10.402344 L 40.070312 9.265625 L 41.164062 10.402344 L 42.261719 9.265625 L 43.355469 10.402344 L 44.449219 9.269531 L 44.449219 8.511719 Z M 43.355469 9.640625 " fill-opacity="1" fill-rule="nonzero"/></g><g clip-path="url(#67a1877987)"><path fill="#ffffff" d="M 42.261719 10.402344 L 41.164062 11.539062 L 40.070312 10.402344 L 38.976562 11.539062 L 37.878906 10.402344 L 36.785156 11.539062 L 35.6875 10.402344 L 34.59375 11.539062 L 33.496094 10.402344 L 32.402344 11.539062 L 31.304688 10.402344 L 30.210938 11.539062 L 29.113281 10.402344 L 28.019531 11.539062 L 26.921875 10.402344 L 25.828125 11.539062 L 24.925781 10.601562 L 24.925781 11.359375 L 25.828125 12.296875 L 26.921875 11.160156 L 28.019531 12.296875 L 29.113281 11.160156 L 30.210938 12.296875 L 31.304688 11.160156 L 32.402344 12.296875 L 33.496094 11.160156 L 34.59375 12.296875 L 35.6875 11.160156 L 36.785156 12.296875 L 37.878906 11.160156 L 38.976562 12.296875 L 40.070312 11.160156 L 41.164062 12.296875 L 42.261719 11.160156 L 43.355469 12.296875 L 44.449219 11.164062 L 44.449219 10.40625 L 43.355469 11.539062 Z M 42.261719 10.402344 " fill-opacity="1" fill-rule="nonzero"/></g><g clip-path="url(#5adf900c20)"><path fill="#ffffff" d="M 42.261719 12.296875 L 41.164062 13.433594 L 40.070312 12.296875 L 38.976562 13.433594 L 37.878906 12.296875 L 36.785156 13.433594 L 35.6875 12.296875 L 34.59375 13.433594 L 33.496094 12.296875 L 32.402344 13.433594 L 31.304688 12.296875 L 30.210938 13.433594 L 29.113281 12.296875 L 28.019531 13.433594 L 26.921875 12.296875 L 25.828125 13.433594 L 24.925781 12.496094 L 24.925781 13.257812 L 25.828125 14.195312 L 26.921875 13.054688 L 28.019531 14.195312 L 29.113281 13.054688 L 30.210938 14.195312 L 31.304688 13.054688 L 32.402344 14.195312 L 33.496094 13.054688 L 34.59375 14.195312 L 35.6875 13.054688 L 36.785156 14.195312 L 37.878906 13.054688 L 38.976562 14.195312 L 40.070312 13.054688 L 41.164062 14.195312 L 42.261719 13.054688 L 43.355469 14.195312 L 44.449219 13.0625 L 44.449219 12.304688 L 43.355469 13.433594 Z M 42.261719 12.296875 " fill-opacity="1" fill-rule="nonzero"/></g><g clip-path="url(#be37142fcd)"><path fill="#ffffff" d="M 42.261719 14.195312 L 41.164062 15.328125 L 40.070312 14.195312 L 38.976562 15.328125 L 37.878906 14.195312 L 36.785156 15.328125 L 35.6875 14.195312 L 34.59375 15.328125 L 33.496094 14.195312 L 32.402344 15.328125 L 31.304688 14.195312 L 30.210938 15.328125 L 29.113281 14.195312 L 28.019531 15.328125 L 26.921875 14.195312 L 25.828125 15.328125 L 24.925781 14.394531 L 24.925781 15.152344 L 25.828125 16.089844 L 26.921875 14.949219 L 28.019531 16.089844 L 29.113281 14.949219 L 30.210938 16.089844 L 31.304688 14.949219 L 32.402344 16.089844 L 33.496094 14.949219 L 34.59375 16.089844 L 35.6875 14.949219 L 36.785156 16.089844 L 37.878906 14.949219 L 38.976562 16.089844 L 40.070312 14.949219 L 41.164062 16.089844 L 42.261719 14.949219 L 43.355469 16.089844 L 44.449219 14.957031 L 44.449219 14.199219 L 43.355469 15.328125 Z M 42.261719 14.195312 " fill-opacity="1" fill-rule="nonzero"/></g><g clip-path="url(#c43f821b95)"><path fill="#ffffff" d="M 42.261719 16.089844 L 41.164062 17.222656 L 40.070312 16.089844 L 38.976562 17.222656 L 37.878906 16.089844 L 36.785156 17.222656 L 35.6875 16.089844 L 34.59375 17.222656 L 33.496094 16.089844 L 32.402344 17.222656 L 31.304688 16.089844 L 30.210938 17.222656 L 29.113281 16.089844 L 28.019531 17.222656 L 26.921875 16.089844 L 25.828125 17.222656 L 24.925781 16.289062 L 24.925781 17.046875 L 25.828125 17.984375 L 26.921875 16.847656 L 28.019531 17.984375 L 29.113281 16.847656 L 30.210938 17.984375 L 31.304688 16.847656 L 32.402344 17.984375 L 33.496094 16.847656 L 34.59375 17.984375 L 35.6875 16.847656 L 36.785156 17.984375 L 37.878906 16.847656 L 38.976562 17.984375 L 40.070312 16.847656 L 41.164062 17.984375 L 42.261719 16.847656 L 43.355469 17.984375 L 44.449219 16.851562 L 44.449219 16.09375 L 43.355469 17.222656 Z M 42.261719 16.089844 " fill-opacity="1" fill-rule="nonzero"/></g><g clip-path="url(#5ca5486e77)"><path fill="#ffffff" d="M 42.261719 17.984375 L 41.164062 19.121094 L 40.070312 17.984375 L 38.976562 19.121094 L 37.878906 17.984375 L 36.785156 19.121094 L 35.6875 17.984375 L 34.59375 19.121094 L 33.496094 17.984375 L 32.402344 19.121094 L 31.304688 17.984375 L 30.210938 19.121094 L 29.113281 17.984375 L 28.019531 19.121094 L 26.921875 17.984375 L 25.828125 19.121094 L 24.925781 18.183594 L 24.925781 18.945312 L 25.828125 19.878906 L 26.921875 18.742188 L 28.019531 19.878906 L 29.113281 18.742188 L 30.210938 19.878906 L 31.304688 18.742188 L 32.402344 19.878906 L 33.496094 18.742188 L 34.59375 19.878906 L 35.6875 18.742188 L 36.785156 19.878906 L 37.878906 18.742188 L 38.976562 19.878906 L 40.070312 18.742188 L 41.164062 19.878906 L 42.261719 18.742188 L 43.355469 19.878906 L 44.449219 18.75 L 44.449219 17.988281 L 43.355469 19.121094 Z M 42.261719 17.984375 " fill-opacity="1" fill-rule="nonzero"/></g><g clip-path="url(#25ef1c0e9f)"><path fill="#ffffff" d="M 42.261719 19.878906 L 41.164062 21.015625 L 40.070312 19.878906 L 38.976562 21.015625 L 37.878906 19.878906 L 36.785156 21.015625 L 35.6875 19.878906 L 34.59375 21.015625 L 33.496094 19.878906 L 32.402344 21.015625 L 31.304688 19.878906 L 30.210938 21.015625 L 29.113281 19.878906 L 28.019531 21.015625 L 26.921875 19.878906 L 25.828125 21.015625 L 24.925781 20.082031 L 24.925781 20.839844 L 25.828125 21.773438 L 26.921875 20.640625 L 28.019531 21.773438 L 29.113281 20.640625 L 30.210938 21.773438 L 31.304688 20.640625 L 32.402344 21.773438 L 33.496094 20.640625 L 34.59375 21.773438 L 35.6875 20.640625 L 36.785156 21.773438 L 37.878906 20.640625 L 38.976562 21.773438 L 40.070312 20.640625 L 41.164062 21.773438 L 42.261719 20.640625 L 43.355469 21.773438 L 44.449219 20.644531 L 44.449219 19.886719 L 43.355469 21.015625 Z M 42.261719 19.878906 " fill-opacity="1" fill-rule="nonzero"/></g><g clip-path="url(#fb00be2393)"><path fill="#ffffff" d="M 42.261719 21.773438 L 41.164062 22.914062 L 40.070312 21.773438 L 38.976562 22.914062 L 37.878906 21.773438 L 36.785156 22.914062 L 35.6875 21.773438 L 34.59375 22.914062 L 33.496094 21.773438 L 32.402344 22.914062 L 31.304688 21.773438 L 30.210938 22.914062 L 29.113281 21.773438 L 28.019531 22.914062 L 26.921875 21.773438 L 25.828125 22.914062 L 24.925781 21.976562 L 24.925781 22.734375 L 25.828125 23.671875 L 26.921875 22.535156 L 28.019531 23.671875 L 29.113281 22.535156 L 30.210938 23.671875 L 31.304688 22.535156 L 32.402344 23.671875 L 33.496094 22.535156 L 34.59375 23.671875 L 35.6875 22.535156 L 36.785156 23.671875 L 37.878906 22.535156 L 38.976562 23.671875 L 40.070312 22.535156 L 41.164062 23.671875 L 42.261719 22.535156 L 43.355469 23.671875 L 44.449219 22.539062 L 44.449219 21.78125 L 43.355469 22.914062 Z M 42.261719 21.773438 " fill-opacity="1" fill-rule="nonzero"/></g><g clip-path="url(#f8a80cf5a4)"><path fill="#ffffff" d="M 64.171875 9.640625 L 63.078125 8.503906 L 61.980469 9.640625 L 60.886719 8.503906 L 59.789062 9.640625 L 58.695312 8.503906 L 57.601562 9.640625 L 56.503906 8.503906 L 55.410156 9.640625 L 54.3125 8.503906 L 53.21875 9.640625 L 52.121094 8.503906 L 51.027344 9.640625 L 49.929688 8.503906 L 48.835938 9.640625 L 47.738281 8.503906 L 46.644531 9.640625 L 45.742188 8.707031 L 45.742188 9.464844 L 46.644531 10.402344 L 47.738281 9.265625 L 48.835938 10.402344 L 49.929688 9.265625 L 51.027344 10.402344 L 52.121094 9.265625 L 53.21875 10.402344 L 54.3125 9.265625 L 55.410156 10.402344 L 56.503906 9.265625 L 57.601562 10.402344 L 58.695312 9.265625 L 59.789062 10.402344 L 60.886719 9.265625 L 61.980469 10.402344 L 63.078125 9.265625 L 64.171875 10.402344 L 65.261719 9.269531 L 65.261719 8.511719 Z M 64.171875 9.640625 " fill-opacity="1" fill-rule="nonzero"/></g><g clip-path="url(#6d0a85790a)"><path fill="#ffffff" d="M 63.078125 10.402344 L 61.980469 11.539062 L 60.886719 10.402344 L 59.789062 11.539062 L 58.695312 10.402344 L 57.601562 11.539062 L 56.503906 10.402344 L 55.410156 11.539062 L 54.3125 10.402344 L 53.21875 11.539062 L 52.121094 10.402344 L 51.027344 11.539062 L 49.929688 10.402344 L 48.835938 11.539062 L 47.738281 10.402344 L 46.644531 11.539062 L 45.742188 10.601562 L 45.742188 11.359375 L 46.644531 12.296875 L 47.738281 11.160156 L 48.835938 12.296875 L 49.929688 11.160156 L 51.027344 12.296875 L 52.121094 11.160156 L 53.21875 12.296875 L 54.3125 11.160156 L 55.410156 12.296875 L 56.503906 11.160156 L 57.601562 12.296875 L 58.695312 11.160156 L 59.789062 12.296875 L 60.886719 11.160156 L 61.980469 12.296875 L 63.078125 11.160156 L 64.171875 12.296875 L 65.261719 11.164062 L 65.261719 10.40625 L 64.171875 11.539062 Z M 63.078125 10.402344 " fill-opacity="1" fill-rule="nonzero"/></g><g clip-path="url(#b847bb0d45)"><path fill="#ffffff" d="M 63.078125 12.296875 L 61.980469 13.433594 L 60.886719 12.296875 L 59.789062 13.433594 L 58.695312 12.296875 L 57.601562 13.433594 L 56.503906 12.296875 L 55.410156 13.433594 L 54.3125 12.296875 L 53.21875 13.433594 L 52.121094 12.296875 L 51.027344 13.433594 L 49.929688 12.296875 L 48.835938 13.433594 L 47.738281 12.296875 L 46.644531 13.433594 L 45.742188 12.496094 L 45.742188 13.257812 L 46.644531 14.195312 L 47.738281 13.054688 L 48.835938 14.195312 L 49.929688 13.054688 L 51.027344 14.195312 L 52.121094 13.054688 L 53.21875 14.195312 L 54.3125 13.054688 L 55.410156 14.195312 L 56.503906 13.054688 L 57.601562 14.195312 L 58.695312 13.054688 L 59.789062 14.195312 L 60.886719 13.054688 L 61.980469 14.195312 L 63.078125 13.054688 L 64.171875 14.195312 L 65.261719 13.0625 L 65.261719 12.304688 L 64.171875 13.433594 Z M 63.078125 12.296875 " fill-opacity="1" fill-rule="nonzero"/></g><g clip-path="url(#ce3a9e2a2c)"><path fill="#ffffff" d="M 63.078125 14.195312 L 61.980469 15.328125 L 60.886719 14.195312 L 59.789062 15.328125 L 58.695312 14.195312 L 57.601562 15.328125 L 56.503906 14.195312 L 55.410156 15.328125 L 54.3125 14.195312 L 53.21875 15.328125 L 52.121094 14.195312 L 51.027344 15.328125 L 49.929688 14.195312 L 48.835938 15.328125 L 47.738281 14.195312 L 46.644531 15.328125 L 45.742188 14.394531 L 45.742188 15.152344 L 46.644531 16.089844 L 47.738281 14.949219 L 48.835938 16.089844 L 49.929688 14.949219 L 51.027344 16.089844 L 52.121094 14.949219 L 53.21875 16.089844 L 54.3125 14.949219 L 55.410156 16.089844 L 56.503906 14.949219 L 57.601562 16.089844 L 58.695312 14.949219 L 59.789062 16.089844 L 60.886719 14.949219 L 61.980469 16.089844 L 63.078125 14.949219 L 64.171875 16.089844 L 65.261719 14.957031 L 65.261719 14.199219 L 64.171875 15.328125 Z M 63.078125 14.195312 " fill-opacity="1" fill-rule="nonzero"/></g><g clip-path="url(#0eb231ebaa)"><path fill="#ffffff" d="M 63.078125 16.089844 L 61.980469 17.222656 L 60.886719 16.089844 L 59.789062 17.222656 L 58.695312 16.089844 L 57.601562 17.222656 L 56.503906 16.089844 L 55.410156 17.222656 L 54.3125 16.089844 L 53.21875 17.222656 L 52.121094 16.089844 L 51.027344 17.222656 L 49.929688 16.089844 L 48.835938 17.222656 L 47.738281 16.089844 L 46.644531 17.222656 L 45.742188 16.289062 L 45.742188 17.046875 L 46.644531 17.984375 L 47.738281 16.847656 L 48.835938 17.984375 L 49.929688 16.847656 L 51.027344 17.984375 L 52.121094 16.847656 L 53.21875 17.984375 L 54.3125 16.847656 L 55.410156 17.984375 L 56.503906 16.847656 L 57.601562 17.984375 L 58.695312 16.847656 L 59.789062 17.984375 L 60.886719 16.847656 L 61.980469 17.984375 L 63.078125 16.847656 L 64.171875 17.984375 L 65.261719 16.851562 L 65.261719 16.09375 L 64.171875 17.222656 Z M 63.078125 16.089844 " fill-opacity="1" fill-rule="nonzero"/></g><g clip-path="url(#caefc9f4a2)"><path fill="#ffffff" d="M 63.078125 17.984375 L 61.980469 19.121094 L 60.886719 17.984375 L 59.789062 19.121094 L 58.695312 17.984375 L 57.601562 19.121094 L 56.503906 17.984375 L 55.410156 19.121094 L 54.3125 17.984375 L 53.21875 19.121094 L 52.121094 17.984375 L 51.027344 19.121094 L 49.929688 17.984375 L 48.835938 19.121094 L 47.738281 17.984375 L 46.644531 19.121094 L 45.742188 18.183594 L 45.742188 18.945312 L 46.644531 19.878906 L 47.738281 18.742188 L 48.835938 19.878906 L 49.929688 18.742188 L 51.027344 19.878906 L 52.121094 18.742188 L 53.21875 19.878906 L 54.3125 18.742188 L 55.410156 19.878906 L 56.503906 18.742188 L 57.601562 19.878906 L 58.695312 18.742188 L 59.789062 19.878906 L 60.886719 18.742188 L 61.980469 19.878906 L 63.078125 18.742188 L 64.171875 19.878906 L 65.261719 18.75 L 65.261719 17.988281 L 64.171875 19.121094 Z M 63.078125 17.984375 " fill-opacity="1" fill-rule="nonzero"/></g><g clip-path="url(#972ad4df51)"><path fill="#ffffff" d="M 63.078125 19.878906 L 61.980469 21.015625 L 60.886719 19.878906 L 59.789062 21.015625 L 58.695312 19.878906 L 57.601562 21.015625 L 56.503906 19.878906 L 55.410156 21.015625 L 54.3125 19.878906 L 53.21875 21.015625 L 52.121094 19.878906 L 51.027344 21.015625 L 49.929688 19.878906 L 48.835938 21.015625 L 47.738281 19.878906 L 46.644531 21.015625 L 45.742188 20.082031 L 45.742188 20.839844 L 46.644531 21.773438 L 47.738281 20.640625 L 48.835938 21.773438 L 49.929688 20.640625 L 51.027344 21.773438 L 52.121094 20.640625 L 53.21875 21.773438 L 54.3125 20.640625 L 55.410156 21.773438 L 56.503906 20.640625 L 57.601562 21.773438 L 58.695312 20.640625 L 59.789062 21.773438 L 60.886719 20.640625 L 61.980469 21.773438 L 63.078125 20.640625 L 64.171875 21.773438 L 65.261719 20.644531 L 65.261719 19.886719 L 64.171875 21.015625 Z M 63.078125 19.878906 " fill-opacity="1" fill-rule="nonzero"/></g><g clip-path="url(#3bc1dd1a0a)"><path fill="#ffffff" d="M 63.078125 21.773438 L 61.980469 22.914062 L 60.886719 21.773438 L 59.789062 22.914062 L 58.695312 21.773438 L 57.601562 22.914062 L 56.503906 21.773438 L 55.410156 22.914062 L 54.3125 21.773438 L 53.21875 22.914062 L 52.121094 21.773438 L 51.027344 22.914062 L 49.929688 21.773438 L 48.835938 22.914062 L 47.738281 21.773438 L 46.644531 22.914062 L 45.742188 21.976562 L 45.742188 22.734375 L 46.644531 23.671875 L 47.738281 22.535156 L 48.835938 23.671875 L 49.929688 22.535156 L 51.027344 23.671875 L 52.121094 22.535156 L 53.21875 23.671875 L 54.3125 22.535156 L 55.410156 23.671875 L 56.503906 22.535156 L 57.601562 23.671875 L 58.695312 22.535156 L 59.789062 23.671875 L 60.886719 22.535156 L 61.980469 23.671875 L 63.078125 22.535156 L 64.171875 23.671875 L 65.261719 22.539062 L 65.261719 21.78125 L 64.171875 22.914062 Z M 63.078125 21.773438 " fill-opacity="1" fill-rule="nonzero"/></g><g clip-path="url(#49b9acd786)"><g clip-path="url(#8ce7d13fd1)"><path fill="#e11f49" d="M 107.34375 8.5 L 116.832031 8.5 L 116.832031 16.792969 L 107.34375 16.792969 Z M 107.34375 8.5 " fill-opacity="1" fill-rule="nonzero"/></g></g><g fill="#000000" fill-opacity="1"><g transform="translate(61.968976, 42.23207)"><g><path d="M 2.421875 -0.515625 C 2.554688 -0.546875 2.664062 -0.585938 2.75 -0.640625 C 2.832031 -0.703125 2.875 -0.78125 2.875 -0.875 C 2.875 -0.988281 2.816406 -1.078125 2.703125 -1.140625 C 2.597656 -1.203125 2.414062 -1.234375 2.15625 -1.234375 C 1.875 -1.234375 1.660156 -1.179688 1.515625 -1.078125 C 1.367188 -0.984375 1.296875 -0.847656 1.296875 -0.671875 C 1.296875 -0.546875 1.320312 -0.425781 1.375 -0.3125 C 1.425781 -0.195312 1.523438 -0.0703125 1.671875 0.0625 C 1.816406 0.207031 2.023438 0.378906 2.296875 0.578125 L 1.671875 1.21875 C 1.398438 0.988281 1.160156 0.773438 0.953125 0.578125 C 0.753906 0.378906 0.597656 0.175781 0.484375 -0.03125 C 0.378906 -0.25 0.328125 -0.476562 0.328125 -0.71875 C 0.328125 -0.90625 0.359375 -1.066406 0.421875 -1.203125 C 0.492188 -1.347656 0.585938 -1.472656 0.703125 -1.578125 C 0.617188 -1.679688 0.546875 -1.796875 0.484375 -1.921875 C 0.429688 -2.046875 0.40625 -2.195312 0.40625 -2.375 C 0.40625 -2.519531 0.429688 -2.644531 0.484375 -2.75 C 0.546875 -2.863281 0.625 -2.957031 0.71875 -3.03125 C 0.832031 -3.125 0.972656 -3.191406 1.140625 -3.234375 C 1.304688 -3.273438 1.535156 -3.296875 1.828125 -3.296875 L 2.5625 -3.296875 L 2.5625 -3.703125 L 0 -3.703125 L 0 -4.484375 L 4.21875 -4.484375 L 4.21875 -3.703125 L 3.53125 -3.703125 L 3.53125 -2.5 L 1.859375 -2.5 C 1.722656 -2.5 1.628906 -2.492188 1.578125 -2.484375 C 1.523438 -2.472656 1.484375 -2.453125 1.453125 -2.421875 C 1.390625 -2.367188 1.359375 -2.296875 1.359375 -2.203125 C 1.359375 -2.117188 1.390625 -2.035156 1.453125 -1.953125 C 1.679688 -2.015625 1.925781 -2.046875 2.1875 -2.046875 C 2.570312 -2.046875 2.882812 -1.988281 3.125 -1.875 C 3.375 -1.769531 3.550781 -1.628906 3.65625 -1.453125 C 3.769531 -1.285156 3.828125 -1.101562 3.828125 -0.90625 C 3.828125 -0.3125 3.445312 0.0703125 2.6875 0.25 Z M 2.421875 -0.515625 "/></g></g></g><g fill="#000000" fill-opacity="1"><g transform="translate(66.084042, 42.23207)"><g><path d="M 3.015625 -0.515625 L 2.375 0.125 C 1.957031 -0.238281 1.578125 -0.582031 1.234375 -0.90625 C 0.898438 -1.226562 0.648438 -1.5 0.484375 -1.71875 C 0.367188 -1.863281 0.296875 -1.984375 0.265625 -2.078125 C 0.234375 -2.179688 0.21875 -2.273438 0.21875 -2.359375 C 0.21875 -2.484375 0.257812 -2.601562 0.34375 -2.71875 C 0.425781 -2.84375 0.578125 -2.90625 0.796875 -2.90625 C 1.035156 -2.90625 1.238281 -2.816406 1.40625 -2.640625 C 1.664062 -2.804688 1.796875 -3.03125 1.796875 -3.3125 C 1.796875 -3.445312 1.78125 -3.578125 1.75 -3.703125 L 0 -3.703125 L 0 -4.484375 L 3.265625 -4.484375 L 3.265625 -3.703125 L 2.6875 -3.703125 C 2.707031 -3.628906 2.722656 -3.546875 2.734375 -3.453125 C 2.742188 -3.367188 2.75 -3.269531 2.75 -3.15625 C 2.75 -2.820312 2.648438 -2.539062 2.453125 -2.3125 C 2.253906 -2.082031 1.96875 -1.898438 1.59375 -1.765625 C 1.78125 -1.578125 1.992188 -1.367188 2.234375 -1.140625 C 2.484375 -0.921875 2.742188 -0.710938 3.015625 -0.515625 Z M 3.015625 -0.515625 "/></g></g></g><g fill="#000000" fill-opacity="1"><g transform="translate(69.246152, 42.23207)"><g/></g></g><g fill="#000000" fill-opacity="1"><g transform="translate(70.948768, 42.23207)"><g><path d="M 3.84375 -3.703125 L 3.84375 0 L 2.875 0 L 2.875 -1.15625 C 2.707031 -1.0625 2.546875 -1 2.390625 -0.96875 C 2.234375 -0.9375 2.039062 -0.921875 1.8125 -0.921875 C 1.59375 -0.921875 1.398438 -0.953125 1.234375 -1.015625 C 1.078125 -1.078125 0.945312 -1.164062 0.84375 -1.28125 C 0.726562 -1.414062 0.640625 -1.566406 0.578125 -1.734375 C 0.515625 -1.910156 0.484375 -2.160156 0.484375 -2.484375 L 0.484375 -3.703125 L 0 -3.703125 L 0 -4.484375 L 4.53125 -4.484375 L 4.53125 -3.703125 Z M 2.875 -3.703125 L 1.453125 -3.703125 L 1.453125 -2.546875 C 1.453125 -2.316406 1.460938 -2.15625 1.484375 -2.0625 C 1.515625 -1.976562 1.5625 -1.898438 1.625 -1.828125 C 1.707031 -1.742188 1.835938 -1.703125 2.015625 -1.703125 C 2.203125 -1.703125 2.367188 -1.75 2.515625 -1.84375 C 2.671875 -1.9375 2.789062 -2.023438 2.875 -2.109375 Z M 2.875 -3.703125 "/></g></g></g><g fill="#000000" fill-opacity="1"><g transform="translate(75.374271, 42.23207)"><g><path d="M 0 -3.703125 L 0 -4.484375 L 5.421875 -4.484375 L 5.421875 -3.703125 L 4.75 -3.703125 L 4.75 0 L 3.78125 0 L 3.78125 -2.28125 C 3.6875 -2.28125 3.585938 -2.25 3.484375 -2.1875 C 3.378906 -2.132812 3.28125 -2.039062 3.1875 -1.90625 C 3.09375 -1.769531 3.015625 -1.582031 2.953125 -1.34375 L 2.046875 -1.625 C 2.085938 -1.78125 2.140625 -1.925781 2.203125 -2.0625 C 2.128906 -2.125 2.050781 -2.171875 1.96875 -2.203125 C 1.894531 -2.242188 1.804688 -2.265625 1.703125 -2.265625 C 1.554688 -2.265625 1.441406 -2.222656 1.359375 -2.140625 C 1.273438 -2.054688 1.234375 -1.957031 1.234375 -1.84375 C 1.234375 -1.707031 1.269531 -1.578125 1.34375 -1.453125 C 1.414062 -1.335938 1.53125 -1.207031 1.6875 -1.0625 C 1.851562 -0.914062 2.078125 -0.734375 2.359375 -0.515625 L 1.71875 0.125 C 1.382812 -0.144531 1.109375 -0.390625 0.890625 -0.609375 C 0.679688 -0.835938 0.523438 -1.054688 0.421875 -1.265625 C 0.316406 -1.472656 0.265625 -1.6875 0.265625 -1.90625 C 0.265625 -2.195312 0.328125 -2.425781 0.453125 -2.59375 C 0.585938 -2.769531 0.75 -2.894531 0.9375 -2.96875 C 1.125 -3.039062 1.3125 -3.078125 1.5 -3.078125 C 1.738281 -3.078125 1.945312 -3.046875 2.125 -2.984375 C 2.3125 -2.921875 2.5 -2.828125 2.6875 -2.703125 C 2.976562 -2.941406 3.335938 -3.0625 3.765625 -3.0625 L 3.78125 -3.0625 L 3.78125 -3.703125 Z M 0 -3.703125 "/></g></g></g><g fill="#000000" fill-opacity="1"><g transform="translate(80.702205, 42.23207)"><g/></g></g><g fill="#000000" fill-opacity="1"><g transform="translate(82.40482, 42.23207)"><g><path d="M 3.765625 -1.515625 C 3.765625 -1.179688 3.648438 -0.914062 3.421875 -0.71875 C 3.203125 -0.53125 2.878906 -0.4375 2.453125 -0.4375 C 2.148438 -0.4375 1.867188 -0.492188 1.609375 -0.609375 C 1.347656 -0.722656 1.09375 -0.929688 0.84375 -1.234375 C 0.601562 -1.535156 0.367188 -1.960938 0.140625 -2.515625 L 0.96875 -2.828125 C 1.164062 -2.316406 1.378906 -1.925781 1.609375 -1.65625 C 1.835938 -1.382812 2.09375 -1.25 2.375 -1.25 C 2.65625 -1.25 2.796875 -1.382812 2.796875 -1.65625 C 2.796875 -1.882812 2.71875 -2.085938 2.5625 -2.265625 C 2.40625 -2.222656 2.226562 -2.195312 2.03125 -2.1875 L 1.984375 -2.953125 C 2.265625 -2.972656 2.457031 -3.019531 2.5625 -3.09375 C 2.664062 -3.175781 2.71875 -3.285156 2.71875 -3.421875 C 2.71875 -3.554688 2.664062 -3.644531 2.5625 -3.6875 C 2.46875 -3.738281 2.363281 -3.765625 2.25 -3.765625 C 2.09375 -3.765625 1.945312 -3.742188 1.8125 -3.703125 C 1.675781 -3.660156 1.546875 -3.601562 1.421875 -3.53125 L 1.140625 -4.265625 C 1.285156 -4.335938 1.46875 -4.40625 1.6875 -4.46875 C 1.90625 -4.53125 2.144531 -4.5625 2.40625 -4.5625 C 2.8125 -4.5625 3.125 -4.453125 3.34375 -4.234375 C 3.5625 -4.023438 3.671875 -3.757812 3.671875 -3.4375 C 3.671875 -3.09375 3.539062 -2.8125 3.28125 -2.59375 C 3.300781 -2.570312 3.320312 -2.550781 3.34375 -2.53125 C 3.40625 -2.519531 3.472656 -2.507812 3.546875 -2.5 C 3.617188 -2.5 3.703125 -2.5 3.796875 -2.5 C 3.929688 -2.5 4.0625 -2.503906 4.1875 -2.515625 C 4.3125 -2.535156 4.4375 -2.566406 4.5625 -2.609375 L 4.5625 -3.703125 L 4.09375 -3.703125 L 4.09375 -4.484375 L 8.328125 -4.484375 L 8.328125 -3.703125 L 7.65625 -3.703125 L 7.65625 0 L 6.6875 0 L 6.6875 -3.703125 L 5.515625 -3.703125 L 5.515625 0 L 4.5625 0 L 4.5625 -1.8125 C 4.457031 -1.769531 4.347656 -1.742188 4.234375 -1.734375 C 4.128906 -1.722656 4.019531 -1.71875 3.90625 -1.71875 C 3.851562 -1.71875 3.800781 -1.71875 3.75 -1.71875 C 3.757812 -1.65625 3.765625 -1.585938 3.765625 -1.515625 Z M 3.765625 -1.515625 "/></g></g></g><g fill="#000000" fill-opacity="1"><g transform="translate(90.634962, 42.23207)"><g><path d="M 3.84375 -3.703125 L 3.84375 0 L 2.875 0 L 2.875 -1.15625 C 2.707031 -1.0625 2.546875 -1 2.390625 -0.96875 C 2.234375 -0.9375 2.039062 -0.921875 1.8125 -0.921875 C 1.59375 -0.921875 1.398438 -0.953125 1.234375 -1.015625 C 1.078125 -1.078125 0.945312 -1.164062 0.84375 -1.28125 C 0.726562 -1.414062 0.640625 -1.566406 0.578125 -1.734375 C 0.515625 -1.910156 0.484375 -2.160156 0.484375 -2.484375 L 0.484375 -3.703125 L 0 -3.703125 L 0 -4.484375 L 4.53125 -4.484375 L 4.53125 -3.703125 Z M 2.875 -3.703125 L 1.453125 -3.703125 L 1.453125 -2.546875 C 1.453125 -2.316406 1.460938 -2.15625 1.484375 -2.0625 C 1.515625 -1.976562 1.5625 -1.898438 1.625 -1.828125 C 1.707031 -1.742188 1.835938 -1.703125 2.015625 -1.703125 C 2.203125 -1.703125 2.367188 -1.75 2.515625 -1.84375 C 2.671875 -1.9375 2.789062 -2.023438 2.875 -2.109375 Z M 2.875 -3.703125 "/></g></g></g><g fill="#000000" fill-opacity="1"><g transform="translate(95.060466, 42.23207)"><g><path d="M 6.046875 -3.703125 L 3.71875 -3.703125 L 3.71875 -2.6875 C 3.945312 -2.820312 4.210938 -2.890625 4.515625 -2.890625 C 4.859375 -2.890625 5.140625 -2.785156 5.359375 -2.578125 C 5.578125 -2.367188 5.6875 -2.078125 5.6875 -1.703125 C 5.6875 -1.484375 5.644531 -1.242188 5.5625 -0.984375 C 5.476562 -0.722656 5.347656 -0.457031 5.171875 -0.1875 L 4.328125 -0.671875 C 4.429688 -0.816406 4.519531 -0.96875 4.59375 -1.125 C 4.675781 -1.28125 4.71875 -1.441406 4.71875 -1.609375 C 4.71875 -1.796875 4.675781 -1.921875 4.59375 -1.984375 C 4.519531 -2.054688 4.425781 -2.09375 4.3125 -2.09375 C 4.195312 -2.09375 4.085938 -2.0625 3.984375 -2 C 3.878906 -1.9375 3.789062 -1.863281 3.71875 -1.78125 L 3.71875 0 L 2.75 0 L 2.75 -0.921875 C 2.59375 -0.828125 2.429688 -0.753906 2.265625 -0.703125 C 2.109375 -0.660156 1.921875 -0.640625 1.703125 -0.640625 C 1.441406 -0.640625 1.203125 -0.6875 0.984375 -0.78125 C 0.765625 -0.875 0.585938 -1.019531 0.453125 -1.21875 C 0.328125 -1.414062 0.265625 -1.65625 0.265625 -1.9375 C 0.265625 -2.207031 0.328125 -2.441406 0.453125 -2.640625 C 0.585938 -2.835938 0.769531 -2.988281 1 -3.09375 C 1.226562 -3.195312 1.5 -3.25 1.8125 -3.25 C 1.9375 -3.25 2.066406 -3.242188 2.203125 -3.234375 C 2.347656 -3.222656 2.457031 -3.207031 2.53125 -3.1875 L 2.46875 -2.390625 C 2.3125 -2.429688 2.140625 -2.453125 1.953125 -2.453125 C 1.722656 -2.453125 1.546875 -2.40625 1.421875 -2.3125 C 1.296875 -2.226562 1.234375 -2.101562 1.234375 -1.9375 C 1.234375 -1.75 1.289062 -1.617188 1.40625 -1.546875 C 1.53125 -1.472656 1.664062 -1.4375 1.8125 -1.4375 C 2.007812 -1.4375 2.1875 -1.476562 2.34375 -1.5625 C 2.5 -1.65625 2.632812 -1.765625 2.75 -1.890625 L 2.75 -3.703125 L 0 -3.703125 L 0 -4.484375 L 6.046875 -4.484375 Z M 6.046875 -3.703125 "/></g></g></g><g fill="#000000" fill-opacity="1"><g transform="translate(99.355991, 42.23207)"><g><path d="M -1.5 -4.4375 C -1.570312 -4.71875 -1.648438 -4.945312 -1.734375 -5.125 C -1.816406 -5.3125 -1.910156 -5.445312 -2.015625 -5.53125 C -2.117188 -5.613281 -2.25 -5.65625 -2.40625 -5.65625 C -2.507812 -5.65625 -2.597656 -5.644531 -2.671875 -5.625 C -2.753906 -5.613281 -2.832031 -5.59375 -2.90625 -5.5625 L -3.15625 -6.328125 C -3.039062 -6.367188 -2.921875 -6.398438 -2.796875 -6.421875 C -2.679688 -6.453125 -2.550781 -6.46875 -2.40625 -6.46875 C -2.207031 -6.46875 -2.023438 -6.441406 -1.859375 -6.390625 C -1.703125 -6.335938 -1.550781 -6.238281 -1.40625 -6.09375 C -1.269531 -5.957031 -1.132812 -5.753906 -1 -5.484375 C -0.875 -5.222656 -0.753906 -4.875 -0.640625 -4.4375 Z M -1.5 -4.4375 "/></g></g></g><g fill="#000000" fill-opacity="1"><g transform="translate(101.002049, 42.23207)"><g/></g></g><g fill="#000000" fill-opacity="1"><g transform="translate(102.704665, 42.23207)"><g><path d="M 4.796875 -3.703125 L 4.796875 0 L 3.828125 0 L 3.828125 -1.6875 C 3.691406 -1.65625 3.554688 -1.632812 3.421875 -1.625 C 3.285156 -1.613281 3.144531 -1.609375 3 -1.609375 C 2.695312 -1.609375 2.4375 -1.632812 2.21875 -1.6875 C 2 -1.738281 1.820312 -1.796875 1.6875 -1.859375 C 1.632812 -1.835938 1.582031 -1.8125 1.53125 -1.78125 C 1.707031 -1.582031 1.910156 -1.367188 2.140625 -1.140625 C 2.378906 -0.921875 2.628906 -0.707031 2.890625 -0.5 L 2.28125 0.125 C 1.882812 -0.238281 1.523438 -0.582031 1.203125 -0.90625 C 0.890625 -1.226562 0.648438 -1.5 0.484375 -1.71875 C 0.367188 -1.863281 0.296875 -1.984375 0.265625 -2.078125 C 0.234375 -2.179688 0.21875 -2.273438 0.21875 -2.359375 C 0.21875 -2.484375 0.257812 -2.601562 0.34375 -2.71875 C 0.425781 -2.84375 0.578125 -2.90625 0.796875 -2.90625 C 1.015625 -2.90625 1.203125 -2.832031 1.359375 -2.6875 C 1.410156 -2.78125 1.445312 -2.878906 1.46875 -2.984375 C 1.5 -3.085938 1.515625 -3.195312 1.515625 -3.3125 C 1.515625 -3.4375 1.492188 -3.566406 1.453125 -3.703125 L 0 -3.703125 L 0 -4.484375 L 5.46875 -4.484375 L 5.46875 -3.703125 Z M 2.921875 -2.40625 C 3.085938 -2.40625 3.242188 -2.410156 3.390625 -2.421875 C 3.535156 -2.441406 3.679688 -2.472656 3.828125 -2.515625 L 3.828125 -3.703125 L 2.40625 -3.703125 C 2.425781 -3.628906 2.441406 -3.546875 2.453125 -3.453125 C 2.460938 -3.367188 2.46875 -3.269531 2.46875 -3.15625 C 2.46875 -3.007812 2.453125 -2.878906 2.421875 -2.765625 C 2.398438 -2.648438 2.363281 -2.546875 2.3125 -2.453125 C 2.40625 -2.441406 2.5 -2.429688 2.59375 -2.421875 C 2.695312 -2.410156 2.804688 -2.40625 2.921875 -2.40625 Z M 2.921875 -2.40625 "/></g></g></g><g fill="#000000" fill-opacity="1"><g transform="translate(108.075918, 42.23207)"><g><path d="M 1.546875 -3.703125 L 1.546875 0 L 0.578125 0 L 0.578125 -3.703125 L 0 -3.703125 L 0 -4.484375 L 2.234375 -4.484375 L 2.234375 -3.703125 Z M 1.546875 -3.703125 "/></g></g></g><g fill="#000000" fill-opacity="1"><g transform="translate(110.198432, 42.23207)"><g><path d="M 4.609375 -3.703125 L 4.609375 0 L 3.640625 0 L 3.640625 -1.046875 C 3.472656 -0.941406 3.28125 -0.867188 3.0625 -0.828125 C 2.851562 -0.785156 2.644531 -0.765625 2.4375 -0.765625 C 1.976562 -0.765625 1.597656 -0.894531 1.296875 -1.15625 C 1.003906 -1.425781 0.796875 -1.816406 0.671875 -2.328125 C 1.117188 -2.421875 1.429688 -2.550781 1.609375 -2.71875 C 1.785156 -2.882812 1.875 -3.085938 1.875 -3.328125 C 1.875 -3.492188 1.832031 -3.628906 1.75 -3.734375 C 1.664062 -3.847656 1.539062 -3.90625 1.375 -3.90625 C 1.28125 -3.90625 1.203125 -3.878906 1.140625 -3.828125 C 1.085938 -3.785156 1.0625 -3.726562 1.0625 -3.65625 C 1.0625 -3.5625 1.09375 -3.488281 1.15625 -3.4375 C 1.21875 -3.394531 1.34375 -3.359375 1.53125 -3.328125 L 1.328125 -2.703125 C 1.003906 -2.742188 0.75 -2.851562 0.5625 -3.03125 C 0.382812 -3.207031 0.296875 -3.429688 0.296875 -3.703125 C 0.296875 -3.898438 0.347656 -4.0625 0.453125 -4.1875 C 0.554688 -4.3125 0.691406 -4.40625 0.859375 -4.46875 C 1.023438 -4.53125 1.210938 -4.5625 1.421875 -4.5625 C 1.828125 -4.5625 2.164062 -4.453125 2.4375 -4.234375 C 2.707031 -4.015625 2.84375 -3.695312 2.84375 -3.28125 C 2.84375 -3 2.769531 -2.734375 2.625 -2.484375 C 2.476562 -2.242188 2.207031 -2.046875 1.8125 -1.890625 C 1.988281 -1.671875 2.222656 -1.5625 2.515625 -1.5625 C 2.742188 -1.5625 2.945312 -1.601562 3.125 -1.6875 C 3.3125 -1.769531 3.484375 -1.898438 3.640625 -2.078125 L 3.640625 -3.703125 L 3.1875 -3.703125 L 3.1875 -4.484375 L 5.28125 -4.484375 L 5.28125 -3.703125 Z M 4.609375 -3.703125 "/></g></g></g><g fill="#000000" fill-opacity="1"><g transform="translate(115.381974, 42.23207)"><g><path d="M 1 0.03125 C 0.875 0.03125 0.757812 0.00390625 0.65625 -0.046875 C 0.5625 -0.0976562 0.488281 -0.164062 0.4375 -0.25 C 0.394531 -0.34375 0.375 -0.445312 0.375 -0.5625 C 0.375 -0.664062 0.394531 -0.765625 0.4375 -0.859375 C 0.488281 -0.953125 0.5625 -1.023438 0.65625 -1.078125 C 0.757812 -1.128906 0.875 -1.15625 1 -1.15625 C 1.125 -1.15625 1.234375 -1.128906 1.328125 -1.078125 C 1.421875 -1.023438 1.492188 -0.953125 1.546875 -0.859375 C 1.597656 -0.773438 1.625 -0.675781 1.625 -0.5625 C 1.625 -0.382812 1.566406 -0.238281 1.453125 -0.125 C 1.335938 -0.0195312 1.1875 0.03125 1 0.03125 Z M 1 0.03125 "/></g></g><g transform="translate(117.373647, 42.23207)"><g><path d="M 1 0.03125 C 0.875 0.03125 0.757812 0.00390625 0.65625 -0.046875 C 0.5625 -0.0976562 0.488281 -0.164062 0.4375 -0.25 C 0.394531 -0.34375 0.375 -0.445312 0.375 -0.5625 C 0.375 -0.664062 0.394531 -0.765625 0.4375 -0.859375 C 0.488281 -0.953125 0.5625 -1.023438 0.65625 -1.078125 C 0.757812 -1.128906 0.875 -1.15625 1 -1.15625 C 1.125 -1.15625 1.234375 -1.128906 1.328125 -1.078125 C 1.421875 -1.023438 1.492188 -0.953125 1.546875 -0.859375 C 1.597656 -0.773438 1.625 -0.675781 1.625 -0.5625 C 1.625 -0.382812 1.566406 -0.238281 1.453125 -0.125 C 1.335938 -0.0195312 1.1875 0.03125 1 0.03125 Z M 1 0.03125 "/></g></g><g transform="translate(119.365319, 42.23207)"><g><path d="M 1 0.03125 C 0.875 0.03125 0.757812 0.00390625 0.65625 -0.046875 C 0.5625 -0.0976562 0.488281 -0.164062 0.4375 -0.25 C 0.394531 -0.34375 0.375 -0.445312 0.375 -0.5625 C 0.375 -0.664062 0.394531 -0.765625 0.4375 -0.859375 C 0.488281 -0.953125 0.5625 -1.023438 0.65625 -1.078125 C 0.757812 -1.128906 0.875 -1.15625 1 -1.15625 C 1.125 -1.15625 1.234375 -1.128906 1.328125 -1.078125 C 1.421875 -1.023438 1.492188 -0.953125 1.546875 -0.859375 C 1.597656 -0.773438 1.625 -0.675781 1.625 -0.5625 C 1.625 -0.382812 1.566406 -0.238281 1.453125 -0.125 C 1.335938 -0.0195312 1.1875 0.03125 1 0.03125 Z M 1 0.03125 "/></g></g></g></svg>