<svg xmlns="http://www.w3.org/2000/svg" xmlns:xlink="http://www.w3.org/1999/xlink" width="133" zoomAndPan="magnify" viewBox="0 0 99.75 30.000001" height="40" preserveAspectRatio="xMidYMid meet" version="1.0"><defs><clipPath id="e6feca147e"><path d="M 12.171875 4.519531 L 54.058594 4.519531 L 54.058594 28.238281 L 12.171875 28.238281 Z M 12.171875 4.519531 " clip-rule="nonzero"/></clipPath></defs><g clip-path="url(#e6feca147e)"><path fill="#5b3274" d="M 17.226562 20.226562 C 17.242188 21.238281 17.125 22.234375 16.871094 23.21875 C 16.652344 24.019531 16.324219 24.769531 15.878906 25.472656 C 15.453125 26.121094 14.949219 26.707031 14.367188 27.226562 C 13.792969 27.738281 13.15625 28.242188 12.472656 28.742188 L 12.238281 28.417969 C 12.785156 27.925781 13.257812 27.367188 13.640625 26.738281 C 13.988281 26.148438 14.253906 25.523438 14.4375 24.867188 C 14.625 24.164062 14.746094 23.457031 14.792969 22.730469 C 14.839844 21.964844 14.867188 21.125 14.867188 20.226562 L 14.867188 9.527344 C 14.867188 8.808594 14.855469 8.175781 14.839844 7.628906 C 14.824219 7.085938 14.792969 6.613281 14.769531 6.214844 C 14.738281 5.816406 14.695312 5.492188 14.648438 5.226562 C 14.605469 4.960938 14.542969 4.738281 14.5 4.5625 L 14.5 4.519531 L 17.59375 4.519531 L 17.59375 4.5625 C 17.550781 4.742188 17.488281 4.964844 17.445312 5.226562 C 17.402344 5.492188 17.355469 5.816406 17.324219 6.214844 C 17.296875 6.613281 17.269531 7.085938 17.25 7.632812 C 17.238281 8.175781 17.226562 8.8125 17.226562 9.53125 Z M 17.917969 16.292969 C 17.910156 15.929688 17.984375 15.589844 18.15625 15.277344 C 18.320312 14.984375 18.539062 14.742188 18.808594 14.539062 C 19.089844 14.328125 19.394531 14.160156 19.726562 14.035156 C 20.070312 13.910156 20.425781 13.808594 20.789062 13.742188 C 21.152344 13.675781 21.519531 13.625 21.882812 13.597656 C 22.238281 13.566406 22.582031 13.550781 22.875 13.550781 L 22.875 13.167969 C 22.882812 12.875 22.839844 12.59375 22.742188 12.3125 C 22.664062 12.09375 22.546875 11.894531 22.386719 11.722656 C 22.230469 11.558594 22.042969 11.4375 21.828125 11.371094 C 21.59375 11.292969 21.359375 11.253906 21.113281 11.253906 C 20.933594 11.253906 20.757812 11.269531 20.582031 11.296875 C 20.394531 11.328125 20.210938 11.375 20.035156 11.445312 C 19.828125 11.523438 19.632812 11.617188 19.445312 11.722656 C 19.207031 11.859375 18.984375 12.011719 18.777344 12.179688 L 18.703125 12.136719 L 19.207031 11.089844 C 19.363281 11.019531 19.527344 10.960938 19.695312 10.914062 C 19.855469 10.867188 20.019531 10.824219 20.183594 10.796875 C 20.34375 10.765625 20.523438 10.75 20.6875 10.738281 C 20.863281 10.722656 21.042969 10.722656 21.234375 10.722656 C 21.691406 10.710938 22.140625 10.773438 22.582031 10.914062 C 22.921875 11.023438 23.226562 11.195312 23.5 11.429688 C 23.734375 11.648438 23.90625 11.90625 24.015625 12.210938 C 24.121094 12.519531 24.179688 12.839844 24.179688 13.167969 L 24.179688 15.597656 C 24.179688 16.027344 24.179688 16.394531 24.191406 16.703125 C 24.207031 17.011719 24.222656 17.292969 24.238281 17.527344 C 24.25 17.722656 24.273438 17.914062 24.308594 18.101562 C 24.339844 18.25 24.371094 18.382812 24.402344 18.488281 L 24.402344 18.515625 L 22.742188 18.515625 L 22.742188 18.488281 C 22.773438 18.402344 22.792969 18.3125 22.800781 18.222656 C 22.820312 18.105469 22.828125 17.984375 22.828125 17.867188 C 22.726562 17.953125 22.609375 18.046875 22.460938 18.148438 C 22.300781 18.242188 22.140625 18.328125 21.972656 18.398438 C 21.773438 18.472656 21.570312 18.539062 21.363281 18.589844 C 21.125 18.636719 20.886719 18.660156 20.640625 18.660156 C 19.894531 18.707031 19.222656 18.507812 18.628906 18.058594 C 18.121094 17.578125 17.886719 16.988281 17.917969 16.292969 Z M 22.894531 14.128906 C 22.453125 14.128906 22.015625 14.152344 21.574219 14.199219 C 21.191406 14.238281 20.820312 14.339844 20.464844 14.496094 C 20.121094 14.644531 19.847656 14.875 19.65625 15.191406 C 19.457031 15.515625 19.375 15.859375 19.398438 16.230469 C 19.363281 16.742188 19.511719 17.1875 19.84375 17.574219 C 20.183594 17.910156 20.59375 18.0625 21.074219 18.03125 C 21.296875 18.035156 21.511719 18 21.722656 17.929688 C 21.90625 17.863281 22.078125 17.78125 22.242188 17.675781 C 22.382812 17.578125 22.511719 17.464844 22.625 17.339844 C 22.726562 17.234375 22.804688 17.117188 22.863281 16.984375 C 22.875 16.792969 22.875 16.585938 22.875 16.347656 L 22.875 14.128906 Z M 28.929688 12.355469 L 28.824219 12.375 C 28.789062 12.242188 28.734375 12.121094 28.664062 12.003906 C 28.582031 11.867188 28.488281 11.75 28.367188 11.648438 C 28.238281 11.53125 28.089844 11.445312 27.921875 11.386719 C 27.734375 11.3125 27.535156 11.277344 27.332031 11.28125 C 27.179688 11.285156 27.03125 11.308594 26.886719 11.355469 C 26.761719 11.402344 26.640625 11.464844 26.53125 11.546875 C 26.429688 11.636719 26.347656 11.742188 26.292969 11.871094 C 26.230469 12.019531 26.203125 12.167969 26.207031 12.328125 C 26.207031 12.582031 26.28125 12.8125 26.429688 13.019531 C 26.597656 13.261719 26.789062 13.484375 27.003906 13.683594 C 27.242188 13.902344 27.476562 14.109375 27.746094 14.332031 C 28.011719 14.542969 28.253906 14.773438 28.488281 15.023438 C 28.707031 15.257812 28.902344 15.511719 29.0625 15.789062 C 29.214844 16.0625 29.289062 16.359375 29.285156 16.675781 C 29.285156 16.929688 29.242188 17.171875 29.152344 17.410156 C 29.058594 17.65625 28.921875 17.875 28.738281 18.058594 C 28.527344 18.261719 28.285156 18.414062 28.015625 18.515625 C 27.671875 18.640625 27.324219 18.703125 26.960938 18.691406 C 26.738281 18.691406 26.515625 18.667969 26.292969 18.617188 C 26.101562 18.574219 25.910156 18.519531 25.71875 18.457031 C 25.5625 18.394531 25.410156 18.320312 25.257812 18.234375 C 25.128906 18.164062 25.007812 18.074219 24.890625 18 L 24.964844 16.582031 L 25.082031 16.582031 C 25.125 16.8125 25.199219 17.03125 25.304688 17.234375 C 25.402344 17.417969 25.527344 17.585938 25.675781 17.734375 C 25.820312 17.875 25.988281 17.980469 26.175781 18.058594 C 26.378906 18.136719 26.585938 18.175781 26.800781 18.175781 C 27.136719 18.191406 27.433594 18.089844 27.6875 17.867188 C 27.917969 17.652344 28.027344 17.386719 28.015625 17.074219 C 28.015625 16.808594 27.941406 16.566406 27.789062 16.347656 C 27.628906 16.117188 27.441406 15.90625 27.230469 15.714844 C 27.007812 15.511719 26.753906 15.304688 26.503906 15.097656 C 26.25 14.890625 26 14.671875 25.777344 14.449219 C 25.558594 14.222656 25.371094 13.960938 25.214844 13.683594 C 24.929688 13.113281 24.910156 12.535156 25.160156 11.945312 C 25.378906 11.4375 25.753906 11.101562 26.28125 10.929688 C 26.566406 10.832031 26.859375 10.78125 27.15625 10.78125 C 27.507812 10.773438 27.851562 10.816406 28.191406 10.914062 C 28.410156 10.980469 28.621094 11.0625 28.828125 11.164062 Z M 35.367188 13.464844 C 35.410156 12.933594 35.28125 12.449219 34.96875 12.019531 C 34.6875 11.695312 34.332031 11.542969 33.902344 11.5625 C 33.714844 11.5625 33.53125 11.597656 33.355469 11.667969 C 33.140625 11.742188 32.933594 11.832031 32.734375 11.929688 C 32.515625 12.050781 32.300781 12.1875 32.097656 12.328125 C 31.890625 12.476562 31.691406 12.640625 31.507812 12.8125 L 31.507812 15.585938 C 31.507812 16.011719 31.507812 16.378906 31.519531 16.6875 C 31.535156 17 31.550781 17.277344 31.5625 17.515625 C 31.578125 17.707031 31.601562 17.898438 31.636719 18.089844 C 31.667969 18.234375 31.699219 18.371094 31.726562 18.472656 L 31.726562 18.5 L 29.996094 18.5 L 29.996094 18.472656 C 30.023438 18.371094 30.054688 18.234375 30.085938 18.089844 C 30.113281 17.941406 30.128906 17.738281 30.160156 17.515625 C 30.171875 17.277344 30.1875 17.011719 30.203125 16.691406 C 30.214844 16.378906 30.214844 15.996094 30.214844 15.585938 L 30.214844 10.265625 C 30.214844 9.839844 30.214844 9.472656 30.203125 9.164062 C 30.191406 8.851562 30.171875 8.574219 30.160156 8.335938 C 30.144531 8.144531 30.121094 7.953125 30.085938 7.761719 C 30.054688 7.613281 30.023438 7.480469 29.996094 7.378906 L 29.996094 7.351562 L 31.726562 7.351562 L 31.726562 7.378906 C 31.699219 7.484375 31.667969 7.617188 31.636719 7.761719 C 31.609375 7.910156 31.59375 8.105469 31.5625 8.339844 C 31.550781 8.574219 31.535156 8.835938 31.519531 9.164062 C 31.507812 9.472656 31.507812 9.855469 31.507812 10.269531 L 31.507812 12.183594 C 31.710938 12.003906 31.917969 11.832031 32.171875 11.652344 C 32.410156 11.480469 32.664062 11.320312 32.925781 11.179688 C 33.183594 11.046875 33.449219 10.933594 33.726562 10.84375 C 33.984375 10.753906 34.25 10.710938 34.523438 10.710938 C 34.871094 10.703125 35.199219 10.773438 35.515625 10.914062 C 35.777344 11.042969 36 11.222656 36.183594 11.445312 C 36.359375 11.671875 36.480469 11.921875 36.550781 12.199219 C 36.628906 12.476562 36.667969 12.761719 36.667969 13.050781 L 36.667969 15.589844 C 36.667969 16.015625 36.667969 16.382812 36.683594 16.691406 C 36.699219 17.003906 36.710938 17.28125 36.730469 17.515625 C 36.738281 17.710938 36.765625 17.902344 36.800781 18.09375 C 36.832031 18.238281 36.863281 18.371094 36.890625 18.472656 L 36.890625 18.503906 L 35.160156 18.503906 L 35.160156 18.472656 C 35.191406 18.371094 35.21875 18.238281 35.246094 18.09375 C 35.277344 17.945312 35.292969 17.738281 35.320312 17.515625 C 35.335938 17.28125 35.351562 17.015625 35.367188 16.691406 C 35.382812 16.382812 35.382812 16 35.382812 15.589844 L 35.382812 13.464844 Z M 42.941406 13.464844 C 42.988281 12.933594 42.855469 12.449219 42.542969 12.019531 C 42.265625 11.695312 41.910156 11.542969 41.476562 11.5625 C 41.292969 11.5625 41.121094 11.597656 40.945312 11.667969 C 40.742188 11.742188 40.546875 11.828125 40.324219 11.929688 C 39.882812 12.171875 39.472656 12.464844 39.097656 12.800781 L 39.082031 13.773438 L 39.082031 15.585938 C 39.082031 16.011719 39.082031 16.378906 39.097656 16.6875 C 39.113281 17 39.125 17.277344 39.140625 17.515625 C 39.152344 17.707031 39.179688 17.898438 39.214844 18.089844 C 39.246094 18.234375 39.277344 18.371094 39.304688 18.472656 L 39.304688 18.5 L 37.574219 18.5 L 37.574219 18.472656 C 37.605469 18.371094 37.628906 18.234375 37.660156 18.089844 C 37.691406 17.941406 37.707031 17.738281 37.734375 17.515625 C 37.75 17.277344 37.765625 17.011719 37.78125 16.6875 C 37.792969 16.378906 37.792969 15.996094 37.792969 15.585938 L 37.792969 13.773438 C 37.792969 13.347656 37.792969 12.976562 37.78125 12.667969 C 37.765625 12.355469 37.75 12.078125 37.734375 11.839844 C 37.722656 11.648438 37.699219 11.457031 37.660156 11.269531 C 37.628906 11.121094 37.605469 10.988281 37.574219 10.886719 L 37.574219 10.855469 L 39.304688 10.855469 L 39.304688 10.886719 C 39.253906 11.035156 39.222656 11.195312 39.214844 11.355469 C 39.1875 11.550781 39.171875 11.796875 39.140625 12.109375 C 39.351562 11.945312 39.570312 11.769531 39.804688 11.605469 C 40.042969 11.441406 40.292969 11.289062 40.546875 11.152344 C 40.800781 11.019531 41.0625 10.914062 41.332031 10.824219 C 41.585938 10.746094 41.847656 10.703125 42.117188 10.707031 C 42.464844 10.703125 42.792969 10.769531 43.105469 10.914062 C 43.367188 11.042969 43.589844 11.21875 43.773438 11.445312 C 43.953125 11.671875 44.074219 11.917969 44.144531 12.195312 C 44.21875 12.472656 44.261719 12.757812 44.261719 13.050781 L 44.261719 15.585938 C 44.261719 16.011719 44.261719 16.378906 44.277344 16.691406 C 44.289062 17 44.308594 17.277344 44.320312 17.515625 C 44.332031 17.707031 44.359375 17.902344 44.394531 18.089844 C 44.425781 18.234375 44.453125 18.371094 44.484375 18.472656 L 44.484375 18.5 L 42.753906 18.5 L 42.753906 18.472656 C 42.78125 18.371094 42.8125 18.234375 42.84375 18.089844 C 42.871094 17.941406 42.886719 17.738281 42.917969 17.515625 C 42.929688 17.277344 42.941406 17.011719 42.960938 16.691406 C 42.972656 16.378906 42.972656 15.996094 42.972656 15.585938 L 42.972656 13.464844 Z M 46.765625 13.402344 L 47.121094 13.757812 L 45.417969 15.449219 L 45.0625 15.097656 M 49.382812 16.367188 C 49.128906 16.367188 48.882812 16.324219 48.640625 16.25 C 48.417969 16.164062 48.210938 16.039062 48.035156 15.878906 C 47.855469 15.714844 47.71875 15.519531 47.636719 15.289062 C 47.527344 15.03125 47.480469 14.761719 47.488281 14.480469 C 47.488281 14.222656 47.53125 13.96875 47.621094 13.726562 C 47.707031 13.507812 47.832031 13.3125 47.992188 13.136719 C 48.15625 12.972656 48.34375 12.839844 48.554688 12.742188 C 48.773438 12.644531 49.007812 12.59375 49.25 12.59375 C 49.730469 12.589844 50.140625 12.757812 50.476562 13.09375 C 50.640625 13.269531 50.761719 13.464844 50.847656 13.683594 C 50.941406 13.945312 50.992188 14.21875 50.996094 14.496094 C 50.730469 14.496094 50.464844 14.480469 50.183594 14.480469 L 48.730469 14.480469 C 48.539062 14.480469 48.359375 14.480469 48.199219 14.496094 C 48.210938 14.71875 48.253906 14.941406 48.316406 15.15625 C 48.371094 15.347656 48.460938 15.519531 48.585938 15.671875 C 48.6875 15.816406 48.820312 15.921875 48.984375 15.996094 C 49.152344 16.074219 49.328125 16.113281 49.515625 16.113281 C 49.648438 16.113281 49.773438 16.101562 49.902344 16.070312 C 50.019531 16.039062 50.132812 15.996094 50.238281 15.9375 C 50.339844 15.886719 50.429688 15.816406 50.507812 15.734375 C 50.585938 15.65625 50.652344 15.570312 50.710938 15.480469 L 50.757812 15.496094 L 50.492188 16.132812 C 50.347656 16.207031 50.191406 16.257812 50.03125 16.292969 C 49.820312 16.347656 49.601562 16.371094 49.382812 16.367188 Z M 48.910156 14.199219 L 49.621094 14.199219 C 49.859375 14.199219 50.078125 14.199219 50.269531 14.183594 C 50.257812 13.992188 50.214844 13.804688 50.152344 13.625 C 50.101562 13.472656 50.027344 13.335938 49.933594 13.210938 C 49.839844 13.097656 49.734375 13.011719 49.601562 12.945312 C 49.472656 12.886719 49.335938 12.859375 49.191406 12.859375 C 49.058594 12.859375 48.925781 12.886719 48.804688 12.945312 C 48.679688 13.007812 48.585938 13.097656 48.511719 13.210938 C 48.421875 13.339844 48.351562 13.476562 48.300781 13.625 C 48.238281 13.804688 48.210938 13.992188 48.214844 14.183594 L 48.554688 14.183594 C 48.671875 14.1875 48.773438 14.199219 48.910156 14.199219 Z M 51.660156 15.449219 L 51.304688 15.097656 L 53.007812 13.402344 L 53.363281 13.757812 Z M 55.980469 14.730469 C 55.980469 15.277344 56 15.746094 56.011719 16.15625 C 56.027344 16.570312 56.042969 16.914062 56.070312 17.203125 C 56.085938 17.453125 56.117188 17.695312 56.160156 17.941406 C 56.1875 18.113281 56.226562 18.28125 56.277344 18.445312 L 56.277344 18.488281 L 53.941406 18.488281 L 53.941406 18.445312 C 53.984375 18.308594 54.015625 18.148438 54.058594 17.941406 C 54.089844 17.75 54.117188 17.5 54.148438 17.203125 C 54.175781 16.910156 54.191406 16.558594 54.207031 16.15625 C 54.222656 15.761719 54.234375 15.277344 54.234375 14.730469 L 54.234375 8.484375 C 54.234375 7.9375 54.222656 7.46875 54.207031 7.054688 C 54.191406 6.640625 54.179688 6.304688 54.148438 6.007812 C 54.117188 5.714844 54.101562 5.460938 54.058594 5.257812 C 54.035156 5.085938 53.992188 4.917969 53.941406 4.753906 L 53.941406 4.710938 L 54.339844 4.753906 C 54.457031 4.769531 54.589844 4.769531 54.753906 4.785156 L 55.226562 4.785156 C 55.570312 4.777344 55.910156 4.75 56.25 4.695312 C 56.792969 4.632812 57.34375 4.601562 57.890625 4.609375 C 58.476562 4.605469 59.046875 4.6875 59.609375 4.859375 C 60.109375 5.011719 60.566406 5.257812 60.96875 5.597656 C 61.359375 5.921875 61.660156 6.3125 61.871094 6.777344 C 62.097656 7.277344 62.210938 7.800781 62.195312 8.351562 C 62.199219 8.789062 62.140625 9.214844 62.019531 9.632812 C 61.90625 10.019531 61.738281 10.375 61.515625 10.707031 C 61.296875 11.035156 61.035156 11.316406 60.730469 11.5625 C 60.425781 11.816406 60.089844 12.027344 59.726562 12.183594 L 63.113281 16.914062 C 63.277344 17.148438 63.441406 17.355469 63.589844 17.53125 C 63.714844 17.691406 63.855469 17.835938 64.003906 17.972656 C 64.125 18.085938 64.25 18.1875 64.386719 18.285156 C 64.503906 18.355469 64.628906 18.421875 64.757812 18.472656 L 64.757812 18.519531 L 61.976562 18.519531 C 61.933594 18.347656 61.871094 18.1875 61.785156 18.03125 C 61.667969 17.824219 61.550781 17.621094 61.414062 17.429688 L 57.996094 12.640625 C 57.847656 12.65625 57.699219 12.667969 57.550781 12.667969 C 57.402344 12.683594 57.253906 12.683594 57.089844 12.683594 C 56.914062 12.683594 56.734375 12.683594 56.542969 12.667969 C 56.359375 12.660156 56.175781 12.636719 56 12.59375 L 56 14.734375 Z M 55.980469 11.8125 C 56.160156 11.859375 56.335938 11.871094 56.515625 11.902344 C 56.691406 11.914062 56.871094 11.929688 57.035156 11.929688 C 57.488281 11.9375 57.925781 11.863281 58.351562 11.710938 C 58.742188 11.570312 59.082031 11.347656 59.371094 11.046875 C 59.671875 10.726562 59.886719 10.359375 60.019531 9.945312 C 60.183594 9.441406 60.265625 8.925781 60.257812 8.394531 C 60.261719 7.953125 60.207031 7.515625 60.09375 7.085938 C 60.007812 6.71875 59.847656 6.386719 59.609375 6.097656 C 59.382812 5.824219 59.113281 5.613281 58.792969 5.460938 C 58.425781 5.304688 58.039062 5.230469 57.636719 5.242188 C 57.28125 5.238281 56.925781 5.261719 56.574219 5.316406 C 56.371094 5.34375 56.171875 5.390625 55.980469 5.460938 Z M 67.261719 18.636719 C 66.722656 18.640625 66.207031 18.550781 65.707031 18.371094 C 65.230469 18.199219 64.804688 17.945312 64.429688 17.601562 C 64.054688 17.246094 63.769531 16.828125 63.574219 16.351562 C 63.359375 15.804688 63.253906 15.242188 63.265625 14.65625 C 63.253906 14.117188 63.347656 13.597656 63.546875 13.09375 C 63.726562 12.628906 63.988281 12.210938 64.328125 11.839844 C 64.664062 11.488281 65.050781 11.214844 65.496094 11.015625 C 65.960938 10.8125 66.441406 10.710938 66.949219 10.722656 C 67.445312 10.71875 67.925781 10.804688 68.382812 10.988281 C 68.824219 11.15625 69.203125 11.410156 69.519531 11.753906 C 69.863281 12.121094 70.121094 12.539062 70.289062 13.007812 C 70.492188 13.554688 70.59375 14.117188 70.601562 14.699219 C 70.039062 14.6875 69.476562 14.6875 68.898438 14.671875 C 68.335938 14.671875 67.746094 14.65625 67.140625 14.65625 C 66.710938 14.65625 66.28125 14.65625 65.867188 14.671875 C 65.449219 14.671875 65.082031 14.6875 64.757812 14.699219 C 64.785156 15.175781 64.863281 15.640625 64.996094 16.101562 C 65.109375 16.492188 65.292969 16.851562 65.542969 17.175781 C 65.769531 17.46875 66.046875 17.695312 66.386719 17.855469 C 66.742188 18.023438 67.117188 18.097656 67.507812 18.089844 C 67.789062 18.09375 68.066406 18.058594 68.335938 17.988281 C 68.582031 17.921875 68.8125 17.828125 69.035156 17.707031 C 69.242188 17.589844 69.429688 17.445312 69.597656 17.28125 C 69.761719 17.125 69.898438 16.945312 70.007812 16.75 L 70.097656 16.796875 L 69.535156 18.117188 C 69.226562 18.273438 68.910156 18.390625 68.574219 18.472656 C 68.144531 18.597656 67.707031 18.652344 67.257812 18.636719 Z M 66.25 14.082031 L 67.761719 14.082031 C 68.265625 14.082031 68.726562 14.066406 69.136719 14.054688 C 69.097656 13.65625 69.011719 13.269531 68.886719 12.890625 C 68.777344 12.570312 68.621094 12.285156 68.410156 12.019531 C 68.21875 11.785156 67.988281 11.597656 67.714844 11.457031 C 67.441406 11.328125 67.148438 11.265625 66.839844 11.269531 C 66.558594 11.261719 66.292969 11.324219 66.042969 11.457031 C 65.792969 11.597656 65.582031 11.777344 65.40625 12.003906 C 65.210938 12.273438 65.070312 12.570312 64.976562 12.890625 C 64.863281 13.277344 64.800781 13.667969 64.785156 14.070312 C 65.007812 14.082031 65.242188 14.082031 65.496094 14.082031 Z M 71.3125 10.253906 C 71.3125 9.824219 71.3125 9.457031 71.300781 9.144531 C 71.285156 8.835938 71.269531 8.554688 71.257812 8.320312 C 71.242188 8.128906 71.21875 7.9375 71.183594 7.75 C 71.152344 7.601562 71.121094 7.46875 71.089844 7.363281 L 71.089844 7.335938 L 72.824219 7.335938 L 72.824219 7.363281 C 72.792969 7.46875 72.765625 7.601562 72.734375 7.75 C 72.707031 7.894531 72.691406 8.085938 72.660156 8.320312 C 72.648438 8.554688 72.628906 8.820312 72.617188 9.144531 C 72.601562 9.457031 72.601562 9.839844 72.601562 10.253906 L 72.601562 13.964844 L 75.058594 11.765625 C 75.488281 11.402344 75.710938 11.089844 75.710938 10.839844 L 77.457031 10.839844 L 77.457031 10.867188 C 77.328125 10.910156 77.207031 10.960938 77.085938 11.015625 C 76.960938 11.082031 76.84375 11.152344 76.730469 11.238281 C 76.613281 11.324219 76.496094 11.414062 76.359375 11.53125 C 76.214844 11.648438 76.074219 11.769531 75.945312 11.902344 L 73.742188 13.890625 L 76.757812 17.441406 C 76.851562 17.546875 76.953125 17.664062 77.058594 17.78125 C 77.15625 17.890625 77.253906 17.996094 77.371094 18.089844 C 77.472656 18.179688 77.574219 18.265625 77.679688 18.339844 C 77.761719 18.40625 77.855469 18.449219 77.960938 18.472656 L 77.960938 18.5 L 75.785156 18.5 C 75.785156 18.359375 75.75 18.230469 75.679688 18.105469 C 75.574219 17.917969 75.449219 17.742188 75.3125 17.574219 L 72.601562 14.378906 L 72.601562 15.585938 C 72.601562 16.015625 72.601562 16.378906 72.617188 16.691406 C 72.632812 17 72.648438 17.28125 72.660156 17.515625 C 72.671875 17.710938 72.695312 17.902344 72.738281 18.089844 C 72.765625 18.234375 72.792969 18.371094 72.824219 18.472656 L 72.824219 18.5 L 71.089844 18.5 L 71.089844 18.472656 C 71.121094 18.371094 71.152344 18.234375 71.183594 18.089844 C 71.210938 17.941406 71.226562 17.738281 71.257812 17.515625 C 71.269531 17.28125 71.285156 17.011719 71.300781 16.691406 C 71.316406 16.378906 71.316406 15.996094 71.316406 15.585938 L 71.316406 10.253906 Z M 83.554688 13.464844 C 83.597656 12.933594 83.464844 12.449219 83.15625 12.019531 C 82.875 11.695312 82.519531 11.542969 82.089844 11.5625 C 81.898438 11.5625 81.71875 11.601562 81.539062 11.667969 C 81.328125 11.742188 81.121094 11.832031 80.917969 11.929688 C 80.699219 12.050781 80.488281 12.1875 80.28125 12.332031 C 80.074219 12.476562 79.875 12.640625 79.6875 12.816406 L 79.6875 15.585938 C 79.6875 16.011719 79.6875 16.378906 79.707031 16.691406 C 79.71875 17 79.734375 17.277344 79.75 17.515625 C 79.757812 17.707031 79.785156 17.902344 79.824219 18.089844 C 79.851562 18.234375 79.882812 18.371094 79.910156 18.472656 L 79.910156 18.5 L 78.179688 18.5 L 78.179688 18.472656 C 78.210938 18.371094 78.242188 18.234375 78.269531 18.089844 C 78.296875 17.941406 78.316406 17.738281 78.339844 17.515625 C 78.359375 17.28125 78.371094 17.011719 78.386719 16.691406 C 78.402344 16.378906 78.402344 15.996094 78.402344 15.585938 L 78.402344 10.265625 C 78.402344 9.839844 78.402344 9.472656 78.386719 9.164062 C 78.371094 8.851562 78.359375 8.574219 78.339844 8.335938 C 78.332031 8.144531 78.308594 7.953125 78.269531 7.761719 C 78.242188 7.613281 78.210938 7.480469 78.179688 7.378906 L 78.179688 7.351562 L 79.910156 7.351562 L 79.910156 7.378906 C 79.882812 7.484375 79.851562 7.617188 79.824219 7.761719 C 79.792969 7.910156 79.78125 8.105469 79.75 8.339844 C 79.734375 8.574219 79.71875 8.835938 79.707031 9.164062 C 79.6875 9.472656 79.6875 9.855469 79.6875 10.269531 L 79.6875 12.183594 C 79.898438 12.003906 80.105469 11.832031 80.355469 11.652344 C 80.597656 11.480469 80.847656 11.320312 81.109375 11.179688 C 81.367188 11.046875 81.632812 10.933594 81.90625 10.84375 C 82.167969 10.753906 82.433594 10.710938 82.710938 10.710938 C 83.054688 10.703125 83.386719 10.773438 83.703125 10.914062 C 83.960938 11.042969 84.183594 11.222656 84.363281 11.445312 C 84.542969 11.671875 84.667969 11.921875 84.738281 12.199219 C 84.8125 12.476562 84.851562 12.761719 84.855469 13.050781 L 84.855469 15.589844 C 84.855469 16.015625 84.855469 16.382812 84.867188 16.691406 C 84.882812 17.003906 84.898438 17.28125 84.914062 17.515625 C 84.925781 17.710938 84.949219 17.902344 84.988281 18.09375 C 85.015625 18.238281 85.046875 18.371094 85.074219 18.472656 L 85.074219 18.503906 L 83.347656 18.503906 L 83.347656 18.472656 C 83.371094 18.371094 83.402344 18.238281 83.433594 18.09375 C 83.464844 17.945312 83.476562 17.738281 83.507812 17.515625 C 83.519531 17.28125 83.535156 17.015625 83.550781 16.691406 C 83.566406 16.382812 83.566406 16 83.566406 15.589844 L 83.566406 13.464844 Z M 88.921875 18.058594 C 89.078125 18.058594 89.226562 18.027344 89.367188 17.972656 C 89.519531 17.910156 89.660156 17.835938 89.796875 17.75 C 89.9375 17.652344 90.070312 17.542969 90.195312 17.425781 C 90.328125 17.3125 90.445312 17.179688 90.550781 17.042969 L 90.625 17.085938 L 90.136719 18.296875 C 90.078125 18.324219 90.003906 18.355469 89.914062 18.402344 C 89.816406 18.449219 89.714844 18.488281 89.605469 18.519531 C 89.464844 18.566406 89.320312 18.597656 89.175781 18.621094 C 88.980469 18.652344 88.78125 18.667969 88.585938 18.664062 C 87.984375 18.703125 87.460938 18.519531 87.015625 18.117188 C 86.585938 17.632812 86.398438 17.070312 86.453125 16.421875 L 86.453125 11.445312 L 85.191406 11.488281 L 85.191406 10.824219 C 85.34375 10.84375 85.535156 10.84375 85.757812 10.855469 L 86.464844 10.855469 C 86.464844 10.503906 86.453125 10.191406 86.441406 9.914062 C 86.421875 9.644531 86.410156 9.410156 86.394531 9.203125 C 86.378906 9 86.347656 8.835938 86.335938 8.691406 C 86.304688 8.554688 86.289062 8.4375 86.257812 8.335938 L 86.257812 8.304688 L 87.976562 8.304688 L 87.976562 8.335938 C 87.941406 8.453125 87.910156 8.570312 87.886719 8.691406 C 87.859375 8.855469 87.835938 9.023438 87.832031 9.191406 C 87.8125 9.398438 87.800781 9.617188 87.785156 9.898438 C 87.769531 10.160156 87.769531 10.488281 87.757812 10.84375 C 88.066406 10.84375 88.378906 10.824219 88.6875 10.824219 C 88.984375 10.8125 89.265625 10.8125 89.515625 10.796875 C 89.769531 10.78125 89.976562 10.769531 90.152344 10.75 C 90.332031 10.738281 90.433594 10.726562 90.492188 10.726562 L 90.359375 11.488281 C 90.105469 11.488281 89.839844 11.476562 89.558594 11.457031 C 89.320312 11.445312 89.042969 11.445312 88.730469 11.433594 C 88.421875 11.433594 88.09375 11.414062 87.769531 11.414062 L 87.769531 16.558594 C 87.761719 16.816406 87.792969 17.066406 87.875 17.3125 C 87.929688 17.480469 88.019531 17.632812 88.140625 17.765625 C 88.242188 17.875 88.367188 17.949219 88.511719 17.988281 C 88.640625 18.042969 88.777344 18.070312 88.921875 18.058594 Z M 90.730469 16.292969 C 90.714844 15.929688 90.796875 15.589844 90.96875 15.277344 C 91.132812 14.984375 91.351562 14.738281 91.617188 14.539062 C 91.898438 14.328125 92.203125 14.160156 92.535156 14.035156 C 92.882812 13.910156 93.238281 13.808594 93.597656 13.742188 C 93.964844 13.671875 94.328125 13.625 94.695312 13.59375 C 95.050781 13.566406 95.390625 13.550781 95.6875 13.550781 L 95.6875 13.167969 C 95.695312 12.875 95.652344 12.59375 95.554688 12.3125 C 95.476562 12.09375 95.359375 11.894531 95.199219 11.722656 C 95.042969 11.554688 94.855469 11.4375 94.636719 11.371094 C 94.40625 11.292969 94.167969 11.253906 93.925781 11.25 C 93.746094 11.25 93.570312 11.269531 93.390625 11.296875 C 93.203125 11.328125 93.023438 11.375 92.84375 11.441406 C 92.640625 11.523438 92.441406 11.617188 92.25 11.722656 C 92.015625 11.859375 91.796875 12.007812 91.589844 12.179688 L 91.515625 12.136719 L 92.015625 11.089844 C 92.175781 11.015625 92.339844 10.960938 92.507812 10.914062 C 92.667969 10.867188 92.832031 10.824219 92.992188 10.796875 C 93.15625 10.765625 93.335938 10.75 93.496094 10.734375 C 93.660156 10.722656 93.855469 10.722656 94.042969 10.722656 C 94.503906 10.707031 94.953125 10.773438 95.390625 10.914062 C 95.734375 11.023438 96.039062 11.195312 96.308594 11.429688 C 96.546875 11.648438 96.71875 11.90625 96.828125 12.210938 C 96.933594 12.519531 96.992188 12.839844 96.992188 13.167969 L 96.992188 15.597656 C 96.992188 16.023438 96.992188 16.394531 97.003906 16.703125 C 97.019531 17.011719 97.035156 17.292969 97.046875 17.527344 C 97.0625 17.71875 97.085938 17.910156 97.121094 18.101562 C 97.152344 18.25 97.183594 18.382812 97.210938 18.484375 L 97.210938 18.515625 L 95.554688 18.515625 L 95.554688 18.484375 C 95.582031 18.402344 95.601562 18.308594 95.613281 18.21875 C 95.628906 18.101562 95.640625 17.984375 95.640625 17.867188 C 95.535156 17.953125 95.417969 18.046875 95.273438 18.144531 C 95.113281 18.242188 94.953125 18.328125 94.78125 18.398438 C 94.585938 18.472656 94.382812 18.539062 94.175781 18.589844 C 93.9375 18.636719 93.695312 18.660156 93.453125 18.660156 C 92.703125 18.707031 92.035156 18.507812 91.441406 18.058594 C 90.929688 17.574219 90.695312 16.988281 90.730469 16.292969 Z M 95.699219 14.128906 C 95.261719 14.128906 94.824219 14.152344 94.382812 14.199219 C 93.996094 14.238281 93.628906 14.335938 93.273438 14.496094 C 92.929688 14.640625 92.65625 14.875 92.460938 15.191406 C 92.269531 15.515625 92.179688 15.859375 92.207031 16.230469 C 92.175781 16.742188 92.320312 17.1875 92.652344 17.574219 C 92.992188 17.90625 93.40625 18.0625 93.878906 18.027344 C 94.105469 18.035156 94.324219 18 94.535156 17.929688 C 94.714844 17.863281 94.890625 17.78125 95.050781 17.675781 C 95.191406 17.578125 95.320312 17.464844 95.4375 17.339844 C 95.535156 17.234375 95.613281 17.117188 95.675781 16.984375 C 95.6875 16.792969 95.6875 16.585938 95.6875 16.347656 L 95.6875 14.125 Z M 95.699219 14.128906 " fill-opacity="1" fill-rule="nonzero"/></g><path fill="#5b3274" d="M 65.457031 15.347656 C 65.457031 14.964844 65.53125 14.632812 65.683594 14.355469 C 65.84375 14.082031 66.050781 13.847656 66.3125 13.660156 C 66.570312 13.464844 66.863281 13.308594 67.1875 13.191406 C 67.515625 13.066406 67.855469 12.96875 68.203125 12.894531 C 68.558594 12.824219 68.910156 12.773438 69.25 12.746094 C 69.597656 12.71875 69.914062 12.707031 70.203125 12.707031 L 70.203125 12.332031 C 70.203125 12.019531 70.160156 11.75 70.082031 11.527344 C 70 11.296875 69.882812 11.105469 69.734375 10.949219 C 69.589844 10.800781 69.414062 10.6875 69.210938 10.617188 C 69.003906 10.546875 68.773438 10.507812 68.527344 10.507812 C 68.355469 10.507812 68.183594 10.519531 68.015625 10.546875 C 67.847656 10.574219 67.671875 10.625 67.492188 10.695312 C 67.3125 10.757812 67.125 10.851562 66.929688 10.964844 C 66.734375 11.082031 66.519531 11.226562 66.289062 11.394531 L 66.21875 11.351562 L 66.703125 10.347656 C 66.863281 10.277344 67.019531 10.21875 67.171875 10.171875 C 67.324219 10.128906 67.472656 10.09375 67.628906 10.066406 C 67.789062 10.03125 67.949219 10.007812 68.109375 10 C 68.277344 9.992188 68.453125 9.984375 68.632812 9.984375 C 69.132812 9.984375 69.5625 10.050781 69.921875 10.171875 C 70.277344 10.289062 70.566406 10.453125 70.792969 10.667969 C 71.023438 10.882812 71.1875 11.136719 71.289062 11.417969 C 71.394531 11.699219 71.449219 11.996094 71.449219 12.316406 L 71.449219 14.652344 C 71.449219 15.0625 71.453125 15.421875 71.460938 15.722656 C 71.480469 16.019531 71.496094 16.28125 71.515625 16.5 C 71.53125 16.726562 71.550781 16.914062 71.570312 17.0625 C 71.597656 17.207031 71.625 17.328125 71.664062 17.425781 L 71.664062 17.453125 L 70.082031 17.453125 L 70.082031 17.425781 C 70.097656 17.347656 70.113281 17.261719 70.121094 17.171875 C 70.136719 17.074219 70.152344 16.957031 70.160156 16.824219 C 70.0625 16.914062 69.949219 17.003906 69.8125 17.089844 C 69.679688 17.179688 69.523438 17.261719 69.34375 17.332031 C 69.171875 17.40625 68.980469 17.460938 68.769531 17.507812 C 68.554688 17.558594 68.320312 17.585938 68.070312 17.585938 C 67.238281 17.585938 66.59375 17.394531 66.140625 17.011719 C 65.683594 16.617188 65.457031 16.066406 65.457031 15.347656 Z M 70.203125 13.257812 C 69.773438 13.265625 69.359375 13.292969 68.957031 13.335938 C 68.554688 13.382812 68.195312 13.476562 67.882812 13.617188 C 67.578125 13.761719 67.332031 13.96875 67.144531 14.234375 C 66.964844 14.496094 66.878906 14.84375 66.878906 15.28125 C 66.878906 15.84375 67.015625 16.273438 67.292969 16.566406 C 67.578125 16.863281 67.96875 17.011719 68.472656 17.011719 C 68.695312 17.011719 68.902344 16.980469 69.089844 16.917969 C 69.277344 16.855469 69.441406 16.777344 69.585938 16.675781 C 69.738281 16.578125 69.859375 16.472656 69.960938 16.355469 C 70.058594 16.238281 70.136719 16.125 70.1875 16.019531 C 70.195312 15.832031 70.203125 15.628906 70.203125 15.414062 C 70.203125 15.195312 70.203125 14.9375 70.203125 14.652344 Z M 70.203125 13.257812 " fill-opacity="1" fill-rule="nonzero"/><path fill="#5b3274" d="M 74.347656 16.890625 L 76.464844 16.890625 C 76.839844 16.890625 77.183594 16.875 77.496094 16.835938 C 77.808594 16.792969 78.082031 16.742188 78.316406 16.6875 C 78.582031 16.636719 78.824219 16.566406 79.039062 16.488281 L 78.71875 17.507812 C 78.664062 17.507812 78.5625 17.5 78.421875 17.492188 C 78.277344 17.484375 78.132812 17.472656 77.980469 17.464844 C 77.824219 17.464844 77.679688 17.460938 77.539062 17.453125 C 77.402344 17.453125 77.308594 17.453125 77.257812 17.453125 L 72.628906 17.453125 L 72.628906 17.277344 L 77.242188 10.683594 L 75.753906 10.683594 C 75.351562 10.683594 74.984375 10.707031 74.65625 10.75 C 74.324219 10.796875 74.039062 10.84375 73.796875 10.898438 C 73.507812 10.949219 73.25 11.015625 73.019531 11.097656 L 73.488281 10.066406 C 73.550781 10.074219 73.648438 10.085938 73.785156 10.09375 C 73.925781 10.09375 74.070312 10.097656 74.226562 10.105469 C 74.386719 10.117188 74.535156 10.121094 74.667969 10.121094 C 74.808594 10.121094 74.910156 10.121094 74.964844 10.121094 L 78.984375 10.121094 L 78.984375 10.253906 Z M 74.347656 16.890625 " fill-opacity="1" fill-rule="nonzero"/><path fill="#5b3274" d="M 79.859375 15.347656 C 79.859375 14.964844 79.929688 14.632812 80.085938 14.355469 C 80.246094 14.082031 80.453125 13.847656 80.714844 13.660156 C 80.972656 13.464844 81.265625 13.308594 81.585938 13.191406 C 81.914062 13.066406 82.257812 12.96875 82.605469 12.894531 C 82.960938 12.824219 83.308594 12.773438 83.652344 12.746094 C 84 12.71875 84.316406 12.707031 84.605469 12.707031 L 84.605469 12.332031 C 84.605469 12.019531 84.5625 11.75 84.484375 11.527344 C 84.402344 11.296875 84.285156 11.105469 84.132812 10.949219 C 83.992188 10.800781 83.816406 10.6875 83.613281 10.617188 C 83.402344 10.546875 83.175781 10.507812 82.929688 10.507812 C 82.757812 10.507812 82.585938 10.519531 82.417969 10.546875 C 82.246094 10.574219 82.074219 10.625 81.894531 10.695312 C 81.714844 10.757812 81.527344 10.851562 81.332031 10.964844 C 81.136719 11.082031 80.921875 11.226562 80.6875 11.394531 L 80.621094 11.351562 L 81.105469 10.347656 C 81.265625 10.277344 81.417969 10.21875 81.574219 10.171875 C 81.726562 10.128906 81.875 10.09375 82.03125 10.066406 C 82.191406 10.03125 82.351562 10.007812 82.511719 10 C 82.679688 9.992188 82.855469 9.984375 83.035156 9.984375 C 83.535156 9.984375 83.964844 10.050781 84.324219 10.171875 C 84.679688 10.289062 84.96875 10.453125 85.195312 10.667969 C 85.425781 10.882812 85.589844 11.136719 85.691406 11.417969 C 85.796875 11.699219 85.851562 11.996094 85.851562 12.316406 L 85.851562 14.652344 C 85.851562 15.0625 85.855469 15.421875 85.863281 15.722656 C 85.882812 16.019531 85.898438 16.28125 85.917969 16.5 C 85.933594 16.726562 85.953125 16.914062 85.972656 17.0625 C 86 17.207031 86.027344 17.328125 86.066406 17.425781 L 86.066406 17.453125 L 84.484375 17.453125 L 84.484375 17.425781 C 84.5 17.347656 84.511719 17.261719 84.523438 17.171875 C 84.539062 17.074219 84.554688 16.957031 84.5625 16.824219 C 84.464844 16.914062 84.347656 17.003906 84.214844 17.089844 C 84.082031 17.179688 83.921875 17.261719 83.746094 17.332031 C 83.574219 17.40625 83.382812 17.460938 83.167969 17.507812 C 82.953125 17.558594 82.71875 17.585938 82.472656 17.585938 C 81.640625 17.585938 80.996094 17.394531 80.542969 17.011719 C 80.085938 16.617188 79.859375 16.066406 79.859375 15.347656 Z M 84.605469 13.257812 C 84.175781 13.265625 83.757812 13.292969 83.355469 13.335938 C 82.953125 13.382812 82.597656 13.476562 82.285156 13.617188 C 81.980469 13.761719 81.734375 13.96875 81.546875 14.234375 C 81.367188 14.496094 81.277344 14.84375 81.277344 15.28125 C 81.277344 15.84375 81.417969 16.273438 81.695312 16.566406 C 81.980469 16.863281 82.371094 17.011719 82.875 17.011719 C 83.09375 17.011719 83.304688 16.980469 83.492188 16.917969 C 83.679688 16.855469 83.84375 16.777344 83.988281 16.675781 C 84.136719 16.578125 84.261719 16.472656 84.363281 16.355469 C 84.460938 16.238281 84.535156 16.125 84.589844 16.019531 C 84.597656 15.832031 84.605469 15.628906 84.605469 15.414062 C 84.605469 15.195312 84.605469 14.9375 84.605469 14.652344 Z M 84.605469 13.257812 " fill-opacity="1" fill-rule="nonzero"/><path fill="#5b3274" d="M 57.167969 14.703125 C 57.167969 15.265625 57.175781 15.761719 57.195312 16.191406 C 57.210938 16.613281 57.226562 16.976562 57.246094 17.277344 C 57.273438 17.582031 57.304688 17.835938 57.339844 18.042969 C 57.375 18.25 57.414062 18.425781 57.460938 18.566406 L 57.460938 18.605469 L 55.0625 18.605469 L 55.0625 18.566406 C 55.105469 18.425781 55.144531 18.25 55.183594 18.042969 C 55.214844 17.835938 55.242188 17.582031 55.261719 17.277344 C 55.289062 16.976562 55.308594 16.613281 55.332031 16.191406 C 55.347656 15.773438 55.355469 15.277344 55.355469 14.703125 L 55.355469 8.214844 C 55.355469 7.652344 55.347656 7.164062 55.332031 6.738281 C 55.308594 6.3125 55.289062 5.945312 55.261719 5.640625 C 55.242188 5.339844 55.214844 5.085938 55.183594 4.875 C 55.144531 4.660156 55.105469 4.488281 55.0625 4.351562 L 55.0625 4.3125 L 55.492188 4.351562 C 55.617188 4.363281 55.753906 4.375 55.90625 4.378906 C 56.066406 4.378906 56.230469 4.378906 56.390625 4.378906 C 56.648438 4.378906 56.996094 4.351562 57.433594 4.285156 C 57.882812 4.226562 58.449219 4.191406 59.136719 4.191406 C 59.773438 4.191406 60.359375 4.28125 60.894531 4.449219 C 61.4375 4.617188 61.914062 4.871094 62.316406 5.210938 C 62.71875 5.542969 63.027344 5.949219 63.242188 6.429688 C 63.460938 6.914062 63.574219 7.460938 63.574219 8.066406 C 63.574219 8.550781 63.511719 9 63.386719 9.40625 C 63.269531 9.808594 63.101562 10.179688 62.878906 10.507812 C 62.652344 10.839844 62.386719 11.132812 62.074219 11.390625 C 61.757812 11.652344 61.410156 11.867188 61.027344 12.035156 L 64.527344 16.957031 C 64.695312 17.199219 64.855469 17.410156 65.011719 17.585938 C 65.160156 17.765625 65.304688 17.921875 65.4375 18.054688 C 65.574219 18.183594 65.699219 18.289062 65.828125 18.378906 C 65.960938 18.457031 66.089844 18.523438 66.21875 18.566406 L 66.21875 18.605469 L 63.347656 18.605469 C 63.320312 18.480469 63.253906 18.316406 63.148438 18.109375 C 63.039062 17.894531 62.910156 17.6875 62.757812 17.480469 L 59.230469 12.503906 C 59.078125 12.515625 58.925781 12.527344 58.777344 12.546875 C 58.621094 12.554688 58.46875 12.558594 58.308594 12.558594 C 58.117188 12.558594 57.929688 12.554688 57.742188 12.546875 C 57.554688 12.527344 57.363281 12.5 57.167969 12.464844 Z M 57.167969 11.6875 C 57.34375 11.722656 57.527344 11.75 57.71875 11.769531 C 57.90625 11.789062 58.082031 11.792969 58.253906 11.792969 C 58.753906 11.792969 59.207031 11.722656 59.621094 11.578125 C 60.03125 11.429688 60.378906 11.203125 60.667969 10.894531 C 60.960938 10.585938 61.1875 10.199219 61.351562 9.742188 C 61.511719 9.289062 61.589844 8.757812 61.589844 8.148438 C 61.589844 7.648438 61.53125 7.195312 61.417969 6.792969 C 61.300781 6.382812 61.128906 6.039062 60.90625 5.761719 C 60.691406 5.476562 60.414062 5.257812 60.078125 5.105469 C 59.734375 4.945312 59.339844 4.863281 58.882812 4.863281 C 58.425781 4.863281 58.058594 4.890625 57.785156 4.945312 C 57.515625 4.992188 57.308594 5.039062 57.167969 5.089844 Z M 57.167969 11.6875 " fill-opacity="1" fill-rule="nonzero"/></svg>