<svg xmlns="http://www.w3.org/2000/svg" xmlns:xlink="http://www.w3.org/1999/xlink" width="200" zoomAndPan="magnify" viewBox="0 0 150 56.249996" height="75" preserveAspectRatio="xMidYMid meet" version="1.0"><defs><g/><clipPath id="1516202e24"><path d="M 5.445312 7.746094 L 144.617188 7.746094 L 144.617188 49.957031 L 5.445312 49.957031 Z M 5.445312 7.746094 " clip-rule="nonzero"/></clipPath><clipPath id="b11939fe86"><path d="M 8 7.746094 L 142 7.746094 C 142.679688 7.746094 143.328125 8.015625 143.804688 8.492188 C 144.285156 8.972656 144.554688 9.621094 144.554688 10.300781 L 144.554688 47.40625 C 144.554688 48.082031 144.285156 48.730469 143.804688 49.210938 C 143.328125 49.691406 142.679688 49.957031 142 49.957031 L 8 49.957031 C 7.320312 49.957031 6.671875 49.691406 6.195312 49.210938 C 5.714844 48.730469 5.445312 48.082031 5.445312 47.40625 L 5.445312 10.300781 C 5.445312 9.621094 5.714844 8.972656 6.195312 8.492188 C 6.671875 8.015625 7.320312 7.746094 8 7.746094 Z M 8 7.746094 " clip-rule="nonzero"/></clipPath></defs><g clip-path="url(#1516202e24)"><g clip-path="url(#b11939fe86)"><path fill="#ffffff" d="M 5.445312 7.746094 L 144.617188 7.746094 L 144.617188 49.957031 L 5.445312 49.957031 Z M 5.445312 7.746094 " fill-opacity="1" fill-rule="nonzero"/></g></g><g fill="#e11f49" fill-opacity="1"><g transform="translate(13.931239, 30.25479)"><g><path d="M 3.375 -15.34375 L 3.375 -8.6875 L 9.890625 -15.34375 L 12.390625 -15.34375 L 5.5 -8.4375 L 12.515625 0 L 9.921875 0 L 4.15625 -7.140625 L 3.375 -6.40625 L 3.375 0 L 1.46875 0 L 1.46875 -15.34375 Z M 3.375 -15.34375 "/></g></g></g><g fill="#e11f49" fill-opacity="1"><g transform="translate(26.138074, 30.25479)"><g><path d="M 8.328125 -7.9375 L 8.359375 -7.9375 L 8.359375 -9.515625 L 10.1875 -9.515625 L 10.1875 0 L 8.359375 0 L 8.359375 -1.484375 L 8.328125 -1.484375 C 7.953125 -0.941406 7.488281 -0.503906 6.9375 -0.171875 C 6.394531 0.160156 5.78125 0.328125 5.09375 0.328125 C 3.726562 0.328125 2.625 -0.160156 1.78125 -1.140625 C 0.945312 -2.128906 0.53125 -3.359375 0.53125 -4.828125 C 0.53125 -5.753906 0.734375 -6.601562 1.140625 -7.375 C 1.546875 -8.15625 2.085938 -8.753906 2.765625 -9.171875 C 3.441406 -9.597656 4.195312 -9.8125 5.03125 -9.8125 C 5.71875 -9.8125 6.34375 -9.640625 6.90625 -9.296875 C 7.46875 -8.953125 7.941406 -8.5 8.328125 -7.9375 Z M 8.46875 -4.765625 C 8.46875 -5.796875 8.175781 -6.617188 7.59375 -7.234375 C 7.007812 -7.859375 6.257812 -8.171875 5.34375 -8.171875 C 4.488281 -8.171875 3.773438 -7.835938 3.203125 -7.171875 C 2.640625 -6.515625 2.359375 -5.710938 2.359375 -4.765625 C 2.359375 -3.785156 2.640625 -2.960938 3.203125 -2.296875 C 3.773438 -1.628906 4.5 -1.296875 5.375 -1.296875 C 6.289062 -1.296875 7.035156 -1.617188 7.609375 -2.265625 C 8.179688 -2.910156 8.46875 -3.742188 8.46875 -4.765625 Z M 8.46875 -4.765625 "/></g></g></g><g fill="#e11f49" fill-opacity="1"><g transform="translate(37.449738, 30.25479)"><g><path d="M 3.171875 -17.65625 L 3.171875 0 L 1.34375 0 L 1.34375 -17.65625 Z M 3.171875 -17.65625 "/></g></g></g><g fill="#e11f49" fill-opacity="1"><g transform="translate(41.966269, 30.25479)"><g><path d="M 8.328125 -7.9375 L 8.359375 -7.9375 L 8.359375 -9.515625 L 10.1875 -9.515625 L 10.1875 0 L 8.359375 0 L 8.359375 -1.484375 L 8.328125 -1.484375 C 7.953125 -0.941406 7.488281 -0.503906 6.9375 -0.171875 C 6.394531 0.160156 5.78125 0.328125 5.09375 0.328125 C 3.726562 0.328125 2.625 -0.160156 1.78125 -1.140625 C 0.945312 -2.128906 0.53125 -3.359375 0.53125 -4.828125 C 0.53125 -5.753906 0.734375 -6.601562 1.140625 -7.375 C 1.546875 -8.15625 2.085938 -8.753906 2.765625 -9.171875 C 3.441406 -9.597656 4.195312 -9.8125 5.03125 -9.8125 C 5.71875 -9.8125 6.34375 -9.640625 6.90625 -9.296875 C 7.46875 -8.953125 7.941406 -8.5 8.328125 -7.9375 Z M 8.46875 -4.765625 C 8.46875 -5.796875 8.175781 -6.617188 7.59375 -7.234375 C 7.007812 -7.859375 6.257812 -8.171875 5.34375 -8.171875 C 4.488281 -8.171875 3.773438 -7.835938 3.203125 -7.171875 C 2.640625 -6.515625 2.359375 -5.710938 2.359375 -4.765625 C 2.359375 -3.785156 2.640625 -2.960938 3.203125 -2.296875 C 3.773438 -1.628906 4.5 -1.296875 5.375 -1.296875 C 6.289062 -1.296875 7.035156 -1.617188 7.609375 -2.265625 C 8.179688 -2.910156 8.46875 -3.742188 8.46875 -4.765625 Z M 8.46875 -4.765625 "/></g></g></g><g fill="#e11f49" fill-opacity="1"><g transform="translate(53.277933, 30.25479)"><g><path d="M 8.34375 -8.109375 C 8.632812 -8.628906 9.046875 -9.039062 9.578125 -9.34375 C 10.109375 -9.65625 10.671875 -9.8125 11.265625 -9.8125 C 12.316406 -9.8125 13.101562 -9.46875 13.625 -8.78125 C 14.15625 -8.09375 14.421875 -7.097656 14.421875 -5.796875 L 14.421875 0 L 12.59375 0 L 12.59375 -5.46875 C 12.59375 -6.394531 12.445312 -7.078125 12.15625 -7.515625 C 11.875 -7.953125 11.429688 -8.171875 10.828125 -8.171875 C 10.128906 -8.171875 9.601562 -7.910156 9.25 -7.390625 C 8.90625 -6.867188 8.734375 -6 8.734375 -4.78125 L 8.734375 0 L 6.890625 0 L 6.890625 -5.140625 C 6.890625 -6.210938 6.75 -6.984375 6.46875 -7.453125 C 6.195312 -7.929688 5.753906 -8.171875 5.140625 -8.171875 C 4.453125 -8.171875 3.925781 -7.910156 3.5625 -7.390625 C 3.207031 -6.867188 3.03125 -6 3.03125 -4.78125 L 3.03125 0 L 1.203125 0 L 1.203125 -9.515625 L 3.03125 -9.515625 L 3.03125 -8.328125 L 3.078125 -8.328125 C 3.347656 -8.742188 3.707031 -9.09375 4.15625 -9.375 C 4.613281 -9.664062 5.09375 -9.8125 5.59375 -9.8125 C 6.207031 -9.8125 6.738281 -9.660156 7.1875 -9.359375 C 7.644531 -9.054688 8.03125 -8.640625 8.34375 -8.109375 Z M 8.34375 -8.109375 "/></g></g></g><g fill="#e11f49" fill-opacity="1"><g transform="translate(68.882335, 30.25479)"><g><path d="M 5.609375 -7.28125 L 5.609375 -5.75 L 1.15625 -5.75 L 1.15625 -7.28125 Z M 5.609375 -7.28125 "/></g></g></g><g fill="#e11f49" fill-opacity="1"><g transform="translate(75.636784, 30.25479)"><g><path d="M 9.625 -4.625 L 9.625 -4.453125 L 2.359375 -4.453125 C 2.390625 -3.535156 2.675781 -2.78125 3.21875 -2.1875 C 3.769531 -1.59375 4.441406 -1.296875 5.234375 -1.296875 C 5.929688 -1.296875 6.488281 -1.460938 6.90625 -1.796875 C 7.332031 -2.128906 7.722656 -2.582031 8.078125 -3.15625 L 9.625 -2.28125 C 9.175781 -1.445312 8.5625 -0.800781 7.78125 -0.34375 C 7 0.101562 6.140625 0.328125 5.203125 0.328125 C 3.835938 0.328125 2.71875 -0.128906 1.84375 -1.046875 C 0.96875 -1.972656 0.53125 -3.179688 0.53125 -4.671875 C 0.53125 -6.234375 0.941406 -7.476562 1.765625 -8.40625 C 2.597656 -9.34375 3.734375 -9.8125 5.171875 -9.8125 C 6.554688 -9.8125 7.644531 -9.359375 8.4375 -8.453125 C 9.226562 -7.546875 9.625 -6.269531 9.625 -4.625 Z M 7.796875 -5.84375 C 7.679688 -6.570312 7.394531 -7.148438 6.9375 -7.578125 C 6.488281 -8.003906 5.890625 -8.21875 5.140625 -8.21875 C 4.453125 -8.21875 3.859375 -7.988281 3.359375 -7.53125 C 2.867188 -7.082031 2.570312 -6.519531 2.46875 -5.84375 Z M 7.796875 -5.84375 "/></g></g></g><g fill="#e11f49" fill-opacity="1"><g transform="translate(85.565007, 30.25479)"><g><path d="M 5.609375 -7.28125 L 5.609375 -5.75 L 1.15625 -5.75 L 1.15625 -7.28125 Z M 5.609375 -7.28125 "/></g></g></g><g fill="#e11f49" fill-opacity="1"><g transform="translate(92.319455, 30.25479)"><g><path d="M 4.046875 -15.34375 C 5.378906 -15.34375 6.425781 -15.203125 7.1875 -14.921875 C 7.957031 -14.640625 8.59375 -14.144531 9.09375 -13.4375 C 9.59375 -12.726562 9.84375 -11.90625 9.84375 -10.96875 C 9.84375 -9.820312 9.5 -8.847656 8.8125 -8.046875 C 8.132812 -7.253906 7.253906 -6.796875 6.171875 -6.671875 L 11 0 L 8.6875 0 L 4.171875 -6.484375 L 3.375 -6.484375 L 3.375 0 L 1.46875 0 L 1.46875 -15.34375 Z M 3.375 -8.078125 L 3.96875 -8.078125 C 5.4375 -8.078125 6.484375 -8.3125 7.109375 -8.78125 C 7.742188 -9.25 8.0625 -9.953125 8.0625 -10.890625 C 8.0625 -11.835938 7.71875 -12.53125 7.03125 -12.96875 C 6.34375 -13.40625 5.285156 -13.625 3.859375 -13.625 L 3.375 -13.625 Z M 3.375 -8.078125 "/></g></g></g><g fill="#e11f49" fill-opacity="1"><g transform="translate(103.366642, 30.25479)"><g><path d="M 8.328125 -7.9375 L 8.359375 -7.9375 L 8.359375 -9.515625 L 10.1875 -9.515625 L 10.1875 0 L 8.359375 0 L 8.359375 -1.484375 L 8.328125 -1.484375 C 7.953125 -0.941406 7.488281 -0.503906 6.9375 -0.171875 C 6.394531 0.160156 5.78125 0.328125 5.09375 0.328125 C 3.726562 0.328125 2.625 -0.160156 1.78125 -1.140625 C 0.945312 -2.128906 0.53125 -3.359375 0.53125 -4.828125 C 0.53125 -5.753906 0.734375 -6.601562 1.140625 -7.375 C 1.546875 -8.15625 2.085938 -8.753906 2.765625 -9.171875 C 3.441406 -9.597656 4.195312 -9.8125 5.03125 -9.8125 C 5.71875 -9.8125 6.34375 -9.640625 6.90625 -9.296875 C 7.46875 -8.953125 7.941406 -8.5 8.328125 -7.9375 Z M 8.46875 -4.765625 C 8.46875 -5.796875 8.175781 -6.617188 7.59375 -7.234375 C 7.007812 -7.859375 6.257812 -8.171875 5.34375 -8.171875 C 4.488281 -8.171875 3.773438 -7.835938 3.203125 -7.171875 C 2.640625 -6.515625 2.359375 -5.710938 2.359375 -4.765625 C 2.359375 -3.785156 2.640625 -2.960938 3.203125 -2.296875 C 3.773438 -1.628906 4.5 -1.296875 5.375 -1.296875 C 6.289062 -1.296875 7.035156 -1.617188 7.609375 -2.265625 C 8.179688 -2.910156 8.46875 -3.742188 8.46875 -4.765625 Z M 8.46875 -4.765625 "/></g></g></g><g fill="#e11f49" fill-opacity="1"><g transform="translate(114.678311, 30.25479)"><g><path d="M 10.046875 -9.515625 L 3.59375 -1.703125 L 9.78125 -1.703125 L 9.78125 0 L 0.046875 0 L 6.484375 -7.8125 L 1.140625 -7.8125 L 1.140625 -9.515625 Z M 10.046875 -9.515625 "/></g></g></g><g fill="#e11f49" fill-opacity="1"><g transform="translate(124.748947, 30.25479)"><g><path d="M 8.328125 -7.9375 L 8.359375 -7.9375 L 8.359375 -9.515625 L 10.1875 -9.515625 L 10.1875 0 L 8.359375 0 L 8.359375 -1.484375 L 8.328125 -1.484375 C 7.953125 -0.941406 7.488281 -0.503906 6.9375 -0.171875 C 6.394531 0.160156 5.78125 0.328125 5.09375 0.328125 C 3.726562 0.328125 2.625 -0.160156 1.78125 -1.140625 C 0.945312 -2.128906 0.53125 -3.359375 0.53125 -4.828125 C 0.53125 -5.753906 0.734375 -6.601562 1.140625 -7.375 C 1.546875 -8.15625 2.085938 -8.753906 2.765625 -9.171875 C 3.441406 -9.597656 4.195312 -9.8125 5.03125 -9.8125 C 5.71875 -9.8125 6.34375 -9.640625 6.90625 -9.296875 C 7.46875 -8.953125 7.941406 -8.5 8.328125 -7.9375 Z M 8.46875 -4.765625 C 8.46875 -5.796875 8.175781 -6.617188 7.59375 -7.234375 C 7.007812 -7.859375 6.257812 -8.171875 5.34375 -8.171875 C 4.488281 -8.171875 3.773438 -7.835938 3.203125 -7.171875 C 2.640625 -6.515625 2.359375 -5.710938 2.359375 -4.765625 C 2.359375 -3.785156 2.640625 -2.960938 3.203125 -2.296875 C 3.773438 -1.628906 4.5 -1.296875 5.375 -1.296875 C 6.289062 -1.296875 7.035156 -1.617188 7.609375 -2.265625 C 8.179688 -2.910156 8.46875 -3.742188 8.46875 -4.765625 Z M 8.46875 -4.765625 "/></g></g></g><g fill="#000000" fill-opacity="1"><g transform="translate(32.80457, 42.85231)"><g><path d="M 1.34375 -2.359375 L 1.34375 -0.484375 L 3.890625 -0.484375 L 3.890625 0 L 0.75 0 L 0.75 -5 L 3.828125 -5 L 3.828125 -4.515625 L 1.34375 -4.515625 L 1.34375 -2.84375 L 3.546875 -2.84375 L 3.546875 -2.359375 Z M 1.34375 -2.359375 "/></g></g></g><g fill="#000000" fill-opacity="1"><g transform="translate(37.83371, 42.85231)"><g><path d="M 2.296875 -2.171875 L 0.359375 -2.171875 L 0.359375 -2.671875 L 2.296875 -2.671875 Z M 2.296875 -2.171875 "/></g></g></g><g fill="#000000" fill-opacity="1"><g transform="translate(41.29546, 42.85231)"><g><path d="M 0.75 0 L 0.75 -5 L 2.65625 -5 C 2.957031 -5 3.210938 -4.945312 3.421875 -4.84375 C 3.640625 -4.75 3.800781 -4.609375 3.90625 -4.421875 C 4.019531 -4.242188 4.078125 -4.03125 4.078125 -3.78125 C 4.078125 -3.5625 4.015625 -3.363281 3.890625 -3.1875 C 3.773438 -3.019531 3.609375 -2.882812 3.390625 -2.78125 L 3.390625 -2.71875 C 3.722656 -2.632812 3.972656 -2.484375 4.140625 -2.265625 C 4.316406 -2.046875 4.40625 -1.773438 4.40625 -1.453125 C 4.40625 -0.984375 4.269531 -0.625 4 -0.375 C 3.726562 -0.125 3.328125 0 2.796875 0 Z M 2.625 -2.90625 C 2.894531 -2.90625 3.109375 -2.972656 3.265625 -3.109375 C 3.421875 -3.253906 3.5 -3.457031 3.5 -3.71875 C 3.5 -3.976562 3.421875 -4.175781 3.265625 -4.3125 C 3.117188 -4.445312 2.90625 -4.515625 2.625 -4.515625 L 1.34375 -4.515625 L 1.34375 -2.90625 Z M 2.75 -0.484375 C 3.457031 -0.484375 3.8125 -0.804688 3.8125 -1.453125 C 3.8125 -2.085938 3.457031 -2.40625 2.75 -2.40625 L 1.34375 -2.40625 L 1.34375 -0.484375 Z M 2.75 -0.484375 "/></g></g></g><g fill="#000000" fill-opacity="1"><g transform="translate(46.911945, 42.85231)"><g><path d="M 2.15625 0.078125 C 1.800781 0.078125 1.492188 0.00390625 1.234375 -0.140625 C 0.972656 -0.296875 0.769531 -0.519531 0.625 -0.8125 C 0.476562 -1.113281 0.40625 -1.472656 0.40625 -1.890625 C 0.40625 -2.304688 0.476562 -2.660156 0.625 -2.953125 C 0.769531 -3.242188 0.972656 -3.460938 1.234375 -3.609375 C 1.492188 -3.765625 1.800781 -3.84375 2.15625 -3.84375 C 2.519531 -3.84375 2.832031 -3.765625 3.09375 -3.609375 C 3.351562 -3.460938 3.550781 -3.242188 3.6875 -2.953125 C 3.832031 -2.660156 3.90625 -2.304688 3.90625 -1.890625 C 3.90625 -1.472656 3.832031 -1.113281 3.6875 -0.8125 C 3.550781 -0.519531 3.351562 -0.296875 3.09375 -0.140625 C 2.832031 0.00390625 2.519531 0.078125 2.15625 0.078125 Z M 2.15625 -0.421875 C 2.539062 -0.421875 2.832031 -0.539062 3.03125 -0.78125 C 3.226562 -1.019531 3.328125 -1.390625 3.328125 -1.890625 C 3.328125 -2.378906 3.226562 -2.742188 3.03125 -2.984375 C 2.832031 -3.222656 2.539062 -3.34375 2.15625 -3.34375 C 1.78125 -3.34375 1.492188 -3.222656 1.296875 -2.984375 C 1.097656 -2.742188 1 -2.378906 1 -1.890625 C 1 -1.390625 1.097656 -1.019531 1.296875 -0.78125 C 1.492188 -0.539062 1.78125 -0.421875 2.15625 -0.421875 Z M 2.15625 -0.421875 "/></g></g></g><g fill="#000000" fill-opacity="1"><g transform="translate(52.046944, 42.85231)"><g><path d="M 2.15625 0.078125 C 1.800781 0.078125 1.492188 0.00390625 1.234375 -0.140625 C 0.972656 -0.296875 0.769531 -0.519531 0.625 -0.8125 C 0.476562 -1.113281 0.40625 -1.472656 0.40625 -1.890625 C 0.40625 -2.304688 0.476562 -2.660156 0.625 -2.953125 C 0.769531 -3.242188 0.972656 -3.460938 1.234375 -3.609375 C 1.492188 -3.765625 1.800781 -3.84375 2.15625 -3.84375 C 2.519531 -3.84375 2.832031 -3.765625 3.09375 -3.609375 C 3.351562 -3.460938 3.550781 -3.242188 3.6875 -2.953125 C 3.832031 -2.660156 3.90625 -2.304688 3.90625 -1.890625 C 3.90625 -1.472656 3.832031 -1.113281 3.6875 -0.8125 C 3.550781 -0.519531 3.351562 -0.296875 3.09375 -0.140625 C 2.832031 0.00390625 2.519531 0.078125 2.15625 0.078125 Z M 2.15625 -0.421875 C 2.539062 -0.421875 2.832031 -0.539062 3.03125 -0.78125 C 3.226562 -1.019531 3.328125 -1.390625 3.328125 -1.890625 C 3.328125 -2.378906 3.226562 -2.742188 3.03125 -2.984375 C 2.832031 -3.222656 2.539062 -3.34375 2.15625 -3.34375 C 1.78125 -3.34375 1.492188 -3.222656 1.296875 -2.984375 C 1.097656 -2.742188 1 -2.378906 1 -1.890625 C 1 -1.390625 1.097656 -1.019531 1.296875 -0.78125 C 1.492188 -0.539062 1.78125 -0.421875 2.15625 -0.421875 Z M 2.15625 -0.421875 "/></g></g></g><g fill="#000000" fill-opacity="1"><g transform="translate(57.181944, 42.85231)"><g><path d="M 0.65625 0 L 0.65625 -5.28125 L 1.21875 -5.28125 L 1.21875 -2.203125 L 1.3125 -2.203125 L 2.703125 -3.765625 L 3.296875 -3.765625 L 3.296875 -3.6875 L 1.796875 -2 L 3.4375 -0.078125 L 3.4375 0 L 2.8125 0 L 1.3125 -1.75 L 1.21875 -1.75 L 1.21875 0 Z M 0.65625 0 "/></g></g></g><g fill="#000000" fill-opacity="1"><g transform="translate(61.497393, 42.85231)"><g><path d="M 1.71875 0.078125 C 1.476562 0.078125 1.257812 0.046875 1.0625 -0.015625 C 0.863281 -0.078125 0.691406 -0.160156 0.546875 -0.265625 C 0.410156 -0.378906 0.3125 -0.507812 0.25 -0.65625 L 0.578125 -0.984375 L 0.65625 -0.984375 C 0.78125 -0.804688 0.925781 -0.664062 1.09375 -0.5625 C 1.269531 -0.46875 1.476562 -0.421875 1.71875 -0.421875 C 2 -0.421875 2.210938 -0.472656 2.359375 -0.578125 C 2.503906 -0.691406 2.578125 -0.847656 2.578125 -1.046875 C 2.578125 -1.191406 2.53125 -1.3125 2.4375 -1.40625 C 2.351562 -1.507812 2.210938 -1.582031 2.015625 -1.625 L 1.375 -1.78125 C 1.039062 -1.863281 0.796875 -1.992188 0.640625 -2.171875 C 0.484375 -2.347656 0.40625 -2.566406 0.40625 -2.828125 C 0.40625 -3.035156 0.457031 -3.210938 0.5625 -3.359375 C 0.664062 -3.515625 0.816406 -3.632812 1.015625 -3.71875 C 1.210938 -3.800781 1.445312 -3.84375 1.71875 -3.84375 C 2.0625 -3.84375 2.332031 -3.789062 2.53125 -3.6875 C 2.726562 -3.59375 2.882812 -3.460938 3 -3.296875 L 2.6875 -2.984375 L 2.609375 -2.984375 C 2.492188 -3.117188 2.363281 -3.21875 2.21875 -3.28125 C 2.070312 -3.34375 1.90625 -3.375 1.71875 -3.375 C 1.46875 -3.375 1.273438 -3.328125 1.140625 -3.234375 C 1.003906 -3.148438 0.9375 -3.023438 0.9375 -2.859375 C 0.9375 -2.703125 0.984375 -2.578125 1.078125 -2.484375 C 1.171875 -2.390625 1.335938 -2.316406 1.578125 -2.265625 L 2.203125 -2.109375 C 2.523438 -2.035156 2.757812 -1.90625 2.90625 -1.71875 C 3.050781 -1.539062 3.125 -1.316406 3.125 -1.046875 C 3.125 -0.828125 3.070312 -0.632812 2.96875 -0.46875 C 2.863281 -0.300781 2.703125 -0.164062 2.484375 -0.0625 C 2.273438 0.03125 2.019531 0.078125 1.71875 0.078125 Z M 1.71875 0.078125 "/></g></g></g><g fill="#000000" fill-opacity="1"><g transform="translate(65.792353, 42.85231)"><g/></g></g><g fill="#000000" fill-opacity="1"><g transform="translate(68.31845, 42.85231)"><g><path d="M 2.09375 0.078125 C 1.75 0.078125 1.445312 0.015625 1.1875 -0.109375 C 0.925781 -0.234375 0.722656 -0.410156 0.578125 -0.640625 C 0.441406 -0.867188 0.375 -1.128906 0.375 -1.421875 C 0.375 -1.773438 0.460938 -2.0625 0.640625 -2.28125 C 0.816406 -2.5 1.078125 -2.675781 1.421875 -2.8125 L 1.421875 -2.890625 C 1.253906 -3.097656 1.132812 -3.28125 1.0625 -3.4375 C 1 -3.601562 0.96875 -3.785156 0.96875 -3.984375 C 0.96875 -4.191406 1.015625 -4.375 1.109375 -4.53125 C 1.210938 -4.695312 1.351562 -4.828125 1.53125 -4.921875 C 1.71875 -5.015625 1.9375 -5.0625 2.1875 -5.0625 C 2.425781 -5.0625 2.632812 -5.019531 2.8125 -4.9375 C 2.988281 -4.863281 3.125 -4.75 3.21875 -4.59375 C 3.3125 -4.445312 3.359375 -4.269531 3.359375 -4.0625 C 3.359375 -3.75 3.265625 -3.484375 3.078125 -3.265625 C 2.890625 -3.046875 2.609375 -2.867188 2.234375 -2.734375 L 2.21875 -2.65625 L 3.390625 -1.109375 C 3.484375 -1.273438 3.546875 -1.46875 3.578125 -1.6875 C 3.617188 -1.914062 3.640625 -2.164062 3.640625 -2.4375 L 3.640625 -2.546875 L 4.140625 -2.546875 C 4.140625 -1.753906 4 -1.140625 3.71875 -0.703125 C 3.820312 -0.597656 3.90625 -0.523438 3.96875 -0.484375 C 4.039062 -0.453125 4.109375 -0.4375 4.171875 -0.4375 C 4.242188 -0.4375 4.3125 -0.445312 4.375 -0.46875 L 4.421875 -0.453125 L 4.515625 -0.046875 C 4.472656 -0.015625 4.414062 0.00390625 4.34375 0.015625 C 4.28125 0.0351562 4.210938 0.046875 4.140625 0.046875 C 3.984375 0.046875 3.84375 0.015625 3.71875 -0.046875 C 3.601562 -0.117188 3.5 -0.222656 3.40625 -0.359375 L 3.34375 -0.359375 C 3.0625 -0.0664062 2.644531 0.078125 2.09375 0.078125 Z M 1.921875 -3.046875 C 2.222656 -3.171875 2.445312 -3.304688 2.59375 -3.453125 C 2.738281 -3.609375 2.8125 -3.800781 2.8125 -4.03125 C 2.8125 -4.207031 2.753906 -4.347656 2.640625 -4.453125 C 2.535156 -4.554688 2.382812 -4.609375 2.1875 -4.609375 C 1.988281 -4.609375 1.828125 -4.550781 1.703125 -4.4375 C 1.585938 -4.320312 1.53125 -4.164062 1.53125 -3.96875 C 1.53125 -3.820312 1.554688 -3.679688 1.609375 -3.546875 C 1.671875 -3.421875 1.773438 -3.253906 1.921875 -3.046875 Z M 2.109375 -0.421875 C 2.492188 -0.421875 2.804688 -0.519531 3.046875 -0.71875 L 1.65625 -2.515625 C 1.4375 -2.410156 1.265625 -2.269531 1.140625 -2.09375 C 1.023438 -1.925781 0.96875 -1.71875 0.96875 -1.46875 C 0.96875 -1.238281 1.015625 -1.046875 1.109375 -0.890625 C 1.203125 -0.742188 1.332031 -0.628906 1.5 -0.546875 C 1.675781 -0.460938 1.878906 -0.421875 2.109375 -0.421875 Z M 2.109375 -0.421875 "/></g></g></g><g fill="#000000" fill-opacity="1"><g transform="translate(73.767609, 42.85231)"><g/></g></g><g fill="#000000" fill-opacity="1"><g transform="translate(76.293706, 42.85231)"><g><path d="M 1.34375 -5 L 1.34375 -0.484375 L 3.75 -0.484375 L 3.75 0 L 0.75 0 L 0.75 -5 Z M 1.34375 -5 "/></g></g></g><g fill="#000000" fill-opacity="1"><g transform="translate(81.063322, 42.85231)"><g><path d="M 0.9375 -4.5 C 0.820312 -4.5 0.722656 -4.535156 0.640625 -4.609375 C 0.566406 -4.679688 0.53125 -4.773438 0.53125 -4.890625 C 0.53125 -5.003906 0.566406 -5.097656 0.640625 -5.171875 C 0.722656 -5.242188 0.820312 -5.28125 0.9375 -5.28125 C 1.050781 -5.28125 1.144531 -5.242188 1.21875 -5.171875 C 1.300781 -5.097656 1.34375 -5.003906 1.34375 -4.890625 C 1.34375 -4.773438 1.300781 -4.679688 1.21875 -4.609375 C 1.144531 -4.535156 1.050781 -4.5 0.9375 -4.5 Z M 0.65625 0 L 0.65625 -3.765625 L 1.21875 -3.765625 L 1.21875 0 Z M 0.65625 0 "/></g></g></g><g fill="#000000" fill-opacity="1"><g transform="translate(83.743085, 42.85231)"><g><path d="M 2.546875 -0.59375 L 2.734375 -0.203125 C 2.640625 -0.109375 2.519531 -0.0390625 2.375 0 C 2.226562 0.0507812 2.070312 0.078125 1.90625 0.078125 C 1.1875 0.078125 0.828125 -0.285156 0.828125 -1.015625 L 0.828125 -3.3125 L 0.171875 -3.3125 L 0.171875 -3.78125 L 0.828125 -3.78125 L 0.828125 -4.5625 L 1.390625 -4.65625 L 1.390625 -3.78125 L 2.59375 -3.78125 L 2.59375 -3.3125 L 1.390625 -3.3125 L 1.390625 -1.078125 C 1.390625 -0.640625 1.578125 -0.421875 1.953125 -0.421875 C 2.148438 -0.421875 2.328125 -0.476562 2.484375 -0.59375 Z M 2.546875 -0.59375 "/></g></g></g><g fill="#000000" fill-opacity="1"><g transform="translate(87.423383, 42.85231)"><g><path d="M 3.59375 -1.75 L 1 -1.75 C 1.019531 -1.289062 1.128906 -0.953125 1.328125 -0.734375 C 1.535156 -0.523438 1.816406 -0.421875 2.171875 -0.421875 C 2.441406 -0.421875 2.65625 -0.46875 2.8125 -0.5625 C 2.976562 -0.664062 3.109375 -0.816406 3.203125 -1.015625 L 3.28125 -1.015625 L 3.640625 -0.8125 C 3.523438 -0.53125 3.347656 -0.3125 3.109375 -0.15625 C 2.867188 0 2.554688 0.078125 2.171875 0.078125 C 1.804688 0.078125 1.492188 0.00390625 1.234375 -0.140625 C 0.972656 -0.285156 0.769531 -0.503906 0.625 -0.796875 C 0.476562 -1.085938 0.40625 -1.453125 0.40625 -1.890625 C 0.40625 -2.316406 0.476562 -2.675781 0.625 -2.96875 C 0.78125 -3.257812 0.988281 -3.476562 1.25 -3.625 C 1.507812 -3.769531 1.804688 -3.84375 2.140625 -3.84375 C 2.617188 -3.84375 2.992188 -3.707031 3.265625 -3.4375 C 3.535156 -3.164062 3.671875 -2.757812 3.671875 -2.21875 C 3.671875 -2.007812 3.671875 -1.867188 3.671875 -1.796875 Z M 3.125 -2.21875 C 3.113281 -2.625 3.023438 -2.914062 2.859375 -3.09375 C 2.691406 -3.28125 2.453125 -3.375 2.140625 -3.375 C 1.804688 -3.375 1.546875 -3.28125 1.359375 -3.09375 C 1.171875 -2.90625 1.054688 -2.613281 1.015625 -2.21875 Z M 3.125 -2.21875 "/></g></g></g><g fill="#000000" fill-opacity="1"><g transform="translate(92.251051, 42.85231)"><g><path d="M 0.65625 0 L 0.65625 -3.765625 L 1.1875 -3.765625 L 1.1875 -3.171875 L 1.265625 -3.15625 C 1.429688 -3.582031 1.757812 -3.796875 2.25 -3.796875 C 2.507812 -3.796875 2.703125 -3.753906 2.828125 -3.671875 L 2.6875 -3.1875 L 2.609375 -3.171875 C 2.472656 -3.242188 2.320312 -3.28125 2.15625 -3.28125 C 1.851562 -3.28125 1.617188 -3.164062 1.453125 -2.9375 C 1.296875 -2.71875 1.21875 -2.351562 1.21875 -1.84375 L 1.21875 0 Z M 0.65625 0 "/></g></g></g><g fill="#000000" fill-opacity="1"><g transform="translate(95.972326, 42.85231)"><g><path d="M 1.5625 0.078125 C 1.1875 0.078125 0.894531 -0.0195312 0.6875 -0.21875 C 0.476562 -0.414062 0.375 -0.691406 0.375 -1.046875 C 0.375 -1.273438 0.421875 -1.460938 0.515625 -1.609375 C 0.609375 -1.765625 0.75 -1.890625 0.9375 -1.984375 C 1.132812 -2.085938 1.390625 -2.164062 1.703125 -2.21875 C 1.972656 -2.257812 2.175781 -2.304688 2.3125 -2.359375 C 2.457031 -2.421875 2.554688 -2.488281 2.609375 -2.5625 C 2.660156 -2.632812 2.6875 -2.722656 2.6875 -2.828125 C 2.6875 -2.992188 2.625 -3.125 2.5 -3.21875 C 2.382812 -3.3125 2.195312 -3.359375 1.9375 -3.359375 C 1.695312 -3.359375 1.488281 -3.3125 1.3125 -3.21875 C 1.132812 -3.125 0.972656 -2.984375 0.828125 -2.796875 L 0.765625 -2.796875 L 0.5 -3.171875 C 0.65625 -3.378906 0.851562 -3.539062 1.09375 -3.65625 C 1.34375 -3.78125 1.625 -3.84375 1.9375 -3.84375 C 2.382812 -3.84375 2.710938 -3.742188 2.921875 -3.546875 C 3.128906 -3.347656 3.234375 -3.078125 3.234375 -2.734375 L 3.234375 -0.734375 C 3.234375 -0.523438 3.320312 -0.421875 3.5 -0.421875 C 3.5625 -0.421875 3.617188 -0.429688 3.671875 -0.453125 L 3.71875 -0.4375 L 3.796875 -0.0625 C 3.753906 -0.03125 3.695312 -0.0078125 3.625 0 C 3.5625 0.0195312 3.492188 0.03125 3.421875 0.03125 C 3.210938 0.03125 3.054688 -0.015625 2.953125 -0.109375 C 2.847656 -0.203125 2.78125 -0.335938 2.75 -0.515625 L 2.671875 -0.515625 C 2.566406 -0.316406 2.421875 -0.164062 2.234375 -0.0625 C 2.054688 0.03125 1.832031 0.078125 1.5625 0.078125 Z M 1.671875 -0.375 C 1.890625 -0.375 2.070312 -0.421875 2.21875 -0.515625 C 2.375 -0.609375 2.492188 -0.742188 2.578125 -0.921875 C 2.660156 -1.097656 2.703125 -1.300781 2.703125 -1.53125 L 2.703125 -2.015625 L 2.640625 -2.03125 C 2.554688 -1.96875 2.453125 -1.914062 2.328125 -1.875 C 2.203125 -1.832031 2.035156 -1.796875 1.828125 -1.765625 C 1.609375 -1.734375 1.429688 -1.6875 1.296875 -1.625 C 1.171875 -1.570312 1.078125 -1.5 1.015625 -1.40625 C 0.960938 -1.3125 0.9375 -1.191406 0.9375 -1.046875 C 0.9375 -0.828125 1 -0.660156 1.125 -0.546875 C 1.257812 -0.429688 1.441406 -0.375 1.671875 -0.375 Z M 1.671875 -0.375 "/></g></g></g><g fill="#000000" fill-opacity="1"><g transform="translate(100.680476, 42.85231)"><g><path d="M 2.546875 -0.59375 L 2.734375 -0.203125 C 2.640625 -0.109375 2.519531 -0.0390625 2.375 0 C 2.226562 0.0507812 2.070312 0.078125 1.90625 0.078125 C 1.1875 0.078125 0.828125 -0.285156 0.828125 -1.015625 L 0.828125 -3.3125 L 0.171875 -3.3125 L 0.171875 -3.78125 L 0.828125 -3.78125 L 0.828125 -4.5625 L 1.390625 -4.65625 L 1.390625 -3.78125 L 2.59375 -3.78125 L 2.59375 -3.3125 L 1.390625 -3.3125 L 1.390625 -1.078125 C 1.390625 -0.640625 1.578125 -0.421875 1.953125 -0.421875 C 2.148438 -0.421875 2.328125 -0.476562 2.484375 -0.59375 Z M 2.546875 -0.59375 "/></g></g></g><g fill="#000000" fill-opacity="1"><g transform="translate(104.360774, 42.85231)"><g><path d="M 1.859375 0.078125 C 1.429688 0.078125 1.113281 -0.0351562 0.90625 -0.265625 C 0.695312 -0.492188 0.59375 -0.828125 0.59375 -1.265625 L 0.59375 -3.765625 L 1.15625 -3.765625 L 1.15625 -1.265625 C 1.15625 -0.691406 1.425781 -0.40625 1.96875 -0.40625 C 2.300781 -0.40625 2.566406 -0.515625 2.765625 -0.734375 C 2.960938 -0.960938 3.0625 -1.328125 3.0625 -1.828125 L 3.0625 -3.765625 L 3.625 -3.765625 L 3.625 0 L 3.09375 0 L 3.09375 -0.59375 L 3.03125 -0.609375 C 2.894531 -0.378906 2.738281 -0.207031 2.5625 -0.09375 C 2.382812 0.0195312 2.148438 0.078125 1.859375 0.078125 Z M 1.859375 0.078125 "/></g></g></g><g fill="#000000" fill-opacity="1"><g transform="translate(109.451376, 42.85231)"><g><path d="M 0.65625 0 L 0.65625 -3.765625 L 1.1875 -3.765625 L 1.1875 -3.171875 L 1.265625 -3.15625 C 1.429688 -3.582031 1.757812 -3.796875 2.25 -3.796875 C 2.507812 -3.796875 2.703125 -3.753906 2.828125 -3.671875 L 2.6875 -3.1875 L 2.609375 -3.171875 C 2.472656 -3.242188 2.320312 -3.28125 2.15625 -3.28125 C 1.851562 -3.28125 1.617188 -3.164062 1.453125 -2.9375 C 1.296875 -2.71875 1.21875 -2.351562 1.21875 -1.84375 L 1.21875 0 Z M 0.65625 0 "/></g></g></g><g fill="#000000" fill-opacity="1"><g transform="translate(113.172647, 42.85231)"><g><path d="M 3.59375 -1.75 L 1 -1.75 C 1.019531 -1.289062 1.128906 -0.953125 1.328125 -0.734375 C 1.535156 -0.523438 1.816406 -0.421875 2.171875 -0.421875 C 2.441406 -0.421875 2.65625 -0.46875 2.8125 -0.5625 C 2.976562 -0.664062 3.109375 -0.816406 3.203125 -1.015625 L 3.28125 -1.015625 L 3.640625 -0.8125 C 3.523438 -0.53125 3.347656 -0.3125 3.109375 -0.15625 C 2.867188 0 2.554688 0.078125 2.171875 0.078125 C 1.804688 0.078125 1.492188 0.00390625 1.234375 -0.140625 C 0.972656 -0.285156 0.769531 -0.503906 0.625 -0.796875 C 0.476562 -1.085938 0.40625 -1.453125 0.40625 -1.890625 C 0.40625 -2.316406 0.476562 -2.675781 0.625 -2.96875 C 0.78125 -3.257812 0.988281 -3.476562 1.25 -3.625 C 1.507812 -3.769531 1.804688 -3.84375 2.140625 -3.84375 C 2.617188 -3.84375 2.992188 -3.707031 3.265625 -3.4375 C 3.535156 -3.164062 3.671875 -2.757812 3.671875 -2.21875 C 3.671875 -2.007812 3.671875 -1.867188 3.671875 -1.796875 Z M 3.125 -2.21875 C 3.113281 -2.625 3.023438 -2.914062 2.859375 -3.09375 C 2.691406 -3.28125 2.453125 -3.375 2.140625 -3.375 C 1.804688 -3.375 1.546875 -3.28125 1.359375 -3.09375 C 1.171875 -2.90625 1.054688 -2.613281 1.015625 -2.21875 Z M 3.125 -2.21875 "/></g></g></g></svg>